# Alias OBJ Model File
# Exported from SketchUp, (c) 2000-2012 Trimble Navigation Limited
# File units = meters

mtllib Periodic_Table_Frame.mtl

g Mesh1 Model

usemtl Color_D08
v 4.79 -0.08 0.05
vt 188.583 -3.14961
vn -1.26001e-15 1.03953e-47 1
v 4.71 0 0.05
vt 185.433 -2.04633e-47
v -0.08 -0.08 0.05
vt -3.14961 -3.14961
f 1/1/1 2/2/1 3/3/1

v 4.79 2.73 0.05
vt 188.583 107.48
f 2/2/1 1/1/1 4/4/1

usemtl BackColor
vn 1.26001e-15 -1.03953e-47 -1
f 3/3/2 2/2/2 1/1/2

usemtl Color_D08
v 0 0 0.05
vt 2.48033e-15 -2.04633e-47
f 5/5/1 3/3/1 2/2/1

v -0.08 2.73 0.05
vt -3.14961 107.48
f 3/3/1 5/5/1 6/6/1

usemtl BackColor
f 6/6/2 5/5/2 3/3/2

usemtl Color_D08
v 0 2.65 0.05
vt 2.48033e-15 104.331
f 6/6/1 5/5/1 7/7/1

usemtl BackColor
f 7/7/2 5/5/2 6/6/2

usemtl Color_D08
v -4.51195e-17 0 -0.05
vt 1.9685 0
vn 1 0 -4.51195e-16
vt -1.9685 104.331
vt -1.9685 0
f 8/8/3 7/9/3 5/10/3

v -4.51195e-17 2.65 -0.05
vt 1.9685 104.331
f 7/9/3 8/8/3 9/11/3

usemtl BackColor
vn -1 -0 4.51195e-16
f 5/10/4 7/9/4 8/8/4

f 9/11/4 8/8/4 7/9/4

usemtl Color_D08
v 4.71 2.65 -0.05
vt -185.433 1.9685
vn 0 -1 -0
vt 0 -1.9685
vt 1.77636e-15 1.9685
f 10/12/5 7/13/5 9/14/5

v 4.71 2.65 0.05
vt -185.433 -1.9685
f 7/13/5 10/12/5 11/15/5

usemtl BackColor
vn -0 1 0
f 9/14/6 7/13/6 10/12/6

f 11/15/6 10/12/6 7/13/6

usemtl Color_D08
vn -1 0 7.21911e-14
f 10/9/7 2/8/7 11/11/7

v 4.71 0 -0.05
f 2/8/7 10/9/7 12/10/7

usemtl BackColor
vn 1 -0 -7.21911e-14
f 11/11/8 2/8/8 10/9/8

usemtl Color_D08
vt 185.433 104.331
f 2/2/1 4/4/1 11/16/1

usemtl BackColor
f 4/4/2 1/1/2 2/2/2

usemtl Color_D08
v 4.79 -0.08 -0.05
vt 1.9685 -3.14961
vn 1 0 -1.44382e-14
vt -1.9685 107.48
vt -1.9685 -3.14961
f 13/17/9 4/18/9 1/19/9

v 4.79 2.73 -0.05
vt 1.9685 107.48
f 4/18/9 13/17/9 14/20/9

usemtl BackColor
vn -1 -0 1.44382e-14
f 1/19/10 4/18/10 13/17/10

f 14/20/10 13/17/10 4/18/10

usemtl Color_D08
vt 188.583 1.9685
vn 0 1 -0
vt -3.14961 -1.9685
vt 188.583 -1.9685
f 14/21/11 6/22/11 4/23/11

v -0.08 2.73 -0.05
vt -3.14961 1.9685
f 6/22/11 14/21/11 15/24/11

usemtl BackColor
vn -0 -1 0
f 15/24/12 14/21/12 6/22/12

f 4/23/12 6/22/12 14/21/12

usemtl Color_D08
f 6/6/1 7/7/1 4/4/1

usemtl BackColor
f 4/4/2 7/7/2 6/6/2

usemtl Color_D08
f 11/16/1 4/4/1 7/7/1

usemtl BackColor
f 11/16/2 4/4/2 2/2/2

f 7/7/2 4/4/2 11/16/2

usemtl Color_D08
vn -1 0 9.02389e-16
f 15/18/13 3/17/13 6/20/13

v -0.08 -0.08 -0.05
f 3/17/13 15/18/13 16/19/13

usemtl BackColor
vn 1 -0 -9.02389e-16
f 6/20/14 3/17/14 15/18/14

f 16/19/14 15/18/14 3/17/14

usemtl Color_D08
vt -188.583 1.9685
vt 3.14961 -1.9685
vt 3.14961 1.9685
f 13/25/5 3/26/5 16/27/5

vt -188.583 -1.9685
f 3/26/5 13/25/5 1/28/5

usemtl BackColor
f 16/27/6 3/26/6 13/25/6

f 1/28/6 13/25/6 3/26/6

f 12/10/8 10/9/8 2/8/8

usemtl Color_D08
vt 185.433 1.9685
vt 185.433 -1.9685
f 12/29/11 5/13/11 2/30/11

vt -1.77636e-15 1.9685
f 5/13/11 12/29/11 8/31/11

usemtl BackColor
f 8/31/12 12/29/12 5/13/12

f 2/30/12 5/13/12 12/29/12

f 2/2/2 3/3/2 5/5/2

g Mesh2 Model

l 10 9

l 12 10

l 8 12

l 9 8

l 9 7

l 7 5

l 11 7

l 2 11

l 5 2

l 8 5

l 12 2

l 10 11

g Mesh3 Model

l 16 13

l 15 16

l 14 15

l 13 14

l 13 1

l 1 4

l 3 1

l 6 3

l 4 6

l 14 4

l 15 6

l 16 3

