# Alias OBJ Model File
# Exported from SketchUp, (c) 2000-2012 Trimble Navigation Limited
# File units = meters

mtllib Erlenmeyer_Normal_Stopper.mtl

g Mesh1 Model

usemtl Color_M08
v -0.0251316 0.334 0.0251641
vt -0.989432 -0.990713
vn 0 1 -0
v -0.0251316 0.334 -0.0251285
vt -0.989432 0.98931
v -0.0355322 0.334 1.78187e-05
vt -1.3989 -0.000701523
f 1/1/1 2/2/1 3/3/1

v -2.76809e-05 0.334 0.0355778
vt -0.0010898 -1.4007
f 2/2/1 1/1/1 4/4/1

usemtl BackColor
vn -0 -1 0
f 3/3/2 2/2/2 1/1/2

usemtl Color_M08
v -0.0224648 0.299 -0.0224644
vt -0.479246 11.8282
vn -0.919538 -0.0990118 -0.380323
vt 0.535311 13.213
vt -0.536038 13.213
f 5/5/3 3/6/3 2/7/3

v -0.0317635 0.299 1.78187e-05
vt 0.478603 11.8282
f 3/6/3 5/5/3 6/8/3

usemtl BackColor
vn 0.919538 0.0990118 0.380323
f 6/8/4 5/5/4 3/6/4

usemtl Color_M08
v -0.0211476 0.279042 -0.0211213
vt -0.450201 11.0387
vn -0.920625 -0.0863855 -0.380773
vt 0.478603 11.8275
vt -0.479246 11.8275
f 7/9/5 6/10/5 5/11/5

v -0.0299062 0.279043 5.4779e-05
vt 0.452 11.0388
f 6/10/5 7/9/5 8/12/5

usemtl BackColor
vn 0.920625 0.0863855 0.380773
f 8/12/6 7/9/6 6/10/6

usemtl Color_M08
vt 0.83251 0.831855
vn 6.49045e-06 -1 -2.81066e-05
v -0.0211476 0.279042 0.0212308
vt 0.83251 -0.835551
vt 1.17734 -0.00184788
f 7/13/7 9/14/7 8/15/7

v 9.22348e-06 0.279044 -0.0298979
vt -0.000434433 1.17739
f 9/14/7 7/13/7 10/16/7

usemtl BackColor
vn -6.49045e-06 1 2.81066e-05
f 8/15/8 9/14/8 7/13/8

usemtl Color_M08
vt 0.454187 11.0387
vn -0.920736 -0.0849853 0.380819
vt -0.477307 11.8273
vt -0.448014 11.0387
f 9/17/9 6/18/9 8/19/9

v -0.0224648 0.299 0.0225001
vt 0.480543 11.8273
f 6/18/9 9/17/9 11/20/9

usemtl BackColor
vn 0.920736 0.0849853 -0.380819
f 11/20/10 9/17/10 6/18/10

usemtl Color_M08
vt -0.448765 11.0387
vn -0.38182 -0.0837344 0.920436
v -2.76809e-05 0.299 0.0318076
vt 0.478819 11.8272
vt -0.47752 11.8272
f 9/21/11 12/22/11 11/23/11

v 9.22971e-06 0.27904 0.0300071
vt 0.453001 11.0386
f 12/22/11 9/21/11 13/24/11

usemtl BackColor
vn 0.38182 0.0837344 -0.920436
f 13/24/12 9/21/12 12/22/12

usemtl Color_M08
vt -0.000434677 -1.18107
f 9/14/7 10/16/7 13/25/7

usemtl BackColor
f 10/16/8 7/13/8 9/14/8

usemtl Color_M08
vt 0.478057 11.8276
vn -0.381709 -0.0871183 -0.920168
vt -0.451352 11.0389
vt 0.450418 11.0388
f 5/26/13 10/27/13 7/28/13

v -2.76809e-05 0.299 -0.0317719
vt -0.478281 11.8276
f 10/27/13 5/26/13 14/29/13

usemtl BackColor
vn 0.381709 0.0871183 0.920168
f 7/28/14 10/27/14 5/26/14

f 14/29/14 5/26/14 10/27/14

usemtl Color_M08
vt 0.534849 13.213
vn -0.381283 -0.0990118 -0.919141
vt -0.478281 11.8282
vt 0.478057 11.8282
f 2/30/15 14/31/15 5/32/15

v -2.76809e-05 0.334 -0.0355422
vt -0.535157 13.213
f 14/31/15 2/30/15 15/33/15

usemtl BackColor
vn 0.381283 0.0990118 0.919141
f 5/32/16 14/31/16 2/30/16

f 15/33/16 2/30/16 14/31/16

usemtl Color_M08
vt -0.0010898 1.3993
f 2/2/1 4/4/1 15/34/1

usemtl BackColor
f 4/4/2 1/1/2 2/2/2

usemtl Color_M08
vt -0.47752 11.8284
vn -0.381283 -0.0990118 0.919141
vt 0.535694 13.2131
vt -0.534311 13.2131
f 11/35/17 4/36/17 1/37/17

vt 0.478819 11.8284
f 4/36/17 11/35/17 12/38/17

usemtl BackColor
vn 0.381283 0.0990118 -0.919141
f 12/38/18 11/35/18 4/36/18

f 11/23/12 12/22/12 9/21/12

f 1/37/18 4/36/18 11/35/18

usemtl Color_M08
vt -0.534015 13.213
vn -0.919538 -0.0990118 0.380323
vt 0.480543 11.8283
vt 0.537334 13.213
f 3/39/19 11/40/19 1/41/19

vt -0.477307 11.8283
f 11/40/19 3/39/19 6/42/19

usemtl BackColor
vn 0.919538 0.0990118 -0.380323
f 1/41/20 11/40/20 3/39/20

f 6/42/20 3/39/20 11/40/20

usemtl Color_M08
vt -0.480832 11.8283
vn 0.381283 -0.0990118 0.919141
v 0.0250762 0.334 0.0251641
vt 0.532298 13.2131
vt -0.537708 13.2131
f 12/43/21 16/44/21 4/45/21

v 0.0224094 0.299 0.0225001
vt 0.475506 11.8283
f 16/44/21 12/43/21 17/46/21

usemtl BackColor
vn -0.381283 0.0990118 -0.919141
f 17/46/22 12/43/22 16/44/22

usemtl Color_M08
vt -0.480832 11.8269
vn 0.381865 -0.0823318 0.920544
v 0.021166 0.279042 0.0212308
vt 0.449436 11.0385
vt 0.475506 11.8269
f 12/47/23 18/48/23 17/49/23

vt -0.452329 11.0384
f 18/48/23 12/47/23 13/50/23

usemtl BackColor
vn -0.381865 0.0823318 -0.920544
f 13/50/24 12/47/24 18/48/24

f 17/49/24 18/48/24 12/47/24

usemtl Color_M08
vt -0.453909 11.0382
vn 0.920997 -0.0816031 0.380927
v 0.0317081 0.299 1.78187e-05
vt 0.476474 11.8266
vt -0.481376 11.8266
f 18/51/25 19/52/25 17/53/25

v 0.0299247 0.279044 5.47776e-05
vt 0.448293 11.0382
f 19/52/25 18/51/25 20/54/25

usemtl BackColor
vn -0.920997 0.0816031 -0.380927
f 17/53/26 19/52/26 18/51/26

usemtl Color_M08
v 0.0354768 0.334 1.78187e-05
vt 0.533182 13.2128
vn 0.919538 -0.0990118 0.380323
vt -0.481376 11.8281
vt 0.476474 11.8281
f 21/55/27 17/56/27 19/57/27

vt -0.538167 13.2128
f 17/56/27 21/55/27 16/58/27

usemtl BackColor
vn -0.919538 0.0990118 -0.380323
f 16/58/28 21/55/28 17/56/28

usemtl Color_M08
v 0.0250762 0.334 -0.0251285
vt 0.987253 0.98931
vt 0.987253 -0.990713
vt 1.39672 -0.000701523
f 22/59/1 16/60/1 21/61/1

f 15/34/1 16/60/1 22/59/1

f 15/34/1 4/4/1 16/60/1

usemtl BackColor
f 15/34/2 4/4/2 2/2/2

f 16/60/2 4/4/2 15/34/2

f 4/45/22 16/44/22 12/43/22

f 22/59/2 16/60/2 15/34/2

f 21/61/2 16/60/2 22/59/2

usemtl Color_M08
vt -0.47777 11.828
vn 0.919538 -0.0990118 -0.380323
vt 0.536871 13.2128
vt -0.534478 13.2128
f 19/62/29 22/63/29 21/64/29

v 0.0224094 0.299 -0.0224644
vt 0.480079 11.828
f 22/63/29 19/62/29 23/65/29

usemtl BackColor
vn -0.919538 0.0990118 0.380323
f 21/64/30 22/63/30 19/62/30

f 23/65/30 19/62/30 22/63/30

usemtl Color_M08
vt -0.47777 11.8268
vn 0.92089 -0.0830044 -0.380883
v 0.021166 0.279042 -0.0211213
vt 0.449923 11.0383
vt 0.480079 11.8268
f 19/66/31 24/67/31 23/68/31

vt -0.452279 11.0384
f 24/67/31 19/66/31 20/69/31

usemtl BackColor
vn -0.92089 0.0830044 0.380883
f 20/69/32 19/66/32 24/67/32

f 20/54/26 18/51/26 19/52/26

usemtl Color_M08
vt -0.833379 -0.835551
vt -0.833379 0.831855
vt -1.17821 -0.00184782
f 18/70/7 24/71/7 20/72/7

f 13/25/7 24/71/7 18/70/7

f 13/25/7 10/16/7 24/71/7

usemtl BackColor
f 13/25/8 10/16/8 9/14/8

f 24/71/8 10/16/8 13/25/8

usemtl Color_M08
vt 0.450682 11.0388
vn 0.381755 -0.085717 -0.92028
vt -0.476044 11.8273
vt -0.451089 11.0387
f 10/73/33 23/74/33 24/75/33

vt 0.480295 11.8273
f 23/74/33 10/73/33 14/76/33

usemtl BackColor
vn -0.381755 0.085717 0.92028
f 24/75/34 23/74/34 10/73/34

f 23/68/32 24/67/32 19/66/32

f 14/76/34 10/73/34 23/74/34

usemtl Color_M08
vt 0.53717 13.2129
vn 0.381283 -0.0990118 -0.919141
vt -0.476044 11.8282
vt 0.480295 11.8282
f 15/77/35 23/78/35 14/79/35

vt -0.532836 13.2129
f 23/78/35 15/77/35 22/80/35

usemtl BackColor
vn -0.381283 0.0990118 0.919141
f 14/79/36 23/78/36 15/77/36

f 22/80/36 15/77/36 23/78/36

f 18/70/8 24/71/8 13/25/8

f 20/72/8 24/71/8 18/70/8

f 19/57/28 17/56/28 21/55/28

f 2/7/4 3/6/4 5/5/4

f 5/11/6 6/10/6 7/9/6

f 8/19/10 6/18/10 9/17/10

g Mesh2 Model

l 17 19

l 17 16

l 18 17

l 18 20

l 13 18

l 13 12

l 9 13

l 9 11

l 8 9

l 8 6

l 7 8

l 7 5

l 10 7

l 10 14

l 24 10

l 23 24

l 19 23

l 21 19

l 16 21

l 4 16

l 1 4

l 3 1

l 2 3

l 15 2

l 22 15

l 21 22

l 23 22

l 23 14

l 14 5

l 14 15

l 5 6

l 5 2

l 6 11

l 6 3

l 11 12

l 11 1

l 12 4

l 12 17

l 19 20

l 20 24

