# Alias OBJ Model File
# Exported from SketchUp, (c) 2000-2012 Trimble Navigation Limited
# File units = meters

mtllib Erlenmeyer_Normal_Stopper.mtl

g Mesh1 Model

usemtl Color_M07
v 0.0128498 0.0896239 -0.0128806
vt 0.272979 3.58697
vn -0.379214 0.143251 0.914153
v -1.38404e-05 0.07475 -0.015886
vt -0.240147 2.99529
v 0.0112047 0.07475 -0.0112322
vt 0.238022 2.99529
f 1/1/1 2/2/1 3/3/1

vn 0.379214 -0.143251 -0.914153
f 3/3/2 2/2/2 1/1/2

vt -0.240147 2.999
vn -0.376351 0.187761 0.907252
v -1.38404e-05 0.06475 -0.0138164
vt -0.208927 2.59817
vt 0.238022 2.999
f 2/4/3 4/5/3 3/6/3

v -0.0112324 0.07475 -0.0112322
vt -0.239029 2.99908
vn 0.376351 0.187761 0.907252
vt 0.207921 2.59825
vt 0.239141 2.99908
f 5/7/4 4/8/4 2/9/4

vn -0.376351 -0.187761 -0.907252
f 2/9/5 4/8/5 5/7/5

vn 0.376351 -0.187761 -0.907252
f 3/6/6 4/5/6 2/4/6

vt 0.2627 2.99336
vn -0.339576 0.140624 0.930007
vt -0.187079 2.59571
v 0.0100987 0.06475 -0.010124
vt 0.236762 2.59571
f 3/10/7 4/11/7 6/12/7

vn 0.339576 -0.140624 -0.930007
f 6/12/8 4/11/8 3/10/8

vt -0.397587 0.398582
vn 0 -1 -0
v -1.38404e-05 0.06475 8.90934e-06
vt 0.000544899 -0.000350761
vt 0.000544899 0.543953
f 6/13/9 7/14/9 4/15/9

v 0.0136935 0.06475 8.90934e-06
vt 0.539113 -0.000350761
vn 0 1 -0
vt 0.397587 0.398582
vt -0.000544899 -0.000350761
f 8/16/10 6/17/10 7/18/10

vn -0 -1 0
f 7/18/11 6/17/11 8/16/11

vn -0 1 0
f 4/15/12 7/14/12 6/13/12

v -0.0101264 0.06475 -0.010124
vt 0.398676 0.398582
f 7/14/9 9/19/9 4/15/9

f 4/15/12 9/19/12 7/14/12

vt -0.263724 2.99341
vn 0.339576 0.140624 0.930007
vt -0.237786 2.59576
vt 0.186055 2.59576
f 5/20/13 9/21/13 4/22/13

vt 0.252687 2.99428
vn 0.923114 0.141713 0.357461
v -0.0140502 0.06475 8.90934e-06
vt -0.200075 2.59657
vt 0.227723 2.59657
f 5/23/14 10/24/14 9/25/14

vt 0.239623 2.99805
vn 0.911121 0.166878 0.376842
v -0.0158818 0.07475 8.90934e-06
vt -0.239302 2.99805
vt -0.211742 2.59875
f 5/26/15 11/27/15 10/28/15

v -0.0128762 0.0896127 -0.0128794
vt 0.274813 3.58651
vn 0.914572 0.143074 0.378269
vt -0.239302 2.99528
vt 0.239623 2.99528
f 12/29/16 11/30/16 5/31/16

vn -0.914572 -0.143074 -0.378269
f 5/31/17 11/30/17 12/29/17

vn -0.911121 -0.166878 -0.376842
f 10/28/18 11/27/18 5/26/18

vt 0.211093 2.59879
vn 0.911121 0.166878 -0.376842
vt 0.238653 2.99809
v -0.0112324 0.07475 0.01125
vt -0.240271 2.99809
f 10/32/19 11/33/19 13/34/19

vn -0.911121 -0.166878 0.376842
f 13/34/20 11/33/20 10/32/20

vt 0.238653 2.99203
vn 0.916855 0.124796 -0.379214
v -0.0121859 0.0846585 0.0122055
vt -0.260683 3.3852
vt -0.240271 2.99203
f 11/35/21 14/36/21 13/37/21

v -0.0126627 0.0896127 0.0126832
vt -0.270889 3.58179
f 14/36/21 11/35/21 15/38/21

vn -0.916855 -0.124796 0.379214
f 15/38/22 11/35/22 14/36/22

vt 0.265075 2.99591
vn 0.893252 0.163605 -0.418729
v -0.018604 0.0896127 8.90934e-06
vt 0.310565 3.58905
vt -0.240527 3.58905
f 11/39/23 16/40/23 15/41/23

vt 0.257488 3.59012
vn 0.901285 0.165077 0.400544
vt -0.297776 3.59012
vt -0.254251 2.99684
f 12/42/24 16/43/24 11/44/24

vn -0.901285 -0.165077 -0.400544
f 11/44/25 16/43/25 12/42/25

vn -0.893252 -0.163605 0.418729
f 15/41/26 16/40/26 11/39/26

v 0.0190677 0.0896239 8.90934e-06
vt -0.751411 -0.000422334
vn 0.000202223 -1 2.0285e-05
vt 0.497816 -0.49941
vt 0.731726 -0.000422331
f 17/45/27 15/46/27 16/47/27

v -1.38404e-05 0.0896239 0.017845
vt -0.000168643 -0.702632
f 15/46/27 17/45/27 18/48/27

vn -0.000202223 1 -2.0285e-05
f 16/47/28 15/46/28 17/45/28

f 18/48/28 17/45/28 15/46/28

v 0.0128485 0.0896127 0.0128972
vt -0.506562 -0.507835
f 18/48/27 17/45/27 19/49/27

f 19/49/28 17/45/28 18/48/28

v 0.0158541 0.07475 8.90934e-06
vt -0.270862 2.99614
vn -0.884107 0.19102 -0.426457
vt 0.237569 3.59227
vt -0.32583 3.59271
f 20/50/29 19/51/29 17/52/29

vt -0.238237 2.99518
vn -0.914572 0.143074 -0.378269
v 0.0112047 0.07475 0.01125
vt 0.240688 2.99518
vt 0.275877 3.58641
f 20/53/30 21/54/30 19/55/30

vn 0.914572 -0.143074 0.378269
f 19/55/31 21/54/31 20/53/31

vt -0.272684 3.58662
vn -0.379214 0.143251 -0.914153
vt -0.237753 2.99538
v -1.38404e-05 0.07475 0.0159038
vt 0.240416 2.99538
f 19/56/32 21/57/32 22/58/32

vn 0.379214 -0.143251 0.914153
f 22/58/33 21/57/33 19/56/33

vt -0.237753 2.99095
vn -0.380411 0.119688 -0.91704
v -1.38404e-05 0.06475 0.0145986
vt 0.220727 2.5944
vt 0.240416 2.99095
f 21/59/34 23/60/34 22/61/34

vn 0.380411 -0.119688 0.91704
f 22/61/35 23/60/35 21/59/35

vt -0.239409 2.991
vn 0.380411 0.119688 -0.91704
vt -0.219721 2.59445
vt 0.23876 2.991
f 22/62/36 23/63/36 13/64/36

vn -0.380411 -0.119688 0.91704
f 13/64/37 23/63/37 22/62/37

vt 0.235957 2.99234
vn 0.384582 0.125196 -0.914562
vt -0.222289 2.59551
v -0.0102701 0.06475 0.0102858
vt 0.215748 2.59551
f 13/65/38 23/66/38 24/67/38

vn -0.384582 -0.125196 0.914562
f 24/67/39 23/66/39 13/65/39

vt 0.000544899 -0.574749
vt 0.404334 -0.404952
f 7/14/9 23/68/9 24/69/9

f 24/69/12 23/68/12 7/14/12

v 0.0100987 0.06475 0.0101418
vt -0.397587 -0.399284
f 25/70/9 23/68/9 7/14/9

f 7/14/12 23/68/12 25/70/12

vt -0.225041 2.9963
vn -0.399061 0.144484 -0.905469
vt -0.202792 2.59842
vt 0.232291 2.59842
f 21/71/40 25/72/40 23/73/40

vt -0.17992 2.59524
vn -0.933182 0.1399 -0.331058
vt 0.243374 2.59524
vt 0.269935 2.99285
f 8/74/41 25/75/41 21/76/41

vt 0.397587 -0.399284
f 8/16/10 7/18/10 25/77/10

f 25/77/11 7/18/11 8/16/11

vn 0.933182 -0.1399 0.331058
f 21/76/42 25/75/42 8/74/42

vn 0.399061 -0.144484 0.905469
f 23/73/43 25/72/43 21/71/43

vt -0.205726 2.59744
vn -0.906194 0.195792 -0.374804
vt 0.240688 2.99891
vt -0.238237 2.99891
f 8/78/44 21/79/44 20/80/44

vn 0.906194 -0.195792 0.374804
f 20/80/45 21/79/45 8/78/45

vt -0.24004 2.99886
vn -0.906194 0.195792 0.374804
vt 0.206374 2.59739
vt 0.238885 2.99886
f 3/81/46 8/82/46 20/83/46

vn 0.906194 -0.195792 -0.374804
f 20/83/47 8/82/47 3/81/47

vt -0.269274 2.99282
vn -0.933182 0.1399 0.331058
vt -0.242712 2.59521
vt 0.180581 2.59521
f 3/84/48 6/85/48 8/86/48

vn 0.933182 -0.1399 -0.331058
f 8/86/49 6/85/49 3/84/49

vt -0.275255 3.58681
vn -0.914572 0.143074 0.378269
vt -0.24004 2.99514
vt 0.238885 2.99514
f 1/87/50 3/88/50 20/89/50

vn 0.914572 -0.143074 -0.378269
f 20/89/51 3/88/51 1/87/51

vt -0.236935 3.59265
vn -0.884092 0.191017 0.426489
vt 0.271514 2.99608
vt 0.326486 3.59265
f 1/90/52 20/91/52 17/92/52

vn 0.884092 -0.191017 -0.426489
f 17/92/53 20/91/53 1/90/53

vn 0.884107 -0.19102 0.426457
f 17/52/54 19/51/54 20/50/54

vt -0.751893 -0.00100755
vn 0.000338887 -1 0.000186152
v -1.38404e-05 0.0896127 -0.0189619
vt -0.000650716 0.745875
vt -0.507092 0.506453
f 17/93/55 26/94/55 1/95/55

vt 0.505742 0.506405
f 17/93/55 12/96/55 26/94/55

vt 0.731244 -0.00100756
f 12/96/55 17/93/55 16/97/55

vn -0.000338887 1 -0.000186152
f 16/97/56 17/93/56 12/96/56

f 26/94/56 12/96/56 17/93/56

vt -0.241509 3.59204
vn 0.420211 0.183901 0.888596
vt 0.266881 2.99674
vt 0.318651 3.59204
f 12/98/57 2/99/57 26/100/57

vt -0.27396 3.58659
vn 0.379214 0.143251 0.914153
vt -0.239029 2.99535
vt 0.239141 2.99535
f 12/101/58 5/102/58 2/103/58

vn -0.379214 -0.143251 -0.914153
f 2/103/59 5/102/59 12/101/59

vn -0.420211 -0.183901 -0.888596
f 26/100/60 2/99/60 12/98/60

vt 0.240526 3.5924
vn -0.420239 0.183898 0.888584
vt -0.319657 3.59195
vt -0.267883 2.99665
f 1/104/61 26/105/61 2/106/61

vn 0.420239 -0.183898 -0.888584
f 2/106/62 26/105/62 1/104/62

f 1/95/56 26/94/56 17/93/56

vt 0.553157 -0.000350761
f 7/14/9 24/69/9 10/107/9

f 10/107/12 24/69/12 7/14/12

vt 0.190628 2.59366
vn 0.931436 0.12267 -0.342607
vt -0.263026 2.99036
vt -0.240476 2.59366
f 10/108/63 13/109/63 24/110/63

vn -0.931436 -0.12267 0.342607
f 24/110/64 13/109/64 10/108/64

f 7/14/9 10/107/9 9/19/9

f 9/19/12 10/107/12 7/14/12

vn -0.923114 -0.141713 -0.357461
f 9/25/65 10/24/65 5/23/65

vn -0.339576 -0.140624 -0.930007
f 4/22/66 9/21/66 5/20/66

vt 0.259022 3.38532
vn 0.380163 0.124952 -0.916441
vt -0.239409 2.99214
vt 0.23876 2.99214
f 14/111/67 22/112/67 13/113/67

vt 0.269153 3.58191
f 22/112/67 14/111/67 15/114/67

vn -0.380163 -0.124952 0.916441
f 13/113/68 22/112/68 14/111/68

f 15/114/68 14/111/68 22/112/68

vt 0.272969 3.58064
vn 0.37502 0.119972 -0.919221
v -1.38404e-05 0.0846659 0.017198
vt -0.255263 3.38447
vt -0.236016 2.99124
f 15/115/69 27/116/69 22/117/69

vt -0.264886 3.58108
f 27/116/69 15/115/69 18/118/69

vn -0.37502 -0.119972 0.919221
f 22/117/70 27/116/70 15/115/70

vt 0.24354 3.38524
vn -0.356303 0.120924 -0.926512
vt -0.289884 3.58144
vt 0.225251 2.99196
f 27/119/71 19/120/71 22/121/71

vt 0.252684 3.58188
f 19/120/71 27/119/71 18/122/71

vn 0.356303 -0.120924 0.926512
f 22/121/72 19/120/72 27/119/72

f 18/122/72 27/119/72 19/120/72

f 18/118/70 15/115/70 27/116/70

f 13/37/22 14/36/22 11/35/22

g Mesh2 Model

l 21 20

l 22 21

l 13 22

l 11 13

l 5 11

l 2 5

l 3 2

l 20 3

l 20 8

l 20 17

l 19 20

l 21 19

l 21 25

l 8 21

l 8 7

l 25 8

l 25 7

l 25 23

l 23 7

l 23 22

l 23 24

l 21 23

l 23 13

l 13 24

l 14 13

l 15 14

l 18 15

l 27 18

l 22 27

l 22 15

l 22 19

l 19 18

l 17 19

l 1 17

l 3 1

l 3 6

l 4 3

l 4 7

l 2 4

l 2 26

l 1 2

l 26 1

l 26 12

l 5 12

l 5 9

l 10 5

l 10 7

l 11 10

l 11 16

l 11 12

l 11 15

l 16 15

l 12 16

l 2 12

l 17 16

l 9 10

l 9 7

l 9 4

l 6 4

l 6 7

l 8 6

l 3 8

v -1.38404e-05 0.07475 8.90934e-06
l 28 7

l 24 7

l 24 10

l 13 10

l 5 4

l 20 1

