# Alias OBJ Model File
# Exported from SketchUp, (c) 2000-2012 Trimble Navigation Limited
# File units = meters

mtllib Stopper_Holed.mtl

g Mesh1 Model

usemtl Color_M08
v -0.00919345 -0.01 -0.00530784
vt 0.361947 0.20897
vn 0 -1 -0
v -0.00199502 -0.01 -0.00668346
vt 0.0785439 0.263128
v -0.00432258 -0.01 0.00302288
vt 0.17018 -0.119011
f 1/1/1 2/2/1 3/3/1

v 2.81997e-18 -0.01 -0.0106157
vt -1.11022e-16 0.41794
f 2/2/1 1/1/1 4/4/1

usemtl BackColor
vn -0 1 0
f 3/3/2 2/2/2 1/1/2

usemtl Color_M08
v -0.00182258 -0.01 -0.00130725
vt 0.0717551 0.0514665
f 2/2/1 5/5/1 3/3/1

v -0.00189699 -0.01 -0.00364289
vt 0.0746848 0.143421
f 5/5/1 2/2/1 6/6/1

usemtl BackColor
f 3/3/2 5/5/2 2/2/2

usemtl Color_M08
vt 0.00869376 -0.393701
vn 0.866025 0 0.5
v -0.00432258 0.01 0.00302288
vt -0.188157 0.393701
vt -0.188157 -0.393701
f 5/7/3 7/8/3 3/9/3

v -0.00182258 0.01 -0.00130725
vt 0.00869376 0.393701
f 7/8/3 5/7/3 8/10/3

usemtl BackColor
vn -0.866025 -0 -0.5
f 3/9/4 7/8/4 5/7/4

usemtl Color_M08
v -0.00182258 0.01 0.00735301
vt -0.214827 0.393701
vn 0.866025 0 -0.5
vt -0.0179764 -0.393701
vt -0.0179764 0.393701
f 9/11/5 3/12/5 7/13/5

v -0.00182258 -0.01 0.00735301
vt -0.214827 -0.393701
f 3/12/5 9/11/5 10/14/5

usemtl BackColor
vn -0.866025 -0 0.5
f 10/14/6 9/11/6 3/12/6

usemtl Color_M08
vt 0.0717551 0.393701
vn -5.63993e-16 0 -1
v 0.00317742 -0.01 0.00735301
vt -0.125095 -0.393701
vt 0.0717551 -0.393701
f 9/15/7 11/16/7 10/17/7

v 0.00317742 0.01 0.00735301
vt -0.125095 0.393701
f 11/16/7 9/15/7 12/18/7

usemtl BackColor
vn 5.63993e-16 -0 1
f 10/17/8 11/16/8 9/15/8

usemtl Color_M08
v -5.99243e-18 -0.01 0.0106157
vt 2.35922e-16 -0.41794
vt 0.0717551 -0.289488
vt -0.125095 -0.289488
f 13/19/1 10/20/1 11/21/1

f 13/19/1 3/3/1 10/20/1

f 13/19/1 1/1/1 3/3/1

v -0.00919345 -0.01 0.00530784
vt 0.361947 -0.20897
f 1/1/1 13/19/1 14/22/1

usemtl BackColor
f 14/22/2 13/19/2 1/1/2

usemtl Color_M08
v -6.34492e-18 0 0.011547
vt 0.227303 0.0316512
vn -0.498382 -0.080394 0.863222
vt -0.20897 -0.363328
vt 0.20897 -0.363328
f 15/23/9 14/24/9 13/25/9

v -0.01 0 0.0057735
vt -0.227303 0.0316512
f 14/24/9 15/23/9 16/26/9

usemtl BackColor
vn 0.498382 0.080394 -0.863222
f 13/25/10 14/24/10 15/23/10

f 16/26/10 15/23/10 14/24/10

usemtl Color_M08
v -7.04992e-18 0.01 0.0133669
vt 0.263128 0.459855
vn -0.493903 -0.155687 0.855466
vt -0.227303 0.061294
vt 0.227303 0.061294
f 17/27/11 16/28/11 15/29/11

v -0.0115761 0.01 0.00668346
vt -0.263128 0.459855
f 16/28/11 17/27/11 18/30/11

usemtl BackColor
vn 0.493903 0.155687 -0.855466
f 15/29/12 16/28/12 17/27/12

f 18/30/12 17/27/12 16/28/12

usemtl Color_M08
vt -2.77556e-16 -0.526256
vn 0 1 -0
v -0.0115761 0.01 -0.00668346
vt -0.455751 0.263128
vt -0.455751 -0.263128
f 17/31/13 19/32/13 18/33/13

vt -0.17018 -0.119011
f 19/32/13 17/31/13 7/34/13

usemtl BackColor
vn -0 -1 0
f 18/33/14 19/32/14 17/31/14

usemtl Color_M08
vn -0.987806 -0.155687 -5.04993e-16
f 19/30/15 16/29/15 18/27/15

v -0.01 0 -0.0057735
f 16/29/15 19/30/15 20/28/15

usemtl BackColor
vn 0.987806 0.155687 5.04993e-16
f 18/27/16 16/29/16 19/30/16

f 20/28/16 19/30/16 16/29/16

usemtl Color_M08
vn -0.493903 -0.155687 -0.855466
v 2.81997e-18 0 -0.011547
f 19/27/17 21/28/17 20/29/17

v 2.99621e-18 0.01 -0.0133669
f 21/28/17 19/27/17 22/30/17

usemtl BackColor
vn 0.493903 0.155687 0.855466
f 20/29/18 21/28/18 19/27/18

usemtl Color_M08
vn -0.498382 -0.080394 -0.863222
f 4/24/19 20/23/19 21/26/19

f 20/23/19 4/24/19 1/25/19

usemtl BackColor
vn 0.498382 0.080394 0.863222
f 1/25/20 4/24/20 20/23/20

f 4/4/2 1/1/2 2/2/2

usemtl Color_M08
v 0.000589177 -0.01 -0.00828863
vt -0.0231959 0.326324
f 2/2/1 4/4/1 23/35/1

usemtl BackColor
f 23/35/2 4/4/2 2/2/2

usemtl Color_M08
v 0.00919345 -0.01 -0.00530784
vt -0.361947 0.20897
f 23/35/1 4/4/1 24/36/1

usemtl BackColor
f 24/36/2 4/4/2 23/35/2

usemtl Color_M08
vn 0.498382 -0.080394 -0.863222
f 21/23/21 24/24/21 4/25/21

v 0.01 0 -0.0057735
f 24/24/21 21/23/21 25/26/21

usemtl BackColor
vn -0.498382 0.080394 0.863222
f 4/25/22 24/24/22 21/23/22

f 25/26/22 21/23/22 24/24/22

usemtl Color_M08
vn 0.493903 -0.155687 -0.855466
f 22/27/23 25/28/23 21/29/23

v 0.0115761 0.01 -0.00668346
f 25/28/23 22/27/23 26/30/23

usemtl BackColor
vn -0.493903 0.155687 0.855466
f 21/29/24 25/28/24 22/27/24

f 26/30/24 22/27/24 25/28/24

usemtl Color_M08
vt 1.17961e-16 0.526256
v 0.000589177 0.01 -0.00828863
vt 0.0231959 0.326324
vt 0.455751 0.263128
f 22/37/13 27/38/13 26/39/13

v -0.00199502 0.01 -0.00668346
vt -0.0785439 0.263128
f 22/37/13 28/40/13 27/38/13

f 19/32/13 28/40/13 22/37/13

f 28/40/13 19/32/13 7/34/13

usemtl BackColor
f 22/37/14 28/40/14 19/32/14

f 27/38/14 28/40/14 22/37/14

usemtl Color_M08
vt 0.072118 -0.393701
vn 0.527645 0 0.849465
vt 0.191887 0.393701
vt 0.072118 0.393701
f 2/41/25 27/42/25 28/43/25

vt 0.191887 -0.393701
f 27/42/25 2/41/25 23/44/25

usemtl BackColor
vn -0.527645 -0 -0.849465
f 23/44/26 2/41/26 27/42/26

f 28/43/26 27/42/26 2/41/26

usemtl Color_M08
v -0.00189699 0.01 -0.00364289
vt 0.145753 0.393701
vn 0.999481 0 -0.0322217
vt 0.265522 -0.393701
vt 0.265522 0.393701
f 29/45/27 2/46/27 28/47/27

vt 0.145753 -0.393701
f 2/46/27 29/45/27 6/48/27

usemtl BackColor
vn -0.999481 -0 0.0322217
f 6/48/28 29/45/28 2/46/28

usemtl Color_M08
vt 0.13352 0.393701
vn 0.471836 0 -0.881687
v 0.000785223 -0.01 -0.0022075
vt 0.0137503 -0.393701
vt 0.13352 -0.393701
f 29/49/29 30/50/29 6/51/29

v 0.000785223 0.01 -0.0022075
vt 0.0137503 0.393701
f 30/50/29 29/49/29 31/52/29

usemtl BackColor
vn -0.471836 -0 0.881687
f 6/51/30 30/50/30 29/49/30

usemtl Color_M08
vt -0.0309143 0.0869096
f 5/5/1 6/6/1 30/53/1

usemtl BackColor
f 6/6/2 2/2/2 5/5/2

f 30/53/2 6/6/2 5/5/2

usemtl Color_M08
v 0.00317742 -0.01 -0.00130725
vt -0.125095 0.0514665
f 5/5/1 30/53/1 32/54/1

usemtl BackColor
f 32/54/2 30/53/2 5/5/2

usemtl Color_M08
v 0.00336942 -0.01 -0.00381267
vt -0.132654 0.150105
f 32/54/1 30/53/1 33/55/1

usemtl BackColor
f 33/55/2 30/53/2 32/54/2

usemtl Color_M08
vt -0.072118 0.393701
vn -0.527645 0 -0.849465
vt -0.191887 -0.393701
vt -0.072118 -0.393701
f 31/56/31 33/57/31 30/58/31

v 0.00336942 0.01 -0.00381267
vt -0.191887 0.393701
f 33/57/31 31/56/31 34/59/31

usemtl BackColor
vn 0.527645 -0 0.849465
f 30/58/32 33/57/32 31/56/32

f 34/59/32 31/56/32 33/57/32

usemtl Color_M08
vt 0.0309143 0.0869096
v 0.00317742 0.01 -0.00130725
vt 0.125095 0.0514665
vt 0.132654 0.150105
f 31/60/13 35/61/13 34/62/13

vt -0.0717551 0.0514665
f 31/60/13 8/63/13 35/61/13

vt -0.0746848 0.143421
f 29/64/13 8/63/13 31/60/13

f 28/40/13 8/63/13 29/64/13

f 8/63/13 28/40/13 7/34/13

usemtl BackColor
f 7/34/14 28/40/14 8/63/14

f 7/34/14 19/32/14 28/40/14

f 7/34/14 17/31/14 19/32/14

usemtl Color_M08
vt -0.0717551 -0.289488
f 7/34/13 17/31/13 9/65/13

usemtl BackColor
f 9/65/14 17/31/14 7/34/14

usemtl Color_M08
vt 0.125095 -0.289488
f 9/65/13 17/31/13 12/66/13

usemtl BackColor
f 12/66/14 17/31/14 9/65/14

usemtl Color_M08
v 0.0115761 0.01 0.00668346
vt 0.455751 -0.263128
f 12/66/13 17/31/13 36/67/13

usemtl BackColor
f 36/67/14 17/31/14 12/66/14

usemtl Color_M08
vn 0.493903 -0.155687 0.855466
f 15/28/33 36/27/33 17/30/33

v 0.01 0 0.0057735
f 36/27/33 15/28/33 37/29/33

usemtl BackColor
vn -0.493903 0.155687 -0.855466
f 37/29/34 15/28/34 36/27/34

usemtl Color_M08
vn 0.498382 -0.080394 0.863222
f 13/24/35 37/23/35 15/26/35

v 0.00919345 -0.01 0.00530784
f 37/23/35 13/24/35 38/25/35

usemtl BackColor
vn -0.498382 0.080394 -0.863222
f 38/25/36 13/24/36 37/23/36

usemtl Color_M08
vt -0.361947 -0.20897
f 13/19/1 11/21/1 38/68/1

usemtl BackColor
f 11/21/2 10/20/2 13/19/2

f 10/20/2 3/3/2 13/19/2

f 3/3/2 1/1/2 13/19/2

f 38/68/2 11/21/2 13/19/2

usemtl Color_M08
v 0.00567742 -0.01 0.00302288
vt -0.223521 -0.119011
f 38/68/1 11/21/1 39/69/1

usemtl BackColor
f 39/69/2 11/21/2 38/68/2

usemtl Color_M08
vt 0.188157 -0.393701
vn -0.866025 0 -0.5
v 0.00567742 0.01 0.00302288
vt -0.00869376 0.393701
vt -0.00869376 -0.393701
f 11/70/37 40/71/37 39/72/37

vt 0.188157 0.393701
f 40/71/37 11/70/37 12/73/37

usemtl BackColor
vn 0.866025 -0 0.5
f 12/73/38 11/70/38 40/71/38

f 12/18/8 9/15/8 11/16/8

f 39/72/38 40/71/38 11/70/38

usemtl Color_M08
vt 0.0179764 0.393701
vn -0.866025 0 0.5
vt 0.214827 -0.393701
vt 0.214827 0.393701
f 35/74/39 39/75/39 40/76/39

vt 0.0179764 -0.393701
f 39/75/39 35/74/39 32/77/39

usemtl BackColor
vn 0.866025 -0 -0.5
f 40/76/40 39/75/40 35/74/40

f 32/77/40 35/74/40 39/75/40

usemtl Color_M08
vt 0.125095 0.393701
vn 1.40998e-16 0 1
vt -0.0717551 -0.393701
vt 0.125095 -0.393701
f 35/78/41 5/79/41 32/80/41

vt -0.0717551 0.393701
f 5/79/41 35/78/41 8/81/41

usemtl BackColor
vn -1.40998e-16 -0 -1
f 32/80/42 5/79/42 35/78/42

f 8/81/42 35/78/42 5/79/42

f 35/61/14 8/63/14 31/60/14

f 31/60/14 8/63/14 29/64/14

f 29/64/14 8/63/14 28/40/14

f 28/47/28 2/46/28 29/45/28

f 31/52/30 29/49/30 30/50/30

f 34/62/14 35/61/14 31/60/14

usemtl Color_M08
vt 0.223521 -0.119011
f 34/62/13 35/61/13 40/82/13

usemtl BackColor
f 40/82/14 35/61/14 34/62/14

usemtl Color_M08
f 26/39/13 34/62/13 40/82/13

v 0.00327139 0.01 -0.00685324
vt 0.128795 0.269812
f 26/39/13 41/83/13 34/62/13

f 26/39/13 27/38/13 41/83/13

usemtl BackColor
f 26/39/14 27/38/14 22/37/14

f 41/83/14 27/38/14 26/39/14

usemtl Color_M08
vt -0.13352 -0.393701
vn -0.471836 0 0.881687
vt -0.0137503 0.393701
vt -0.13352 0.393701
f 23/84/43 41/85/43 27/86/43

v 0.00327139 -0.01 -0.00685324
vt -0.0137503 -0.393701
f 41/85/43 23/84/43 42/87/43

usemtl BackColor
vn 0.471836 -0 -0.881687
f 42/87/44 23/84/44 41/85/44

usemtl Color_M08
vt -0.128795 0.269812
f 23/35/1 24/36/1 42/88/1

usemtl BackColor
f 42/88/2 24/36/2 23/35/2

usemtl Color_M08
f 42/88/1 24/36/1 33/55/1

usemtl BackColor
f 33/55/2 24/36/2 42/88/2

usemtl Color_M08
f 33/55/1 24/36/1 39/69/1

usemtl BackColor
f 39/69/2 24/36/2 33/55/2

usemtl Color_M08
f 39/69/1 24/36/1 38/68/1

usemtl BackColor
f 38/68/2 24/36/2 39/69/2

usemtl Color_M08
vn 0.996763 -0.080394 5.05573e-16
f 25/23/45 38/24/45 24/25/45

f 38/24/45 25/23/45 37/26/45

usemtl BackColor
vn -0.996763 0.080394 -5.05573e-16
f 37/26/46 25/23/46 38/24/46

usemtl Color_M08
vn 0.987806 -0.155687 5.00525e-16
f 26/27/47 37/28/47 25/29/47

f 37/28/47 26/27/47 36/30/47

usemtl BackColor
vn -0.987806 0.155687 -5.00525e-16
f 36/30/48 26/27/48 37/28/48

usemtl Color_M08
f 26/39/13 40/82/13 36/67/13

usemtl BackColor
f 40/82/14 34/62/14 26/39/14

f 34/62/14 41/83/14 26/39/14

usemtl Color_M08
vt -0.265522 0.393701
vn -0.999481 0 0.0322217
vt -0.145753 -0.393701
vt -0.145753 0.393701
f 41/89/49 33/90/49 34/91/49

vt -0.265522 -0.393701
f 33/90/49 41/89/49 42/92/49

usemtl BackColor
vn 0.999481 -0 -0.0322217
f 34/91/50 33/90/50 41/89/50

f 42/92/50 41/89/50 33/90/50

f 36/67/14 40/82/14 26/39/14

usemtl Color_M08
f 12/66/13 36/67/13 40/82/13

usemtl BackColor
f 40/82/14 36/67/14 12/66/14

f 25/29/48 37/28/48 26/27/48

f 24/25/46 38/24/46 25/23/46

usemtl Color_M08
f 32/54/1 33/55/1 39/69/1

usemtl BackColor
f 39/69/2 33/55/2 32/54/2

f 27/86/44 41/85/44 23/84/44

f 8/10/4 5/7/4 7/8/4

f 15/26/36 37/23/36 13/24/36

f 17/30/34 36/27/34 15/28/34

f 7/13/6 3/12/6 9/11/6

f 22/30/18 19/27/18 21/28/18

f 21/26/20 20/23/20 4/24/20

usemtl Color_M08
vn -0.996763 -0.080394 -5.0784e-16
f 14/25/51 20/26/51 1/24/51

f 20/26/51 14/25/51 16/23/51

usemtl BackColor
vn 0.996763 0.080394 5.0784e-16
f 16/23/52 14/25/52 20/26/52

f 1/24/52 20/26/52 14/25/52

g Mesh2 Model

l 25 21

l 37 25

l 15 37

l 16 15

l 20 16

l 21 20

l 4 21

l 1 4

l 14 1

l 13 14

l 38 13

l 24 38

l 4 24

l 24 25

l 25 26

l 36 26

l 17 36

l 18 17

l 19 18

l 22 19

l 26 22

l 21 22

l 20 19

l 1 20

l 16 18

l 14 16

l 15 17

l 13 15

l 36 37

l 38 37

g Mesh3 Model

l 28 27

l 29 28

l 31 29

l 34 31

l 41 34

l 27 41

l 27 23

l 23 42

l 2 23

l 6 2

l 30 6

l 33 30

l 42 33

l 41 42

l 34 33

l 31 30

l 29 6

l 28 2

g Mesh4 Model

l 7 8

l 9 7

l 12 9

l 40 12

l 35 40

l 8 35

l 8 5

l 5 32

l 3 5

l 10 3

l 11 10

l 39 11

l 32 39

l 35 32

l 40 39

l 12 11

l 9 10

l 7 3

