# Alias OBJ Model File
# Exported from SketchUp, (c) 2000-2012 Trimble Navigation Limited
# File units = meters

mtllib Stopper_Normal.mtl

g Mesh1 Model

usemtl Color_M08
v -0.00919345 -0.01 -0.00530784
vt 0.361947 0.20897
vn 0 -1 -0
v -5.99243e-18 -0.01 0.0106157
vt 2.35922e-16 -0.41794
v -0.00919345 -0.01 0.00530784
vt 0.361947 -0.20897
f 1/1/1 2/2/1 3/3/1

v 2.81997e-18 -0.01 -0.0106157
vt -1.11022e-16 0.41794
f 2/2/1 1/1/1 4/4/1

usemtl BackColor
vn -0 1 0
f 3/3/2 2/2/2 1/1/2

usemtl Color_M08
v -6.34492e-18 0 0.011547
vt 0.227303 0.0316512
vn -0.498382 -0.080394 0.863222
vt -0.20897 -0.363328
vt 0.20897 -0.363328
f 5/5/3 3/6/3 2/7/3

v -0.01 0 0.0057735
vt -0.227303 0.0316512
f 3/6/3 5/5/3 6/8/3

usemtl BackColor
vn 0.498382 0.080394 -0.863222
f 2/7/4 3/6/4 5/5/4

f 6/8/4 5/5/4 3/6/4

usemtl Color_M08
v -7.04992e-18 0.01 0.0133669
vt 0.263128 0.459855
vn -0.493903 -0.155687 0.855466
vt -0.227303 0.061294
vt 0.227303 0.061294
f 7/9/5 6/10/5 5/11/5

v -0.0115761 0.01 0.00668346
vt -0.263128 0.459855
f 6/10/5 7/9/5 8/12/5

usemtl BackColor
vn 0.493903 0.155687 -0.855466
f 5/11/6 6/10/6 7/9/6

f 8/12/6 7/9/6 6/10/6

usemtl Color_M08
vt -2.77556e-16 -0.526256
vn 0 1 -0
v -0.0115761 0.01 -0.00668346
vt -0.455751 0.263128
vt -0.455751 -0.263128
f 7/13/7 9/14/7 8/15/7

v 2.99621e-18 0.01 -0.0133669
vt 1.17961e-16 0.526256
f 9/14/7 7/13/7 10/16/7

usemtl BackColor
vn -0 -1 0
f 8/15/8 9/14/8 7/13/8

usemtl Color_M08
vn -0.987806 -0.155687 -5.04993e-16
f 9/12/9 6/11/9 8/9/9

v -0.01 0 -0.0057735
f 6/11/9 9/12/9 11/10/9

usemtl BackColor
vn 0.987806 0.155687 5.04993e-16
f 8/9/10 6/11/10 9/12/10

f 11/10/10 9/12/10 6/11/10

usemtl Color_M08
vn -0.493903 -0.155687 -0.855466
v 2.81997e-18 0 -0.011547
f 9/9/11 12/10/11 11/11/11

f 12/10/11 9/9/11 10/12/11

usemtl BackColor
vn 0.493903 0.155687 0.855466
f 11/11/12 12/10/12 9/9/12

usemtl Color_M08
vn -0.498382 -0.080394 -0.863222
f 4/6/13 11/5/13 12/8/13

f 11/5/13 4/6/13 1/7/13

usemtl BackColor
vn 0.498382 0.080394 0.863222
f 1/7/14 4/6/14 11/5/14

f 4/4/2 1/1/2 2/2/2

usemtl Color_M08
v 0.00919345 -0.01 0.00530784
vt -0.361947 -0.20897
f 2/2/1 4/4/1 13/17/1

usemtl BackColor
f 13/17/2 4/4/2 2/2/2

usemtl Color_M08
v 0.00919345 -0.01 -0.00530784
vt -0.361947 0.20897
f 13/17/1 4/4/1 14/18/1

usemtl BackColor
f 14/18/2 4/4/2 13/17/2

usemtl Color_M08
vn 0.498382 -0.080394 -0.863222
f 12/5/15 14/6/15 4/7/15

v 0.01 0 -0.0057735
f 14/6/15 12/5/15 15/8/15

usemtl BackColor
vn -0.498382 0.080394 0.863222
f 4/7/16 14/6/16 12/5/16

f 15/8/16 12/5/16 14/6/16

usemtl Color_M08
vn 0.493903 -0.155687 -0.855466
f 10/9/17 15/10/17 12/11/17

v 0.0115761 0.01 -0.00668346
f 15/10/17 10/9/17 16/12/17

usemtl BackColor
vn -0.493903 0.155687 0.855466
f 12/11/18 15/10/18 10/9/18

f 16/12/18 10/9/18 15/10/18

usemtl Color_M08
v 0.0115761 0.01 0.00668346
vt 0.455751 -0.263128
vt 0.455751 0.263128
f 10/16/7 17/19/7 16/20/7

f 10/16/7 7/13/7 17/19/7

usemtl BackColor
f 10/16/8 7/13/8 9/14/8

f 17/19/8 7/13/8 10/16/8

usemtl Color_M08
vn 0.493903 -0.155687 0.855466
f 5/10/19 17/9/19 7/12/19

v 0.01 0 0.0057735
f 17/9/19 5/10/19 18/11/19

usemtl BackColor
vn -0.493903 0.155687 -0.855466
f 18/11/20 5/10/20 17/9/20

usemtl Color_M08
vn 0.498382 -0.080394 0.863222
f 2/6/21 18/5/21 5/8/21

f 18/5/21 2/6/21 13/7/21

usemtl BackColor
vn -0.498382 0.080394 -0.863222
f 13/7/22 2/6/22 18/5/22

f 5/8/22 18/5/22 2/6/22

usemtl Color_M08
vn 0.996763 -0.080394 5.05573e-16
f 13/6/23 15/5/23 18/8/23

f 15/5/23 13/6/23 14/7/23

usemtl BackColor
vn -0.996763 0.080394 -5.05573e-16
f 18/8/24 15/5/24 13/6/24

usemtl Color_M08
vn 0.987806 -0.155687 5.00525e-16
f 16/9/25 18/10/25 15/11/25

f 18/10/25 16/9/25 17/12/25

usemtl BackColor
vn -0.987806 0.155687 -5.00525e-16
f 17/12/26 16/9/26 18/10/26

f 16/20/8 17/19/8 10/16/8

f 15/11/26 18/10/26 16/9/26

f 14/7/24 13/6/24 15/5/24

f 7/12/20 17/9/20 5/10/20

f 10/12/12 9/9/12 12/10/12

f 12/8/14 11/5/14 4/6/14

usemtl Color_M08
vn -0.996763 -0.080394 -5.0784e-16
f 3/7/27 11/8/27 1/6/27

f 11/8/27 3/7/27 6/5/27

usemtl BackColor
vn 0.996763 0.080394 5.0784e-16
f 6/5/28 3/7/28 11/8/28

f 1/6/28 11/8/28 3/7/28

g Mesh2 Model

l 15 12

l 18 15

l 5 18

l 6 5

l 11 6

l 12 11

l 4 12

l 1 4

l 3 1

l 2 3

l 13 2

l 14 13

l 4 14

l 14 15

l 15 16

l 17 16

l 7 17

l 8 7

l 9 8

l 10 9

l 16 10

l 12 10

l 11 9

l 1 11

l 6 8

l 3 6

l 5 7

l 2 5

l 17 18

l 13 18

