# Alias OBJ Model File
# Exported from SketchUp, (c) 2000-2012 Trimble Navigation Limited
# File units = meters

mtllib TestTube_Stopper_Highlight.mtl

g Mesh1 Model

usemtl Color_M01
v -0.00462574 0.00563897 -0.00866025
vt -0.204218 0.362207
vn -0.73438 -0.530013 -0.423995
v -0.00555602 0 -7.04992e-19
vt 0.10937 0.100403
v -0.00962574 0.00563897 -3.52496e-19
vt 0.189483 0.362207
f 1/1/1 2/2/1 3/3/1

v -0.00277801 0 -0.00481165
vt -0.10937 0.100403
f 2/2/1 1/1/1 4/4/1

vn 0.73438 0.530013 0.423995
f 3/3/2 2/2/2 1/1/2

v -0.00277801 0 0.00481165
vn -0.73438 -0.530013 0.423995
vt -0.189483 0.362207
f 5/2/3 3/5/3 2/4/3

v -0.00462574 0.00563897 0.00866025
vt 0.204218 0.362207
f 3/5/3 5/2/3 6/6/3

vn 0.73438 0.530013 -0.423995
f 6/6/4 5/2/4 3/5/4

vt -0.10937 0.106789
vn -4.52336e-16 -0.563722 0.825965
v 0.00537426 0.00563897 0.00866025
vt 0.211585 0.375573
vt -0.182116 0.375573
f 5/7/5 7/8/5 6/9/5

v 0.00277801 0 0.00481165
vt 0.10937 0.106789
f 7/8/5 5/7/5 8/10/5

vn 4.52336e-16 0.563722 -0.825965
f 8/10/6 5/7/6 7/8/6

vt 0.10937 -0.189435
vn 0 -1 -0
vt 0.10937 0.189435
vt -0.10937 -0.189435
f 5/11/7 4/12/7 8/13/7

vt 0.218741 2.77556e-17
f 4/12/7 5/11/7 2/14/7

vn -0 1 0
f 2/14/8 5/11/8 4/12/8

f 2/4/4 3/5/4 5/2/4

f 8/13/8 4/12/8 5/11/8

v 0.00277801 0 -0.00481165
vt -0.10937 0.189435
f 8/13/7 4/12/7 9/15/7

f 9/15/8 4/12/8 8/13/8

vt 0.182116 0.375573
vn 2.91107e-17 -0.563722 -0.825965
f 1/16/9 9/7/9 4/10/9

v 0.00537426 0.00563897 -0.00866025
vt -0.211585 0.375573
f 9/7/9 1/16/9 10/17/9

vn -2.91107e-17 0.563722 0.825965
f 4/10/10 9/7/10 1/16/10

f 10/17/10 1/16/10 9/7/10

vt 0.189483 0.388861
vn 0.696154 -0.594832 -0.401925
v 0.00555602 0 -0
vt -0.10937 0.112682
vt 0.10937 0.112682
f 10/18/11 11/19/11 9/20/11

v 0.0103743 0.00563897 2.46747e-18
vt -0.204218 0.388861
f 11/19/11 10/18/11 12/21/11

vn -0.696154 0.594832 0.401925
f 12/21/12 10/18/12 11/19/12

f 9/20/12 11/19/12 10/18/12

vt -0.218741 0
f 8/13/7 9/15/7 11/22/7

f 11/22/8 9/15/8 8/13/8

vt 0.204218 0.388861
vn 0.696154 -0.594832 0.401925
f 12/23/13 8/19/13 11/20/13

vt -0.189483 0.388861
f 8/19/13 12/23/13 7/24/13

vn -0.696154 0.594832 -0.401925
f 7/24/14 12/23/14 8/19/14

f 11/20/14 8/19/14 12/23/14

f 4/4/2 1/1/2 2/2/2

f 6/9/6 7/8/6 5/7/6

g Mesh2 Model

usemtl Color_M00
v -0.0050547 0.121021 -0.00861558
vt 0.199004 0.339196
v -0.0050547 0.121021 0.00853993
vt 0.199004 -0.336218
v -0.0101537 0.121021 -3.78236e-05
vt 0.399751 0.00148912
f 13/25/7 14/26/7 15/27/7

v 0.00514322 0.121021 0.00853993
vt -0.202489 -0.336218
f 14/26/7 13/25/7 16/28/7

usemtl BackColor
f 15/27/8 14/26/8 13/25/8

usemtl Color_M00
vt 0.187324 4.76283
vn -0.850115 -0.148098 0.505342
v -0.0110958 0.126429 -3.78236e-05
vt -0.224496 4.97812
vt -0.205543 4.76283
f 14/29/15 17/30/15 15/31/15

v -0.00552577 0.126429 0.00933238
vt 0.204666 4.97812
f 17/30/15 14/29/15 18/32/15

usemtl BackColor
vn 0.850115 0.148098 -0.505342
f 18/32/16 14/29/16 17/30/16

usemtl Color_M00
vt -0.199004 4.763
vn -6.34949e-16 -0.144984 0.989434
v 0.00561428 0.126429 0.00933238
vt 0.221035 4.97819
vt -0.21755 4.97819
f 14/33/17 19/34/17 18/35/17

vt 0.202489 4.763
f 19/34/17 14/33/17 16/36/17

usemtl BackColor
vn 6.34949e-16 0.144984 -0.989434
f 16/36/18 14/33/18 19/34/18

f 16/28/8 13/25/8 14/26/8

usemtl Color_M00
v 0.00514322 0.121021 -0.00861558
vt -0.202489 0.339196
f 16/28/7 13/25/7 20/37/7

usemtl BackColor
f 20/37/8 13/25/8 16/28/8

usemtl Color_M00
v -0.00552577 0.126429 -0.00940803
vt 0.21755 4.97862
vn 3.42735e-18 -0.144984 -0.989434
vt -0.202489 4.76343
vt 0.199004 4.76343
f 21/38/19 20/39/19 13/40/19

v 0.00561428 0.126429 -0.00940803
vt -0.221035 4.97862
f 20/39/19 21/38/19 22/41/19

usemtl BackColor
vn -3.42735e-18 0.144984 0.989434
f 13/40/20 20/39/20 21/38/20

f 22/41/20 21/38/20 20/39/20

usemtl Color_M00
v -0.00645469 0.137093 -0.0109707
vt 0.254122 5.40296
vn 6.91494e-19 -0.144984 -0.989434
f 23/42/21 22/41/21 21/38/21

v 0.0065432 0.137093 -0.0109707
vt -0.257606 5.40296
f 22/41/21 23/42/21 24/43/21

usemtl BackColor
vn -6.91494e-19 0.144984 0.989434
f 21/38/22 22/41/22 23/42/22

f 24/43/22 23/42/22 22/41/22

usemtl Color_M00
vt -0.254122 0.431918
vn -9.38637e-16 1 1.67389e-15
v 0.0065432 0.137093 0.0108951
vt 0.257606 -0.42894
vt 0.257606 0.431918
f 23/44/23 25/45/23 24/46/23

v -0.00645469 0.137093 0.0108951
vt -0.254122 -0.42894
f 23/44/23 26/47/23 25/45/23

v -0.0129536 0.137093 -3.78236e-05
vt -0.509986 0.00148912
f 26/47/23 23/44/23 27/48/23

usemtl BackColor
vn 9.38637e-16 -1 -1.67389e-15
f 27/48/24 23/44/24 26/47/24

usemtl Color_M00
vt -0.207226 4.97835
vn -0.850115 -0.148098 -0.505342
vt 0.259311 5.40289
vt -0.241424 5.40289
f 21/49/25 27/50/25 23/51/25

vt 0.221936 4.97835
f 27/50/25 21/49/25 17/52/25

usemtl BackColor
vn 0.850115 0.148098 0.505342
f 17/52/26 21/49/26 27/50/26

usemtl Color_M00
vt -0.189885 4.76306
f 13/53/25 17/52/25 21/49/25

vt 0.202983 4.76306
f 17/52/25 13/53/25 15/54/25

usemtl BackColor
f 15/54/26 13/53/26 17/52/26

f 21/49/26 17/52/26 13/53/26

f 15/31/16 17/30/16 14/29/16

f 23/51/26 27/50/26 21/49/26

usemtl Color_M00
vt -0.261871 5.40266
f 18/32/15 27/55/15 17/30/15

vt 0.238864 5.40266
f 27/55/15 18/32/15 26/56/15

usemtl BackColor
f 26/56/16 18/32/16 27/55/16

usemtl Color_M00
vn -4.33957e-16 -0.144984 0.989434
vt 0.257606 5.40253
vt -0.254122 5.40253
f 18/35/27 25/57/27 26/58/27

f 25/57/27 18/35/27 19/34/27

usemtl BackColor
vn 4.33957e-16 0.144984 -0.989434
f 19/34/28 18/35/28 25/57/28

f 18/35/18 19/34/18 14/33/18

f 26/58/28 25/57/28 18/35/28

f 25/45/24 26/47/24 23/44/24

f 24/46/24 25/45/24 23/44/24

usemtl Color_M00
v 0.0130422 0.137093 -3.78236e-05
vt 0.513471 0.00148912
f 24/46/23 25/45/23 28/59/23

usemtl BackColor
f 28/59/24 25/45/24 24/46/24

usemtl Color_M00
vt -0.202886 4.97857
vn 0.850115 -0.148098 0.505342
vt 0.263652 5.40311
vt -0.237083 5.40311
f 19/60/29 28/61/29 25/62/29

v 0.0111843 0.126429 -3.78236e-05
vt 0.226277 4.97857
f 28/61/29 19/60/29 29/63/29

usemtl BackColor
vn -0.850115 0.148098 -0.505342
f 25/62/30 28/61/30 19/60/30

f 29/63/30 19/60/30 28/61/30

usemtl Color_M00
vt -0.185544 4.76328
f 16/64/29 29/63/29 19/60/29

v 0.0102422 0.121021 -3.78236e-05
vt 0.207324 4.76328
f 29/63/29 16/64/29 30/65/29

usemtl BackColor
f 19/60/30 29/63/30 16/64/30

f 30/65/30 16/64/30 29/63/30

usemtl Color_M00
vt -0.403235 0.00148912
f 16/28/7 20/37/7 30/66/7

usemtl BackColor
f 30/66/8 20/37/8 16/28/8

usemtl Color_M00
vt 0.205446 4.97879
vn 0.850115 -0.148098 -0.505342
vt -0.204764 4.7635
vt 0.188104 4.7635
f 22/67/31 30/68/31 20/69/31

vt -0.223717 4.97879
f 30/68/31 22/67/31 29/70/31

usemtl BackColor
vn -0.850115 0.148098 0.505342
f 29/70/32 22/67/32 30/68/32

usemtl Color_M00
vt 0.239643 5.40333
f 24/71/31 29/70/31 22/67/31

vt -0.261092 5.40333
f 29/70/31 24/71/31 28/72/31

usemtl BackColor
f 28/72/32 24/71/32 29/70/32

f 22/67/32 29/70/32 24/71/32

f 20/69/32 30/68/32 22/67/32

f 17/30/16 27/55/16 18/32/16

g Mesh3 Model

l 17 18

l 21 17

l 22 21

l 29 22

l 19 29

l 18 19

l 14 18

l 14 16

l 15 14

l 13 15

l 20 13

l 30 20

l 16 30

l 19 16

l 19 25

l 26 25

l 18 26

l 27 26

l 17 27

l 15 17

l 23 27

l 21 23

l 13 21

l 24 23

l 22 24

l 20 22

l 28 24

l 29 28

l 29 30

l 28 25

g Mesh4 Model

l 4 1

l 4 2

l 9 4

l 11 9

l 8 11

l 5 8

l 2 5

l 2 3

l 3 6

l 1 3

l 10 1

l 9 10

l 12 10

l 7 12

l 6 7

l 5 6

l 8 7

l 11 12

