# Alias OBJ Model File
# Exported from SketchUp, (c) 2000-2012 Trimble Navigation Limited
# File units = meters

mtllib DistilledWaterContainer_Valve_Openned.mtl

g Mesh1 Model

usemtl Color_M08
v 7.69591 0.985 2.07878
vt -302.989 -81.8418
vn 0 -1 -0
v 7.66591 0.985 2.08449
vt -301.808 -82.0666
v 7.66591 0.985 2.07878
vt -301.808 -81.8418
f 1/1/1 2/2/1 3/3/1

v 7.69591 0.985 2.08449
vt -302.989 -82.0666
f 2/2/1 1/1/1 4/4/1

vn -0 1 0
f 3/3/2 2/2/2 1/1/2

vt -82.0666 38.7795
vn 1 0 -2.79846e-14
v 7.66591 0.97868 2.07878
vt -81.8418 38.5307
vt -81.8418 38.7795
f 2/5/3 5/6/3 3/7/3

v 7.66591 0.97868 2.08449
vt -82.0666 38.5307
f 5/6/3 2/5/3 6/8/3

vn -1 -0 2.79846e-14
f 6/8/4 2/5/4 5/6/4

vt -301.808 38.7795
vn -2.79846e-14 0 -1
v 7.69591 0.97868 2.08449
vt -302.989 38.5307
vt -301.808 38.5307
f 2/9/5 7/10/5 6/11/5

vt -302.989 38.7795
f 7/10/5 2/9/5 4/12/5

vn 2.79846e-14 -0 1
f 6/11/6 7/10/6 2/9/6

v 7.69591 0.97868 2.07878
vt 302.989 -81.8418
vn 0 1 -0
vt 301.808 -82.0666
vt 302.989 -82.0666
f 8/13/7 6/14/7 7/15/7

vt 301.808 -81.8418
f 6/14/7 8/13/7 5/16/7

vn -0 -1 0
f 5/16/8 8/13/8 6/14/8

vt 302.989 38.7795
vn 2.79846e-14 0 1
vt 301.808 38.5307
vt 302.989 38.5307
f 1/17/9 5/18/9 8/19/9

vt 301.808 38.7795
f 5/18/9 1/17/9 3/20/9

vn -2.79846e-14 -0 -1
f 8/19/10 5/18/10 1/17/10

f 3/20/10 1/17/10 5/18/10

f 3/7/4 5/6/4 2/5/4

vt 221.475 38.5307
vn 0.5 0 0.866025
v 7.70086 0.985 2.07592
vt 221.7 38.7795
vt 221.475 38.7795
f 8/21/11 9/22/11 1/23/11

v 7.69591 0.965 2.07878
vt 221.475 37.9921
f 10/24/11 9/22/11 8/21/11

v 7.70086 0.965 2.07592
vt 221.7 37.9921
f 9/22/11 10/24/11 11/25/11

vn -0.5 -0 -0.866025
f 11/25/12 10/24/12 9/22/12

f 8/21/12 9/22/12 10/24/12

f 1/23/12 9/22/12 8/21/12

vt -303.183 -81.7293
f 4/4/1 1/1/1 9/26/1

f 4/4/2 1/1/2 2/2/2

f 9/26/2 1/1/2 4/4/2

v 7.70086 0.985 2.08735
vt -303.183 -82.1791
f 4/4/1 9/26/1 12/27/1

f 12/27/2 9/26/2 4/4/2

v 7.70581 0.985 2.08449
vt -303.378 -82.0666
f 12/27/1 9/26/1 13/28/1

f 13/28/2 9/26/2 12/27/2

v 7.70581 0.985 2.07878
vt -303.378 -81.8418
f 13/28/1 9/26/1 14/29/1

f 14/29/2 9/26/2 13/28/2

vt 303.429 37.9921
vn -0.5 0 0.866025
vt 303.654 38.7795
vt 303.429 38.7795
f 11/30/13 14/31/13 9/32/13

v 7.70581 0.965 2.07878
vt 303.654 37.9921
f 14/31/13 11/30/13 15/33/13

vn 0.5 -0 -0.866025
f 15/33/14 11/30/14 14/31/14

f 9/32/14 14/31/14 11/30/14

v 7.70581 0.965 2.08449
vt 82.0666 37.9921
vn -1 0 2.79846e-14
vt 81.8418 38.7795
vt 81.8418 37.9921
f 16/34/15 14/35/15 15/36/15

vt 82.0666 38.7795
f 14/35/15 16/34/15 13/37/15

vn 1 -0 -2.79846e-14
f 13/37/16 16/34/16 14/35/16

vt -221.7 37.9921
vn -0.5 0 -0.866025
vt -221.475 38.7795
vt -221.7 38.7795
f 16/38/17 12/39/17 13/40/17

v 7.70086 0.965 2.08735
vt -221.475 37.9921
f 12/39/17 16/38/17 17/41/17

vn 0.5 -0 0.866025
f 17/41/18 16/38/18 12/39/18

f 13/40/18 12/39/18 16/38/18

vt -303.654 37.9921
vn 0.5 0 -0.866025
vt -303.429 38.5307
vt -303.654 38.7795
f 17/42/19 7/43/19 12/44/19

v 7.69591 0.965 2.08449
vt -303.429 37.9921
f 7/43/19 17/42/19 18/45/19

vn -0.5 -0 0.866025
f 18/45/20 17/42/20 7/43/20

f 12/44/20 7/43/20 17/42/20

vt -303.429 38.7795
f 12/44/19 7/43/19 4/46/19

f 4/46/20 7/43/20 12/44/20

f 4/12/6 2/9/6 7/10/6

vt -81.8418 37.9921
vt -82.0666 37.9921
f 10/47/3 7/8/3 18/48/3

f 7/8/3 10/47/3 8/6/3

f 18/48/4 7/8/4 10/47/4

f 8/6/4 10/47/4 7/8/4

f 7/15/8 6/14/8 8/13/8

f 15/36/16 14/35/16 16/34/16

g Mesh2 Model

l 18 17

l 10 18

l 11 10

l 15 11

l 16 15

l 17 16

l 17 12

l 4 12

l 7 4

l 18 7

l 8 7

l 10 8

l 8 1

l 8 5

l 5 6

l 5 3

l 3 2

l 1 3

l 9 1

l 14 9

l 13 14

l 12 13

l 16 13

l 15 14

l 11 9

l 6 2

l 7 6

l 4 2

