# Alias OBJ Model File
# Exported from SketchUp, (c) 2000-2012 Trimble Navigation Limited
# File units = meters

mtllib DistilledWaterContainer_Valve_Closed.mtl

g Mesh1 Component_1_1 Model

usemtl Color_M08
v -0.0027825 0.01 -0.0199864
vt -0.115296 1.57373
vn 0 -1 -0
v -0.00292852 0.01 -0.0100946
vt -0.109547 1.18429
v -0.00571102 0.01 -0.0150827
vt 0 1.38067
f 1/1/1 2/2/1 3/3/1

v 0.0023397 0.01 0.0199864
vt -0.316957 0
f 4/4/1 2/2/1 1/1/1

v -0.00337132 0.01 0.0199021
vt -0.0921141 0.00331905
f 2/2/1 4/4/1 5/5/1

vn -0 1 0
f 5/5/2 4/4/2 2/2/2

v 0.0023397 0.00367996 0.0199864
vt -0.316923 0.538581
vn 0.01476 0 -0.999891
vt -0.092055 0.787402
vt -0.316923 0.787402
f 6/6/3 5/7/3 4/8/3

v -0.00337132 0.00367996 0.0199021
vt -0.092055 0.538581
f 5/7/3 6/6/3 7/9/3

vn -0.01476 -0 0.999891
f 7/9/4 6/6/4 5/7/4

vt 0.316957 0
vn 0 1 -0
v -0.00292852 0.00367996 -0.0100946
vt 0.109547 1.18429
vt 0.0921141 0.00331905
f 6/10/5 8/11/5 7/12/5

v 0.0027825 0.00367996 -0.0100103
vt 0.33439 1.18097
f 8/11/5 6/10/5 9/13/5

vn -0 -1 0
f 7/12/6 8/11/6 6/10/6

vt 1.18578 0.538581
vn 0.999891 0 0.01476
vt 0.0046783 0.787402
vt 0.0046783 0.538581
f 8/14/7 5/15/7 7/16/7

vt 1.18578 0.787402
f 5/15/7 8/14/7 2/17/7

vn -0.999891 -0 -0.01476
f 7/16/8 5/15/8 8/14/8

f 2/17/8 8/14/8 5/15/8

vt 0.980889 0.538581
vn 0.873311 0 -0.487163
v -0.00571102 -0.01 -0.0150827
vt 1.20576 0
vt 0.980889 0.787402
f 8/18/9 10/19/9 2/20/9

v -0.00292852 -0.01 -0.0100946
vt 0.980889 0
f 10/19/9 8/18/9 11/21/9

vn -0.873311 -0 0.487163
f 11/21/10 8/18/10 10/19/10

v 0.0027825 -0.01 -0.0100103
vt -0.316923 0
vt -0.092055 0
f 8/9/3 12/22/3 11/23/3

f 12/22/3 8/9/3 9/6/3

f 11/23/4 12/22/4 8/9/4

f 9/6/4 8/9/4 12/22/4

f 9/13/6 6/10/6 8/11/6

vt -0.0046783 0.538581
vn -0.999891 0 -0.01476
v 0.0027825 0.01 -0.0100103
vt -1.18578 0.787402
vt -1.18578 0.538581
f 6/24/11 13/25/11 9/26/11

vt -0.0046783 0.787402
f 13/25/11 6/24/11 4/27/11

vn 0.999891 -0 0.01476
f 4/27/12 6/24/12 13/25/12

f 4/8/4 5/7/4 6/6/4

f 9/26/12 13/25/12 6/24/12

v 0.00571102 0.01 -0.0149141
vt -1.41025 0.787402
vn -0.858551 0 -0.512728
vt -1.18538 0.538581
vt -1.18538 0.787402
f 14/28/13 9/29/13 13/30/13

vt -1.18538 0
f 9/29/13 14/28/13 12/31/13

vn 0.858551 -0 0.512728
f 13/30/14 9/29/14 14/28/14

f 12/31/14 14/28/14 9/29/14

v 0.00571102 -0.01 -0.0149141
vt -1.41025 0
f 12/31/13 14/28/13 15/32/13

f 15/32/14 14/28/14 12/31/14

v 0.00292852 0.01 -0.0199021
vt -1.20576 0.787402
vn -0.873311 0 0.487163
vt -0.980889 0
vt -0.980889 0.787402
f 16/33/15 15/34/15 14/35/15

v 0.00292852 -0.01 -0.0199021
vt -1.20576 0
f 15/34/15 16/33/15 17/36/15

vn 0.873311 -0 -0.487163
f 14/35/16 15/34/16 16/33/16

f 17/36/16 16/33/16 15/34/16

vt 0.316923 0.787402
vn -0.01476 0 0.999891
v -0.0027825 -0.01 -0.0199864
vt 0.092055 0
vt 0.316923 0
f 16/37/17 18/38/17 17/39/17

vt 0.092055 0.787402
f 18/38/17 16/37/17 1/40/17

vn 0.01476 -0 -0.999891
f 17/39/18 18/38/18 16/37/18

f 1/40/18 16/37/18 18/38/18

vt -0.33439 1.18097
vt -0.340139 1.57041
f 13/41/1 1/1/1 16/42/1

f 4/4/1 1/1/1 13/41/1

f 1/1/2 2/2/2 4/4/2

f 3/3/2 2/2/2 1/1/2

vt 1.20576 0.787402
f 2/20/9 10/19/9 3/43/9

f 2/20/10 10/19/10 8/18/10

f 3/43/10 10/19/10 2/20/10

vt 1.41025 0
vn 0.858551 0 0.512728
vt 1.18538 0.787402
vt 1.18538 0
f 18/44/19 3/45/19 10/46/19

vt 1.41025 0.787402
f 3/45/19 18/44/19 1/47/19

vn -0.858551 -0 -0.512728
f 10/46/20 3/45/20 18/44/20

f 1/47/20 18/44/20 3/45/20

f 13/41/2 1/1/2 4/4/2

f 16/42/2 1/1/2 13/41/2

vt -0.449686 1.37403
f 13/41/1 16/42/1 14/48/1

f 14/48/2 16/42/2 13/41/2

g Mesh2 Component_1_1 Model

l 18 10

l 17 18

l 15 17

l 12 15

l 11 12

l 10 11

l 10 3

l 3 2

l 1 3

l 16 1

l 14 16

l 13 14

l 13 4

l 9 13

l 12 9

l 8 9

l 8 2

l 11 8

l 8 7

l 7 5

l 7 6

l 6 4

l 9 6

l 5 4

l 2 5

l 15 14

l 17 16

l 18 1

