# Alias OBJ Model File
# Exported from SketchUp, (c) 2000-2012 Trimble Navigation Limited
# File units = meters

mtllib Erlenmeyer_Stopper_Highlight.mtl

g Mesh1 Model

usemtl Color_M00
v 0.034241 0.298342 7.47147e-05
vt -0.517953 11.8113
vn 0.919538 -0.0990118 -0.380323
v 0.0270679 0.336198 -0.0271235
vt 0.579483 13.309
v 0.0383171 0.336198 7.47147e-05
vt -0.579288 13.309
f 1/1/1 2/2/1 3/3/1

v 0.0241835 0.298342 -0.0242421
vt 0.518057 11.8113
f 2/2/1 1/1/1 4/4/1

usemtl BackColor
vn -0.919538 0.0990118 0.380323
f 3/3/2 2/2/2 1/1/2

usemtl Color_M00
vt 1.06566 1.06785
vn 0 1 -0
v 0.0270679 0.336198 0.0272729
vt 1.06566 -1.07374
vt 1.50855 -0.00294152
f 2/5/3 5/6/3 3/7/3

v -8.4488e-05 0.336198 -0.038387
vt -0.0033263 1.5113
f 6/8/3 5/6/3 2/5/3

v -8.4488e-05 0.336198 0.0385364
vt -0.0033263 -1.51718
f 6/8/3 7/9/3 5/6/3

v -0.0272369 0.336198 -0.0271235
vt -1.07232 1.06785
f 8/10/3 7/9/3 6/8/3

v -0.0272369 0.336198 0.0272729
vt -1.07232 -1.07374
f 8/10/3 9/11/3 7/9/3

v -0.0384861 0.336198 7.47147e-05
vt -1.5152 -0.00294152
f 9/11/3 8/10/3 10/12/3

usemtl BackColor
vn -0 -1 0
f 10/12/4 8/10/4 9/11/4

usemtl Color_M00
v -0.0243525 0.298342 -0.0242421
vt -0.515515 11.8119
vn -0.919538 -0.0990118 -0.380323
vt 0.581831 13.3096
vt -0.576941 13.3096
f 11/13/5 10/14/5 8/15/5

v -0.03441 0.298342 7.47147e-05
vt 0.520495 11.8119
f 10/14/5 11/13/5 12/16/5

usemtl BackColor
vn 0.919538 0.0990118 0.380323
f 12/16/6 11/13/6 10/14/6

usemtl Color_M00
v -0.0229278 0.276756 -0.0227893
vt -0.484099 10.9568
vn -0.920625 -0.0863855 -0.380773
vt 0.520495 11.8099
vt -0.515515 11.8099
f 13/17/7 12/18/7 11/19/7

v -0.0324011 0.276757 0.000114691
vt 0.491721 10.9569
f 12/18/7 13/17/7 14/20/7

usemtl BackColor
vn 0.920625 0.0863855 0.380773
f 14/20/8 13/17/8 12/18/8

usemtl FrontColor
vt 0.902597 0.897524
vn 6.49045e-06 -1 -2.81066e-05
v -0.0229278 0.276756 0.0230187
vt 0.902597 -0.905943
vt 1.27556 -0.00420915
f 13/21/9 15/22/9 14/23/9

v -4.45723e-05 0.276758 -0.0322821
vt 0.00168409 1.27125
f 15/22/9 13/21/9 16/24/9

usemtl BackColor
vn -6.49045e-06 1 2.81066e-05
f 14/23/10 15/22/10 13/21/10

usemtl Color_M00
vt 0.492445 10.9568
vn -0.920736 -0.0849853 0.380819
vt -0.515059 11.8098
vt -0.483376 10.9568
f 15/25/11 12/26/11 14/27/11

v -0.0243525 0.298342 0.0243915
vt 0.520951 11.8098
f 12/26/11 15/25/11 17/28/11

usemtl BackColor
vn 0.920736 0.0849853 -0.380819
f 17/28/12 15/25/12 12/26/12

usemtl Color_M00
vt -0.486532 10.9567
vn -0.38182 -0.0837344 0.920436
v -8.4488e-05 0.298342 0.0344585
vt 0.516743 11.8095
vt -0.517633 11.8095
f 15/29/13 18/30/13 17/31/13

v -4.45655e-05 0.276754 0.0325111
vt 0.488818 10.9566
f 18/30/13 15/29/13 19/32/13

usemtl BackColor
vn 0.38182 0.0837344 -0.920436
f 19/32/14 15/29/14 18/30/14

usemtl FrontColor
vt 0.00168383 -1.27966
f 15/22/9 16/24/9 19/33/9

usemtl BackColor
f 16/24/10 13/21/10 15/22/10

usemtl Color_M00
vt 0.519887 11.8099
vn -0.381709 -0.0871183 -0.920168
vt -0.485363 10.9569
vt 0.489992 10.9568
f 11/34/15 16/35/15 13/36/15

v -8.4488e-05 0.298342 -0.0343091
vt -0.514489 11.8099
f 16/35/15 11/34/15 20/37/15

usemtl BackColor
vn 0.381709 0.0871183 0.920168
f 13/36/16 16/35/16 11/34/16

f 20/37/16 11/34/16 16/35/16

usemtl Color_M00
vt 0.581313 13.3095
vn -0.381283 -0.0990118 -0.919141
vt -0.514489 11.8117
vt 0.519887 11.8117
f 8/38/17 20/39/17 11/40/17

vt -0.576006 13.3095
f 20/39/17 8/38/17 6/41/17

usemtl BackColor
vn 0.381283 0.0990118 0.919141
f 11/40/18 20/39/18 8/38/18

f 6/41/18 8/38/18 20/39/18

f 6/8/4 7/9/4 8/10/4

f 5/6/4 7/9/4 6/8/4

usemtl Color_M00
vt -0.522888 11.812
vn 0.381283 -0.0990118 0.919141
vt 0.572914 13.3097
vt -0.584405 13.3097
f 18/42/19 5/43/19 7/44/19

v 0.0241835 0.298342 0.0243915
vt 0.511488 11.812
f 5/43/19 18/42/19 21/45/19

usemtl BackColor
vn -0.381283 0.0990118 -0.919141
f 21/45/20 18/42/20 5/43/20

usemtl Color_M00
vt -0.522888 11.809
vn 0.381865 -0.0823318 0.920544
v 0.0228386 0.276756 0.0230187
vt 0.48329 10.9562
vt 0.511488 11.809
f 18/46/21 22/47/21 21/48/21

vt -0.49206 10.9561
f 22/47/21 18/46/21 19/49/21

usemtl BackColor
vn -0.381865 0.0823318 -0.920544
f 19/49/22 18/46/22 22/47/22

f 21/48/22 22/47/22 18/46/22

usemtl FrontColor
vt -0.493786 10.9556
vn 0.920997 -0.0816031 0.380927
vt 0.512516 11.8083
vt -0.523494 11.8083
f 22/50/23 1/51/23 21/52/23

v 0.032312 0.276758 0.000114689
vt 0.482036 10.9557
f 1/51/23 22/50/23 23/53/23

usemtl BackColor
vn -0.920997 0.0816031 -0.380927
f 21/52/24 1/51/24 22/50/24

usemtl Color_M00
vt 0.573852 13.3093
vn 0.919538 -0.0990118 0.380323
vt -0.523494 11.8115
vt 0.512516 11.8115
f 3/54/25 21/55/25 1/56/25

vt -0.58492 13.3093
f 21/55/25 3/54/25 5/57/25

usemtl BackColor
vn -0.919538 0.0990118 -0.380323
f 5/57/26 3/54/26 21/55/26

f 3/7/4 5/6/4 2/5/4

f 2/5/4 5/6/4 6/8/4

usemtl Color_M00
vt -0.513742 11.8115
vn 0.381283 -0.0990118 -0.919141
vt 0.582151 13.3092
vt -0.575168 13.3092
f 4/58/27 6/59/27 2/60/27

vt 0.520634 11.8115
f 6/59/27 4/58/27 20/61/27

usemtl BackColor
vn -0.381283 0.0990118 0.919141
f 20/61/28 4/58/28 6/59/28

usemtl Color_M00
vt -0.513742 11.8094
vn 0.381755 -0.085717 -0.92028
vt 0.488605 10.9564
vt 0.520634 11.8094
f 4/62/29 16/63/29 20/64/29

v 0.0228386 0.276756 -0.0227893
vt -0.486751 10.9564
f 16/63/29 4/62/29 24/65/29

usemtl BackColor
vn -0.381755 0.085717 0.92028
f 24/65/30 4/62/30 16/63/30

usemtl FrontColor
vt -0.517953 11.8085
vn 0.92089 -0.0830044 -0.380883
vt 0.485441 10.9557
vt 0.518057 11.8085
f 1/66/31 24/67/31 4/68/31

vt -0.490381 10.9558
f 24/67/31 1/66/31 23/69/31

usemtl BackColor
vn -0.92089 0.0830044 0.380883
f 23/69/32 1/66/32 24/67/32

f 23/53/24 22/50/24 1/51/24

usemtl FrontColor
vt -0.899229 -0.905943
vt -0.899229 0.897524
vt -1.2722 -0.00420908
f 22/70/9 24/71/9 23/72/9

f 19/33/9 24/71/9 22/70/9

f 19/33/9 16/24/9 24/71/9

usemtl BackColor
f 19/33/10 16/24/10 15/22/10

f 24/71/10 16/24/10 19/33/10

f 22/70/10 24/71/10 19/33/10

f 23/72/10 24/71/10 22/70/10

f 4/68/32 24/67/32 1/66/32

f 4/4/2 1/1/2 2/2/2

f 2/60/28 6/59/28 4/58/28

f 20/64/30 16/63/30 4/62/30

f 1/56/26 21/55/26 3/54/26

f 7/44/20 5/43/20 18/42/20

usemtl Color_M00
vt 0.57826 13.31
vn -0.381283 -0.0990118 0.919141
vt -0.517633 11.8122
vt 0.516743 11.8122
f 7/73/33 17/74/33 18/75/33

vt -0.579058 13.31
f 17/74/33 7/73/33 9/76/33

usemtl BackColor
vn 0.381283 0.0990118 -0.919141
f 18/75/34 17/74/34 7/73/34

f 17/31/14 18/30/14 15/29/14

f 9/76/34 7/73/34 17/74/34

f 7/9/4 9/11/4 8/10/4

usemtl Color_M00
vt -0.576394 13.3099
vn -0.919538 -0.0990118 0.380323
vt 0.520951 11.8121
vt 0.582377 13.3099
f 10/77/35 17/78/35 9/79/35

vt -0.515059 11.8121
f 17/78/35 10/77/35 12/80/35

usemtl BackColor
vn 0.919538 0.0990118 -0.380323
f 9/79/36 17/78/36 10/77/36

f 12/80/36 10/77/36 17/78/36

f 8/15/6 10/14/6 11/13/6

f 11/19/8 12/18/8 13/17/8

f 14/27/12 12/26/12 15/25/12

g Mesh2 Model

l 21 1

l 21 5

l 22 21

l 22 23

l 19 22

l 19 18

l 15 19

l 15 17

l 14 15

l 14 12

l 13 14

l 13 11

l 16 13

l 24 16

l 4 24

l 1 4

l 3 1

l 5 3

l 7 5

l 9 7

l 10 9

l 8 10

l 6 8

l 2 6

l 3 2

l 4 2

l 4 20

l 20 11

l 20 6

l 16 20

l 11 12

l 11 8

l 12 17

l 12 10

l 17 18

l 17 9

l 18 7

l 18 21

l 23 1

l 23 24

