# Alias OBJ Model File
# Exported from SketchUp, (c) 2000-2012 Trimble Navigation Limited
# File units = meters

mtllib ReagentBottle_Top_Highlight.mtl

g Mesh1 Model

usemtl Color_M00
v -0.0192802 0.150559 -7.45493e-06
vt 0.379276 5.96085
vn -0.863353 -0.0784995 -0.498457
v -0.0086898 0.129751 -0.0150735
vt -0.342881 5.1391
v -0.0173882 0.129751 -7.45493e-06
vt 0.342033 5.1391
f 1/1/1 2/2/1 3/3/1

v -0.00963577 0.150559 -0.016712
vt -0.380124 5.96085
f 2/2/1 1/1/1 4/4/1

usemtl _Color_M01_1
vn 0.863353 0.0784995 0.498457
f 3/3/2 2/2/2 1/1/2

vt -0.342033 5.10831
vn 0.866025 0 0.5
v -0.0086898 0.119347 -0.0150735
vt 0.342881 4.69871
vt 0.342881 5.10831
f 3/5/3 5/6/3 2/7/3

v -0.0173882 0.119347 -7.45493e-06
vt -0.342033 4.69871
f 5/6/3 3/5/3 6/8/3

usemtl Color_M00
vn -0.866025 -0 -0.5
f 6/8/4 3/5/4 5/6/4

usemtl _Color_M01_1
v -0.0086898 0.129751 0.0150586
vt -0.342372 5.10831
vn 0.866025 0 -0.5
vt 0.342542 4.69871
vt 0.342542 5.10831
f 7/9/5 6/10/5 3/11/5

v -0.0086898 0.119347 0.0150586
vt -0.342372 4.69871
f 6/10/5 7/9/5 8/12/5

usemtl Color_M00
vn -0.866025 -0 0.5
f 8/12/6 7/9/6 6/10/6

usemtl _Color_M01_1
vt 0.342118 5.10831
vn 6.74582e-16 0 -1
v 0.00870701 0.119347 0.0150586
vt -0.342796 4.69871
vt 0.342118 4.69871
f 7/13/7 9/14/7 8/15/7

v 0.00870701 0.129751 0.0150586
vt -0.342796 5.10831
f 9/14/7 7/13/7 10/16/7

usemtl Color_M00
vn -6.74582e-16 -0 1
f 8/15/8 9/14/8 7/13/8

usemtl _Color_M01_1
vt -0.342118 0.593446
vn 0 1 -0
vt -0.342118 -0.592859
vt 0.342796 -0.592859
f 5/17/9 8/18/9 9/19/9

vt -0.684575 0.000293501
f 8/18/9 5/17/9 6/20/9

usemtl Color_M00
vn -0 -1 0
f 6/20/10 5/17/10 8/18/10

f 9/19/10 8/18/10 5/17/10

usemtl _Color_M01_1
v 0.00870701 0.119347 -0.0150735
vt 0.342796 0.593446
f 5/17/9 9/19/9 11/21/9

usemtl Color_M00
f 11/21/10 9/19/10 5/17/10

usemtl _Color_M01_1
v 0.0174054 0.119347 -7.45493e-06
vt 0.685253 0.000293501
f 11/21/9 9/19/9 12/22/9

usemtl Color_M00
f 12/22/10 9/19/10 11/21/10

usemtl _Color_M01_1
vt 0.342033 4.69871
vn -0.866025 0 -0.5
v 0.0174054 0.129751 -7.45493e-06
vt -0.342881 5.10831
vt -0.342881 4.69871
f 9/23/11 13/24/11 12/25/11

vt 0.342033 5.10831
f 13/24/11 9/23/11 10/26/11

usemtl Color_M00
vn 0.866025 -0 0.5
f 10/26/12 9/23/12 13/24/12

f 10/16/8 7/13/8 9/14/8

v 0.00965299 0.150559 0.0166971
vt 0.380039 5.96084
vn -6.34574e-16 -0.0784995 0.996914
vt -0.342118 5.13909
vt 0.342796 5.13909
f 14/27/13 7/28/13 10/29/13

v -0.00963577 0.150559 0.0166971
vt -0.379361 5.96084
f 7/28/13 14/27/13 15/30/13

usemtl _Color_M01_1
vn 6.34574e-16 0.0784995 -0.996914
f 10/29/14 7/28/14 14/27/14

f 15/30/14 14/27/14 7/28/14

vt -0.379361 -0.657366
v 0.0112036 0.150559 0.0193828
vt 0.441086 -0.763103
vt 0.380039 -0.657366
f 15/31/9 16/32/9 14/33/9

v -0.0111864 0.150559 0.0193828
vt -0.440408 -0.763103
f 15/31/9 17/34/9 16/32/9

vt -0.759061 0.000293501
f 1/35/9 17/34/9 15/31/9

v -0.0223814 0.150559 -7.45493e-06
vt -0.881156 0.000293501
f 17/34/9 1/35/9 18/36/9

usemtl Color_M00
f 18/36/10 1/35/10 17/34/10

usemtl _Color_M01_1
v -0.0111864 0.150559 -0.0193977
vt -0.440408 0.76369
f 1/35/9 19/37/9 18/36/9

vt -0.379361 0.657953
f 19/37/9 1/35/9 4/38/9

usemtl Color_M00
f 18/36/10 19/37/10 1/35/10

vt 0.440324 5.92753
vn -0.866025 -4.84617e-16 -0.5
v -0.0111864 0.15264 -0.0193977
vt -0.441171 6.00945
vt -0.441171 5.92753
f 18/39/15 20/40/15 19/41/15

v -0.0223814 0.15264 -7.45493e-06
vt 0.440324 6.00945
f 20/40/15 18/39/15 21/42/15

usemtl _Color_M01_1
vn 0.866025 4.84617e-16 0.5
f 21/42/16 18/39/16 20/40/16

usemtl Color_M00
vt 0.440663 5.92753
vn -0.866025 0 0.5
vt -0.440832 6.00945
vt -0.440832 5.92753
f 17/43/17 21/44/17 18/45/17

v -0.0111864 0.15264 0.0193828
vt 0.440663 6.00945
f 21/44/17 17/43/17 22/46/17

usemtl _Color_M01_1
vn 0.866025 -0 -0.5
f 22/46/18 17/43/18 21/44/18

usemtl Color_M00
vt -0.440408 5.92753
vn -6.55181e-16 0 1
v 0.0112036 0.15264 0.0193828
vt 0.441086 6.00945
vt -0.440408 6.00945
f 17/47/19 23/48/19 22/49/19

vt 0.441086 5.92753
f 23/48/19 17/47/19 16/50/19

usemtl _Color_M01_1
vn 6.55181e-16 -0 -1
f 16/50/20 17/47/20 23/48/20

usemtl Color_M00
f 16/32/10 17/34/10 15/31/10

f 15/31/10 17/34/10 1/35/10

vt -0.379785 5.96083
vn -0.863353 -0.0784995 0.498457
vt 0.342372 5.13908
vt 0.379615 5.96083
f 1/51/21 7/52/21 15/53/21

vt -0.342542 5.13908
f 7/52/21 1/51/21 3/54/21

usemtl _Color_M01_1
vn 0.863353 0.0784995 -0.498457
f 15/53/22 7/52/22 1/51/22

f 3/54/22 1/51/22 7/52/22

usemtl Color_M00
f 3/11/6 6/10/6 7/9/6

f 14/33/10 16/32/10 15/31/10

usemtl _Color_M01_1
v 0.0192974 0.150559 -7.45493e-06
vt 0.759739 0.000293501
f 14/33/9 16/32/9 24/55/9

usemtl Color_M00
f 24/55/10 16/32/10 14/33/10

usemtl _Color_M01_1
v 0.0223986 0.150559 -7.45493e-06
vt 0.881833 0.000293501
f 24/55/9 16/32/9 25/56/9

usemtl Color_M00
f 25/56/10 16/32/10 24/55/10

vt 0.441171 5.92753
vt -0.440324 6.00945
vt -0.440324 5.92753
f 25/57/3 23/58/3 16/59/3

v 0.0223986 0.15264 -7.45493e-06
vt 0.441171 6.00945
f 23/58/3 25/57/3 26/60/3

usemtl _Color_M01_1
f 16/59/4 23/58/4 25/57/4

f 26/60/4 25/57/4 23/58/4

usemtl Color_M00
v 0.0112036 0.150559 -0.0193977
vt 0.440832 5.92753
vt -0.440663 6.00945
vt -0.440663 5.92753
f 27/61/5 26/62/5 25/63/5

v 0.0112036 0.15264 -0.0193977
vt 0.440832 6.00945
f 26/62/5 27/61/5 28/64/5

usemtl _Color_M01_1
f 25/63/6 26/62/6 27/61/6

f 28/64/6 27/61/6 26/62/6

usemtl Color_M00
vt -0.441086 5.92753
vn 1.31036e-16 7.33261e-32 -1
vt 0.440408 6.00945
vt -0.441086 6.00945
f 27/65/23 20/66/23 28/67/23

vt 0.440408 5.92753
f 20/66/23 27/65/23 19/68/23

usemtl _Color_M01_1
vn -1.31036e-16 -7.33261e-32 1
f 19/68/24 27/65/24 20/66/24

vt 0.441086 0.76369
f 19/37/9 4/38/9 27/69/9

usemtl Color_M00
f 4/38/10 1/35/10 19/37/10

usemtl _Color_M01_1
f 4/4/2 1/1/2 2/2/2

usemtl Color_M00
vt 0.379361 5.96089
vn 3.14102e-16 -0.0784995 -0.996914
v 0.00870701 0.129751 -0.0150735
vt -0.342796 5.13914
vt 0.342118 5.13914
f 4/70/25 29/71/25 2/72/25

v 0.00965299 0.150559 -0.016712
vt -0.380039 5.96089
f 29/71/25 4/70/25 30/73/25

usemtl _Color_M01_1
vn -3.14102e-16 0.0784995 0.996914
f 2/72/26 29/71/26 4/70/26

vt -0.342118 4.69871
vn -3.37291e-16 0 1
vt 0.342796 5.10831
vt -0.342118 5.10831
f 5/74/27 29/75/27 2/76/27

vt 0.342796 4.69871
f 29/75/27 5/74/27 11/77/27

usemtl Color_M00
vn 3.37291e-16 -0 -1
f 11/77/28 5/74/28 29/75/28

f 2/76/28 29/75/28 5/74/28

f 2/7/4 5/6/4 3/5/4

usemtl _Color_M01_1
vt 0.342372 4.69871
vt -0.342542 5.10831
vt -0.342542 4.69871
f 12/78/17 29/79/17 11/80/17

vt 0.342372 5.10831
f 29/79/17 12/78/17 13/81/17

usemtl Color_M00
f 13/81/18 12/78/18 29/79/18

f 12/25/12 13/24/12 9/23/12

f 11/80/18 29/79/18 12/78/18

vt 0.379785 5.9609
vn 0.863353 -0.0784995 -0.498457
vt -0.342372 5.13915
vt 0.342542 5.13915
f 30/82/29 13/83/29 29/84/29

vt -0.379615 5.9609
f 13/83/29 30/82/29 24/85/29

usemtl _Color_M01_1
vn -0.863353 0.0784995 0.498457
f 24/85/30 30/82/30 13/83/30

vt 0.380039 0.657953
f 27/69/9 30/86/9 24/55/9

f 27/69/9 4/38/9 30/86/9

usemtl Color_M00
f 27/69/10 4/38/10 19/37/10

f 30/86/10 4/38/10 27/69/10

usemtl _Color_M01_1
f 30/73/26 4/70/26 29/71/26

f 29/84/30 13/83/30 30/82/30

usemtl Color_M00
f 24/55/10 30/86/10 27/69/10

usemtl _Color_M01_1
f 27/69/9 24/55/9 25/56/9

usemtl Color_M00
f 25/56/10 24/55/10 27/69/10

vt 0.380124 5.96087
vn 0.863353 -0.0784995 0.498457
vt -0.342033 5.13913
vt 0.342881 5.13913
f 24/87/31 10/88/31 13/89/31

vt -0.379276 5.96087
f 10/88/31 24/87/31 14/90/31

usemtl _Color_M01_1
vn -0.863353 0.0784995 -0.498457
f 14/90/32 24/87/32 10/88/32

f 13/89/32 10/88/32 24/87/32

f 28/67/24 20/66/24 27/65/24

usemtl Color_M00
f 20/37/9 23/32/9 28/69/9

f 20/37/9 22/34/9 23/32/9

f 22/34/9 20/37/9 21/36/9

usemtl _Color_M01_1
f 21/36/10 20/37/10 22/34/10

f 23/32/10 22/34/10 20/37/10

f 22/49/20 23/48/20 17/47/20

f 28/69/10 23/32/10 20/37/10

usemtl Color_M00
f 28/69/9 23/32/9 26/56/9

usemtl _Color_M01_1
f 26/56/10 23/32/10 28/69/10

f 19/41/16 20/40/16 18/39/16

f 18/45/18 21/44/18 17/43/18

g Mesh2 Model

l 14 24

l 15 14

l 1 15

l 4 1

l 30 4

l 24 30

l 13 24

l 10 13

l 7 10

l 3 7

l 2 3

l 29 2

l 13 29

l 13 12

l 9 12

l 8 9

l 6 8

l 5 6

l 11 5

l 12 11

l 29 11

l 29 30

l 2 5

l 2 4

l 3 6

l 3 1

l 7 8

l 7 15

l 10 9

l 10 14

g Mesh3 Model

l 16 25

l 17 16

l 18 17

l 19 18

l 27 19

l 25 27

l 25 26

l 23 26

l 22 23

l 21 22

l 20 21

l 28 20

l 26 28

l 27 28

l 19 20

l 18 21

l 17 22

l 23 16

