# Alias OBJ Model File
# Exported from SketchUp, (c) 2000-2012 Trimble Navigation Limited
# File units = meters

mtllib GasSac_Valve_Openned_Highlight.mtl

g Mesh1 Model

usemtl Color_M00
v -0.0235144 0.19428 0.0124444
vt -0.730377 7.64883
vn -0.307342 -1.98985e-16 0.951599
v -0.0260576 0.20521 0.0116231
vt -0.835596 8.07912
v -0.0260576 0.19428 0.0116231
vt -0.835596 7.64881
f 1/1/1 2/2/1 3/3/1

v -0.0235144 0.20521 0.0124444
vt -0.730377 8.07914
f 2/2/1 1/1/1 4/4/1

vn 0.307342 1.98985e-16 -0.951599
f 3/3/2 2/2/2 1/1/2

v -0.0253835 0.205222 0.00953558
vt 0.664354 8.0796
vn -0.951612 5.15837e-14 -0.307302
vt 0.750716 7.64881
vt 0.750716 8.07912
f 5/5/3 3/6/3 2/7/3

v -0.0253835 0.194292 0.00953558
vt 0.664354 7.64929
f 3/6/3 5/5/3 6/8/3

vn 0.951612 -5.15837e-14 0.307302
f 2/7/4 3/6/4 5/5/4

f 6/8/4 5/5/4 3/6/4

vt 0.8356 8.0796
vn 0.307342 2.04844e-16 -0.951599
v -0.0228403 0.194292 0.010357
vt 0.73038 7.64931
vt 0.8356 7.64929
f 5/9/5 7/10/5 6/11/5

v -0.0228403 0.205222 0.010357
vt 0.73038 8.07961
f 7/10/5 5/9/5 8/12/5

vn -0.307342 -2.04844e-16 0.951599
f 6/11/6 7/10/6 5/9/6

vt 0.712908 -0.724855
vn 0.00182862 -0.999985 -0.00524586
vt 0.82009 -0.640935
vt 0.714898 -0.638514
f 1/13/7 6/14/7 7/15/7

vt 0.818099 -0.727276
f 6/14/7 1/13/7 3/16/7

vn -0.00182862 0.999985 0.00524586
f 3/16/8 1/13/8 6/14/8

f 7/15/8 6/14/8 1/13/8

vt -0.664358 8.07961
vn 0.951612 -5.15248e-14 0.307302
vt -0.750721 7.64883
vt -0.664358 7.64931
f 8/17/9 1/18/9 7/19/9

vt -0.750721 8.07914
f 1/18/9 8/17/9 4/20/9

vn -0.951612 5.15248e-14 -0.307302
f 4/20/10 8/17/10 1/18/10

v -0.0215699 0.207517 0.0107716
vt -0.662327 6.71794
vn 0.823195 -0.503226 0.262896
vt -0.748355 6.61285
vt -0.661992 6.6134
f 9/21/11 4/22/11 8/23/11

v -0.0222428 0.207505 0.0128551
vt -0.748527 6.71739
f 4/22/11 9/21/11 10/24/11

vn -0.823195 0.503226 -0.262896
f 10/24/12 9/21/12 4/22/12

vt -0.666712 7.39988
vn 0.821446 0.503282 0.268205
v -0.0225702 0.208096 0.0127494
vt -0.752955 7.42625
vt -0.752912 7.39933
f 9/25/13 11/26/13 10/27/13

v -0.0218974 0.208108 0.0106658
vt -0.666755 7.4268
f 11/26/13 9/25/13 12/28/13

vn -0.821446 -0.503282 -0.268205
f 10/27/14 11/26/14 9/25/14

v -0.0261302 0.209668 0.0115996
vt -0.838601 8.25463
vt -0.677767 8.16948
vt -0.691315 8.19274
f 13/29/1 10/30/1 11/31/1

v -0.0273292 0.207504 0.0112124
vt -0.888206 8.16945
f 14/32/1 10/30/1 13/29/1

v -0.026882 0.206697 0.0113568
vt -0.869704 8.13768
f 15/33/1 10/30/1 14/32/1

f 15/33/1 4/4/1 10/30/1

f 2/2/1 4/4/1 15/33/1

f 4/4/2 1/1/2 2/2/2

f 15/33/2 4/4/2 2/2/2

f 10/30/2 4/4/2 15/33/2

f 14/32/2 10/30/2 15/33/2

f 13/29/2 10/30/2 14/32/2

f 11/31/2 10/30/2 13/29/2

v -0.0235144 0.209799 0.0124444
vt -0.730377 8.25981
f 13/29/1 11/31/1 16/34/1

f 16/34/2 11/31/2 13/29/2

vt -0.75308 7.50386
f 12/28/13 16/35/13 11/26/13

v -0.0228415 0.209811 0.0103609
vt -0.66688 7.50442
f 16/35/13 12/28/13 17/36/13

f 11/26/14 16/35/14 12/28/14

f 17/36/14 12/28/14 16/35/14

v -0.0191853 0.208157 0.00226726
vt -0.319291 7.42904
f 18/37/13 17/36/13 12/28/13

v -0.0201294 0.20986 0.00196232
vt -0.319416 7.50665
f 17/36/13 18/37/13 19/38/13

f 12/28/14 17/36/14 18/37/14

f 19/38/14 18/37/14 17/36/14

v -0.0226726 0.20986 0.00114093
vt -0.828096 -0.290324
vt -0.714895 -0.635282
vt -0.722905 -0.287903
f 20/39/8 17/40/8 19/41/8

v -0.0253848 0.209811 0.00953952
vt -0.820086 -0.637703
f 17/40/8 20/39/8 21/42/8

f 21/42/7 20/39/7 17/40/7

v -0.0227453 0.209729 0.00111747
vt 0.314336 6.71283
vt 0.66181 6.71657
vt 0.314346 6.7188
f 22/43/12 21/44/12 20/45/12

vt 0.748 6.71004
f 13/46/12 21/44/12 22/43/12

v -0.0260576 0.209799 0.0116231
vt 0.74801 6.71601
f 21/44/12 13/46/12 23/47/12

f 23/47/11 13/46/11 21/44/11

vt -0.835596 8.25979
f 13/29/1 16/34/1 23/48/1

f 23/48/2 16/34/2 13/29/2

v -0.0260576 0.220729 0.0116231
vt -0.835596 8.6901
f 23/48/1 16/34/1 24/49/1

f 24/49/2 16/34/2 23/48/2

v -0.0235144 0.220729 0.0124444
vt -0.730377 8.69011
f 24/49/1 16/34/1 25/50/1

f 25/50/2 16/34/2 24/49/2

vt -0.750721 8.25981
vn 0.951612 -4.97484e-14 0.307302
v -0.0228415 0.220741 0.0103609
vt -0.664521 8.69059
vt -0.750721 8.69011
f 16/51/15 26/52/15 25/53/15

vt -0.664521 8.26029
f 26/52/15 16/51/15 17/54/15

vn -0.951612 4.97484e-14 -0.307302
f 25/53/16 26/52/16 16/51/16

v -0.0253848 0.220741 0.00953952
vt -0.820086 -0.635313
vt -0.712908 -0.71907
vt -0.714895 -0.632891
f 27/55/8 25/56/8 26/57/8

vt -0.818099 -0.721491
f 25/56/8 27/55/8 24/58/8

f 24/58/7 27/55/7 25/56/7

vt 0.664516 8.69058
vt 0.750716 8.25979
vt 0.750716 8.6901
f 27/59/16 23/60/16 24/61/16

vt 0.664516 8.26027
f 23/60/16 27/59/16 21/62/16

f 24/61/15 23/60/15 27/59/15

f 21/62/15 27/59/15 23/60/15

vt 0.8356 8.69058
vn 0.307342 2.13539e-16 -0.951599
vt 0.73038 8.26029
vt 0.8356 8.26027
f 27/63/17 17/64/17 21/65/17

vt 0.73038 8.69059
f 17/64/17 27/63/17 26/66/17

vn -0.307342 -2.13539e-16 0.951599
f 21/65/18 17/64/18 27/63/18

f 26/66/18 27/63/18 17/64/18

f 26/57/7 25/56/7 27/55/7

f 17/54/16 16/51/16 26/52/16

f 22/43/11 21/44/11 13/46/11

f 20/45/11 21/44/11 22/43/11

vt 0.747838 6.61147
f 22/43/12 14/67/12 13/46/12

v -0.0239442 0.207565 0.000730236
vt 0.314173 6.61426
f 14/67/12 22/43/12 28/68/12

f 13/46/11 14/67/11 22/43/11

f 28/68/11 22/43/11 14/67/11

v -0.023497 0.206758 0.000874667
vt 0.31986 7.47124
vt 0.753584 7.50521
vt 0.31992 7.508
f 29/69/14 14/70/14 28/71/14

vt 0.753525 7.46845
f 14/70/14 29/69/14 15/72/14

f 15/72/13 29/69/13 14/70/13

vt 0.667053 7.40124
f 5/73/14 15/72/14 29/69/14

vt 0.753416 7.40068
f 15/72/14 5/73/14 2/74/14

f 2/74/13 5/73/13 15/72/13

f 29/69/13 15/72/13 5/73/13

v -0.0226726 0.205271 0.00114093
vt 0.319752 7.40347
f 5/73/14 29/69/14 30/75/14

f 30/75/13 29/69/13 5/73/13

vt 0.828096 -0.291328
vt 0.714898 -0.636123
vt 0.82009 -0.638544
f 30/76/7 8/77/7 5/78/7

v -0.0201294 0.205271 0.00196232
vt 0.722905 -0.288907
f 8/77/7 30/76/7 31/79/7

f 5/78/8 8/77/8 30/76/8

f 8/12/6 5/9/6 7/10/6

f 7/19/10 1/18/10 8/17/10

f 31/79/8 30/76/8 8/77/8

v -0.0188578 0.207566 0.00237302
vt -0.314863 6.72018
vt -0.31469 6.61563
f 32/80/11 8/23/11 31/81/11

f 8/23/11 32/80/11 9/21/11

f 9/21/12 32/80/12 8/23/12

vt -0.319248 7.40212
f 32/82/13 12/28/13 9/25/13

f 12/28/13 32/82/13 18/37/13

f 9/25/14 12/28/14 32/82/14

f 12/28/14 9/25/14 11/26/14

f 18/37/14 32/82/14 12/28/14

f 31/81/12 8/23/12 32/80/12

f 8/23/12 4/22/12 9/21/12

f 28/71/13 14/70/13 29/69/13

f 19/41/7 17/40/7 20/39/7

g Mesh2 Model

l 31 30

l 32 31

l 19 18

l 20 19

l 28 22

l 30 29

l 30 5

l 5 2

l 8 5

l 31 8

l 8 4

l 8 7

l 8 9

l 32 9

l 9 10

l 18 12

l 12 11

l 12 17

l 19 17

l 17 16

l 17 21

l 17 26

l 26 25

l 26 27

l 27 24

l 21 27

l 20 21

l 21 23

l 14 13

l 2 15

l 2 3

l 6 3

l 7 6

l 7 1

l 1 3

l 4 1

l 10 4

l 16 11

l 16 25

l 24 25

l 23 24

l 5 6

l 29 15

l 28 14

l 22 13

