# Alias OBJ Model File
# Exported from SketchUp, (c) 2000-2012 Trimble Navigation Limited
# File units = meters

mtllib GasSac_Valve_Closed_Highlight.mtl

g Mesh1 Model

usemtl Color_M00
v -0.028531 0.145047 0.00179344
vt -1.03181 3.22192
vn -0.169147 -0.868411 0.466103
v -0.0328932 0.145396 0.000860921
vt -1.20577 3.24964
v -0.0299286 0.144195 -0.000299987
vt -1.11164 3.15432
f 1/1/1 2/2/1 3/3/1

vn 0.169147 0.868411 -0.466103
f 3/3/2 2/2/2 1/1/2

v -0.0364999 0.146329 0.00227593
vt 1.36895 5.76616
vn -0.368374 -0.0126317 -0.929592
vt 1.21641 5.72942
vt 1.09107 5.68216
f 4/4/3 2/5/3 3/6/3

v -0.0365112 0.146874 0.00227232
vt 1.36931 5.7876
f 2/5/3 4/4/3 5/7/3

vn 0.368374 0.0126317 0.929592
f 3/6/4 2/5/4 4/4/4

f 5/7/4 4/4/4 2/5/4

vt 0.52318 5.78877
vn -0.952228 -0.0217266 -0.304615
v -0.0366319 0.152705 0.00223371
vt 0.52318 6.03985
vt 0.52318 5.81021
f 4/8/5 6/9/5 5/10/5

v -0.0377745 0.152705 0.00580541
vt 0.670818 6.03985
f 4/8/5 7/11/5 6/9/5

v -0.0376425 0.146329 0.00584762
vt 0.670818 5.78877
f 7/11/5 4/8/5 8/12/5

usemtl Color_M01
vn 0.952228 0.0217266 0.304615
f 8/12/6 4/8/6 7/11/6

usemtl Color_M00
v -0.0332314 0.143261 0.0104085
vt 0.788928 3.6963
vn -0.458193 -0.876684 -0.146575
vt 0.670818 3.94738
vt 0.52318 3.94738
f 9/13/7 8/14/7 4/15/7

v -0.0385566 0.146329 0.00870498
vt 0.788928 3.94738
f 8/14/7 9/13/7 10/16/7

usemtl Color_M01
vn 0.458193 0.876684 0.146575
f 10/16/8 9/13/8 8/14/8

usemtl Color_M00
v -0.0280382 0.146569 0.0120698
vt -0.906597 5.77044
vn -0.304687 9.40921e-15 0.952452
vt -1.34138 5.76099
vt -1.12126 5.6402
f 11/17/9 10/18/9 9/19/9

usemtl Color_M01
vn 0.304687 -9.40921e-15 -0.952452
f 9/19/10 10/18/10 11/17/10

usemtl Color_M00
v -0.0170265 0.146862 0.0219444
vt -1.02712 -0.249515
vn 0.0206935 -0.999764 0.00661981
vt -0.788928 -1.21589
vt -0.788928 -0.781011
f 12/20/11 10/21/11 11/22/11

v -0.0504976 0.146036 0.00173531
vt -0.670818 -1.74739
f 12/20/11 13/23/11 10/21/11

v -0.053255 0.146036 0.010355
vt -1.02712 -1.74739
f 13/23/11 12/20/11 14/24/11

usemtl Color_M01
vn -0.0206935 0.999764 -0.00661981
f 14/24/12 12/20/12 13/23/12

usemtl Color_M00
vt -0.375227 5.78199
vn -0.304687 -2.76367e-15 0.952452
v -0.0532663 0.14658 0.0103514
vt -1.87321 5.77088
vt -1.87275 5.74944
f 12/25/13 15/26/13 14/27/13

v -0.0533728 0.151728 0.0103173
vt -1.87762 5.97356
f 15/26/13 12/25/13 16/28/13

usemtl Color_M01
vn 0.304687 2.76367e-15 -0.952452
f 14/27/14 15/26/14 12/25/14

usemtl Color_M00
vt 1.02712 5.81021
vt 1.02712 5.78877
f 15/29/5 13/12/5 14/30/5

vt 1.02712 6.01294
f 13/12/5 15/29/5 16/31/5

usemtl Color_M01
f 14/30/6 13/12/6 15/29/6

f 16/31/6 15/29/6 13/12/6

f 16/28/14 12/25/14 15/26/14

usemtl Color_M00
v -0.0170284 0.146955 0.0219438
vt -0.375306 5.78563
f 16/28/13 12/25/13 17/32/13

usemtl Color_M01
f 17/32/14 12/25/14 16/28/14

usemtl Color_M00
v -0.0151832 0.146862 0.0161821
vt -0.788928 5.78877
vt -1.02712 5.79242
vt -1.02712 5.78877
f 18/33/6 17/34/6 12/35/6

v -0.017135 0.152103 0.0219097
vt -1.02712 5.99514
f 17/34/6 18/33/6 19/36/6

usemtl Color_M01
f 12/35/5 17/34/5 18/33/5

f 19/36/5 18/33/5 17/34/5

usemtl Color_M00
v -0.0171585 0.153238 0.0219022
vt -1.02712 6.03985
f 19/36/6 18/33/6 20/37/6

usemtl Color_M01
f 20/37/5 18/33/5 19/36/5

usemtl Color_M00
v -0.0151851 0.146955 0.0161815
vt -0.788928 5.79242
f 20/37/6 18/33/6 21/38/6

usemtl Color_M01
f 21/38/5 18/33/5 20/37/5

usemtl Color_M00
vt 0.375227 5.78199
vn 0.304687 -3.03263e-14 -0.952452
v -0.0280401 0.146662 0.0120692
vt 0.906676 5.77408
vt 0.375306 5.78563
f 18/39/15 22/40/15 21/41/15

vt 0.906597 5.77044
f 22/40/15 18/39/15 11/42/15

usemtl Color_M01
vn -0.304687 3.03263e-14 0.952452
f 11/42/16 18/39/16 22/40/16

usemtl Color_M00
vt -0.788928 -0.249515
f 12/20/11 11/22/11 18/43/11

usemtl Color_M01
f 11/22/12 10/21/12 12/20/12

usemtl Color_M00
vn -0.304687 -1.65023e-15 0.952452
v -0.0386885 0.152705 0.00866276
vt -1.34683 6.01201
f 11/17/17 23/44/17 10/18/17

vt -0.906676 5.77408
f 23/44/17 11/17/17 22/45/17

vn 0.304687 1.65023e-15 -0.952452
f 10/18/18 23/44/18 11/17/18

vt 0.788928 6.03985
vt 0.788928 5.78877
f 23/46/5 8/12/5 10/47/5

f 8/12/5 23/46/5 7/11/5

usemtl Color_M01
f 10/47/6 8/12/6 23/46/6

usemtl Color_M00
vt -0.670818 -1.21589
f 8/48/11 10/21/11 13/23/11

usemtl Color_M01
f 13/23/12 10/21/12 8/48/12

f 10/21/12 13/23/12 12/20/12

usemtl Color_M00
v -0.0506296 0.152412 0.0016931
vt 1.8782 6.00046
vn 0.304687 1.288e-15 -0.952452
vt 1.34138 5.76099
vt 1.87275 5.74944
f 24/49/19 8/50/19 13/51/19

vt 1.34683 6.01201
f 8/50/19 24/49/19 7/52/19

usemtl Color_M01
vn -0.304687 -1.288e-15 0.952452
f 13/51/20 8/50/20 24/49/20

f 7/52/20 24/49/20 8/50/20

usemtl Color_M00
vt 0.670818 -1.21589
vt 0.670818 -1.74739
vt 0.788928 -1.21589
f 7/53/12 24/54/12 23/55/12

usemtl Color_M01
f 23/55/11 24/54/11 7/53/11

usemtl Color_M00
vt 1.02712 -0.249515
f 24/54/12 20/56/12 23/55/12

v -0.053387 0.152412 0.0103128
vt 1.02712 -1.74739
f 20/56/12 24/54/12 25/57/12

usemtl Color_M01
f 25/57/11 24/54/11 20/56/11

usemtl Color_M00
vt 1.02712 6.03985
f 13/12/5 25/58/5 24/11/5

f 13/12/5 16/31/5 25/58/5

usemtl Color_M01
f 25/58/6 16/31/6 13/12/6

usemtl Color_M00
vt -0.37971 5.98831
vt -1.8782 6.00046
f 16/28/13 19/59/13 25/60/13

f 16/28/13 17/32/13 19/59/13

usemtl Color_M01
f 19/59/14 17/32/14 16/28/14

f 25/60/14 19/59/14 16/28/14

usemtl Color_M00
vt -0.380682 6.03301
f 25/60/13 19/59/13 20/61/13

usemtl Color_M01
f 20/61/14 19/59/14 25/60/14

f 24/11/6 25/58/6 13/12/6

f 23/55/11 20/56/11 24/54/11

usemtl Color_M00
v -0.0281702 0.152945 0.0120276
vt 0.788928 -0.781011
f 23/55/12 20/56/12 26/62/12

usemtl Color_M01
f 26/62/11 20/56/11 23/55/11

usemtl Color_M00
v -0.0272561 0.152945 0.0091702
vt 0.670818 -0.781011
f 26/62/12 20/56/12 27/63/12

usemtl Color_M01
f 27/63/11 20/56/11 26/62/11

usemtl Color_M00
v -0.0144011 0.153238 0.0132825
vt 0.670818 -0.249515
f 27/63/12 20/56/12 28/64/12

usemtl Color_M01
f 28/64/11 20/56/11 27/63/11

usemtl Color_M00
vt -0.670818 6.03985
f 20/37/6 21/38/6 28/65/6

usemtl Color_M01
f 28/65/5 21/38/5 20/37/5

usemtl Color_M00
v -0.014271 0.146955 0.0133241
vt -0.670818 5.79242
f 28/65/6 21/38/6 29/66/6

usemtl Color_M01
f 29/66/5 21/38/5 28/65/5

usemtl Color_M00
v -0.0271261 0.146662 0.0092118
vt -0.670818 -0.781011
vt -0.670818 -0.249515
f 21/43/11 30/67/11 29/68/11

f 30/67/11 21/43/11 22/22/11

usemtl Color_M01
f 22/22/12 21/43/12 30/67/12

f 21/41/16 22/40/16 18/39/16

f 29/68/12 30/67/12 21/43/12

usemtl Color_M00
vt 0.912052 6.02146
vn 0.304687 3.60025e-15 -0.952452
f 27/69/21 29/41/21 30/40/21

vt 0.380682 6.03301
f 29/41/21 27/69/21 28/70/21

usemtl Color_M01
vn -0.304687 -3.60025e-15 0.952452
f 30/40/22 29/41/22 27/69/22

f 28/70/22 27/69/22 29/41/22

usemtl Color_M00
v -0.0259816 0.146569 0.00564072
vt -0.52318 5.78877
f 30/66/6 31/71/6 27/65/6

f 22/38/6 31/71/6 30/66/6

f 31/71/6 22/38/6 11/33/6

usemtl Color_M01
f 11/33/5 22/38/5 31/71/5

usemtl Color_M00
f 22/45/18 11/17/18 23/44/18

vt -0.912052 6.02146
f 23/44/17 22/45/17 26/72/17

f 26/72/18 22/45/18 23/44/18

vt -0.788928 6.03985
f 30/66/6 26/73/6 22/38/6

f 26/73/6 30/66/6 27/65/6

usemtl Color_M01
f 22/38/5 26/73/5 30/66/5

f 27/65/5 30/66/5 26/73/5

f 27/65/5 31/71/5 30/66/5

usemtl Color_M00
v -0.0260901 0.15181 0.00560602
vt -0.52318 5.99514
f 27/65/6 31/71/6 32/74/6

usemtl Color_M01
f 32/74/5 31/71/5 27/65/5

usemtl Color_M00
v -0.0259835 0.146662 0.00564011
vt -0.52318 5.79242
f 32/74/6 31/71/6 33/75/6

usemtl Color_M01
f 33/75/5 31/71/5 32/74/5

usemtl Color_M00
vt 0.565966 5.72314
vn 0.83104 0.0135194 -0.556048
vt 0.384323 5.78672
vt 0.384261 5.78307
f 1/76/23 33/77/23 31/78/23

vn -0.83104 -0.0135194 0.556048
f 31/78/24 33/77/24 1/76/24

vn 0.304687 -6.48186e-15 -0.952452
vt 1.34184 5.78242
f 31/42/25 5/79/25 33/40/25

f 31/42/25 4/50/25 5/79/25

v -0.0311748 0.143261 0.00397943
vt 1.12126 5.6402
f 4/50/25 31/42/25 34/80/25

vn -0.304687 6.48186e-15 0.952452
f 34/80/26 31/42/26 4/50/26

vt -0.788928 2.21801
vn 0.494035 -0.854958 0.158041
vt -0.52318 1.96693
vt -0.52318 2.21801
f 11/81/27 34/82/27 31/83/27

vt -0.788928 1.96693
f 34/82/27 11/81/27 9/84/27

usemtl Color_M01
vn -0.494035 0.854958 -0.158041
f 9/84/28 11/81/28 34/82/28

f 31/83/28 34/82/28 11/81/28

usemtl Color_M00
vt -0.168871 2.2733
vn 0.543423 -0.838987 -0.028145
vt -0.0929787 2.03397
vt -0.0124147 2.16317
f 31/85/29 34/86/29 1/87/29

vn -0.543423 0.838987 0.028145
f 1/87/30 34/86/30 31/85/30

vt -0.0214932 2.17821
vn 0.545946 -0.83748 -0.0238614
vt -0.102929 2.04956
vt 0.063249 2.11687
f 1/88/31 34/89/31 3/90/31

vn -0.545946 0.83748 0.0238614
f 3/90/32 34/89/32 1/88/32

vt 0.705125 3.67303
vn -0.400204 -0.864111 -0.305202
vt 0.868846 3.59995
vt 0.94265 3.83993
f 3/91/33 34/92/33 4/93/33

vn 0.400204 0.864111 0.305202
f 4/93/34 34/92/34 3/91/34

vt 0.52318 3.6963
f 9/13/7 4/15/7 34/94/7

usemtl Color_M01
f 4/15/8 8/14/8 9/13/8

f 34/94/8 4/15/8 9/13/8

usemtl Color_M00
f 5/79/26 4/50/26 31/42/26

usemtl Color_M01
f 5/10/6 6/9/6 4/8/6

usemtl Color_M00
v -0.0366178 0.152022 0.00223823
vt 0.52318 6.01294
f 5/10/5 6/9/5 35/95/5

usemtl Color_M01
f 35/95/6 6/9/6 5/10/6

usemtl Color_M00
v -0.0305478 0.1545 -0.000498081
vt 1.09109 6.08935
vn -0.406016 -0.0144542 -0.913752
vt 1.35322 5.99177
vt 1.35366 6.01868
f 36/96/35 35/97/35 6/98/35

vn 0.406016 0.0144542 0.913752
f 6/98/36 35/97/36 36/96/36

v -0.0261136 0.152945 0.0055985
vn 0.304687 -9.36191e-15 -0.952452
vt 1.34625 5.9851
f 37/69/37 35/99/37 6/52/37

vt 0.911081 5.97676
f 35/99/37 37/69/37 32/100/37

vn -0.304687 9.36191e-15 0.952452
f 32/100/38 37/69/38 35/99/38

vt 0.720716 6.09457
vn 0.810206 0.0128898 -0.586003
vt 0.423921 6.03336
vt 0.423139 5.98866
f 36/101/39 37/102/39 32/103/39

vt 0.114453 4.24735
vn 0.533202 0.827296 -0.176853
vt 0.397231 4.3563
v -0.0314387 0.156013 0.003895
vt 0.244112 4.46236
f 37/104/40 36/105/40 38/106/40

vn -0.533202 -0.827296 0.176853
f 38/106/41 36/105/41 37/104/41

vt 0.78954 2.61359
vn -0.411876 0.832592 -0.370336
vt 1.02967 2.48603
vt 0.941603 2.72116
f 36/107/42 6/108/42 38/109/42

vn 0.411876 -0.832592 0.370336
f 38/109/43 6/108/43 36/107/43

vt 0.52318 1.96693
v -0.0334954 0.156013 0.0103241
vt 0.788928 2.21801
vt 0.52318 2.21801
f 6/110/28 39/111/28 38/112/28

vt 0.670818 1.96693
f 7/113/28 39/111/28 6/110/28

vt 0.788928 1.96693
f 39/111/28 7/113/28 23/114/28

usemtl Color_M01
f 23/114/27 7/113/27 39/111/27

f 7/11/6 23/46/6 8/12/6

f 6/110/27 39/111/27 7/113/27

f 38/112/27 39/111/27 6/110/27

usemtl Color_M00
vt -0.788928 3.6963
vt -0.52318 3.94738
vt -0.788928 3.94738
f 26/115/8 38/116/8 39/117/8

vt -0.670818 3.6963
f 38/116/8 26/115/8 27/118/8

usemtl Color_M01
f 39/117/7 38/116/7 26/115/7

f 27/118/7 26/115/7 38/116/7

usemtl Color_M00
vt -0.52318 3.6963
f 38/116/8 27/118/8 37/119/8

usemtl Color_M01
f 37/119/7 27/118/7 38/116/7

usemtl Color_M00
vt -0.52318 6.03985
f 27/65/6 32/74/6 37/120/6

usemtl Color_M01
f 37/120/5 32/74/5 27/65/5

usemtl Color_M00
vn -0.810206 -0.0128898 0.586003
f 32/103/44 37/102/44 36/101/44

vt 0.927938 2.56345
vn 0.136534 -0.865866 -0.481284
vt 1.36287 2.58012
vt 1.16237 2.77514
f 32/121/45 35/122/45 36/123/45

vn 0.304687 7.2861e-15 -0.952452
f 32/100/46 5/79/46 35/99/46

f 5/79/46 32/100/46 33/40/46

vn -0.304687 -7.2861e-15 0.952452
f 33/40/47 32/100/47 5/79/47

f 35/99/47 5/79/47 32/100/47

vn -0.136534 0.865866 0.481284
f 36/123/48 35/122/48 32/121/48

f 33/40/26 5/79/26 31/42/26

vt 0.88874 3.38375
vn 0.169219 0.864143 -0.473944
vt 1.2082 3.28459
vt 1.32367 3.40048
f 33/124/49 2/125/49 5/126/49

vt 1.03412 3.25765
f 2/125/49 33/124/49 1/127/49

vn -0.169219 -0.864143 0.473944
f 5/126/50 2/125/50 33/124/50

f 1/127/50 33/124/50 2/125/50

vt 1.13217 6.14224
f 37/69/37 6/52/37 38/128/37

f 6/52/38 35/99/38 37/69/38

f 38/128/38 6/52/38 37/69/38

vt -1.13217 6.14224
vn -0.304687 1.61618e-14 0.952452
f 39/129/51 23/44/51 26/72/51

usemtl Color_M01
vn 0.304687 -1.61618e-14 -0.952452
f 26/72/52 23/44/52 39/129/52

f 6/9/6 7/11/6 4/8/6

f 30/66/5 31/71/5 22/38/5

f 18/43/12 11/22/12 12/20/12

g Mesh2 Model

l 34 3

l 34 9

l 31 34

l 1 31

l 1 2

l 33 1

l 32 33

l 32 36

l 37 32

l 37 36

l 38 37

l 36 38

l 36 6

l 35 36

l 5 35

l 5 2

l 34 4

l 1 34

l 1 3

l 2 3

l 4 3

l 4 8

l 8 7

l 8 13

l 8 10

l 9 10

l 11 9

l 31 11

l 5 33

l 10 11

l 10 23

l 23 39

l 26 23

l 39 26

l 38 39

l 6 38

l 35 32

l 6 7

l 7 24

l 7 23

l 24 25

l 13 24

l 13 14

l 14 12

l 15 16

l 20 25

l 28 20

l 27 28

l 37 27

l 27 30

l 27 26

l 26 22

l 22 21

l 22 30

l 30 29

l 28 29

l 21 29

l 18 12

l 11 18

l 19 17

l 20 19

