# Alias OBJ Model File
# Exported from SketchUp, (c) 2000-2012 Trimble Navigation Limited
# File units = meters

mtllib GasSac_Valve_Closed.mtl

g Mesh1 Model

usemtl Color_I03
v -0.0228448 0.208707 0.0123614
vt -0.708355 8.21681
vn -0.304687 1.88847e-17 0.952452
v -0.0253528 0.209626 0.0115591
vt -0.812026 8.25301
v -0.0268437 0.208738 0.0110822
vt -0.873652 8.21803
f 1/1/1 2/2/1 3/3/1

v -0.0248357 0.209934 0.0117245
vt -0.790652 8.26514
f 2/2/1 1/1/1 4/4/1

vn 0.304687 -1.88847e-17 -0.952452
f 3/3/2 2/2/2 1/1/2

vt 0.737567 3.36751
vn -0.470134 0.869687 -0.150395
v -0.0262381 0.208738 0.00918899
vt 0.659311 3.29665
vt 0.737567 3.29665
f 2/5/3 5/6/3 3/7/3

v -0.0247472 0.209626 0.00966592
vt 0.659311 3.36751
f 5/6/3 2/5/3 6/8/3

vn 0.470134 -0.869687 0.150395
f 3/7/4 5/6/4 2/5/4

v -0.0357624 0.208812 0.0061422
vt -0.659311 1.3279
vn 0.00701949 0.999973 0.00224552
vt -0.737567 0.934194
vt -0.659311 0.934194
f 7/9/5 3/10/5 5/11/5

v -0.036368 0.208812 0.0080354
vt -0.737567 1.3279
f 3/10/5 7/9/5 8/12/5

vn -0.00701949 -0.999973 -0.00224552
f 8/12/6 7/9/6 3/10/6

vt 0.659311 8.21137
vn -0.952427 0.00736991 -0.304679
v -0.036385 0.206388 0.00802995
vt 0.737567 8.11593
vt 0.737567 8.21137
f 7/13/7 9/14/7 8/15/7

v -0.0357794 0.206388 0.00613676
vt 0.659311 8.11593
f 9/14/7 7/13/7 10/16/7

vn 0.952427 -0.00736991 0.304679
f 8/15/8 9/14/8 7/13/8

vt -1.26805 8.1255
vt -1.26734 8.22093
f 9/17/1 3/3/1 8/18/1

f 9/17/1 1/1/1 3/3/1

v -0.0133205 0.208633 0.0154082
vt -0.314665 8.21391
f 9/17/1 11/19/1 1/1/1

v -0.0268607 0.206314 0.0110767
vt -0.874355 8.12259
f 12/20/1 11/19/1 9/17/1

v -0.0228618 0.206283 0.012356
vt -0.709058 8.12138
f 13/21/1 11/19/1 12/20/1

v -0.0133375 0.206209 0.0154028
vt -0.315368 8.11847
f 11/19/1 13/21/1 14/22/1

f 14/22/2 13/21/2 11/19/2

v -0.022255 0.206283 0.0104592
vt 0.659163 0.768893
vt 0.737567 0.375192
vt 0.737567 0.768893
f 15/23/6 14/24/6 13/25/6

v -0.0127308 0.206209 0.013506
vt 0.659163 0.375192
f 14/24/6 15/23/6 16/26/6

f 13/25/5 14/24/5 15/23/5

f 16/26/5 15/23/5 14/24/5

vt 0.709058 8.12138
vn 0.304687 -2.72523e-16 -0.952452
v -0.0127138 0.208633 0.0135115
vt 0.314665 8.21391
vt 0.315368 8.11847
f 15/27/9 17/28/9 16/29/9

v -0.022238 0.208707 0.0104647
vt 0.708355 8.21681
f 17/28/9 15/27/9 18/30/9

vn -0.304687 2.72523e-16 0.952452
f 16/29/10 17/28/10 15/27/10

vt -0.659163 8.21137
vt -0.737567 8.11593
vt -0.659163 8.11593
f 17/31/8 14/32/8 16/33/8

vt -0.737567 8.21137
f 14/32/8 17/31/8 11/34/8

f 11/34/7 17/31/7 14/32/7

vt -0.659163 0.768893
vt -0.737567 0.375192
vt -0.659163 0.375192
f 18/35/5 11/36/5 17/37/5

vt -0.737567 0.768893
f 11/36/5 18/35/5 1/38/5

f 1/38/6 18/35/6 11/36/6

v -0.0242301 0.209934 0.00983133
vt -0.659311 4.867
vn 0.482292 0.862317 0.154284
vt -0.737567 4.77156
vt -0.659163 4.77156
f 19/39/11 1/40/11 18/41/11

vt -0.737567 4.867
f 1/40/11 19/39/11 4/42/11

vn -0.482292 -0.862317 -0.154284
f 4/42/12 19/39/12 1/40/12

vt 0.737567 3.39208
vt 0.659311 3.39208
f 6/8/3 4/43/3 19/44/3

f 4/43/3 6/8/3 2/5/3

f 2/5/4 6/8/4 4/43/4

f 6/8/4 2/5/4 5/6/4

v -0.0237968 0.208738 0.00155766
vt 0.343866 3.29665
f 6/8/3 20/45/3 5/6/3

v -0.022306 0.209626 0.00203459
vt 0.343866 3.36751
f 20/45/3 6/8/3 21/46/3

f 5/6/4 20/45/4 6/8/4

vt 0.343866 8.21137
v -0.0262551 0.206314 0.00918355
f 20/47/7 22/16/7 5/13/7

v -0.0238139 0.206314 0.00155222
vt 0.343866 8.11593
f 22/16/7 20/47/7 23/48/7

f 5/13/8 22/16/8 20/47/8

vt 1.26805 8.1255
vn 0.304687 -9.18972e-17 -0.952452
vt 0.873652 8.21803
vt 0.874355 8.12259
f 10/49/13 5/50/13 22/51/13

vt 1.26734 8.22093
f 5/50/13 10/49/13 7/52/13

vn -0.304687 9.18972e-17 0.952452
f 22/51/14 5/50/14 10/49/14

f 7/52/14 10/49/14 5/50/14

f 10/16/8 7/13/8 9/14/8

vt 0.659311 1.3279
vt 0.737567 0.934194
vt 0.737567 1.3279
f 10/53/6 12/54/6 9/55/6

vt 0.659311 0.934194
f 12/54/6 10/53/6 22/56/6

f 9/55/5 12/54/5 10/53/5

f 9/17/2 11/19/2 12/20/2

f 1/1/2 11/19/2 9/17/2

f 3/3/2 1/1/2 9/17/2

f 8/18/2 3/3/2 9/17/2

f 12/20/2 11/19/2 13/21/2

v -0.026747 0.206244 0.0111131
vt -0.869654 8.11983
f 24/57/1 13/21/1 12/20/1

v -0.0241636 0.205507 0.0119395
vt -0.762869 8.09084
f 24/57/1 25/58/1 13/21/1

v -0.0248698 0.205086 0.0117136
vt -0.792058 8.07427
f 25/58/1 24/57/1 26/59/1

f 26/59/2 24/57/2 25/58/2

v -0.0237001 0.206244 0.0015886
vt 0.343866 4.86155
vt 0.737567 4.77156
vt 0.737567 4.86155
f 27/60/12 26/61/12 24/62/12

v -0.0218229 0.205086 0.00218912
vt 0.343866 4.77156
f 26/61/12 27/60/12 28/63/12

f 24/62/11 26/61/11 27/60/11

f 28/63/11 27/60/11 26/61/11

vt -0.343866 3.29665
vt -0.737567 3.33021
vt -0.737567 3.29665
f 28/64/4 25/65/4 26/66/4

v -0.0211168 0.205507 0.00241502
vt -0.343866 3.33021
f 25/65/4 28/64/4 29/67/4

f 26/66/3 25/65/3 28/64/3

f 29/67/3 28/64/3 25/65/3

vt -0.737567 3.39208
f 29/67/4 13/68/4 25/65/4

vt -0.659163 3.39208
f 13/68/4 29/67/4 15/69/4

f 25/65/3 13/68/3 29/67/3

f 13/21/2 25/58/2 24/57/2

f 12/20/2 13/21/2 24/57/2

vt 0.659311 4.867
vt 0.737567 4.867
f 22/70/12 24/62/12 12/71/12

f 24/62/12 22/70/12 27/60/12

f 12/71/11 24/62/11 22/70/11

f 27/60/11 22/70/11 24/62/11

vt 0.343866 4.867
f 27/60/12 22/70/12 23/72/12

f 23/72/11 22/70/11 27/60/11

f 23/48/8 20/47/8 22/16/8

f 22/56/5 10/53/5 12/54/5

f 15/69/3 29/67/3 13/68/3

v -0.0198149 0.206283 0.00283147
vt -0.343866 3.39208
f 15/69/4 29/67/4 30/73/4

f 30/73/3 29/67/3 15/69/3

v -0.0197979 0.208707 0.00283691
vt -0.343866 8.21137
vt -0.343866 8.11593
f 31/74/8 15/33/8 30/75/8

f 15/33/8 31/74/8 18/31/8

f 18/31/7 31/74/7 15/33/7

v -0.0217889 0.209934 0.00220001
vt -0.343866 4.867
vt -0.343866 4.77156
f 32/76/11 18/41/11 31/77/11

f 18/41/11 32/76/11 19/39/11

f 19/39/12 32/76/12 18/41/12

vt 0.343866 3.39208
f 21/46/3 19/44/3 32/78/3

f 19/44/3 21/46/3 6/8/3

f 6/8/4 21/46/4 19/44/4

f 21/46/4 6/8/4 20/45/4

f 32/78/4 19/44/4 21/46/4

f 19/44/4 4/43/4 6/8/4

f 31/77/12 18/41/12 32/76/12

f 18/41/12 1/40/12 19/39/12

f 30/75/7 15/33/7 31/74/7

f 18/30/10 15/27/10 17/28/10

f 17/37/6 11/36/6 18/35/6

f 5/11/6 3/10/6 7/9/6

f 4/4/2 1/1/2 2/2/2

f 16/33/7 14/32/7 17/31/7

g Mesh2 Model

l 31 30

l 32 31

l 20 21

l 23 20

l 28 27

l 30 29

l 30 15

l 15 13

l 18 15

l 31 18

l 18 1

l 18 17

l 18 19

l 32 19

l 19 4

l 21 6

l 6 2

l 6 5

l 20 5

l 5 3

l 5 22

l 5 7

l 7 8

l 7 10

l 10 9

l 22 10

l 23 22

l 22 12

l 26 24

l 13 25

l 13 14

l 16 14

l 17 16

l 17 11

l 11 14

l 1 11

l 4 1

l 3 2

l 3 8

l 9 8

l 12 9

l 15 16

l 29 25

l 28 26

l 27 24

