# Alias OBJ Model File
# Exported from SketchUp, (c) 2000-2012 Trimble Navigation Limited
# File units = meters

mtllib GasSac_Valve_Closed_Highlight.mtl

g Mesh1 Model

usemtl Color_M00
v -0.0225933 0.208824 0.0127419
vt -0.692269 8.2214
vn -0.307342 1.88678e-17 0.951599
v -0.0253321 0.209837 0.0118574
vt -0.80558 8.26131
v -0.0269601 0.208858 0.0113316
vt -0.872935 8.22274
f 1/1/1 2/2/1 3/3/1

v -0.0247674 0.210177 0.0120398
vt -0.782218 8.27468
f 2/2/1 1/1/1 4/4/1

vn 0.307342 -1.88678e-17 -0.951599
f 3/3/2 2/2/2 1/1/2

vt 0.746265 3.40192
vn -0.473644 0.867836 -0.150075
v -0.0262988 0.208858 0.00924432
vt 0.659689 3.32431
vt 0.745891 3.32431
f 2/5/3 5/6/3 3/7/3

v -0.0246707 0.209837 0.00977013
vt 0.660064 3.40192
f 5/6/3 2/5/3 6/8/3

vn 0.473644 -0.867836 0.150075
f 3/7/4 5/6/4 2/5/4

v -0.0366993 0.208939 0.00588523
vt -0.6573 1.3685
vn 0.00708698 0.999972 0.00224552
vt -0.745891 0.938197
vt -0.659689 0.938197
f 7/9/5 3/10/5 5/11/5

v -0.0373606 0.208939 0.00797248
vt -0.743501 1.3685
f 3/10/5 7/9/5 8/12/5

vn -0.00708698 -0.999972 -0.00224552
f 8/12/6 7/9/6 3/10/6

vt 0.6573 8.21617
vn -0.953266 0.00730616 -0.302043
v -0.0373792 0.206266 0.00796648
vt 0.743497 8.11095
vt 0.743501 8.21617
f 7/13/7 9/14/7 8/15/7

v -0.0367178 0.206266 0.00587923
vt 0.657295 8.11095
f 9/14/7 7/13/7 10/16/7

vn 0.953266 -0.00730616 0.302043
f 8/15/8 9/14/8 7/13/8

vt -1.304 8.12073
vt -1.30323 8.22594
f 9/17/1 1/1/1 8/18/1

v -0.0121928 0.208742 0.016101
vt -0.261974 8.2182
f 9/17/1 11/19/1 1/1/1

v -0.0269787 0.206185 0.0113256
vt -0.873704 8.11753
f 12/20/1 11/19/1 9/17/1

v -0.0226119 0.206151 0.0127359
vt -0.693038 8.11618
f 13/21/1 11/19/1 12/20/1

v -0.0122114 0.20607 0.016095
vt -0.262743 8.11299
f 11/19/1 13/21/1 14/22/1

f 14/22/2 13/21/2 11/19/2

v -0.0219493 0.206151 0.0106447
vt 0.660526 0.757515
vt 0.74928 0.327215
vt 0.74689 0.757515
f 15/23/6 14/24/6 13/25/6

v -0.0115488 0.20607 0.0140038
vt 0.662916 0.327215
f 14/24/6 15/23/6 16/26/6

f 13/25/5 14/24/5 15/23/5

f 16/26/5 15/23/5 14/24/5

vt 0.693517 8.11618
vn 0.307342 -2.72279e-16 -0.951599
v -0.0115302 0.208742 0.0140098
vt 0.262454 8.2182
vt 0.263222 8.11299
f 15/27/9 17/28/9 16/29/9

v -0.0219307 0.208824 0.0106507
vt 0.692749 8.2214
f 17/28/9 15/27/9 18/30/9

vn -0.307342 2.72279e-16 0.951599
f 16/29/10 17/28/10 15/27/10

vt -0.66292 8.21604
vt -0.74928 8.11082
vt -0.662916 8.11082
f 17/31/8 14/32/8 16/33/8

vt -0.749284 8.21604
f 14/32/8 17/31/8 11/34/8

f 11/34/7 17/31/7 14/32/7

vt -0.66053 0.757528
vt -0.749284 0.327228
vt -0.66292 0.327228
f 18/35/5 11/36/5 17/37/5

vt -0.746894 0.757528
f 11/36/5 18/35/5 1/38/5

f 1/38/6 18/35/6 11/36/6

v -0.0241061 0.210177 0.0099525
vt -0.660193 4.89373
vn 0.485839 0.860386 0.153939
vt -0.746894 4.78918
vt -0.66053 4.78918
f 19/39/11 1/40/11 18/41/11

vt -0.746395 4.89373
f 1/40/11 19/39/11 4/42/11

vn -0.485839 -0.860386 -0.153939
f 4/42/12 19/39/12 1/40/12

vt 0.746395 3.42884
vt 0.660193 3.42884
f 6/8/3 4/43/3 19/44/3

f 4/43/3 6/8/3 2/5/3

f 2/5/4 6/8/4 4/43/4

f 6/8/4 2/5/4 5/6/4

v -0.0236329 0.208858 0.000830781
vt 0.312218 3.32431
f 6/8/3 20/45/3 5/6/3

v -0.0220049 0.209837 0.00135659
vt 0.312592 3.40192
f 20/45/3 6/8/3 21/46/3

f 5/6/4 20/45/4 6/8/4

vt 0.312218 8.21612
v -0.0263173 0.206185 0.00923832
vt 0.659685 8.1109
vt 0.659689 8.21612
f 20/47/7 22/48/7 5/49/7

v -0.0236515 0.206185 0.000824779
vt 0.312214 8.1109
f 22/48/7 20/47/7 23/50/7

f 5/49/8 22/48/8 20/47/8

vt 1.30448 8.12073
vn 0.307342 -9.18149e-17 -0.951599
vt 0.873414 8.22274
vt 0.874183 8.11753
f 10/51/13 5/52/13 22/53/13

vt 1.30371 8.22594
f 5/52/13 10/51/13 7/54/13

vn -0.307342 9.18149e-17 0.951599
f 22/53/14 5/52/14 10/51/14

f 7/54/14 10/51/14 5/52/14

f 10/16/8 7/13/8 9/14/8

vt 0.657295 1.36848
vt 0.745887 0.938184
vt 0.743497 1.36848
f 10/55/6 12/56/6 9/57/6

vt 0.659685 0.938184
f 12/56/6 10/55/6 22/58/6

f 9/57/5 12/56/5 10/55/5

f 9/17/2 11/19/2 12/20/2

f 1/1/2 11/19/2 9/17/2

f 8/18/2 1/1/2 9/17/2

f 8/18/1 1/1/1 3/3/1

f 3/3/2 1/1/2 8/18/2

f 12/20/2 11/19/2 13/21/2

v -0.0268545 0.206108 0.0113657
vt -0.868566 8.11448
f 24/59/1 13/21/1 12/20/1

v -0.0240335 0.205296 0.0122768
vt -0.751852 8.08251
f 24/59/1 25/60/1 13/21/1

v -0.0248046 0.204832 0.0120278
vt -0.783755 8.06425
f 25/60/1 24/59/1 26/61/1

f 26/61/2 24/59/2 25/60/2

v -0.0235273 0.206108 0.000864888
vt 0.312242 4.88637
vt 0.746386 4.7878
vt 0.745915 4.88637
f 27/62/12 26/63/12 24/64/12

v -0.0214774 0.204832 0.00152696
vt 0.312713 4.7878
f 26/63/12 27/62/12 28/65/12

f 24/64/11 26/63/11 27/62/11

f 28/65/11 27/62/11 26/63/11

vt -0.312713 3.32295
vt -0.746564 3.35972
vt -0.746386 3.32295
f 28/66/4 25/67/4 26/68/4

v -0.0207063 0.205296 0.00177601
vt -0.31289 3.35972
f 25/67/4 28/66/4 29/69/4

f 26/68/3 25/67/3 28/66/3

f 29/69/3 28/66/3 25/67/3

vt -0.74689 3.42749
f 29/69/4 13/70/4 25/67/4

vt -0.660526 3.42749
f 13/70/4 29/69/4 15/71/4

f 25/67/3 13/70/3 29/69/3

f 13/21/2 25/60/2 24/59/2

f 12/20/2 13/21/2 24/59/2

vt 0.659685 4.89235
vt 0.745887 4.89235
f 22/72/12 24/64/12 12/73/12

f 24/64/12 22/72/12 27/62/12

f 12/73/11 24/64/11 22/72/11

f 27/62/11 22/72/11 24/64/11

vt 0.312214 4.89235
f 27/62/12 22/72/12 23/74/12

f 23/74/11 22/72/11 27/62/11

f 23/50/8 20/47/8 22/48/8

f 22/58/5 10/55/5 12/56/5

f 15/71/3 29/69/3 13/70/3

v -0.0192847 0.206151 0.00223515
vt -0.313217 3.42749
f 15/71/4 29/69/4 30/75/4

f 30/75/3 29/69/3 15/71/3

v -0.0192661 0.208824 0.00224115
vt -0.313221 8.21609
vt -0.660526 8.11087
vt -0.313217 8.11087
f 31/76/8 15/77/8 30/78/8

vt -0.66053 8.21609
f 15/77/8 31/76/8 18/79/8

f 18/79/7 31/76/7 15/77/7

v -0.0214402 0.210177 0.00153897
vt -0.312722 4.89373
vt -0.313221 4.78918
f 32/80/11 18/41/11 31/81/11

f 18/41/11 32/80/11 19/39/11

f 19/39/12 32/80/12 18/41/12

vt 0.312722 3.42884
f 21/46/3 19/44/3 32/82/3

f 19/44/3 21/46/3 6/8/3

f 6/8/4 21/46/4 19/44/4

f 21/46/4 6/8/4 20/45/4

f 32/82/4 19/44/4 21/46/4

f 19/44/4 4/43/4 6/8/4

f 31/81/12 18/41/12 32/80/12

f 18/41/12 1/40/12 19/39/12

f 30/78/7 15/77/7 31/76/7

f 18/30/10 15/27/10 17/28/10

f 17/37/6 11/36/6 18/35/6

f 5/11/6 3/10/6 7/9/6

f 4/4/2 1/1/2 2/2/2

f 16/33/7 14/32/7 17/31/7

g Mesh2 Model

l 31 30

l 32 31

l 20 21

l 23 20

l 28 27

l 30 29

l 30 15

l 15 13

l 18 15

l 31 18

l 18 1

l 18 17

l 18 19

l 32 19

l 19 4

l 21 6

l 6 2

l 6 5

l 20 5

l 5 3

l 5 22

l 5 7

l 7 8

l 7 10

l 10 9

l 22 10

l 23 22

l 22 12

l 26 24

l 13 25

l 13 14

l 16 14

l 17 16

l 17 11

l 11 14

l 1 11

l 4 1

l 3 2

l 3 8

l 9 8

l 12 9

l 15 16

l 29 25

l 28 26

l 27 24

