# Alias OBJ Model File
# Exported from SketchUp, (c) 2000-2012 Trimble Navigation Limited
# File units = meters

mtllib DistilledWaterContainer.mtl

g Mesh1 Component_1_1 Model

usemtl Color_M01
v -0.28409 0.35134 0.19
vt 0.671564 29.7772
vn 0.5 0 -0.866025
v 0.045 -0.405 0.38
vt -14.2891 0
v -0.28409 -0.405 0.19
vt 0.671564 0
f 1/1/1 2/2/1 3/3/1

v 0.045 0.35134 0.38
vt -14.2891 29.7772
f 2/2/1 1/1/1 4/4/1

vn -0.5 -0 0.866025
f 3/3/2 2/2/2 1/1/2

vt 16.4996 0
vn 0 1 -0
v -0.28409 -0.405 -0.19
vt 3.54331 22.4409
vt 3.54331 7.48031
f 2/5/3 5/6/3 3/7/3

v 0.045 -0.405 -0.38
vt 16.4996 29.9213
f 5/6/3 2/5/3 6/8/3

vn -0 -1 0
f 3/7/4 5/6/4 2/5/4

v -0.28409 -0.390981 0.015
vt 14.3701 0.551938
vn 1 0 -0
vt 7.48031 0
vt 22.4409 0
f 7/9/5 3/10/5 5/11/5

v -0.28409 -0.365 0.03
vt 13.7795 1.5748
f 8/12/5 3/10/5 7/9/5

vt 7.48031 29.7772
f 3/10/5 8/12/5 1/13/5

vn -1 -0 0
f 1/13/6 8/12/6 3/10/6

v -0.28409 0.35134 -0.19
vt 22.4409 29.7772
f 8/12/5 9/14/5 1/13/5

v -0.28409 -0.339019 0.015
vt 14.3701 2.59767
f 9/14/5 8/12/5 10/15/5

f 1/13/6 9/14/6 8/12/6

vt 22.4409 27.2185
vn 0.851722 -0.523994 3.39771e-30
v -0.251077 0.405 0.17094
vt 8.2307 29.6989
vt 7.48031 27.2185
f 9/16/7 11/17/7 1/18/7

v -0.251077 0.405 -0.17094
vt 21.6906 29.6989
f 11/17/7 9/16/7 12/19/7

vn -0.851722 0.523994 -3.39771e-30
f 1/18/8 11/17/8 9/16/8

vt -0.0788219 32.1651
vn 0.425861 -0.523994 -0.737613
vt -14.2891 29.6847
vt 0.671564 29.6847
f 11/20/9 4/21/9 1/22/9

v 0.045 0.405 0.34188
vt -13.5387 32.1651
f 4/21/9 11/20/9 13/23/9

vn -0.425861 0.523994 0.737613
f 1/22/10 4/21/10 11/20/10

f 4/4/2 1/1/2 2/2/2

vt -3.54331 7.48031
vn 0 -1 -0
v 0.045 0.35134 -0.38
vt -16.4996 29.9213
vt -16.4996 0
f 1/24/11 14/25/11 4/26/11

vt -3.54331 22.4409
f 14/25/11 1/24/11 9/27/11

vn -0 1 0
f 9/27/12 1/24/12 14/25/12

f 4/26/12 14/25/12 1/24/12

v 0.37409 0.35134 -0.19
vt -29.4559 22.4409
f 4/26/11 14/25/11 15/28/11

f 15/28/12 14/25/12 4/26/12

v 0.341077 0.405 -0.17094
vt 13.5387 9.9414
vn -0.425861 -0.523994 0.737613
vt -0.671564 7.46101
vt 14.2891 7.46101
f 16/29/13 14/30/13 15/31/13

v 0.045 0.405 -0.34188
vt 0.0788219 9.9414
f 14/30/13 16/29/13 17/32/13

vn 0.425861 0.523994 -0.737613
f 15/31/14 14/30/14 16/29/14

vt -0.671564 0
vn -0.5 0 0.866025
vt 14.2891 29.7772
vt -0.671564 29.7772
f 6/33/15 15/34/15 14/35/15

v 0.37409 -0.405 -0.19
vt 14.2891 0
f 15/34/15 6/33/15 18/36/15

vn 0.5 -0 -0.866025
f 18/36/16 6/33/16 15/34/16

v 0.37409 -0.405 0.19
vt 29.4559 7.48031
vt 29.4559 22.4409
f 6/8/3 19/37/3 18/38/3

f 6/8/3 2/5/3 19/37/3

f 6/8/4 2/5/4 5/6/4

f 19/37/4 2/5/4 6/8/4

vn -0.5 0 -0.866025
vt -29.2497 0
f 4/4/17 19/39/17 2/2/17

v 0.37409 0.35134 0.19
vt -29.2497 29.7772
f 19/39/17 4/4/17 20/40/17

vn 0.5 -0 0.866025
f 2/2/18 19/39/18 4/4/18

f 20/40/18 4/4/18 19/39/18

vt -15.0395 23.5194
vn -0.425861 -0.523994 -0.737613
vt -29.2497 21.039
vt -14.2891 21.039
f 13/41/19 20/42/19 4/43/19

v 0.341077 0.405 0.17094
vt -28.4993 23.5194
f 20/42/19 13/41/19 21/44/19

vn 0.425861 0.523994 0.737613
f 4/43/20 20/42/20 13/41/20

vt -29.4559 7.48031
f 4/26/11 15/28/11 20/45/11

f 20/45/12 15/28/12 4/26/12

vt -8.2307 12.4076
vn -0.851722 -0.523994 -3.39771e-30
vt -22.4409 9.92718
vt -7.48031 9.92718
f 21/46/21 15/47/21 20/48/21

vt -21.6906 12.4076
f 15/47/21 21/46/21 16/49/21

vn 0.851722 0.523994 3.39771e-30
f 20/48/22 15/47/22 21/46/22

vt -22.4409 29.7772
vn -1 0 -0
vt -7.48031 0
vt -7.48031 29.7772
f 15/50/23 19/51/23 20/52/23

vt -22.4409 0
f 19/51/23 15/50/23 18/53/23

vn 1 -0 0
f 20/52/24 19/51/24 15/50/24

f 18/53/24 15/50/24 19/51/24

f 18/38/4 19/37/4 6/8/4

f 16/49/22 21/46/22 15/47/22

vt -16.4996 1.50077
vt -28.1562 21.6906
vt -28.1562 8.2307
f 13/54/11 16/55/11 21/56/11

vt -16.4996 28.4205
f 13/54/11 17/57/11 16/55/11

vt -4.84301 8.2307
f 11/58/11 17/57/11 13/54/11

vt -4.84301 21.6906
f 17/57/11 11/58/11 12/59/11

f 12/59/12 11/58/12 17/57/12

f 12/19/8 9/16/8 11/17/8

vt 14.2891 16.1067
vn 0.425861 -0.523994 0.737613
vt 28.4993 18.5871
vt 15.0395 18.5871
f 9/60/25 17/61/25 12/62/25

vt 29.2497 16.1067
f 17/61/25 9/60/25 14/63/25

vn -0.425861 0.523994 -0.737613
f 14/63/26 9/60/26 17/61/26

vn 0.5 0 0.866025
vt 29.2497 29.7772
f 5/36/27 14/64/27 9/34/27

vt 29.2497 0
f 14/64/27 5/36/27 6/65/27

vn -0.5 -0 -0.866025
f 6/65/28 5/36/28 14/64/28

f 9/34/28 14/64/28 5/36/28

v -0.28409 -0.365 -0.03
vt 16.1417 1.5748
f 9/14/5 22/66/5 5/11/5

v -0.28409 -0.339019 -0.015
vt 15.5512 2.59767
f 9/14/5 23/67/5 22/66/5

f 9/14/5 10/15/5 23/67/5

f 10/15/6 8/12/6 9/14/6

usemtl Color_M08
f 7/9/5 10/15/5 8/12/5

v -0.28409 -0.36 0.005
vt 14.7638 1.77165
f 10/15/5 7/9/5 24/68/5

f 8/12/6 10/15/6 7/9/6

f 24/68/6 7/9/6 10/15/6

v -0.28409 -0.37 0.005
vt 14.7638 1.37795
f 24/68/5 7/9/5 25/69/5

f 25/69/6 7/9/6 24/68/6

v -0.28409 -0.390981 -0.015
vt 15.5512 0.551938
f 26/70/5 25/69/5 7/9/5

v -0.28409 -0.37 -0.005
vt 15.1575 1.37795
f 25/69/5 26/70/5 27/71/5

f 7/9/6 25/69/6 26/70/6

f 27/71/6 26/70/6 25/69/6

v -0.28409 -0.36 -0.005
vt 15.1575 1.77165
f 27/71/5 26/70/5 28/72/5

f 28/72/6 26/70/6 27/71/6

f 28/72/5 26/70/5 23/67/5

f 23/67/6 26/70/6 28/72/6

f 23/67/5 26/70/5 22/66/5

f 22/66/6 26/70/6 23/67/6

usemtl Color_M01
f 26/70/5 5/11/5 22/66/5

f 7/9/5 5/11/5 26/70/5

f 5/11/6 3/10/6 7/9/6

f 7/9/6 3/10/6 8/12/6

f 26/70/6 5/11/6 7/9/6

f 22/66/6 5/11/6 26/70/6

f 5/11/6 22/66/6 9/14/6

f 22/66/6 23/67/6 9/14/6

f 23/67/6 10/15/6 9/14/6

usemtl Color_M08
f 10/15/5 24/68/5 23/67/5

f 23/67/6 24/68/6 10/15/6

f 23/67/5 24/68/5 28/72/5

f 28/72/6 24/68/6 23/67/6

v -0.37409 -0.36 0.005
vt 0 14.7638
vt -3.54331 15.1575
vt -3.54331 14.7638
f 29/73/11 28/74/11 24/75/11

v -0.37409 -0.36 -0.005
vt 0 15.1575
f 28/74/11 29/73/11 30/76/11

f 30/76/12 29/73/12 28/74/12

v -0.37409 -0.38 -0.005
vt 15.1575 0.984252
f 29/68/5 31/77/5 30/72/5

v -0.37409 -0.38 0.005
vt 14.7638 0.984252
f 31/77/5 29/68/5 32/78/5

f 32/78/6 29/68/6 31/77/6

vt 0 1.77165
vn 0 0 -1
v -0.361567 -0.38 0.005
vt -0.493006 0.984252
vt 0 0.984252
f 29/79/29 33/80/29 32/81/29

v -0.361567 -0.37 0.005
vt -0.493006 1.37795
f 33/80/29 29/79/29 34/82/29

vn -0 -0 1
f 32/81/30 33/80/30 29/79/30

usemtl Color_M01
vt 0.493006 14.7638
f 33/83/3 31/76/3 32/73/3

v -0.361567 -0.38 -0.005
vt 0.493006 15.1575
f 31/76/3 33/83/3 35/84/3

usemtl Color_M08
f 32/73/4 31/76/4 33/83/4

f 35/84/4 33/83/4 31/76/4

usemtl Color_M01
vt -14.7638 0.984252
v -0.361567 -0.37 -0.005
vt -15.1575 1.37795
vt -15.1575 0.984252
f 33/85/23 36/86/23 35/87/23

vt -14.7638 1.37795
f 36/86/23 33/85/23 34/88/23

usemtl Color_M08
f 34/88/24 33/85/24 36/86/24

f 34/82/30 29/79/30 33/80/30

vt -3.54331 1.37795
f 34/82/29 29/79/29 25/89/29

f 25/89/30 29/79/30 34/82/30

vt -3.54331 1.77165
f 25/89/29 29/79/29 24/90/29

f 24/90/30 29/79/30 25/89/30

f 24/75/12 28/74/12 29/73/12

vt 3.54331 14.7638
f 25/91/3 36/84/3 34/83/3

vt 3.54331 15.1575
f 36/84/3 25/91/3 27/92/3

f 34/83/4 36/84/4 25/91/4

f 27/92/4 25/91/4 36/84/4

vt 3.54331 1.77165
vn 0 0 1
vt 0.493006 1.37795
vt 3.54331 1.37795
f 28/93/31 36/94/31 27/95/31

f 30/79/31 36/94/31 28/93/31

f 31/81/31 36/94/31 30/79/31

vt 0.493006 0.984252
f 36/94/31 31/81/31 35/96/31

vn -0 -0 -1
f 35/96/32 31/81/32 36/94/32

f 30/79/32 36/94/32 31/81/32

f 28/93/32 36/94/32 30/79/32

f 27/95/32 36/94/32 28/93/32

f 30/72/6 31/77/6 29/68/6

f 35/87/24 36/86/24 33/85/24

usemtl Color_M01
f 14/35/16 15/34/16 6/33/16

f 12/62/26 17/61/26 9/60/26

f 17/32/14 16/29/14 14/30/14

f 16/55/12 17/57/12 13/54/12

f 13/54/12 17/57/12 11/58/12

f 13/23/10 11/20/10 4/21/10

f 21/56/12 16/55/12 13/54/12

f 21/44/20 13/41/20 20/42/20

g Mesh2 Component_1_1 Model

l 10 23

l 8 10

l 7 8

l 26 7

l 22 26

l 23 22

g Mesh3 Component_1_1 Model

l 21 16

l 13 21

l 4 13

l 1 4

l 9 1

l 9 14

l 9 12

l 5 9

l 6 5

l 6 14

l 18 6

l 19 18

l 19 20

l 2 19

l 2 4

l 3 2

l 3 1

l 5 3

l 1 11

l 12 11

l 17 12

l 16 17

l 16 15

l 15 14

l 20 15

l 20 21

l 4 20

l 18 15

l 14 17

l 11 13

g Mesh4 Component_1_1 Model

l 29 30

l 29 32

l 24 29

l 24 25

l 24 28

l 28 27

l 28 30

l 30 31

l 32 31

l 33 32

l 34 33

l 25 34

l 25 27

l 27 36

l 36 35

l 34 36

l 33 35

l 35 31

