# Alias OBJ Model File
# Exported from SketchUp, (c) 2000-2012 Trimble Navigation Limited
# File units = meters

mtllib Pipette.mtl

g Mesh1 Model

usemtl Color_M01
v -0.00431431 0.08 0.00249087
vt -0.169855 -0.0980658
vn 0 1 -0
v -0.00392005 0.08 0.00226324
vt -0.154333 -0.089104
v -0.00431431 0.08 -0.00249087
vt -0.169855 0.0980658
f 1/1/1 2/2/1 3/3/1

v -1.76248e-18 0.08 0.00498174
vt -6.93889e-17 -0.196132
f 2/2/1 1/1/1 4/4/1

vn -0 -1 0
f 3/3/2 2/2/2 1/1/2

v -0.00392005 0.08 -0.00226324
vt -0.154333 0.089104
f 5/5/1 3/3/1 2/2/1

v 0 0.08 -0.00498174
vt 0 0.196132
f 3/3/1 5/5/1 6/6/1

f 6/6/2 5/5/2 3/3/2

v -8.8124e-20 0.08 -0.00452648
vt -3.46945e-18 0.178208
f 6/6/1 5/5/1 7/7/1

f 7/7/2 5/5/2 6/6/2

v -0.00392005 0.01 -0.00226324
vt -0.089104 0.393701
vn 0.5 0 0.866025
vt 0.089104 3.14961
vt -0.089104 3.14961
f 8/8/3 7/9/3 5/10/3

v -8.8124e-20 0.01 -0.00452648
vt 0.089104 0.393701
f 7/9/3 8/8/3 9/11/3

vn -0.5 -0 -0.866025
f 9/11/4 8/8/4 7/9/4

vt -0.089104 0.422076
vn 0.475814 0.307253 0.824134
v -0.000345672 0 -0.000598721
vt 1.38778e-17 0.00836288
vt 0.089104 0.422076
f 8/12/5 10/13/5 9/14/5

vt -8.04912e-16 0.431598
vn 0.806077 0.365587 0.465389
v -0.000691344 0 -8.46652e-20
vt -0.0136091 0.00861751
vt 0.0136091 0.00861751
f 8/15/6 11/16/6 10/17/6

vn -0.806077 -0.365587 -0.465389
f 10/17/7 11/16/7 8/15/7

v -0.00431431 0.01 -0.00249087
vt -2.19096e-15 0.43932
vn 0.793182 0.401435 0.457944
vt -0.0136091 0.00946251
vt 0.0136091 0.00946251
f 12/18/8 11/19/8 10/20/8

vn -0.793182 -0.401435 -0.457944
f 10/20/9 11/19/9 12/18/9

vt 0.0980658 0.428014
vn 0.940197 0.340631 1.22888e-16
v -0.00431431 0.01 0.00249087
vt -0.0980658 0.428014
vt -2.24271e-19 0.00927137
f 12/21/10 13/22/10 11/23/10

vt 0.0980658 0.393701
vn -1 -6.1728e-34 -1.41515e-16
v -0.00431431 0.079 -0.00249087
vt -0.0980658 3.11024
vt -0.0980658 0.393701
f 13/24/11 14/25/11 12/26/11

v -0.00431431 0.079 0.00249087
vt 0.0980658 3.11024
f 14/25/11 13/24/11 15/27/11

vn 1 6.1728e-34 1.41515e-16
f 15/27/12 13/24/12 14/25/12

vn -0.5 -7.3025e-34 0.866025
v -1.76248e-18 0.079 0.00498174
f 13/26/13 16/27/13 15/25/13

v -1.76248e-18 0.01 0.00498174
f 16/27/13 13/26/13 17/24/13

vn 0.5 7.3025e-34 -0.866025
f 17/24/14 13/26/14 16/27/14

vn 0.470099 0.340631 -0.814235
v -0.000345672 0 0.000598721
vt -5.20417e-18 0.00927137
f 17/22/15 18/28/15 13/21/15

vt 2.02567e-17 0.43932
vn 2.29436e-16 0.401435 -0.915887
v 0.000345672 0 0.000598721
f 17/29/16 19/19/16 18/20/16

vn -2.29436e-16 -0.401435 0.915887
f 18/20/17 19/19/17 17/29/17

v -1.54217e-18 0.01 0.00452648
vt -5.43203e-17 0.431598
vn 6.00829e-16 0.365587 -0.930777
f 20/30/18 19/16/18 18/17/18

vn -6.00829e-16 -0.365587 0.930777
f 18/17/19 19/16/19 20/30/19

v 0.00392005 0.01 0.00226324
vn -0.475814 0.307253 -0.824134
vt 1.04083e-17 0.00836288
f 21/12/20 19/31/20 20/14/20

vn 0.475814 -0.307253 0.824134
f 20/14/21 19/31/21 21/12/21

v 0.000691344 0 -0
vn -0.806077 0.365587 -0.465389
vt -5.68989e-16 0.431598
f 22/16/22 19/17/22 21/32/22

vn -0.793182 0.401435 -0.457944
v 0.00431431 0.01 0.00249087
vt 2.34188e-16 0.43932
f 22/19/23 19/20/23 23/33/23

vn 0.793182 -0.401435 0.457944
f 23/33/24 19/20/24 22/19/24

vn -0.470099 0.340631 -0.814235
vt 8.67362e-18 0.00927137
f 23/22/25 19/34/25 17/21/25

vn 0.470099 -0.340631 0.814235
f 17/21/26 19/34/26 23/22/26

v 0.00431431 0.079 0.00249087
vn 0.5 -1.38999e-18 0.866025
f 24/27/27 17/26/27 23/24/27

f 17/26/27 24/27/27 16/25/27

vn -0.5 1.38999e-18 -0.866025
f 23/24/28 17/26/28 24/27/28

f 16/25/28 24/27/28 17/26/28

v 0.0045595 0.079 0.00263243
vt -0.179508 -0.103639
vn 0 -1 -0
vt 6.93889e-17 -0.196132
f 25/35/29 16/36/29 24/1/29

v -1.89466e-18 0.079 0.00526486
vt 7.45931e-17 -0.207278
f 26/37/29 16/36/29 25/35/29

vt 0.169855 -0.0980658
f 26/37/29 15/38/29 16/36/29

v -0.0045595 0.079 0.00263243
vt 0.179508 -0.103639
f 27/39/29 15/38/29 26/37/29

v -0.0045595 0.079 -0.00263243
vt 0.179508 0.103639
f 15/38/29 27/39/29 28/40/29

vn -0 1 0
f 26/37/30 15/38/30 27/39/30

f 16/36/30 15/38/30 26/37/30

f 15/25/14 16/27/14 13/26/14

vt 0.0980658 3.14961
vn -0.5 0 0.866025
f 4/41/31 15/25/31 16/27/31

vt -0.0980658 3.14961
f 15/25/31 4/41/31 1/42/31

vn 0.5 -0 -0.866025
f 16/27/32 15/25/32 4/41/32

f 1/42/32 4/41/32 15/25/32

f 4/4/2 1/1/2 2/2/2

v -0.00431431 0.082 0.00249087
vt 0.0980658 3.22835
vn 0.5 0 -0.866025
f 29/43/33 4/42/33 1/41/33

v -1.76248e-18 0.082 0.00498174
vt -0.0980658 3.22835
f 4/42/33 29/43/33 30/44/33

vn -0.5 -0 0.866025
f 1/41/34 4/42/34 29/43/34

f 30/44/34 29/43/34 4/42/34

v -1.89466e-18 0.082 0.00526486
vt -7.45931e-17 -0.207278
f 29/1/1 31/45/1 30/4/1

v -0.0045595 0.082 0.00263243
f 29/1/1 32/35/1 31/45/1

v -0.0045595 0.082 -0.00263243
vt -0.179508 0.103639
f 32/35/1 29/1/1 33/46/1

f 33/46/2 29/1/2 32/35/2

v -0.00431431 0.082 -0.00249087
f 34/3/1 33/46/1 29/1/1

v 4.4062e-20 0.082 -0.00526486
vt 1.73472e-18 0.207278
f 33/46/1 34/3/1 35/47/1

f 35/47/2 34/3/2 33/46/2

v 0 0.082 -0.00498174
f 35/47/1 34/3/1 36/6/1

f 36/6/2 34/3/2 35/47/2

f 3/42/3 36/43/3 34/44/3

f 36/43/3 3/42/3 6/41/3

f 6/41/4 3/42/4 36/43/4

v 0 0.079 -0.00498174
vn -0.5 0 -0.866025
f 37/25/35 3/41/35 6/42/35

f 3/41/35 37/25/35 14/27/35

vn 0.5 -0 0.866025
f 14/27/36 37/25/36 3/41/36

v 0 0.01 -0.00498174
vn -0.5 1.20377e-18 -0.866025
f 38/26/37 14/27/37 37/25/37

f 14/27/37 38/26/37 12/24/37

vn 0.5 -1.20377e-18 0.866025
f 12/24/38 38/26/38 14/27/38

vn 0.470099 0.340631 0.814235
vt 1.38778e-17 0.00927137
f 12/22/39 10/48/39 38/21/39

vn -0.470099 -0.340631 -0.814235
f 38/21/40 10/48/40 12/22/40

vt -2.83354e-17 0.43932
vn -1.32319e-16 0.401435 0.915887
v 0.000345672 0 -0.000598721
f 38/49/41 10/19/41 39/20/41

vn 1.32319e-16 -0.401435 -0.915887
f 39/20/42 10/19/42 38/49/42

vt -5.19807e-17 0.431598
vn -2.53373e-16 0.365587 0.930777
f 9/50/43 10/16/43 39/17/43

vn 2.53373e-16 -0.365587 -0.930777
f 39/17/44 10/16/44 9/50/44

vn -0.475814 -0.307253 -0.824134
f 9/14/45 10/13/45 8/12/45

vn -0.475814 0.307253 0.824134
vt -8.67362e-18 0.00836288
v 0.00392005 0.01 -0.00226324
f 9/12/46 39/51/46 40/14/46

vn 0.475814 -0.307253 -0.824134
f 40/14/47 39/51/47 9/12/47

vt 2.77556e-17 0.431598
vn -0.806077 0.365587 0.465389
f 40/52/48 39/16/48 22/17/48

vn 0.806077 -0.365587 -0.465389
f 22/17/49 39/16/49 40/52/49

v 0.00431431 0.01 -0.00249087
vt 1.12584e-15 0.43932
vn -0.793182 0.401435 0.457944
f 41/53/50 39/19/50 22/20/50

vn 0.793182 -0.401435 -0.457944
f 22/20/51 39/19/51 41/53/51

vn -0.470099 0.340631 0.814235
vt -6.93889e-18 0.00927137
f 38/22/52 39/54/52 41/21/52

vn 0.470099 -0.340631 -0.814235
f 41/21/53 39/54/53 38/22/53

vn 0.5 5.3458e-34 -0.866025
f 37/27/54 41/26/54 38/24/54

v 0.00431431 0.079 -0.00249087
f 41/26/54 37/27/54 42/25/54

vn -0.5 -5.3458e-34 0.866025
f 38/24/55 41/26/55 37/27/55

f 42/25/55 37/27/55 41/26/55

v 4.4062e-20 0.079 -0.00526486
vt -1.73472e-18 0.207278
f 37/6/29 43/55/29 42/3/29

vt 0.169855 0.0980658
f 14/56/29 43/55/29 37/6/29

f 14/56/29 28/40/29 43/55/29

f 28/40/29 14/56/29 15/38/29

f 15/38/30 14/56/30 28/40/30

vn -1 0 -1.41515e-16
f 15/27/56 3/42/56 14/25/56

f 3/42/56 15/27/56 1/41/56

vn 1 -0 1.41515e-16
f 1/41/57 15/27/57 3/42/57

f 14/25/57 3/42/57 15/27/57

vn 1 0 1.41515e-16
f 3/41/58 29/44/58 1/42/58

f 29/44/58 3/41/58 34/43/58

vn -1 -0 -1.41515e-16
f 1/42/59 29/44/59 3/41/59

f 34/43/59 3/41/59 29/44/59

f 34/44/4 36/43/4 3/42/4

f 29/1/2 33/46/2 34/3/2

f 43/55/30 28/40/30 14/56/30

vt 0.103639 3.22835
vt -0.103639 3.11024
vt 0.103639 3.11024
f 33/57/35 43/58/35 28/59/35

vt -0.103639 3.22835
f 43/58/35 33/57/35 35/60/35

f 28/59/36 43/58/36 33/57/36

usemtl Color_M08
v -0.00567497 0.082 -0.00327645
vt 0.128994 3.10381
vn -0.468652 -0.348512 -0.811729
vt -0.103639 2.9778
vt 0.103639 2.9778
f 44/61/60 43/62/60 28/63/60

v 1.76248e-19 0.082 -0.00655289
vt -0.128994 3.10381
f 43/62/60 44/61/60 45/64/60

usemtl Color_M01
vn 0.468652 0.348512 0.811729
f 28/63/61 43/62/61 44/61/61

f 45/64/61 44/61/61 43/62/61

usemtl Color_M08
v -0.00567497 0.102 -0.00327645
vt 0.128994 4.01575
vt -0.128994 3.22835
vt 0.128994 3.22835
f 46/65/35 45/66/35 44/67/35

v 1.76248e-19 0.102 -0.00655289
vt -0.128994 4.01575
f 45/66/35 46/65/35 47/68/35

usemtl Color_M01
f 44/67/36 45/66/36 46/65/36

f 47/68/36 46/65/36 45/66/36

vt -0.223424 0.128994
v -0.0045595 0.102 -0.00263243
vt 6.93889e-18 0.257988
f 46/69/1 48/46/1 47/70/1

v -0.0045595 0.102 0.00263243
f 48/46/1 46/69/1 49/35/1

f 47/70/2 48/46/2 46/69/2

v 4.4062e-20 0.102 -0.00526486
f 47/70/1 48/46/1 50/47/1

f 50/47/2 48/46/2 47/70/2

vt 0.103639 4.01575
vt -0.103639 4.01575
f 33/60/3 50/71/3 48/72/3

f 50/71/3 33/60/3 35/57/3

f 35/57/4 33/60/4 50/71/4

f 35/60/36 33/57/36 43/58/36

v 0.0045595 0.079 -0.00263243
f 35/57/33 51/58/33 43/59/33

v 0.0045595 0.082 -0.00263243
f 51/58/33 35/57/33 52/60/33

f 43/59/34 51/58/34 35/57/34

f 42/3/29 43/55/29 51/46/29

f 42/3/30 43/55/30 37/6/30

f 51/46/30 43/55/30 42/3/30

usemtl Color_M08
vn 0.468652 -0.348512 -0.811729
f 45/61/62 51/62/62 43/63/62

v 0.00567497 0.082 -0.00327645
f 51/62/62 45/61/62 53/64/62

usemtl Color_M01
vn -0.468652 0.348512 0.811729
f 43/63/63 51/62/63 45/61/63

f 53/64/63 45/61/63 51/62/63

usemtl Color_M08
f 47/65/33 53/66/33 45/67/33

v 0.00567497 0.102 -0.00327645
f 53/66/33 47/65/33 54/68/33

usemtl Color_M01
f 45/67/34 53/66/34 47/65/34

f 54/68/34 47/65/34 53/66/34

v 0.0045595 0.102 -0.00263243
vt 0.223424 0.128994
f 47/70/1 55/40/1 54/73/1

f 47/70/1 50/47/1 55/40/1

f 55/40/2 50/47/2 47/70/2

f 35/60/31 55/71/31 50/72/31

f 55/71/31 35/60/31 52/57/31

f 52/57/32 35/60/32 55/71/32

f 52/60/34 35/57/34 51/58/34

v 0.00431431 0.082 -0.00249087
f 35/47/1 56/56/1 52/40/1

f 35/47/1 36/6/1 56/56/1

f 56/56/2 36/6/2 35/47/2

f 6/42/31 56/43/31 36/44/31

v 0.00431431 0.08 -0.00249087
f 56/43/31 6/42/31 57/41/31

f 57/41/32 6/42/32 56/43/32

v 0.00392005 0.08 -0.00226324
vt 0.154333 0.089104
f 6/6/1 58/74/1 57/56/1

f 6/6/1 7/7/1 58/74/1

f 58/74/2 7/7/2 6/6/2

f 9/8/31 58/9/31 7/10/31

f 58/9/31 9/8/31 40/11/31

f 40/11/32 9/8/32 58/9/32

f 7/10/32 58/9/32 9/8/32

vn -1 0 -3.11496e-16
f 21/11/64 58/10/64 40/8/64

v 0.00392005 0.08 0.00226324
f 58/10/64 21/11/64 59/9/64

vn 1 -0 3.11496e-16
f 59/9/65 21/11/65 58/10/65

v -1.54217e-18 0.08 0.00452648
f 21/8/35 60/9/35 59/10/35

f 60/9/35 21/8/35 20/11/35

f 20/11/36 21/8/36 60/9/36

f 59/10/36 60/9/36 21/8/36

vt -6.07153e-17 -0.178208
v 0.00431431 0.08 0.00249087
vt 0.154333 -0.089104
f 60/75/1 61/38/1 59/76/1

f 60/75/1 4/4/1 61/38/1

f 2/2/1 4/4/1 60/75/1

f 60/75/2 4/4/2 2/2/2

f 61/38/2 4/4/2 60/75/2

f 16/25/3 61/41/3 4/42/3

f 61/41/3 16/25/3 24/27/3

f 24/27/4 16/25/4 61/41/4

f 24/1/30 16/36/30 25/35/30

f 25/35/30 16/36/30 26/37/30

v 0.0045595 0.082 0.00263243
f 62/57/3 26/58/3 25/59/3

f 26/58/3 62/57/3 31/60/3

f 25/59/4 26/58/4 62/57/4

usemtl Color_M08
v 0.00567497 0.082 0.00327645
vn 0.468652 -0.348512 0.811729
f 63/61/66 26/62/66 25/63/66

v -2.81997e-18 0.082 0.00655289
f 26/62/66 63/61/66 64/64/66

usemtl Color_M01
vn -0.468652 0.348512 -0.811729
f 25/63/67 26/62/67 63/61/67

f 64/64/67 63/61/67 26/62/67

usemtl Color_M08
v 0.00567497 0.102 0.00327645
f 65/65/3 64/66/3 63/67/3

v -2.81997e-18 0.102 0.00655289
f 64/66/3 65/65/3 66/68/3

usemtl Color_M01
f 63/67/4 64/66/4 65/65/4

f 66/68/4 65/65/4 64/66/4

v -1.89466e-18 0.102 0.00526486
vt -1.11022e-16 -0.257988
vt 0.223424 -0.128994
f 67/45/1 66/77/1 65/78/1

f 49/35/1 66/77/1 67/45/1

v -0.00567497 0.102 0.00327645
vt -0.223424 -0.128994
f 49/35/1 68/79/1 66/77/1

f 68/79/1 49/35/1 46/69/1

f 46/69/2 49/35/2 68/79/2

f 49/35/2 46/69/2 48/46/2

vn 1 0 1.33905e-16
f 49/72/68 33/57/68 48/71/68

f 33/57/68 49/72/68 32/60/68

vn -1 -0 -1.33905e-16
f 32/60/69 49/72/69 33/57/69

f 49/71/33 31/60/33 32/57/33

f 31/60/33 49/71/33 67/72/33

f 32/57/34 31/60/34 49/71/34

f 27/58/31 31/57/31 32/60/31

f 31/57/31 27/58/31 26/59/31

f 26/59/32 27/58/32 31/57/32

usemtl Color_M08
vn -0.468652 -0.348512 0.811729
f 64/61/70 27/62/70 26/63/70

v -0.00567497 0.082 0.00327645
f 27/62/70 64/61/70 69/64/70

usemtl Color_M01
vn 0.468652 0.348512 -0.811729
f 26/63/71 27/62/71 64/61/71

f 69/64/71 64/61/71 27/62/71

usemtl Color_M08
f 66/65/31 69/66/31 64/67/31

f 69/66/31 66/65/31 68/68/31

usemtl Color_M01
f 64/67/32 69/66/32 66/65/32

f 68/68/32 66/65/32 69/66/32

f 66/77/2 68/79/2 49/35/2

usemtl Color_M08
v -1.89466e-18 0.104 0.00526486
vt 0.103639 3.48847
vn -0.436674 0.487097 0.756341
vt -0.128994 3.39832
vt 0.128994 3.39832
f 70/80/72 68/81/72 66/82/72

v -0.0045595 0.104 0.00263243
vt -0.103639 3.48847
f 68/81/72 70/80/72 71/83/72

usemtl Color_M01
vn 0.436674 -0.487097 -0.756341
f 66/82/73 68/81/73 70/80/73

f 71/83/73 70/80/73 68/81/73

usemtl Color_M08
v -0.0045595 0.104 -0.00263243
f 70/45/1 72/46/1 71/35/1

v 4.4062e-20 0.104 -0.00526486
f 72/46/1 70/45/1 73/47/1

usemtl Color_M01
f 71/35/2 72/46/2 70/45/2

usemtl Color_M08
vn -0.873348 0.487097 -5.00128e-17
f 46/81/74 71/80/74 72/83/74

f 71/80/74 46/81/74 68/82/74

usemtl Color_M01
vn 0.873348 -0.487097 5.00128e-17
f 68/82/75 46/81/75 71/80/75

usemtl Color_M08
vn -1 0 -0
f 46/68/76 69/67/76 68/65/76

f 69/67/76 46/68/76 44/66/76

usemtl Color_M01
vn 1 -0 0
f 68/65/77 69/67/77 46/68/77

f 44/66/77 46/68/77 69/67/77

usemtl Color_M08
vn -0.937304 -0.348512 -4.81552e-17
f 44/64/78 27/63/78 69/61/78

f 27/63/78 44/64/78 28/62/78

usemtl Color_M01
vn 0.937304 0.348512 4.81552e-17
f 69/61/79 27/63/79 44/64/79

f 28/62/79 44/64/79 27/63/79

f 28/40/30 27/39/30 15/38/30

vn -1 0 -1.33905e-16
f 27/59/80 33/60/80 28/58/80

f 33/60/80 27/59/80 32/57/80

vn 1 -0 1.33905e-16
f 32/57/81 27/59/81 33/60/81

f 32/60/32 31/57/32 27/58/32

f 31/45/2 32/35/2 29/1/2

f 30/4/2 31/45/2 29/1/2

f 30/4/1 31/45/1 62/39/1

f 62/39/2 31/45/2 30/4/2

f 31/60/4 62/57/4 26/58/4

f 67/71/35 62/60/35 31/57/35

v 0.0045595 0.102 0.00263243
f 62/60/35 67/71/35 74/72/35

f 31/57/36 62/60/36 67/71/36

f 74/72/36 67/71/36 62/60/36

f 67/45/1 65/78/1 74/39/1

f 65/78/2 66/77/2 67/45/2

usemtl Color_M08
v 0.0045595 0.104 0.00263243
vn 0.436674 0.487097 0.756341
f 75/80/82 66/81/82 65/82/82

f 66/81/82 75/80/82 70/83/82

usemtl Color_M01
vn -0.436674 -0.487097 -0.756341
f 65/82/83 66/81/83 75/80/83

f 70/83/83 75/80/83 66/81/83

usemtl Color_M08
f 73/47/1 70/45/1 75/39/1

usemtl Color_M01
f 73/47/2 70/45/2 72/46/2

f 75/39/2 70/45/2 73/47/2

usemtl Color_M08
v 0.0045595 0.104 -0.00263243
f 73/47/1 75/39/1 76/40/1

usemtl Color_M01
f 76/40/2 75/39/2 73/47/2

usemtl Color_M08
vn 0.873348 0.487097 4.84155e-17
f 75/83/84 54/82/84 76/80/84

f 54/82/84 75/83/84 65/81/84

usemtl Color_M01
vn -0.873348 -0.487097 -4.84155e-17
f 65/81/85 75/83/85 54/82/85

f 76/80/85 54/82/85 75/83/85

usemtl Color_M08
vn 0.436674 0.487097 -0.756341
f 54/81/86 73/80/86 76/83/86

f 73/80/86 54/81/86 47/82/86

usemtl Color_M01
vn -0.436674 -0.487097 0.756341
f 47/82/87 54/81/87 73/80/87

f 54/73/2 55/40/2 47/70/2

f 54/73/1 55/40/1 65/78/1

f 65/78/2 55/40/2 54/73/2

f 74/39/1 65/78/1 55/40/1

f 74/39/2 65/78/2 67/45/2

f 55/40/2 65/78/2 74/39/2

f 55/72/80 62/57/80 74/71/80

f 62/57/80 55/72/80 52/60/80

f 74/71/81 62/57/81 55/72/81

f 52/60/81 55/72/81 62/57/81

f 62/60/68 51/59/68 52/57/68

f 51/59/68 62/60/68 25/58/68

f 25/58/69 62/60/69 51/59/69

f 52/57/69 51/59/69 62/60/69

f 52/40/1 56/56/1 62/39/1

f 52/40/2 56/56/2 35/47/2

f 62/39/2 56/56/2 52/40/2

v 0.00431431 0.082 0.00249087
f 77/38/1 62/39/1 56/56/1

f 30/4/1 62/39/1 77/38/1

f 77/38/2 62/39/2 30/4/2

f 56/56/2 62/39/2 77/38/2

vn -1 0 -2.8303e-16
f 56/44/88 61/41/88 77/43/88

f 61/41/88 56/44/88 57/42/88

vn 1 -0 2.8303e-16
f 77/43/89 61/41/89 56/44/89

f 61/42/35 30/43/35 77/44/35

f 30/43/35 61/42/35 4/41/35

f 4/41/36 61/42/36 30/43/36

f 4/42/4 61/41/4 16/25/4

f 77/44/36 30/43/36 61/42/36

f 57/42/89 56/44/89 61/41/89

f 57/56/1 58/74/1 61/38/1

f 57/56/2 58/74/2 6/6/2

f 61/38/2 58/74/2 57/56/2

f 59/76/1 61/38/1 58/74/1

f 59/76/2 61/38/2 60/75/2

f 58/74/2 61/38/2 59/76/2

vn 1 0 2.8303e-16
f 61/42/90 42/27/90 57/41/90

f 42/27/90 61/42/90 24/25/90

vn -1 -0 -2.8303e-16
f 24/25/91 61/42/91 42/27/91

f 57/41/91 42/27/91 61/42/91

f 42/25/33 6/41/33 57/42/33

f 6/41/33 42/25/33 37/27/33

f 37/27/34 42/25/34 6/41/34

f 57/42/34 6/41/34 42/25/34

f 6/42/36 3/41/36 37/25/36

f 24/25/90 41/24/90 42/27/90

f 41/24/90 24/25/90 23/26/90

f 23/26/91 24/25/91 41/24/91

f 42/27/91 41/24/91 24/25/91

f 25/35/29 24/1/29 42/3/29

f 42/3/30 24/1/30 25/35/30

f 42/3/29 51/46/29 25/35/29

f 25/35/30 51/46/30 42/3/30

usemtl Color_M08
vn 0.937304 -0.348512 4.4538e-17
f 53/61/92 25/62/92 51/63/92

f 25/62/92 53/61/92 63/64/92

usemtl Color_M01
vn -0.937304 0.348512 -4.4538e-17
f 63/64/93 53/61/93 25/62/93

usemtl Color_M08
vn 1 0 -0
f 53/67/94 65/68/94 63/66/94

f 65/68/94 53/67/94 54/65/94

usemtl Color_M01
vn -1 -0 0
f 63/66/95 65/68/95 53/67/95

f 54/65/95 53/67/95 65/68/95

f 51/63/93 25/62/93 53/61/93

vn -0.940197 0.340631 -2.83866e-16
vt -8.21778e-18 0.00927137
f 41/22/96 22/84/96 23/21/96

vn 0.940197 -0.340631 2.83866e-16
f 23/21/97 22/84/97 41/22/97

f 76/83/87 73/80/87 54/81/87

usemtl Color_M08
vn -0.436674 0.487097 -0.756341
f 47/81/98 72/80/98 73/83/98

f 72/80/98 47/81/98 46/82/98

usemtl Color_M01
vn 0.436674 -0.487097 0.756341
f 46/82/99 47/81/99 72/80/99

f 73/83/99 72/80/99 47/81/99

f 72/83/75 71/80/75 46/81/75

f 67/45/2 66/77/2 49/35/2

f 67/72/34 49/71/34 31/60/34

f 28/58/81 33/60/81 27/59/81

f 48/71/69 33/57/69 49/72/69

f 48/72/4 50/71/4 33/60/4

f 20/8/33 2/9/33 60/10/33

v -0.00392005 0.01 0.00226324
f 2/9/33 20/8/33 78/11/33

f 78/11/34 20/8/34 2/9/34

vn 0.475814 0.307253 -0.824134
vt -6.93889e-18 0.00836288
f 20/12/100 18/85/100 78/14/100

vn -0.475814 -0.307253 0.824134
f 78/14/101 18/85/101 20/12/101

vn 0.806077 0.365587 -0.465389
vt 3.88578e-16 0.431598
f 11/17/102 78/86/102 18/16/102

vn 0.951628 0.307253 1.34265e-16
vt -5.06931e-19 0.00836288
f 8/14/103 78/12/103 11/87/103

vn 1 0 1.55748e-16
f 8/11/104 2/10/104 78/8/104

f 2/10/104 8/11/104 5/9/104

vn -1 -0 -1.55748e-16
f 78/8/105 2/10/105 8/11/105

f 5/9/105 8/11/105 2/10/105

f 5/10/4 7/9/4 8/8/4

f 2/2/2 3/3/2 5/5/2

vn -0.951628 -0.307253 -1.34265e-16
f 11/87/106 78/12/106 8/14/106

vn -0.806077 -0.365587 0.465389
f 18/16/107 78/86/107 11/17/107

vn 0.793182 0.401435 -0.457944
vt 1.15359e-15 0.43932
f 11/20/108 13/88/108 18/19/108

vn -0.793182 -0.401435 0.457944
f 18/19/109 13/88/109 11/20/109

vn -0.470099 -0.340631 0.814235
f 13/21/110 18/28/110 17/22/110

vn -0.940197 -0.340631 -1.22888e-16
f 11/23/111 13/22/111 12/21/111

f 12/26/12 14/25/12 13/24/12

f 60/10/34 2/9/34 20/8/34

f 40/8/65 58/10/65 21/11/65

vn -0.951628 0.307253 -2.72842e-16
vt -7.80376e-18 0.00836288
f 40/12/112 22/89/112 21/14/112

vn 0.951628 -0.307253 2.72842e-16
f 21/14/113 22/89/113 40/12/113

vn 0.806077 -0.365587 0.465389
f 21/32/114 19/17/114 22/16/114

f 36/44/32 56/43/32 6/42/32

f 50/72/32 55/71/32 35/60/32

f 37/6/30 43/55/30 14/56/30

f 37/25/38 14/27/38 38/26/38

g Mesh2 Model

l 41 39

l 41 42

l 41 38

l 23 41

l 23 24

l 17 23

l 17 16

l 13 17

l 13 15

l 12 13

l 12 14

l 38 12

l 38 37

l 38 10

l 38 39

l 39 9

l 39 40

l 21 40

l 20 21

l 78 20

l 8 78

l 9 8

l 40 9

l 58 40

l 59 58

l 60 59

l 2 60

l 5 2

l 7 5

l 58 7

l 7 9

l 9 10

l 12 10

l 12 11

l 13 11

l 13 18

l 17 18

l 17 19

l 23 19

l 23 22

l 41 22

l 22 40

l 22 21

l 59 21

l 19 21

l 20 19

l 60 20

l 18 20

l 78 18

l 2 78

l 11 78

l 11 8

l 5 8

l 8 10

l 37 14

l 42 37

l 24 42

l 16 24

l 15 16

l 14 15

l 14 3

l 3 1

l 6 3

l 57 6

l 61 57

l 4 61

l 1 4

l 15 1

l 1 29

l 34 29

l 36 34

l 56 36

l 77 56

l 30 77

l 29 30

l 4 30

l 16 4

l 61 77

l 24 61

l 57 56

l 42 57

l 6 36

l 37 6

l 3 34

g Mesh3 Model

l 25 51

l 26 25

l 27 26

l 28 27

l 43 28

l 51 43

l 52 51

l 62 52

l 62 25

l 31 62

l 31 26

l 32 31

l 32 27

l 33 32

l 33 28

l 35 33

l 35 43

l 52 35

l 52 55

l 55 50

l 74 55

l 62 74

l 67 74

l 31 67

l 49 67

l 32 49

l 48 49

l 33 48

l 50 48

l 35 50

l 43 45

l 53 45

l 63 53

l 64 63

l 69 64

l 44 69

l 45 44

l 45 47

l 54 47

l 65 54

l 66 65

l 68 66

l 46 68

l 47 46

l 47 73

l 76 73

l 75 76

l 70 75

l 71 70

l 72 71

l 73 72

l 72 46

l 44 46

l 28 44

l 71 68

l 69 68

l 27 69

l 66 70

l 64 66

l 26 64

l 65 75

l 63 65

l 25 63

l 54 76

l 53 54

l 51 53

