# Alias OBJ Model File
# Exported from SketchUp, (c) 2000-2012 Trimble Navigation Limited
# File units = meters

mtllib Erlenmeyer_Liquid.mtl

g Mesh1 Model

usemtl Color_M00
v -0.0543631 -0.0975686 -0.0541513
vt 2.14028 2.13194
vn 0 -1 -0
v -0.0543631 -0.0975686 0.0543631
vt 2.14028 -2.14028
v -0.0768371 -0.0975686 0.000105883
vt 3.02508 -0.00416863
f 1/1/1 2/2/1 3/3/1

v -0.000105883 -0.0975686 -0.0766254
vt 0.00416863 3.01675
f 2/2/1 1/1/1 4/4/1

vn -0 1 0
f 3/3/2 2/2/2 1/1/2

vt -1.1538 -4.72953
vn -0.795548 0.508443 0.329527
vt 1.15831 -4.72953
v -0.0155169 -0.0116375 0.0155588
vt 0.332142 -0.800678
f 3/5/3 2/6/3 5/7/3

vn 0.795548 -0.508443 -0.329527
f 5/7/4 2/6/4 3/5/4

vt -0.329567 -0.801174
vn -0.329962 0.508356 0.795424
vt -1.15685 -4.72979
v -0.000112377 -0.0116375 0.021949
vt 0.32702 -0.801174
f 5/8/5 2/9/5 6/10/5

vn 0.329962 -0.508356 -0.795424
f 6/10/6 2/9/6 5/8/6

vt 0.326602 -0.801183
vn -0.32958 0.50821 0.795676
vt -1.15831 -4.7294
v -0.000105883 -0.0975686 0.0768371
vt 1.1538 -4.7294
f 6/11/7 2/12/7 7/13/7

vn 0.32958 -0.50821 -0.795676
f 7/13/8 2/12/8 6/11/8

vt 0.00416863 -3.02508
f 2/2/1 4/4/1 7/14/1

f 4/4/2 1/1/2 2/2/2

v -0.0155169 -0.0116375 -0.0152957
vt 0.333949 -0.796362
vn -0.329485 0.508627 -0.795448
vt -1.15061 -4.72571
vt 1.1615 -4.72571
f 8/15/9 4/16/9 1/17/9

vn 0.329485 -0.508627 0.795448
f 1/17/10 4/16/10 8/15/10

v -0.000112377 -0.0116375 -0.0216858
vt -0.32305 -0.796374
vn -0.329934 0.508481 -0.795356
vt -1.15206 -4.72532
vt 0.333537 -0.796374
f 9/18/11 4/19/11 8/20/11

vt 0.330813 -0.794799
vn 0.329492 0.508599 -0.795463
v 0.0541513 -0.0975686 -0.0541513
vt -1.1538 -4.72407
vt 1.15831 -4.72407
f 9/21/12 10/22/12 4/23/12

vn -0.329492 -0.508599 0.795463
f 4/23/13 10/22/13 9/21/13

v 0.0541513 -0.0975686 0.0543631
vt -2.13194 -2.14028
vt -2.13194 2.13194
f 11/24/1 4/4/1 10/25/1

f 7/14/1 4/4/1 11/24/1

f 7/14/2 4/4/2 2/2/2

f 11/24/2 4/4/2 7/14/2

f 10/25/2 4/4/2 11/24/2

v 0.0766254 -0.0975686 0.000105883
vt -3.01675 -0.00416863
f 11/24/1 10/25/1 12/26/1

f 12/26/2 10/25/2 11/24/2

vt 1.1538 -4.72411
vn 0.79542 0.508678 -0.329474
v 0.0152921 -0.0116375 -0.0152957
vt 0.325958 -0.794627
vt -1.15831 -4.72411
f 10/27/14 13/28/14 12/29/14

vn -0.79542 -0.508678 0.329474
f 12/29/15 13/28/15 10/27/15

vt 0.326368 -0.794616
vn 0.795512 0.508824 -0.329026
v 0.0216729 -0.0116375 0.000131566
vt -0.330905 -0.794616
vt -1.15686 -4.72449
f 13/30/16 14/31/16 12/32/16

vt 0.602052 0.602192
vn 0 1 -0
v 0.0152921 -0.0116375 0.0155588
vt 0.602052 -0.612551
vt 0.853262 -0.00517978
f 13/33/17 15/34/17 14/35/17

vt -0.0044243 0.853774
f 9/36/17 15/34/17 13/33/17

vt -0.0044243 -0.864133
f 9/36/17 6/37/17 15/34/17

vt -0.6109 0.602192
f 8/38/17 6/37/17 9/36/17

vt -0.6109 -0.612551
f 8/38/17 5/39/17 6/37/17

v -0.0218976 -0.0116375 0.000131566
vt -0.862111 -0.00517978
f 5/39/17 8/38/17 16/40/17

vn -0 -1 0
f 16/40/18 8/38/18 5/39/18

usemtl FrontColor
vt -1.15206 -4.72763
vn -0.795685 0.508508 -0.329097
vt 0.334287 -0.79861
vt -0.322986 -0.79861
f 1/41/19 16/42/19 8/43/19

vt -1.15061 -4.72802
vn -0.795434 0.508654 -0.329479
vt 1.1615 -4.72802
vt 0.334701 -0.798598
f 1/44/20 3/45/20 16/46/20

usemtl BackColor
vn 0.795434 -0.508654 0.329479
f 16/46/21 3/45/21 1/44/21

usemtl Color_M00
vt -1.15234 -4.72991
vn -0.79564 0.508589 0.329079
vt 0.332559 -0.800667
vt -0.324714 -0.800667
f 3/47/22 5/48/22 16/49/22

vn 0.79564 -0.508589 -0.329079
f 16/49/23 5/48/23 3/47/23

usemtl BackColor
vn 0.795685 -0.508508 0.329097
f 8/43/24 16/42/24 1/41/24

usemtl Color_M00
f 6/37/18 5/39/18 8/38/18

f 9/36/18 6/37/18 8/38/18

f 15/34/18 6/37/18 9/36/18

vt -0.335193 -0.79935
vn 0.330005 0.508165 0.795528
vt -1.16296 -4.72745
vt 0.321394 -0.79935
f 6/50/25 7/51/25 15/52/25

vn -0.330005 -0.508165 -0.795528
f 15/52/26 7/51/26 6/50/26

vt 0.32181 -0.799341
vn 0.329557 0.508312 0.79562
vt -1.1615 -4.72784
vt 1.15061 -4.72784
f 15/53/27 7/54/27 11/55/27

vn -0.329557 -0.508312 -0.79562
f 11/55/28 7/54/28 15/53/28

vt 0.321332 -0.796436
vn 0.795716 0.508451 0.32911
vt -0.335941 -0.796436
vt -1.16296 -4.72531
f 14/56/29 15/57/29 11/58/29

f 14/35/18 15/34/18 13/33/18

vn -0.795716 -0.508451 -0.32911
f 11/58/30 15/57/30 14/56/30

vt 1.15061 -4.72569
vn 0.795465 0.508597 0.329492
vt 0.321744 -0.796427
vt -1.1615 -4.72569
f 12/59/31 14/60/31 11/61/31

vn -0.795465 -0.508597 -0.329492
f 11/61/32 14/60/32 12/59/32

vn -0.795512 -0.508824 0.329026
f 12/32/33 14/31/33 13/30/33

f 13/33/18 15/34/18 9/36/18

vt -0.325364 -0.794787
vn 0.329874 0.508746 -0.795211
vt -1.15234 -4.72445
vt 0.331223 -0.794787
f 13/62/34 10/63/34 9/64/34

vn -0.329874 -0.508746 0.795211
f 9/64/35 10/63/35 13/62/35

vn 0.329934 -0.508481 0.795356
f 8/20/36 4/19/36 9/18/36

g Mesh2 Model

l 4 10

l 1 4

l 3 1

l 2 3

l 7 2

l 11 7

l 12 11

l 10 12

l 10 13

l 9 10

l 9 8

l 13 9

l 14 13

l 15 14

l 6 15

l 5 6

l 16 5

l 8 16

l 8 1

l 8 4

l 4 9

l 16 1

l 3 16

l 5 3

l 5 2

l 6 2

l 6 7

l 15 7

l 11 15

l 14 11

l 12 14

l 13 12

