# Alias OBJ Model File
# Exported from SketchUp, (c) 2000-2012 Trimble Navigation Limited
# File units = meters

mtllib Funnel_Liquid.mtl

g Mesh1 Model

usemtl FrontColor
v -0.0107839 0.045 0.0186782
vt -0.424562 1.73454
vn 0.581512 0.74103 -0.335736
v -0.00245302 0.03 -3.08434e-19
vt 0.0482878 0.855055
v -0.0215678 0.045 -6.6093e-20
vt 0.424562 1.73454
f 1/1/1 2/2/1 3/3/1

v -0.00122651 0.03 0.00212438
vt -0.0482878 0.855055
f 2/2/1 1/1/1 4/4/1

usemtl BackColor
vn -0.581512 -0.74103 0.335736
f 3/3/2 2/2/2 1/1/2

usemtl FrontColor
vn 0.581512 0.74103 0.335736
v -0.0107839 0.045 -0.0186782
f 2/4/3 5/3/3 3/1/3

v -0.00122651 0.03 -0.00212438
f 5/3/3 2/4/3 6/2/3

usemtl BackColor
vn -0.581512 -0.74103 -0.335736
f 3/1/4 5/3/4 2/4/4

usemtl FrontColor
vt -0.424562 -0.735363
vn 0 1 -0
vt -0.424562 0.735363
vt -0.849124 2.60209e-18
f 1/5/5 5/6/5 3/7/5

v 0.0107839 0.045 0.0186782
vt 0.424562 -0.735363
f 5/6/5 1/5/5 7/8/5

usemtl BackColor
vn -0 -1 0
f 3/7/6 5/6/6 1/5/6

f 7/8/6 1/5/6 5/6/6

usemtl FrontColor
vn 4.72359e-16 0.74103 -0.671472
f 7/1/7 4/2/7 1/3/7

v 0.00122651 0.03 0.00212438
f 4/2/7 7/1/7 8/4/7

usemtl BackColor
vn -4.72359e-16 -0.74103 0.671472
f 1/3/8 4/2/8 7/1/8

f 4/4/2 1/1/2 2/2/2

usemtl FrontColor
vt -0.0482878 -0.083637
vt -0.0482878 0.083637
vt -0.0965757 1.21431e-17
f 4/9/5 6/10/5 2/11/5

vt 0.0482878 -0.083637
f 6/10/5 4/9/5 8/12/5

usemtl BackColor
f 2/11/6 6/10/6 4/9/6

f 6/2/4 2/4/4 5/3/4

usemtl FrontColor
vn -2.92415e-17 0.74103 0.671472
v 0.0107839 0.045 -0.0186782
f 6/4/9 9/3/9 5/1/9

v 0.00122651 0.03 -0.00212438
f 9/3/9 6/4/9 10/2/9

usemtl BackColor
vn 2.92415e-17 -0.74103 -0.671472
f 5/1/10 9/3/10 6/4/10

usemtl FrontColor
vt 0.424562 0.735363
f 5/6/5 7/8/5 9/13/5

usemtl BackColor
f 9/13/6 7/8/6 5/6/6

usemtl FrontColor
v 0.0215678 0.045 5.54079e-18
vt 0.849124 -2.18141e-16
f 9/13/5 7/8/5 11/14/5

usemtl BackColor
f 11/14/6 7/8/6 9/13/6

usemtl FrontColor
v 0.00245302 0.03 -6.6093e-20
vn -0.581512 0.74103 -0.335736
f 12/4/11 7/3/11 11/1/11

f 7/3/11 12/4/11 8/2/11

usemtl BackColor
vn 0.581512 -0.74103 0.335736
f 8/2/12 12/4/12 7/3/12

usemtl FrontColor
vt 0.0482878 0.083637
vt 0.0965757 2.60209e-18
f 10/15/5 8/12/5 12/16/5

f 6/10/5 8/12/5 10/15/5

usemtl BackColor
f 8/12/6 4/9/6 6/10/6

f 8/4/8 7/1/8 4/2/8

f 10/15/6 8/12/6 6/10/6

f 12/16/6 8/12/6 10/15/6

usemtl FrontColor
vn -0.581512 0.74103 0.335736
f 12/2/13 9/1/13 10/4/13

f 9/1/13 12/2/13 11/3/13

usemtl BackColor
vn 0.581512 -0.74103 -0.335736
f 10/4/14 9/1/14 12/2/14

f 10/2/10 6/4/10 9/3/10

f 11/3/14 12/2/14 9/1/14

f 11/1/12 7/3/12 12/4/12

g Mesh2 Model

l 12 10

l 8 12

l 4 8

l 2 4

l 6 2

l 10 6

l 10 9

l 9 5

l 9 11

l 12 11

l 11 7

l 8 7

l 7 1

l 4 1

l 3 1

l 2 3

l 3 5

l 6 5

