# Alias OBJ Model File
# Exported from SketchUp, (c) 2000-2012 Trimble Navigation Limited
# File units = meters

mtllib DistilledWaterContainer_Valve_Closed_Highlight.mtl

g Mesh1 Component_1_1 Model

usemtl Color_M00
v 0.0116768 0.0131475 -0.0182125
vt -2.01365 1.03524
vn -0.847024 -2.58812e-14 -0.531554
v 0.0058384 -0.00430137 -0.00890912
vt -1.58123 0.348273
v 0.0058384 0.0131475 -0.00890912
vt -1.58123 1.03524
f 1/1/1 2/2/1 3/3/1

v 0.0116768 -0.0131475 -0.0182125
vt -2.01365 4.61183e-15
f 4/4/1 2/2/1 1/1/1

v 0.0058384 -0.0131475 -0.00890912
vt -1.58123 4.61183e-15
f 2/2/1 4/4/1 5/5/1

vn 0.847024 2.58812e-14 0.531554
f 5/5/2 4/4/2 2/2/2

usemtl FrontColor
v 0.0058384 -0.0131475 -0.0275159
vt 0.689574 2.16661
vn 0 1 -0
vt 0.689574 1.43406
vt 0.919432 1.80033
f 6/6/3 5/7/3 4/8/3

v -0.0058384 -0.0131475 -0.0275159
vt 0.229858 2.16661
f 7/9/3 5/7/3 6/6/3

v -0.0058384 -0.0131475 -0.00890912
vt 0.229858 1.43406
f 7/9/3 8/10/3 5/7/3

v -0.0116768 -0.0131475 -0.0182125
vt 0 1.80033
f 8/10/3 7/9/3 9/11/3

usemtl BackColor
vn -0 -1 0
f 9/11/4 7/9/4 8/10/4

usemtl Color_M00
vt 1.95735 -4.79269e-29
vn 0.847024 -5.00817e-29 0.531554
v -0.0116768 0.0131475 -0.0182125
vt 1.52493 1.03524
vt 1.52493 -4.79269e-29
f 7/12/5 10/13/5 9/14/5

v -0.0058384 0.0131475 -0.0275159
vt 1.95735 1.03524
f 10/13/5 7/12/5 11/15/5

vn -0.847024 5.00817e-29 -0.531554
f 9/14/6 10/13/6 7/12/6

v -0.0058384 0.0131475 -0.00890912
vt 1.0925 1.03524
vn 0.847024 -3.16241e-18 -0.531554
vt 1.52493 3.02634e-18
f 12/16/7 9/17/7 10/13/7

v -0.0058384 -0.00430137 -0.00890912
vt 1.0925 0.348273
f 13/18/7 9/17/7 12/16/7

vt 1.0925 3.02634e-18
f 9/17/7 13/18/7 8/19/7

vn -0.847024 3.16241e-18 0.531554
f 8/19/8 13/18/8 9/17/8

vt -0.229858 0.348273
vn 4.1577e-12 -1.43533e-13 -1
vt -0.689574 2.05835e-13
vt -0.229858 2.05835e-13
f 13/20/9 5/21/9 8/22/9

vt -0.689574 0.348273
f 5/21/9 13/20/9 2/23/9

vn -4.1577e-12 1.43533e-13 1
f 8/22/10 5/21/10 13/20/10

usemtl BackColor
f 5/7/4 8/10/4 7/9/4

f 6/6/4 5/7/4 7/9/4

f 4/8/4 5/7/4 6/6/4

usemtl Color_M00
vt -1.0362 0
vn -0.847024 0 0.531554
v 0.0058384 0.0131475 -0.0275159
vt -1.46862 1.03524
vt -1.46862 0
f 4/24/11 14/25/11 6/26/11

vt -1.0362 1.03524
f 14/25/11 4/24/11 1/27/11

vn 0.847024 -0 -0.531554
f 1/27/12 4/24/12 14/25/12

f 1/1/2 2/2/2 4/4/2

f 3/3/2 2/2/2 1/1/2

v 0.0058384 -0.00430137 0.0275159
vt -3.58068e-12 0.348273
vn -1 0 -5.1926e-12
vt -1.43406 1.03524
vt -1.43406 0.348273
f 15/28/13 3/29/13 2/30/13

v 0.0058384 0.0131475 0.0275159
vt -3.58068e-12 1.03524
f 3/29/13 15/28/13 16/31/13

vn 1 -0 5.1926e-12
f 16/31/14 15/28/14 3/29/14

vn 3.15305e-12 0 -1
v -0.0058384 0.0131475 0.0275159
vt -0.229858 1.03524
vt -0.689574 1.03524
f 15/23/15 17/32/15 16/33/15

v -0.0058384 -0.00430137 0.0275159
f 17/32/15 15/23/15 18/20/15

vn -3.15305e-12 -0 1
f 18/20/16 15/23/16 17/32/16

vt 0.689574 0
vt 0.229858 1.44951e-12
f 15/34/3 13/10/3 18/35/3

f 13/10/3 15/34/3 2/7/3

f 18/35/4 13/10/4 15/34/4

vt 1.43406 0.348273
vn 1 0 4.79622e-12
vt 2.55196e-12 1.03524
vt 2.55196e-12 0.348273
f 13/36/17 17/37/17 18/38/17

vt 1.43406 1.03524
f 17/37/17 13/36/17 12/39/17

vn -1 -0 -4.79622e-12
f 18/38/18 17/37/18 13/36/18

f 12/39/18 13/36/18 17/37/18

f 12/16/8 9/17/8 13/18/8

f 10/13/8 9/17/8 12/16/8

vt -0.229858 2.16661
vn 0 -1 -0
vt -0.229858 1.43406
f 11/40/19 12/41/19 10/11/19

vt -0.689574 0
f 16/42/19 12/41/19 11/40/19

vt -0.229858 1.44951e-12
f 12/41/19 16/42/19 17/43/19

vn -0 1 0
f 17/43/20 16/42/20 12/41/20

f 16/33/16 17/32/16 15/23/16

f 11/40/20 12/41/20 16/42/20

f 10/11/20 12/41/20 11/40/20

f 11/15/6 7/12/6 10/13/6

vt 0.229858 1.34426e-28
vn -4.7914e-12 6.20446e-29 1
vt 0.689574 1.03524
vt 0.229858 1.03524
f 7/44/21 14/45/21 11/46/21

vt 0.689574 1.34426e-28
f 14/45/21 7/44/21 6/47/21

vn 4.7914e-12 -6.20446e-29 -1
f 6/47/22 7/44/22 14/45/22

f 11/46/22 14/45/22 7/44/22

vt -0.689574 2.16661
f 16/42/19 11/40/19 14/48/19

f 14/48/20 11/40/20 16/42/20

vt -0.689574 1.43406
f 16/42/19 14/48/19 3/49/19

f 3/49/20 14/48/20 16/42/20

vt -0.919432 1.80033
f 3/49/19 14/48/19 1/50/19

f 1/50/20 14/48/20 3/49/20

f 6/26/12 14/25/12 4/24/12

f 2/7/4 15/34/4 13/10/4

f 2/30/14 3/29/14 15/28/14

f 2/23/10 13/20/10 5/21/10

g Mesh2 Component_1_1 Model

l 11 10

l 14 11

l 1 14

l 4 1

l 4 5

l 6 4

l 7 6

l 9 7

l 8 9

l 8 5

l 8 13

l 13 2

l 13 12

l 13 18

l 18 17

l 18 15

l 2 15

l 5 2

l 2 3

l 3 1

l 3 16

l 17 16

l 12 17

l 10 12

l 9 10

l 15 16

l 7 11

l 6 14

