# Alias OBJ Model File
# Exported from SketchUp, (c) 2000-2012 Trimble Navigation Limited
# File units = meters

mtllib TestTube.mtl

g Mesh1 Model

usemtl Color_M01
v -0.00511324 0.126639 0.00952628
vt -0.201309 -0.37505
vn 0 1 -0
v -0.00960424 0.126639 -2.16506e-05
vt -0.37812 0.000852387
v -0.0106257 0.126639 -2.16506e-05
vt -0.418336 0.000852387
f 1/1/1 2/2/1 3/3/1

v -0.00460249 0.126639 0.00864163
vt -0.1812 -0.340222
f 2/2/1 1/1/1 4/4/1

vn -0 -1 0
f 3/3/2 2/2/2 1/1/2

v -0.00511324 0.126639 -0.00956958
vt -0.201309 0.376755
f 2/2/1 5/5/1 3/3/1

v -0.00460249 0.126639 -0.00868493
vt -0.1812 0.341927
f 5/5/1 2/2/1 6/6/1

f 3/3/2 5/5/2 2/2/2

vt -0.225625 4.98579
vn -0.866025 0 -0.5
v -0.0106257 0.125639 -2.16506e-05
vt 0.20843 4.94642
vt 0.20843 4.98579
f 5/7/3 7/8/3 3/9/3

v -0.00511324 0.125639 -0.00956958
vt -0.225625 4.94642
f 7/8/3 5/7/3 8/10/3

vn 0.866025 -0 0.5
f 3/9/4 7/8/4 5/7/4

v -0.00511324 0.125639 0.00952628
vt 0.224149 4.94642
vn -0.866025 0 0.5
vt -0.209906 4.98579
vt -0.209906 4.94642
f 9/11/5 3/12/5 7/13/5

vt 0.224149 4.98579
f 3/12/5 9/11/5 1/14/5

vn 0.866025 -0 -0.5
f 1/14/6 9/11/6 3/12/6

vt -0.201309 4.94642
vn -5.11559e-16 0 1
v 0.00591176 0.126639 0.00952628
vt 0.232746 4.98579
vt -0.201309 4.98579
f 9/15/7 10/16/7 1/17/7

v 0.00591176 0.125639 0.00952628
vt 0.232746 4.94642
f 10/16/7 9/15/7 11/18/7

vn 5.11559e-16 -0 -1
f 11/18/8 9/15/8 10/16/8

v -0.00462574 0.124388 0.00866025
vt -0.182116 4.22095
vn -3.35346e-16 -0.569054 0.8223
vt 0.232746 4.28086
vt -0.201309 4.28086
f 12/19/9 11/20/9 9/21/9

v 0.00537426 0.124388 0.00866025
vt 0.211585 4.22095
f 11/20/9 12/19/9 13/22/9

vn 3.35346e-16 0.569054 -0.8223
f 13/22/10 12/19/10 11/20/10

v -0.00462574 0.00563897 0.00866025
vt -0.182116 0.222007
vn -4.22995e-16 1.18737e-17 1
vt 0.211585 4.89715
vt -0.182116 4.89715
f 14/23/11 13/24/11 12/25/11

v 0.00537426 0.00563897 0.00866025
vt 0.211585 0.222007
f 13/24/11 14/23/11 15/26/11

vn 4.22995e-16 -1.18737e-17 -1
f 15/26/12 14/23/12 13/24/12

v -0.00277801 0 0.00481165
vt -0.10937 0.106789
vn -4.52336e-16 -0.563722 0.825965
vt 0.211585 0.375573
vt -0.182116 0.375573
f 16/27/13 15/28/13 14/29/13

v 0.00277801 0 0.00481165
vt 0.10937 0.106789
f 15/28/13 16/27/13 17/30/13

vn 4.52336e-16 0.563722 -0.825965
f 17/30/14 16/27/14 15/28/14

vt 0.10937 -0.189435
vn 0 -1 -0
v -0.00277801 0 -0.00481165
vt 0.10937 0.189435
vt -0.10937 -0.189435
f 16/31/15 18/32/15 17/33/15

v -0.00555602 0 -7.04992e-19
vt 0.218741 2.77556e-17
f 18/32/15 16/31/15 19/34/15

vn -0 1 0
f 19/34/16 16/31/16 18/32/16

vt 0.10937 0.100403
vn -0.73438 -0.530013 0.423995
v -0.00962574 0.00563897 -3.52496e-19
vt -0.189483 0.362207
vt -0.10937 0.100403
f 16/35/17 20/36/17 19/37/17

vt 0.204218 0.362207
f 20/36/17 16/35/17 14/38/17

vn 0.73438 0.530013 -0.423995
f 14/38/18 16/35/18 20/36/18

f 14/29/14 15/28/14 16/27/14

f 19/37/18 20/36/18 16/35/18

v -0.00462574 0.00563897 -0.00866025
vt -0.204218 0.362207
vn -0.73438 -0.530013 -0.423995
vt 0.189483 0.362207
f 21/39/19 19/35/19 20/40/19

f 19/35/19 21/39/19 18/37/19

vn 0.73438 0.530013 0.423995
f 20/40/20 19/35/20 21/39/20

f 18/37/20 21/39/20 19/35/20

vt 0.182116 0.375573
vn 2.91107e-17 -0.563722 -0.825965
v 0.00277801 0 -0.00481165
f 21/41/21 22/27/21 18/30/21

v 0.00537426 0.00563897 -0.00866025
vt -0.211585 0.375573
f 22/27/21 21/41/21 23/42/21

vn -2.91107e-17 0.563722 0.825965
f 18/30/22 22/27/22 21/41/22

vt -0.10937 0.189435
f 17/33/15 18/32/15 22/43/15

f 17/33/16 18/32/16 16/31/16

f 22/43/16 18/32/16 17/33/16

v 0.00555602 0 -0
vt -0.218741 0
f 17/33/15 22/43/15 24/44/15

f 24/44/16 22/43/16 17/33/16

vt 0.189483 0.388861
vn 0.696154 -0.594832 -0.401925
vt -0.10937 0.112682
vt 0.10937 0.112682
f 23/45/23 24/46/23 22/47/23

v 0.0103743 0.00563897 2.46747e-18
vt -0.204218 0.388861
f 24/46/23 23/45/23 25/48/23

vn -0.696154 0.594832 0.401925
f 25/48/24 23/45/24 24/46/24

vt 0.189483 0.222007
vn 0.866025 0 -0.5
v 0.0103743 0.124388 2.46747e-18
vt -0.204218 4.89715
vt -0.204218 0.222007
f 23/49/25 26/50/25 25/51/25

v 0.00537426 0.124388 -0.00866025
vt 0.189483 4.89715
f 26/50/25 23/49/25 27/52/25

vn -0.866025 -0 0.5
f 25/51/26 26/50/26 23/49/26

vt -0.189483 4.89715
vn 0.866025 5.0795e-18 0.5
vt 0.204218 0.222007
vt 0.204218 4.89715
f 13/53/27 25/54/27 26/55/27

vt -0.189483 0.222007
f 25/54/27 13/53/27 15/56/27

vn -0.866025 -5.0795e-18 -0.5
f 15/56/28 13/53/28 25/54/28

f 26/55/28 25/54/28 13/53/28

v 0.0114243 0.125639 -2.16506e-05
vt 0.225625 4.24496
vn 0.703483 -0.583222 0.406156
vt -0.189483 4.18431
vt 0.204218 4.18431
f 28/57/29 13/58/29 26/59/29

vt -0.20843 4.24496
f 13/58/29 28/57/29 11/60/29

vn -0.703483 0.583222 -0.406156
f 11/60/30 28/57/30 13/58/30

vt 0.225625 4.94642
vn 0.866025 0 0.5
vt -0.20843 4.98579
vt -0.20843 4.94642
f 28/61/31 10/62/31 11/63/31

v 0.0114243 0.126639 -2.16506e-05
vt 0.225625 4.98579
f 10/62/31 28/61/31 29/64/31

vn -0.866025 -0 -0.5
f 11/63/32 10/62/32 28/61/32

f 29/64/32 28/61/32 10/62/32

v 0.00591176 0.125639 -0.00956958
vt 0.209906 4.94642
vt -0.224149 4.98579
vt -0.224149 4.94642
f 30/65/25 29/66/25 28/67/25

v 0.00591176 0.126639 -0.00956958
vt 0.209906 4.98579
f 29/66/25 30/65/25 31/68/25

f 28/67/26 29/66/26 30/65/26

f 31/68/26 30/65/26 29/66/26

vt -0.232746 4.94642
vn 0 0 -1
vt 0.201309 4.98579
vt -0.232746 4.98579
f 30/69/33 5/70/33 31/71/33

vt 0.201309 4.94642
f 5/70/33 30/69/33 8/72/33

vn -0 -0 1
f 8/72/34 30/69/34 5/70/34

vt -0.211585 4.16214
vn -3.3138e-18 -0.58783 -0.808984
vt 0.201309 4.22304
vt -0.232746 4.22304
f 27/73/35 8/74/35 30/75/35

v -0.00462574 0.124388 -0.00866025
vt 0.182116 4.16214
f 8/74/35 27/73/35 32/76/35

vn 3.3138e-18 0.58783 0.808984
f 32/76/36 27/73/36 8/74/36

vt -0.211585 0.222007
vt 0.182116 4.89715
vt -0.211585 4.89715
f 23/77/33 32/78/33 27/79/33

vt 0.182116 0.222007
f 32/78/33 23/77/33 21/80/33

f 21/80/34 23/77/34 32/78/34

f 23/42/22 21/41/22 22/27/22

f 22/47/24 24/46/24 23/45/24

f 27/79/34 32/78/34 23/77/34

v 0.00540101 0.125639 -0.00868493
vt 0.212638 4.9522
vn 1.39526e-19 0.0197173 0.999806
vt -0.182116 4.90292
vt 0.211585 4.90292
f 33/81/37 32/82/37 27/83/37

v -0.00460249 0.125639 -0.00868493
vt -0.1812 4.9522
f 32/82/37 33/81/37 34/84/37

vn -1.39526e-19 -0.0197173 -0.999806
f 27/83/38 32/82/38 33/81/38

f 34/84/38 33/81/38 32/82/38

v 0.00540101 0.126639 -0.00868493
vt 0.212638 4.98579
vn 0 0 1
vt -0.1812 4.94642
vt 0.212638 4.94642
f 35/85/39 34/86/39 33/87/39

vt -0.1812 4.98579
f 34/86/39 35/85/39 6/88/39

vn -0 -0 -1
f 33/87/40 34/86/40 35/85/40

f 6/88/40 35/85/40 34/86/40

vt 0.232746 0.376755
vt 0.212638 0.341927
f 31/89/1 6/6/1 35/90/1

f 5/5/1 6/6/1 31/89/1

f 6/6/2 2/2/2 5/5/2

vt -0.188322 4.98579
v -0.00462574 0.125639 -0.00864466
vt 0.203686 4.94642
vt 0.205517 4.98579
f 2/91/31 36/92/31 6/93/31

v -0.00960424 0.125639 -2.16506e-05
vt -0.188322 4.94642
f 36/92/31 2/91/31 37/94/31

f 37/94/32 2/91/32 36/92/32

vt -0.20404 4.98579
vt 0.189798 4.94642
vt 0.189798 4.98579
f 4/95/25 37/96/25 2/97/25

v -0.00460249 0.125639 0.00864163
vt -0.20404 4.94642
f 37/96/25 4/95/25 38/98/25

f 38/98/26 4/95/26 37/96/26

vt 0.1812 4.98579
vn 5.63796e-16 0 -1
v 0.00540101 0.125639 0.00864163
vt -0.212638 4.94642
vt 0.1812 4.94642
f 4/99/41 39/100/41 38/101/41

v 0.00540101 0.126639 0.00864163
vt -0.212638 4.98579
f 39/100/41 4/99/41 40/102/41

vn -5.63796e-16 -0 1
f 38/101/42 39/100/42 4/99/42

vt -0.211585 4.89153
vn 4.22959e-16 -0.0148785 -0.999889
vt 0.1812 4.94081
vt -0.212638 4.94081
f 13/103/43 38/104/43 39/105/43

vt 0.182116 4.89153
f 38/104/43 13/103/43 12/106/43

vn -4.22959e-16 0.0148785 0.999889
f 12/106/44 13/103/44 38/104/44

f 12/25/12 13/24/12 14/23/12

v -0.00962574 0.124388 -8.8124e-19
vn -0.866025 1.26987e-18 0.5
f 41/53/45 14/54/45 12/55/45

f 14/54/45 41/53/45 20/56/45

vn 0.866025 -1.26987e-18 -0.5
f 12/55/46 14/54/46 41/53/46

f 20/56/46 41/53/46 14/54/46

vn -0.866025 -1.26987e-18 -0.5
f 41/52/47 21/51/47 20/49/47

f 21/51/47 41/52/47 32/50/47

vn 0.866025 1.26987e-18 0.5
f 20/49/48 21/51/48 41/52/48

f 32/50/48 41/52/48 21/51/48

vt 0.20843 4.25911
vn -0.70925 -0.573834 -0.409486
vt -0.204218 4.19895
vt 0.189483 4.19895
f 7/107/49 32/108/49 41/109/49

vt -0.225625 4.25911
f 32/108/49 7/107/49 8/110/49

vn 0.70925 0.573834 0.409486
f 41/109/50 32/108/50 7/107/50

vt 0.204218 4.89501
vn 0.866009 -0.0062297 0.49999
vt -0.188322 4.94428
vt -0.189483 4.89501
f 32/111/51 37/112/51 41/113/51

vt 0.203686 4.94428
f 37/112/51 32/111/51 36/114/51

vn -0.866009 0.0062297 -0.49999
f 41/113/52 37/112/52 32/111/52

vt -0.20404 4.93735
vn 0.865786 -0.023524 -0.499862
vt 0.189483 4.88807
vt 0.189798 4.93735
f 38/115/53 41/116/53 37/117/53

vt -0.204218 4.88807
f 41/116/53 38/115/53 12/118/53

vn -0.865786 0.023524 0.499862
f 12/118/54 38/115/54 41/116/54

f 37/117/54 41/116/54 38/115/54

vt 0.204218 4.22839
vn -0.715015 -0.564214 0.412814
vt -0.209906 4.28807
vt -0.189483 4.22839
f 12/119/55 7/120/55 41/121/55

vt 0.224149 4.28807
f 7/120/55 12/119/55 9/122/55

vn 0.715015 0.564214 -0.412814
f 9/122/56 12/119/56 7/120/56

f 9/21/10 11/20/10 12/19/10

f 41/121/56 7/120/56 12/119/56

f 7/13/6 3/12/6 9/11/6

f 36/114/52 32/111/52 37/112/52

vt 0.205517 4.94428
f 36/114/51 32/111/51 34/123/51

f 34/123/52 32/111/52 36/114/52

vt 0.205517 4.94642
f 6/93/31 36/92/31 34/124/31

f 6/93/32 36/92/32 2/91/32

f 34/124/32 36/92/32 6/93/32

f 8/110/50 7/107/50 32/108/50

f 8/10/4 5/7/4 7/8/4

f 39/105/44 38/104/44 13/103/44

vt 0.188322 4.95003
vn -0.865972 0.0110702 -0.499969
vt -0.204218 4.90076
vt 0.189483 4.90076
f 39/125/57 26/126/57 13/127/57

v 0.0104028 0.125639 -2.16506e-05
vt -0.205517 4.95003
f 26/126/57 39/125/57 42/128/57

vn 0.865972 -0.0110702 0.499969
f 13/127/58 26/126/58 39/125/58

f 26/59/30 13/58/30 28/57/30

vt 0.189483 4.15496
vn 0.69772 -0.592382 -0.402829
vt -0.224149 4.21611
vt -0.204218 4.15496
f 27/129/59 28/130/59 26/131/59

vt 0.209906 4.21611
f 28/130/59 27/129/59 30/132/59

vn -0.69772 0.592382 0.402829
f 26/131/60 28/130/60 27/129/60

f 30/132/60 27/129/60 28/130/60

f 30/75/36 8/74/36 27/73/36

f 27/52/26 23/49/26 26/50/26

vt 0.20404 4.9545
vn -0.865677 0.0283601 0.499799
vt -0.189483 4.90521
vt 0.204218 4.90521
f 42/133/61 27/134/61 26/135/61

vt -0.189798 4.9545
f 27/134/61 42/133/61 33/136/61

vn 0.865677 -0.0283601 -0.499799
f 26/135/62 27/134/62 42/133/62

f 33/136/62 42/133/62 27/134/62

vt 0.20404 4.94642
vt -0.189798 4.98579
vt -0.189798 4.94642
f 42/137/5 35/138/5 33/139/5

v 0.0104028 0.126639 -2.16506e-05
vt 0.20404 4.98579
f 35/138/5 42/137/5 43/140/5

f 43/140/6 42/137/6 35/138/6

vt 0.188322 4.94642
vt -0.205517 4.98579
vt -0.205517 4.94642
f 39/141/3 43/142/3 42/143/3

vt 0.188322 4.98579
f 43/142/3 39/141/3 40/144/3

f 40/144/4 39/141/4 43/142/4

f 40/102/42 4/99/42 39/100/42

vt 0.232746 -0.37505
vt 0.212638 -0.340222
f 4/4/1 10/145/1 40/146/1

f 4/4/1 1/1/1 10/145/1

f 4/4/2 1/1/2 2/2/2

f 10/145/2 1/1/2 4/4/2

f 1/17/8 10/16/8 9/15/8

f 40/146/2 10/145/2 4/4/2

vt 0.409557 0.000852387
f 40/146/1 10/145/1 43/147/1

f 43/147/2 10/145/2 40/146/2

vt 0.449774 0.000852387
f 43/147/1 10/145/1 29/148/1

f 29/148/2 10/145/2 43/147/2

f 31/89/1 43/147/1 29/148/1

f 31/89/1 35/90/1 43/147/1

f 35/90/2 6/6/2 31/89/2

f 31/89/2 6/6/2 5/5/2

f 31/71/34 5/70/34 30/69/34

f 43/147/2 35/90/2 31/89/2

f 29/148/2 43/147/2 31/89/2

f 2/97/26 37/96/26 4/95/26

f 42/143/4 43/142/4 39/141/4

f 42/128/58 39/125/58 26/126/58

f 33/139/6 35/138/6 42/137/6

vn 0.696154 -0.594832 0.401925
vt 0.204218 0.388861
vt -0.189483 0.388861
f 17/46/63 25/149/63 15/150/63

f 25/149/63 17/46/63 24/47/63

vn -0.696154 0.594832 -0.401925
f 15/150/64 25/149/64 17/46/64

f 24/47/64 17/46/64 25/149/64

g Mesh2 Model

l 37 38

l 2 4

l 6 2

l 35 6

l 43 35

l 40 43

l 4 40

l 38 39

l 38 12

l 14 12

l 20 14

l 20 41

l 19 20

l 18 19

l 18 21

l 22 18

l 24 22

l 17 24

l 16 17

l 19 16

l 16 14

l 14 15

l 15 13

l 15 25

l 17 15

l 25 26

l 24 25

l 25 23

l 23 27

l 22 23

l 23 21

l 21 32

l 21 20

l 32 8

l 32 41

l 27 32

l 26 27

l 26 28

l 13 26

l 12 13

l 41 12

l 41 7

l 37 41

l 36 37

l 33 34

l 42 33

l 39 42

l 39 13

l 13 11

l 11 28

l 9 11

l 7 9

l 8 7

l 30 8

l 28 30

l 29 31

l 10 29

l 1 10

l 12 9

l 3 1

l 5 3

l 31 5

l 27 30

l 33 27

l 42 26

l 34 32

