# Alias OBJ Model File
# Exported from SketchUp, (c) 2000-2012 Trimble Navigation Limited
# File units = meters

mtllib LeftHand.mtl

g Mesh1 Model

usemtl FrontColor
v 0.03 -0.03 -0.03
vt -1.1811 1.1811
vn 0 -1 -0
v -0.03 -0.03 0.03
vt 1.1811 -1.1811
v -0.03 -0.03 -0.03
vt 1.1811 1.1811
f 1/1/1 2/2/1 3/3/1

v 0.03 -0.03 0.03
vt -1.1811 -1.1811
f 2/2/1 1/1/1 4/4/1

usemtl BackColor
vn -0 1 0
f 3/3/2 2/2/2 1/1/2

usemtl FrontColor
vn -1 0 -0
v -0.03 0.03 -0.03
f 2/2/3 5/1/3 3/4/3

v -0.03 0.03 0.03
f 5/1/3 2/2/3 6/3/3

usemtl BackColor
vn 1 -0 0
f 6/3/4 2/2/4 5/1/4

usemtl FrontColor
vn 0 0 1
v 0.03 0.03 0.03
f 2/4/5 7/3/5 6/1/5

f 7/3/5 2/4/5 4/2/5

usemtl BackColor
vn -0 -0 -1
f 4/2/6 2/4/6 7/3/6

f 4/4/2 1/1/2 2/2/2

usemtl FrontColor
vn 1 0 -0
f 1/2/7 7/1/7 4/4/7

v 0.03 0.03 -0.03
f 7/1/7 1/2/7 8/3/7

usemtl BackColor
vn -1 -0 0
f 4/4/8 7/1/8 1/2/8

f 8/3/8 1/2/8 7/1/8

usemtl FrontColor
vn 0 0 -1
f 1/4/9 5/3/9 8/1/9

f 5/3/9 1/4/9 3/2/9

usemtl BackColor
vn -0 -0 1
f 3/2/10 1/4/10 5/3/10

f 8/1/10 5/3/10 1/4/10

usemtl FrontColor
vn 0 1 -0
f 5/1/11 7/2/11 8/3/11

f 7/2/11 5/1/11 6/4/11

usemtl BackColor
vn -0 -1 0
f 6/4/12 5/1/12 7/2/12

f 8/3/12 7/2/12 5/1/12

f 6/1/6 7/3/6 2/4/6

f 3/4/4 5/1/4 2/2/4

g Mesh2 Model

l 4 1

l 2 4

l 3 2

l 1 3

l 1 8

l 8 5

l 7 8

l 6 7

l 5 6

l 3 5

l 2 6

l 4 7

