# Alias OBJ Model File
# Exported from SketchUp, (c) 2000-2012 Trimble Navigation Limited
# File units = meters

mtllib OpenningSurface.mtl

g Mesh1 Model

usemtl Color_M00
v -0.005 0 -0.00866025
vt 0.19685 0.340955
vn 0 -1 -0
v -0.005 0 0.00866025
vt 0.19685 -0.340955
v -0.01 0 -1.22465e-18
vt 0.393701 4.82144e-17
f 1/1/1 2/2/1 3/3/1

v 0.005 0 0.00866025
vt -0.19685 -0.340955
f 2/2/1 1/1/1 4/4/1

vn -0 1 0
f 3/3/2 2/2/2 1/1/2

f 4/4/2 1/1/2 2/2/2

v 0.005 0 -0.00866025
vt -0.19685 0.340955
f 4/4/1 1/1/1 5/5/1

f 5/5/2 1/1/2 4/4/2

v 0.01 0 -0
vt -0.393701 0
f 4/4/1 5/5/1 6/6/1

f 6/6/2 5/5/2 4/4/2

g Mesh2 Model

l 6 5

l 4 6

l 2 4

l 3 2

l 1 3

l 5 1

