# Alias OBJ Model File
# Exported from SketchUp, (c) 2000-2012 Trimble Navigation Limited
# File units = meters

mtllib Erlenmeyer_Solid.mtl

g Mesh1 Model

usemtl Color_M00
v 0.0125349 -0.0965686 -0.0199044
vt 0.4935 0.783637
vn 0 1 -0
v 0.00439364 -0.0965686 -0.0199044
vt 0.172978 0.783637
v 0.00696498 -0.0965686 -0.0177997
vt 0.274212 0.700777
f 1/1/1 2/2/1 3/3/1

vn -0 -1 0
f 3/3/2 2/2/2 1/1/2

v 0.00439364 -0.0765686 -0.0199044
vt 0.362488 -3.01451
vn 0.633387 -1.13419e-16 -0.773836
vt 0.231668 -3.80191
vt 0.362488 -3.80191
f 4/4/3 3/5/3 2/6/3

v 0.00696498 -0.0765686 -0.0177997
vt 0.231668 -3.01451
f 3/5/3 4/4/3 5/7/3

vn -0.633387 1.13419e-16 0.773836
f 2/6/4 3/5/4 4/4/4

v 0.0235811 -0.0965686 0.0320571
vt 0.928389 -1.26209
f 2/2/1 6/8/1 3/3/1

v -0.00641891 -0.0965686 -0.0199044
vt -0.252713 0.783637
f 6/8/1 2/2/1 7/9/1

f 7/9/2 2/2/2 6/8/2

v -0.00641891 -0.0765686 -0.0199044
vt 0.252713 -3.01451
vn -2.60805e-16 4.67018e-32 -1
vt -0.172978 -3.80191
vt 0.252713 -3.80191
f 8/10/5 2/11/5 7/12/5

vt -0.172978 -3.01451
f 2/11/5 8/10/5 4/13/5

vn 2.60805e-16 -4.67018e-32 1
f 7/12/6 2/11/6 8/10/6

f 4/13/6 8/10/6 2/11/6

vn 1.97065e-16 1 9.61275e-18
v -0.00641891 -0.0765686 0.0320571
vt -0.252713 -1.26209
f 8/9/7 9/14/7 4/2/7

v -0.0142625 -0.0765686 -0.00456098
vt -0.561514 0.179566
f 10/15/7 9/14/7 8/9/7

v -0.0171788 -0.0765686 -0.0012677
vt -0.67633 0.0499096
f 11/16/7 9/14/7 10/15/7

v -0.0214189 -0.0765686 0.00607639
vt -0.843264 -0.239228
f 9/14/7 11/16/7 12/17/7

vn -1.97065e-16 -1 -9.61275e-18
f 12/17/8 11/16/8 9/14/8

vt 0.294942 -3.01451
vn -0.866025 2.42602e-16 -0.5
v -0.0214189 -0.0965686 0.00607639
vt 0.628809 -3.80191
vt 0.628809 -3.01451
f 11/18/9 13/19/9 12/20/9

v -0.0171788 -0.0865686 -0.0012677
vt 0.294942 -3.40821
f 13/19/9 11/18/9 14/21/9

vn 0.866025 -2.42602e-16 0.5
f 12/20/10 13/19/10 11/18/10

v -0.00641891 -0.0965686 0.0320571
vt 0.966648 -3.80191
vn -0.866025 1.65857e-16 0.5
vt -0.214455 -3.01451
vt -0.214455 -3.80191
f 15/22/11 12/23/11 13/24/11

vt 0.966648 -3.01451
f 12/23/11 15/22/11 9/25/11

vn 0.866025 -1.65857e-16 -0.5
f 9/25/12 15/22/12 12/23/12

vt -0.252713 -3.80191
vn 5.63993e-16 -9.61275e-18 1
v 0.0235811 -0.0765686 0.0320571
vt 0.928389 -3.01451
vt -0.252713 -3.01451
f 15/26/13 16/27/13 9/28/13

vt 0.928389 -3.80191
f 16/27/13 15/26/13 6/29/13

vn -5.63993e-16 9.61275e-18 -1
f 6/29/14 15/26/14 16/27/14

vn 1.38587e-16 1 1.23767e-16
f 7/9/15 15/14/15 6/8/15

v -0.0142625 -0.0965686 -0.00456098
f 17/15/15 15/14/15 7/9/15

v -0.0171788 -0.0965686 -0.0012677
f 18/16/15 15/14/15 17/15/15

f 15/14/15 18/16/15 13/17/15

vn -1.38587e-16 -1 -1.23767e-16
f 13/17/16 18/16/16 15/14/16

vt 0.294942 -3.80191
f 18/30/9 13/19/9 14/21/9

f 14/21/10 13/19/10 18/30/10

f 14/21/10 11/18/10 13/19/10

vt 0.411017 -3.01451
vn -0.748652 2.2456e-16 -0.662963
vt 0.411017 -3.80191
vt 0.411017 -3.40821
f 11/31/17 18/32/17 14/33/17

vt 0.237831 -3.01451
f 18/32/17 11/31/17 10/34/17

vn 0.748652 -2.2456e-16 0.662963
f 14/33/18 18/32/18 11/31/18

vt -0.294942 -3.80191
vn 0.866025 -2.75509e-16 0.5
v -0.0146345 -0.0865686 -0.00567456
vt -0.0946036 -3.40821
vt -0.294942 -3.40821
f 18/35/19 19/36/19 14/37/19

v -0.0146345 -0.0965686 -0.00567456
vt -0.0946036 -3.80191
f 19/36/19 18/35/19 20/38/19

vn -0.866025 2.75509e-16 -0.5
f 14/37/20 19/36/20 18/35/20

v -0.0205999 -0.0865686 -0.0235304
vt -0.811018 0.926392
vn 2.43648e-16 1 5.99154e-17
vt -0.576161 0.223408
f 21/39/21 14/16/21 19/40/21

v -0.0275217 -0.0865686 0.0104121
vt -1.08353 -0.409924
f 21/39/21 22/41/21 14/16/21

v -0.0401965 -0.0865686 -0.0275267
vt -1.58254 1.08373
f 23/42/21 22/41/21 21/39/21

v -0.0471184 -0.0865686 0.00641573
vt -1.85505 -0.252588
f 23/42/21 24/43/21 22/41/21

v -0.0534558 -0.0865686 -0.0125537
vt -2.10456 0.494238
f 24/43/21 23/42/21 25/44/21

vn -2.43648e-16 -1 -5.99154e-17
f 25/44/22 23/42/22 24/43/22

vt 0.237831 -3.40821
vn -0.748652 2.2213e-16 -0.662963
v -0.0534558 -0.0965686 -0.0125537
vt 1.02523 -3.80191
vt 1.02523 -3.40821
f 23/45/23 26/46/23 25/47/23

v -0.0401965 -0.0965686 -0.0275267
vt 0.237831 -3.80191
f 26/46/23 23/45/23 27/48/23

vn 0.748652 -2.2213e-16 0.662963
f 25/47/24 26/46/24 23/45/24

v -0.0471184 -0.0965686 0.00641573
vt -0.34824 -3.80191
vn -0.948469 2.12108e-16 0.31687
vt -1.13564 -3.40821
vt -1.13564 -3.80191
f 28/49/25 25/50/25 26/51/25

vt -0.34824 -3.40821
f 25/50/25 28/49/25 24/52/25

vn 0.948469 -2.12108e-16 -0.31687
f 24/52/26 28/49/26 25/50/26

vt -1.76717 -3.80191
vn -0.199817 -1.0022e-17 0.979833
vt -0.979771 -3.40821
vt -1.76717 -3.40821
f 28/53/27 22/54/27 24/55/27

v -0.0275217 -0.0965686 0.0104121
vt -0.979771 -3.80191
f 22/54/27 28/53/27 29/56/27

vn 0.199817 1.0022e-17 -0.979833
f 29/56/28 28/53/28 22/54/28

vn 3.1882e-16 1 -2.90658e-16
f 20/40/29 28/43/29 29/41/29

f 28/43/29 20/40/29 26/44/29

vn -3.1882e-16 -1 2.90658e-16
f 26/44/30 20/40/30 28/43/30

vn 1.62726e-16 1 3.75365e-16
f 20/40/31 27/42/31 26/44/31

v -0.0205999 -0.0965686 -0.0235304
f 27/42/31 20/40/31 30/39/31

vn -1.62726e-16 -1 -3.75365e-16
f 26/44/32 27/42/32 20/40/32

f 27/48/24 23/45/24 26/46/24

vt 1.76717 -3.40821
vt 0.979771 -3.80191
vt 1.76717 -3.80191
f 23/57/28 30/58/28 27/59/28

vt 0.979771 -3.40821
f 30/58/28 23/57/28 21/60/28

f 27/59/27 30/58/27 23/57/27

f 30/39/32 20/40/32 27/42/32

vt 1.13564 -3.40821
vn 0.948469 -2.54784e-16 -0.31687
vt 0.394464 -3.80191
vt 1.13564 -3.80191
f 21/61/33 20/62/33 30/63/33

vt 0.394464 -3.40821
f 20/62/33 21/61/33 19/64/33

vn -0.948469 2.54784e-16 0.31687
f 19/64/34 21/61/34 20/62/34

f 19/40/22 14/16/22 21/39/22

f 14/16/22 22/41/22 21/39/22

vt -1.02523 -3.40821
vn 0.748652 -1.04128e-16 0.662963
vt -0.411017 -3.80191
vt -0.411017 -3.40821
f 22/65/35 18/66/35 14/67/35

vt -1.02523 -3.80191
f 18/66/35 22/65/35 29/68/35

vn -0.748652 1.04128e-16 -0.662963
f 29/68/36 22/65/36 18/66/36

f 14/67/36 18/66/36 22/65/36

f 20/40/29 29/41/29 18/16/29

f 29/41/30 28/43/30 20/40/30

f 18/16/30 29/41/30 20/40/30

vn -1.11136e-14 1 -6.41644e-15
f 17/15/37 20/40/37 18/16/37

vn 1.11136e-14 -1 6.41644e-15
f 18/16/38 20/40/38 17/15/38

f 20/38/20 18/35/20 19/36/20

v -0.0146345 -0.0765686 -0.00567456
vt 0.0946036 -3.01451
vn -0.866025 1.82067e-16 -0.5
vt 0.0946036 -3.80191
vt 0.0946036 -3.40821
f 31/69/39 20/70/39 19/71/39

vt -0.552293 -3.01451
f 20/70/39 31/69/39 8/72/39

vn 0.866025 -1.82067e-16 0.5
f 19/71/40 20/70/40 31/69/40

vt -0.394464 -3.80191
vn -0.948469 2.67565e-16 0.31687
vt -0.394464 -3.40821
f 20/73/41 17/49/41 19/74/41

vn 0.948469 -2.67565e-16 -0.31687
f 19/74/42 17/49/42 20/73/42

vt -0.394464 -3.01451
f 17/49/41 31/75/41 19/74/41

vt -0.34824 -3.01451
f 31/75/41 17/49/41 10/76/41

f 10/76/42 17/49/42 31/75/42

f 18/32/17 10/34/17 17/48/17

f 10/34/18 11/31/18 18/32/18

f 10/15/8 9/14/8 11/16/8

f 8/9/8 9/14/8 10/15/8

f 4/2/8 9/14/8 8/9/8

f 4/2/7 9/14/7 16/8/7

f 16/8/8 9/14/8 4/2/8

f 9/28/14 16/27/14 15/26/14

f 4/2/7 16/8/7 5/3/7

f 5/3/8 16/8/8 4/2/8

v 0.0125349 -0.0765686 -0.0199044
f 5/3/7 16/8/7 32/1/7

f 32/1/8 16/8/8 5/3/8

v 0.0235811 -0.0765686 -0.0199044
vt 0.928389 0.783637
f 32/1/7 16/8/7 33/77/7

f 33/77/8 16/8/8 32/1/8

v 0.0385811 -0.0765686 0.00607639
vt 1.51894 -0.239228
f 33/77/7 16/8/7 34/78/7

f 34/78/8 16/8/8 33/77/8

vt -0.628809 -3.01451
vn 0.866025 -1.7547e-16 0.5
v 0.0385811 -0.0965686 0.00607639
vt 0.552293 -3.80191
vt 0.552293 -3.01451
f 16/79/43 35/80/43 34/81/43

vt -0.628809 -3.80191
f 35/80/43 16/79/43 6/82/43

vn -0.866025 1.7547e-16 -0.5
f 6/82/44 16/79/44 35/80/44

f 34/81/44 35/80/44 16/79/44

v 0.0235811 -0.0965686 -0.0199044
vt 0.214455 -3.80191
vt -0.966648 -3.01451
vt -0.966648 -3.80191
f 36/83/12 34/84/12 35/85/12

vt 0.214455 -3.01451
f 34/84/12 36/83/12 33/86/12

f 35/85/11 34/84/11 36/83/11

f 33/86/11 36/83/11 34/84/11

vt -0.928389 -3.80191
vn -2.55288e-16 5.14282e-32 -1
vt -0.4935 -3.01451
vt -0.928389 -3.01451
f 36/87/45 32/88/45 33/89/45

vt -0.4935 -3.80191
f 32/88/45 36/87/45 1/90/45

vn 2.55288e-16 -5.14282e-32 1
f 1/90/46 36/87/46 32/88/46

f 1/1/1 6/8/1 36/77/1

f 3/3/1 6/8/1 1/1/1

f 3/3/2 6/8/2 2/2/2

f 1/1/2 6/8/2 3/3/2

f 36/77/2 6/8/2 1/1/2

f 36/77/1 6/8/1 35/78/1

f 35/78/2 6/8/2 36/77/2

vt -0.504213 -3.01451
vn -0.353468 4.74711e-17 -0.935447
vt -0.738633 -3.80191
vt -0.504213 -3.80191
f 5/91/47 1/92/47 3/93/47

vt -0.738633 -3.01451
f 1/92/47 5/91/47 32/94/47

vn 0.353468 -4.74711e-17 0.935447
f 3/93/48 1/92/48 5/91/48

f 32/94/48 5/91/48 1/92/48

vt 0.4935 -3.01451
vn 0 0 1
vt 0.172978 -3.80191
vt 0.4935 -3.80191
f 32/95/49 2/96/49 1/97/49

vt 0.172978 -3.01451
f 2/96/49 32/95/49 4/98/49

vn -0 -0 -1
f 1/97/50 2/96/50 32/95/50

v 0.0101972 -0.0965686 -0.0375368
vt -0.401465 1.47783
vn 0 -1 -0
vt -0.4935 0.783637
vt -0.172978 0.783637
f 37/99/51 1/100/51 2/101/51

v 0.0179356 -0.0965686 -0.031203
vt -0.706124 1.22846
f 1/100/51 37/99/51 38/102/51

vn -0 1 0
f 2/101/52 1/100/52 37/99/52

f 38/102/52 37/99/52 1/100/52

v 0.0101972 -0.0665686 -0.0375368
vt 0.625368 -2.62081
vn 0.633387 0 -0.773836
vt 0.625368 -3.80191
f 39/103/53 38/5/53 37/104/53

v 0.0179356 -0.0665686 -0.031203
vt 0.231668 -2.62081
f 38/5/53 39/103/53 40/105/53

vn -0.633387 -0 0.773836
f 37/104/54 38/5/54 39/103/54

f 40/105/54 39/103/54 38/5/54

vt 0.401465 1.47783
v 0.0125349 -0.0665686 -0.0199044
vt 0.706124 1.22846
f 39/106/1 41/1/1 40/107/1

v 0.00439364 -0.0665686 -0.0199044
f 39/106/1 42/2/1 41/1/1

v 0.000842738 -0.0665686 -0.0340021
vt 0.0331786 1.33867
f 43/108/1 42/2/1 39/106/1

v -0.000773374 -0.0665686 -0.0241336
vt -0.0304478 0.950141
f 42/2/1 43/108/1 44/109/1

f 44/109/2 43/108/2 42/2/2

vt -1.32643 -2.62081
vn -0.986855 0 -0.161611
v -0.000773374 -0.0965686 -0.0241336
vt -0.932731 -3.80191
vt -0.932731 -2.62081
f 43/110/55 45/111/55 44/112/55

v 0.000842738 -0.0965686 -0.0340021
vt -1.32643 -3.80191
f 45/111/55 43/110/55 46/113/55

vn 0.986855 -0 0.161611
f 44/112/56 45/111/56 43/110/56

vt -0.625368 -3.80191
vn -0.633387 7.0887e-17 0.773836
vt -0.362488 -3.01451
vt -0.625368 -2.62081
f 45/114/57 4/115/57 44/116/57

vt -0.362488 -3.80191
f 4/115/57 45/114/57 2/117/57

vn 0.633387 -7.0887e-17 -0.773836
f 2/117/58 45/114/58 4/115/58

vt -0.0331786 1.33867
vt 0.0304478 0.950141
f 46/118/51 2/101/51 45/119/51

f 2/101/51 46/118/51 37/99/51

f 45/119/52 2/101/52 46/118/52

f 37/99/52 46/118/52 2/101/52

vt -0.504213 -2.62081
vn -0.353468 0 -0.935447
vt -0.897913 -3.80191
f 43/120/59 37/121/59 46/93/59

vt -0.897913 -2.62081
f 37/121/59 43/120/59 39/122/59

vn 0.353468 -0 0.935447
f 46/93/60 37/121/60 43/120/60

f 39/122/60 43/120/60 37/121/60

f 39/106/2 42/2/2 43/108/2

f 41/1/2 42/2/2 39/106/2

vt 0.4935 -2.62081
vt 0.172978 -2.62081
f 4/98/49 41/123/49 42/124/49

f 4/98/49 32/95/49 41/123/49

f 4/98/50 32/95/50 2/96/50

f 41/123/50 32/95/50 4/98/50

vt 0.738633 -3.01451
vn 0.353468 -2.57135e-17 0.935447
v 0.0163194 -0.0665686 -0.0213344
vt 0.897913 -2.62081
vt 0.738633 -2.62081
f 32/125/61 47/126/61 41/127/61

vt 0.738633 -3.80191
f 1/128/61 47/126/61 32/125/61

v 0.0163194 -0.0965686 -0.0213344
vt 0.897913 -3.80191
f 47/126/61 1/128/61 48/129/61

vn -0.353468 2.57135e-17 -0.935447
f 48/129/62 1/128/62 47/126/62

vt -0.642498 0.839937
f 1/100/51 38/102/51 48/130/51

f 48/130/52 38/102/52 1/100/52

vt 1.32643 -3.80191
vn 0.986855 0 0.161611
vt 0.932731 -2.62081
vt 0.932731 -3.80191
f 38/131/63 47/132/63 48/133/63

vt 1.32643 -2.62081
f 47/132/63 38/131/63 40/134/63

vn -0.986855 -0 -0.161611
f 48/133/64 47/132/64 38/131/64

f 40/134/64 38/131/64 47/132/64

vt 0.642498 0.839937
f 40/107/1 41/1/1 47/135/1

f 40/107/2 41/1/2 39/106/2

f 47/135/2 41/1/2 40/107/2

f 41/127/62 47/126/62 32/125/62

f 32/125/62 47/126/62 1/128/62

f 42/124/50 41/123/50 4/98/50

vt -0.362488 -2.62081
f 44/116/57 4/115/57 42/136/57

f 44/116/58 4/115/58 45/114/58

f 42/136/58 4/115/58 44/116/58

f 46/113/56 43/110/56 45/111/56

f 5/7/4 4/4/4 3/5/4

f 33/89/46 32/88/46 36/87/46

f 8/9/7 31/40/7 10/15/7

f 10/15/8 31/40/8 8/9/8

f 8/72/40 31/69/40 20/70/40

vt -0.552293 -3.80191
f 20/70/39 8/72/39 7/137/39

f 7/137/40 8/72/40 20/70/40

f 7/9/15 20/40/15 17/15/15

f 17/15/16 20/40/16 7/9/16

f 7/9/16 15/14/16 17/15/16

f 6/8/16 15/14/16 7/9/16

f 17/15/16 15/14/16 18/16/16

f 17/48/18 10/34/18 18/32/18

f 19/74/42 31/75/42 17/49/42

f 21/39/22 22/41/22 23/42/22

f 22/41/22 24/43/22 23/42/22

f 24/55/28 22/54/28 28/53/28

f 21/60/27 23/57/27 30/58/27

f 30/63/34 20/62/34 21/61/34

f 26/51/26 25/50/26 28/49/26

f 13/24/12 12/23/12 15/22/12

g Mesh2 Model

l 13 18

l 15 13

l 6 15

l 35 6

l 36 35

l 1 36

l 48 1

l 38 48

l 37 38

l 46 37

l 45 46

l 2 45

l 7 2

l 20 7

l 30 20

l 27 30

l 26 27

l 28 26

l 29 28

l 18 29

l 17 18

l 20 17

l 18 20

l 18 14

l 14 19

l 14 22

l 11 14

l 10 11

l 31 10

l 31 8

l 31 19

l 21 19

l 23 21

l 25 23

l 24 25

l 22 24

l 29 22

l 28 24

l 26 25

l 20 26

l 20 19

l 27 23

l 30 21

l 8 4

l 7 8

l 6 7

l 6 16

l 16 9

l 34 16

l 33 34

l 32 33

l 32 5

l 1 32

l 2 1

l 3 2

l 1 3

l 3 5

l 5 4

l 2 4

l 37 2

l 37 39

l 39 40

l 43 39

l 46 43

l 44 43

l 45 44

l 42 44

l 42 41

l 4 42

l 47 41

l 48 47

l 40 47

l 38 40

l 32 41

l 36 33

l 35 34

l 9 12

l 15 9

l 12 11

l 13 12

l 17 10

