# Alias OBJ Model File
# Exported from SketchUp, (c) 2000-2012 Trimble Navigation Limited
# File units = meters

mtllib VR_instancing_test_model.mtl

g Mesh1 Model

usemtl FrontColor
v -1.82074 0 -1.11998
vt 71.6826 44.0937
vn 0 -1 -0
v -1.27157 0 -1.43566
vt 50.0619 56.5221
v -0.927319 0 -1.11998
vt 36.5086 44.0937
f 1/1/1 2/2/1 3/3/1

v -1.27157 0 -1.98566
vt 50.0619 78.1756
f 2/2/1 1/1/1 4/4/1

usemtl BackColor
vn -0 1 0
f 3/3/2 2/2/2 1/1/2

usemtl FrontColor
v -0.181572 0 -1.43566
vt 7.1485 56.5221
f 3/3/1 2/2/1 5/5/1

usemtl BackColor
f 5/5/2 2/2/2 3/3/2

usemtl FrontColor
v -1.27157 0.35 -1.43566
vt 50.0619 13.7795
vn 0 0 -1
vt 7.1485 0
vt 50.0619 0
f 6/6/3 5/7/3 2/8/3

v -0.181572 0.35 -1.43566
vt 7.1485 13.7795
f 5/7/3 6/6/3 7/9/3

usemtl Color_F05
vn -0 -0 1
f 2/8/4 5/7/4 6/6/4

f 7/9/4 6/6/4 5/7/4

usemtl FrontColor
v -0.181572 0.35 -1.98566
vt 7.1485 78.1756
f 6/2/1 8/10/1 7/5/1

v -1.27157 0.35 -1.98566
f 8/10/1 6/2/1 9/4/1

usemtl BackColor
f 9/4/2 6/2/2 8/10/2

usemtl FrontColor
vt 56.5221 13.7795
vn 1 0 -0
vt 78.1756 0
vt 78.1756 13.7795
f 6/11/5 4/12/5 9/13/5

vt 56.5221 0
f 4/12/5 6/11/5 2/14/5

usemtl BackColor
vn -1 -0 0
f 2/14/6 6/11/6 4/12/6

f 9/13/6 4/12/6 6/11/6

usemtl FrontColor
vt -50.0619 0
vn 0 0 1
vt -7.1485 13.7795
vt -50.0619 13.7795
f 4/15/7 8/16/7 9/17/7

v -0.181572 0 -1.98566
vt -7.1485 0
f 8/16/7 4/15/7 10/18/7

usemtl BackColor
vn -0 -0 -1
f 10/18/8 4/15/8 8/16/8

usemtl FrontColor
v 1.77926 0 -2.93062
vt -70.0497 115.379
f 4/4/1 11/19/1 10/10/1

v -1.82074 0 -2.93062
vt 71.6826 115.379
f 4/4/1 12/20/1 11/19/1

f 12/20/1 4/4/1 1/1/1

usemtl BackColor
f 1/1/2 4/4/2 12/20/2

f 4/4/2 1/1/2 2/2/2

f 11/19/2 12/20/2 4/4/2

f 10/10/2 11/19/2 4/4/2

usemtl FrontColor
f 10/10/1 11/19/1 5/5/1

usemtl BackColor
f 5/5/2 11/19/2 10/10/2

usemtl FrontColor
v 0.806002 -3.60956e-16 -0.207199
vt -31.7324 8.15744
f 5/5/1 11/19/1 13/21/1

usemtl BackColor
f 13/21/2 11/19/2 5/5/2

usemtl FrontColor
v 1.196 -3.60956e-16 -0.207199
vt -47.0867 8.15744
f 13/21/1 11/19/1 14/22/1

usemtl BackColor
f 14/22/2 11/19/2 13/21/2

usemtl FrontColor
v 1.196 -3.60956e-16 0.132801
vt -47.0867 -5.22838
f 14/22/1 11/19/1 15/23/1

usemtl BackColor
f 15/23/2 11/19/2 14/22/2

usemtl FrontColor
v 1.77926 0 1.42938
vt -70.0497 -56.2747
f 16/24/1 15/23/1 11/19/1

v 0.806002 -3.60956e-16 0.132801
vt -31.7324 -5.22838
f 16/24/1 17/25/1 15/23/1

v -0.927319 0 0.452853
vt 36.5086 -17.8289
f 16/24/1 18/26/1 17/25/1

v -1.82074 0 1.42938
vt 71.6826 -56.2747
f 19/27/1 18/26/1 16/24/1

v -1.82074 0 0.452853
vt 71.6826 -17.8289
f 18/26/1 19/27/1 20/28/1

usemtl BackColor
f 20/28/2 19/27/2 18/26/2

f 16/24/2 18/26/2 19/27/2

f 17/25/2 18/26/2 16/24/2

usemtl FrontColor
f 17/25/1 18/26/1 5/5/1

usemtl BackColor
f 5/5/2 18/26/2 17/25/2

usemtl FrontColor
f 3/3/1 5/5/1 18/26/1

usemtl BackColor
f 18/26/2 5/5/2 3/3/2

usemtl FrontColor
vt 17.8289 0
vn -1 0 -0
v -0.927319 1.08 -1.11998
vt -44.0937 42.5197
vt -44.0937 0
f 18/29/9 21/30/9 3/31/9

v -0.927319 1.08 0.452853
vt 17.8289 42.5197
f 21/30/9 18/29/9 22/32/9

usemtl Color_F05
vn 1 -0 0
f 22/32/10 18/29/10 21/30/10

usemtl FrontColor
vt 36.5086 0
v -1.82074 1.08 0.452853
vt 71.6826 42.5197
vt 36.5086 42.5197
f 18/33/3 23/34/3 22/35/3

vt 71.6826 0
f 23/34/3 18/33/3 20/36/3

usemtl Color_A05
f 20/36/4 18/33/4 23/34/4

f 22/35/4 23/34/4 18/33/4

usemtl FrontColor
f 23/28/1 21/3/1 22/26/1

v -1.82074 1.08 -1.11998
f 21/3/1 23/28/1 24/1/1

usemtl Color_A05
f 24/1/2 23/28/2 21/3/2

usemtl FrontColor
vt -17.8289 42.5197
vt 44.0937 0
vt 44.0937 42.5197
f 23/37/5 1/38/5 24/39/5

vt -17.8289 0
f 1/38/5 23/37/5 20/40/5

usemtl BackColor
f 20/40/6 23/37/6 1/38/6

f 24/39/6 1/38/6 23/37/6

usemtl FrontColor
vt -71.6826 0
vt -36.5086 42.5197
vt -71.6826 42.5197
f 1/41/7 21/42/7 24/43/7

vt -36.5086 0
f 21/42/7 1/41/7 3/44/7

usemtl BackColor
f 3/44/8 1/41/8 21/42/8

f 24/43/8 21/42/8 1/41/8

usemtl Color_F05
f 3/31/10 21/30/10 18/29/10

usemtl Color_A05
f 22/26/2 21/3/2 23/28/2

usemtl FrontColor
f 17/25/1 5/5/1 13/21/1

usemtl BackColor
f 13/21/2 5/5/2 17/25/2

usemtl FrontColor
vt 8.15744 -1.42109e-14
v 0.806002 2.31 0.132801
vt -5.22838 90.9449
vt -5.22838 -1.42109e-14
f 13/45/5 25/46/5 17/47/5

v 0.806002 2.31 -0.207199
vt 8.15744 90.9449
f 25/46/5 13/45/5 26/48/5

usemtl BackColor
f 17/47/6 25/46/6 13/45/6

usemtl FrontColor
vt -31.7324 90.9449
vt -47.0867 -1.42109e-14
vt -31.7324 -1.42109e-14
f 25/49/3 15/50/3 17/51/3

v 1.196 2.31 0.132801
vt -47.0867 90.9449
f 15/50/3 25/49/3 27/52/3

usemtl Color_E05
f 17/51/4 15/50/4 25/49/4

usemtl BackColor
f 15/23/2 17/25/2 16/24/2

f 11/19/2 15/23/2 16/24/2

usemtl Color_E05
f 27/52/4 25/49/4 15/50/4

usemtl FrontColor
v 1.196 2.31 -0.207199
f 25/25/1 28/22/1 27/23/1

f 28/22/1 25/25/1 26/21/1

usemtl BackColor
f 26/21/2 25/25/2 28/22/2

f 26/48/6 13/45/6 25/46/6

usemtl FrontColor
vt 31.7324 -1.42109e-14
vt 47.0867 90.9449
vt 31.7324 90.9449
f 13/53/7 28/54/7 26/55/7

vt 47.0867 -1.42109e-14
f 28/54/7 13/53/7 14/56/7

usemtl BackColor
f 14/56/8 13/53/8 28/54/8

f 26/55/8 28/54/8 13/53/8

usemtl FrontColor
vt 5.22838 -1.42109e-14
vt -8.15744 90.9449
vt -8.15744 -1.42109e-14
f 15/57/9 28/58/9 14/59/9

vt 5.22838 90.9449
f 28/58/9 15/57/9 27/60/9

usemtl Color_A05
f 27/60/10 15/57/10 28/58/10

f 14/59/10 28/58/10 15/57/10

usemtl BackColor
f 27/23/2 28/22/2 25/25/2

usemtl FrontColor
vt -56.5221 0
vt -78.1756 13.7795
vt -78.1756 0
f 5/61/9 8/62/9 10/63/9

vt -56.5221 13.7795
f 8/62/9 5/61/9 7/64/9

usemtl BackColor
f 7/64/10 5/61/10 8/62/10

f 10/63/10 8/62/10 5/61/10

f 7/5/2 8/10/2 6/2/2

f 9/17/8 8/16/8 4/15/8

g Mesh2 Model

l 16 11

l 19 16

l 20 19

l 20 18

l 1 20

l 12 1

l 11 12

l 3 1

l 18 3

l 18 22

l 22 21

l 23 22

l 24 23

l 21 24

l 3 21

l 1 24

l 20 23

g Mesh3 Model

l 2 4

l 5 2

l 10 5

l 4 10

l 4 9

l 6 9

l 7 6

l 8 7

l 9 8

l 10 8

l 5 7

l 2 6

g Mesh4 Model

l 15 14

l 17 15

l 13 17

l 14 13

l 14 28

l 27 28

l 25 27

l 26 25

l 28 26

l 13 26

l 17 25

l 15 27

