# Alias OBJ Model File
# Exported from SketchUp, (c) 2000-2012 Trimble Navigation Limited
# File units = meters

mtllib GasSac_Gas.mtl

g Mesh1 Model

usemtl Color_M00
v -0.0625238 0.0650309 -0.000811331
vt -0.0319422 0.070051
vn -0.707158 0.707056 -0
v -0.0625238 0.0650309 0.000738311
vt 0.0290674 0.070051
v -0.0344588 0.0931 0.000742352
vt 0.0292265 1.63276
f 1/1/1 2/2/1 3/3/1

vn 0.707158 -0.707056 0
f 3/3/2 2/2/2 1/1/2

vt 1.1835 3.03466
vn 0.425623 -0.425447 -0.798648
v -0.0405467 0.0711228 0.00920538
vt 1.23831 2.07857
vt 2.15866 1.81355
f 3/4/3 4/5/3 2/6/3

vn -0.425623 0.425447 0.798648
f 2/6/4 4/5/4 3/4/4

vt 0.362416 -0.790353
vn -0.26712 0.963663 1.29736e-18
vt -0.0319422 -1.68822
vt 0.0290674 -1.68822
vn -0.26712 0.963663 -0
f 4/7/5 1/8/5 2/9/6

v -0.0405467 0.0711228 -0.0103966
vt -0.409316 -0.790353
vn -0.26712 0.963663 2.59471e-18
f 5/10/7 1/8/5 4/7/5

v -0.0344588 0.0931 -0.000815372
vt 1.14503 2.9226
vn -0.458999 0.458824 -0.760789
vt 1.15539 1.94881
vt 2.09118 1.67888
f 6/11/8 5/12/8 1/13/8

vn 0.458999 -0.458824 0.760789
f 1/13/9 5/12/9 6/11/9

vn 0.26712 -0.963663 -1.29736e-18
vn 0.26712 -0.963663 -2.59471e-18
f 4/7/10 1/8/10 5/10/11

vn 0.26712 -0.963663 0
f 2/9/12 1/8/10 4/7/10

vt -0.0319422 2.56027
vn -1 0 -0
v -0.0625238 -0.0650499 0.000738311
vt 0.0290674 -2.56102
vt 0.0290674 2.56027
f 1/14/13 7/15/13 2/16/13

v -0.0625238 -0.0650499 -0.000811331
vt -0.0319422 -2.56102
f 7/15/13 1/14/13 8/17/13

vn 1 -0 0
f 2/16/14 7/15/14 1/14/14

vt -1.35931 2.80011
vn -0.359508 -3.0528e-18 0.933142
vt -2.28654 2.56027
vn -0.359508 0 0.933142
vt -2.28654 -2.56102
f 4/18/15 2/19/16 7/20/15

vn 0.359508 3.0528e-18 -0.933142
vn 0.359508 -0 -0.933142
f 7/20/17 2/19/18 4/18/17

v -0.0405467 -0.0711418 0.00920538
vt -1.35931 -2.80086
vn -0.359508 -6.1056e-18 0.933142
f 4/18/15 7/20/15 9/21/19

vn 0.359508 6.1056e-18 -0.933142
f 9/21/20 7/20/17 4/18/17

vt 2.15921 -1.81776
vn 0.425545 0.424142 -0.799384
vt 1.2388 -2.0826
v -0.0344869 -0.093119 0.000770468
vt 1.18426 -3.03804
f 7/22/21 9/23/21 10/24/21

vn -0.425545 -0.424142 0.799384
f 10/24/22 9/23/22 7/22/22

v -0.0344869 -0.093119 -0.000843488
vt -0.0332082 -3.17331
vn -0.964025 -0.26581 2.59569e-18
vt 0.0303334 -3.17331
vn -0.964025 -0.26581 -0
vt 0.362416 -2.27578
f 11/25/23 10/26/24 9/27/23

vt -0.0332082 -1.63429
vn -0.707512 -0.706701 -2.75627e-15
vt 0.0303334 -1.63429
vt 0.0290674 -0.0723598
f 11/28/25 10/29/25 7/30/25

vn 0.707512 0.706701 2.75627e-15
f 7/30/26 10/29/26 11/28/26

vn 0.964025 0.26581 -2.59569e-18
vn 0.964025 0.26581 0
f 9/27/27 10/26/28 11/25/27

vt -1.59633 -2.48502
vn -6.26819e-18 -0.358319 0.933599
vt -1.35775 -3.4118
vn -1.25364e-17 -0.358319 0.933599
v 0.035734 -0.093119 0.000770468
vt 1.40685 -3.4118
f 9/31/29 10/32/30 12/33/29

vn 6.26819e-18 0.358319 -0.933599
vn 1.25364e-17 0.358319 -0.933599
f 12/33/31 10/32/32 9/31/31

vt 1.35775 -0.0303334
vn 0 -1 -0
v 0.035734 -0.093119 -0.000843488
vt -1.40685 0.0332082
vt -1.40685 -0.0303334
f 10/34/33 13/35/33 12/36/33

vt 1.35775 0.0332082
f 13/35/33 10/34/33 11/37/33

vn -0 1 0
f 11/37/34 10/34/34 13/35/34

f 12/36/34 13/35/34 10/34/34

v 0.063771 -0.0651686 -0.000929978
vt 0.0366133 -0.0333631
vn 0.706014 -0.708198 -0
vt -0.0303334 -1.59199
vt 0.0332082 -1.59199
f 14/38/35 12/39/35 13/40/35

vn -0.706014 0.708198 0
f 13/40/36 12/39/36 14/38/36

vt 0.0332082 -3.16026
vn 0.964025 -0.26581 -1.29784e-18
v 0.0417938 -0.0711418 0.00920538
vt -0.362416 -2.26273
vt -0.0303334 -3.16026
vn 0.964025 -0.26581 -0
f 13/41/37 15/42/37 12/43/38

vn -0.964025 0.26581 0
vn -0.964025 0.26581 1.29784e-18
f 12/43/39 15/42/40 13/41/40

v 0.063771 -0.0651686 0.000856957
vt 2.20875 -1.81779
vn 0.420023 -0.423806 0.802477
vt 1.28975 -2.07743
vt 1.23237 -3.0327
f 16/44/41 15/45/41 12/46/41

vn -0.420023 0.423806 -0.802477
f 12/46/42 15/45/42 16/44/42

vt 1.64543 -2.48502
vn 0 -0.358319 0.933599
f 9/31/29 12/33/29 15/47/43

vn -0 0.358319 -0.933599
f 15/47/44 12/33/31 9/31/31

vt -1.64543 -0.362416
vt 1.59633 -0.362416
v 0.0417938 -0.0711418 -0.0103966
vt -1.64543 0.409316
f 15/48/33 9/49/33 17/50/33

f 17/50/34 9/49/34 15/48/34

v -0.0405467 -0.0711418 -0.0103966
vt 1.59633 0.409316
f 17/50/33 9/49/33 18/51/33

f 18/51/34 9/49/34 17/50/34

vt -0.409316 -2.80086
vt 0.362416 -2.80086
vt 0.362416 2.80011
f 18/52/13 9/53/13 4/54/13

f 4/54/14 9/53/14 18/52/14

vt -1.59633 -2.80086
vn 0 0 1
v 0.0417938 0.0711228 0.00920538
vt 1.64543 2.80011
vt -1.59633 2.80011
f 9/55/45 19/56/45 4/57/45

vt 1.64543 -2.80086
f 19/56/45 9/55/45 15/58/45

vn -0 -0 -1
f 15/58/46 9/55/46 19/56/46

f 4/57/46 19/56/46 9/55/46

v 0.0417938 0.0711228 -0.0103966
vt 1.64543 0.409316
vn 0 1 -0
vt -1.59633 -0.362416
vt 1.64543 -0.362416
f 20/59/47 4/60/47 19/61/47

vn -0 -1 0
f 19/61/48 4/60/48 20/59/48

v 0.0357059 0.0931 0.000742352
vt 1.40575 3.41
vn 2.37095e-18 0.359359 0.933199
vt -1.59633 2.48283
vt 1.64543 2.48283
f 21/62/49 4/63/49 19/64/49

vt -1.35665 3.41
f 4/63/49 21/62/49 3/65/49

vn -2.37095e-18 -0.359359 -0.933199
f 19/64/50 4/63/50 21/62/50

usemtl FrontColor
v 0.0357059 0.0931 -0.000815372
vt 1.40575 3.34835
vn 0.826145 0.406675 0.39
vt -1.59633 2.39741
vn -0.826145 0.406675 0.39
vt 1.64543 2.39741
f 22/66/51 4/67/52 19/68/51

vt -1.35665 3.34835
f 4/67/52 22/66/51 6/69/52

usemtl BackColor
vn -0.826145 -0.406675 -0.39
vn 0.826145 -0.406675 -0.39
f 19/68/53 4/67/54 22/66/53

f 6/69/54 22/66/53 4/67/54

usemtl Color_M00
vt -1.64543 2.40321
vn -1.58349e-18 0.399637 -0.916674
vt 1.35665 3.3471
vt -1.40575 3.3471
f 20/70/55 6/71/55 22/72/55

vt 1.59633 2.40321
f 6/71/55 20/70/55 5/73/55

vn 1.58349e-18 -0.399637 0.916674
f 5/73/56 20/70/56 6/71/56

vt -1.59633 0.409316
f 20/59/47 5/74/47 4/60/47

f 4/60/48 5/74/48 20/59/48

vt -0.409316 2.80011
f 18/52/13 4/54/13 5/75/13

f 5/75/14 4/54/14 18/52/14

vt -0.409316 2.27234
vn -0.963709 0.266956 2.59484e-18
vt 0.362416 2.27234
vt -0.0321013 3.17017
f 5/76/57 4/77/52 6/78/52

vn 0.963709 -0.266956 -2.59484e-18
f 6/78/54 4/77/54 5/76/58

vt 0.0292265 3.17017
vn -0.963709 0.266956 -0
f 6/78/52 4/77/52 3/79/59

vn 0.963709 -0.266956 0
f 3/79/60 4/77/54 6/78/54

f 3/65/50 21/62/50 4/63/50

vt 1.40575 -0.0292265
vt -1.35665 0.0321013
vt -1.35665 -0.0292265
f 21/80/47 6/81/47 3/82/47

vt 1.40575 0.0321013
f 6/81/47 21/80/47 22/83/47

f 3/82/48 6/81/48 21/80/48

vt -0.0321013 1.63276
f 6/84/1 1/1/1 3/3/1

f 3/3/2 1/1/2 6/84/2

f 22/83/48 21/80/48 6/81/48

v 0.063771 0.0651496 0.000856957
vt -0.0337385 0.0310363
vn 0.705659 0.708552 1.48203e-15
vt 0.0321013 1.59045
vt -0.0292265 1.59045
f 23/85/61 22/86/61 21/87/61

v 0.063771 0.0651496 -0.000929978
vt 0.0366133 0.0310363
vn 0.705659 0.708552 1.12622e-15
f 24/88/62 22/86/62 23/85/62

vn -0.705659 -0.708552 -1.12622e-15
f 23/85/63 22/86/63 24/88/63

vn -0.705659 -0.708552 -1.48203e-15
f 21/87/64 22/86/64 23/85/64

vt 0.0321013 3.15706
vt -0.0292265 3.15706
vn 0.963709 0.266956 -0
vt -0.362416 2.25924
f 22/89/51 21/90/65 19/91/51

vn -0.963709 -0.266956 0
f 19/91/53 21/90/66 22/89/53

vt -1.2316 3.0293
vn -0.4201 -0.42511 -0.801746
vt -2.20821 1.81357
vt -1.28926 2.07338
f 21/92/67 23/93/67 19/94/67

vn 0.4201 0.42511 0.801746
f 19/94/68 23/93/68 21/92/68

vt 0.0366133 -1.75004
vn 0.262279 0.964992 2.50712e-15
vt -0.362416 -0.853411
vt -0.0337385 -1.75004
vn 0.262279 0.964992 5.00255e-15
f 24/95/69 19/96/69 23/97/70

vn -0.262279 -0.964992 -5.00255e-15
vn -0.262279 -0.964992 -2.50712e-15
f 23/97/71 19/96/72 24/95/72

vt 1.40949 2.80011
vn 0.35511 -3.05831e-18 0.934825
vt 2.33505 -2.56569
vt 2.33505 2.56494
vn 0.35511 0 0.934825
f 19/98/73 16/99/73 23/100/74

vt 1.40949 -2.80086
vn 0.35511 -6.11661e-18 0.934825
f 19/98/73 15/101/75 16/99/73

vt 0.409316 -2.80086
vn 1 0 -0
vt -0.362416 2.80011
vt -0.362416 -2.80086
f 17/102/76 19/103/76 15/104/76

vn -1 -0 0
f 15/104/77 19/103/77 17/102/77

vn -0.35511 3.05831e-18 -0.934825
vn -0.35511 6.11661e-18 -0.934825
f 16/99/78 15/101/79 19/98/78

vt -0.0337385 1.74985
vn 0.262279 -0.964992 2.50127e-15
vt -0.362416 0.853215
vn 0.262279 -0.964992 1.25778e-15
vt 0.0366133 1.74985
f 16/105/80 15/106/81 14/107/81

vn -0.262279 0.964992 -1.25778e-15
vn -0.262279 0.964992 -2.50127e-15
f 14/107/82 15/106/82 16/105/83

vt 0.409316 0.853215
vn 0.262279 -0.964992 1.42906e-17
f 14/107/81 15/106/81 17/108/84

vn -0.262279 0.964992 -1.42906e-17
f 17/108/85 15/106/82 14/107/82

vt 0.409316 -2.26273
vn 0.964025 -0.26581 -2.59569e-18
f 17/109/86 15/42/37 13/41/37

vn -0.964025 0.26581 2.59569e-18
f 13/41/40 15/42/40 17/109/87

vt -2.14049 -1.68084
vn 0.453751 -0.457521 -0.764712
vt -1.19295 -2.91837
vt -1.2062 -1.94531
f 14/110/88 13/111/88 17/112/88

vn -0.453751 0.457521 0.764712
f 17/112/89 13/111/89 14/110/89

vt -1.64543 -2.4055
vn -8.95646e-18 -0.398651 -0.917103
vt -1.40685 -3.34895
vn 0 -0.398651 -0.917103
vt 1.35775 -3.34895
f 17/113/90 13/114/91 11/115/90

vn 8.95646e-18 0.398651 0.917103
vn -0 0.398651 0.917103
f 11/115/92 13/114/93 17/113/92

vt 1.59633 -2.4055
vn -1.79129e-17 -0.398651 -0.917103
f 17/113/90 11/115/90 18/116/94

vn 1.79129e-17 0.398651 0.917103
f 18/116/95 11/115/92 17/113/92

vt 2.09177 -1.68322
vn -0.458985 -0.457587 -0.761543
vt 1.15592 -1.95295
vt 1.14573 -2.92605
f 8/117/96 18/118/96 11/119/96

vn 0.458985 0.457587 0.761543
f 11/119/97 18/118/97 8/117/97

vt -0.409316 -2.27578
vn -0.964025 -0.26581 5.19138e-18
f 18/120/98 11/25/23 9/27/23

vn 0.964025 0.26581 -5.19138e-18
f 9/27/27 11/25/27 18/120/99

vt 0.362416 0.790153
vn -0.26712 -0.963663 -4.86509e-18
vt -0.0319422 1.68802
vt -0.409316 0.790153
vn -0.26712 -0.963663 -9.73018e-18
f 9/121/100 8/122/100 18/123/101

vt 0.0290674 1.68802
vn -0.26712 -0.963663 -0
f 9/121/100 7/124/102 8/122/100

vn 0.26712 0.963663 4.86509e-18
vn 0.26712 0.963663 0
f 8/122/103 7/124/104 9/121/103

vn -0.707512 -0.706701 -0
vt -0.0319422 -0.0723598
f 11/28/105 7/30/105 8/125/105

vn 0.707512 0.706701 0
f 8/125/106 7/30/106 11/28/106

f 8/17/14 1/14/14 7/15/14

vt 2.24353 2.56027
vn -0.399778 7.17354e-18 -0.916612
vt 1.29957 -2.80086
vt 2.24353 -2.56102
vn -0.399778 1.43471e-17 -0.916612
f 1/126/107 18/127/107 8/128/108

vn 0.399778 -1.43471e-17 0.916612
vn 0.399778 -7.17354e-18 0.916612
f 8/128/109 18/127/110 1/126/110

vn 0.26712 0.963663 9.73018e-18
f 18/123/111 8/122/103 9/121/103

vt 1.29957 2.80011
vn -0.399778 0 -0.916612
f 5/129/112 18/127/107 1/126/107

vn 0.399778 -0 0.916612
f 1/126/110 18/127/110 5/129/113

vt 1.59633 2.80011
vn 0 0 -1
vt -1.64543 -2.80086
vt 1.59633 -2.80086
f 5/130/114 17/131/114 18/132/114

vt -1.64543 2.80011
f 17/131/114 5/130/114 20/133/114

vn -0 -0 1
f 18/132/115 17/131/115 5/130/115

f 20/133/115 5/130/115 17/131/115

vt 0.409316 2.80011
f 20/134/76 19/103/76 17/102/76

f 17/102/77 19/103/77 20/134/77

vt 0.409316 2.25924
vn 0.963709 0.266956 6.48709e-19
f 20/135/116 22/89/51 19/91/51

vt -1.19223 2.9149
vn 0.453764 0.458757 -0.763963
vt -2.13991 1.67648
vt -1.20567 1.94114
f 22/136/117 24/137/117 20/138/117

vn -0.453764 -0.458757 0.763963
f 20/138/118 24/137/118 22/136/118

vt 0.409316 -0.853411
vn 0.262279 0.964992 1.16923e-17
f 24/95/69 20/139/119 19/96/69

vn -0.262279 -0.964992 -1.16923e-17
f 19/96/72 20/139/120 24/95/72

vn -0.963709 -0.266956 -6.48709e-19
f 19/91/53 22/89/53 20/135/121

f 22/72/56 6/71/56 20/70/56

vt -1.34926 2.80011
vn 0.395609 0 -0.918419
vt -2.29136 2.56494
vn 0.395609 -7.16153e-18 -0.918419
vt -1.34926 -2.80086
f 20/140/122 24/141/123 17/142/123

vn -0.395609 7.16153e-18 0.918419
vn -0.395609 -0 0.918419
f 17/142/124 24/141/124 20/140/125

vt -2.29136 -2.56569
vn 0.395609 -1.43231e-17 -0.918419
f 24/141/123 14/143/126 17/142/123

vt -0.0337385 2.56494
vt 0.0366133 -2.56569
vt 0.0366133 2.56494
f 23/144/76 14/145/76 24/146/76

vt -0.0337385 -2.56569
f 14/145/76 23/144/76 16/147/76

f 16/147/77 23/144/77 14/145/77

vn -0.35511 -0 -0.934825
f 23/100/127 16/99/78 19/98/78

f 24/146/77 14/145/77 23/144/77

vn -0.395609 1.43231e-17 0.918419
f 17/142/124 14/143/128 24/141/124

vt -0.0337385 -0.0333631
vn 0.706014 -0.708198 1.12791e-15
f 16/148/129 12/39/129 14/38/129

vn -0.706014 0.708198 -1.12791e-15
f 14/38/130 12/39/130 16/148/130

g Mesh2 Model

l 15 19

l 9 15

l 4 9

l 19 4

l 19 20

l 23 19

l 24 23

l 14 24

l 16 14

l 23 16

l 22 23

l 21 22

l 21 23

l 21 19

l 21 3

l 6 3

l 6 1

l 5 6

l 5 18

l 20 5

l 17 20

l 18 17

l 9 18

l 9 7

l 10 9

l 12 10

l 13 12

l 11 13

l 10 11

l 10 7

l 7 2

l 8 7

l 1 8

l 2 1

l 2 3

l 2 4

l 4 5

l 4 3

l 3 1

l 5 1

l 11 8

l 7 11

l 18 11

l 18 8

l 13 14

l 17 13

l 15 17

l 12 15

l 14 12

l 14 17

l 16 12

l 16 15

l 24 20

l 24 22

l 20 22

l 6 22

