# Alias OBJ Model File
# Exported from SketchUp, (c) 2000-2012 Trimble Navigation Limited
# File units = meters

mtllib MeasuringCylinder_Highlight.mtl

g Mesh1 Model

usemtl Color_M00
v 0.0243587 0.0086 -7.04992e-18
vt -0.479501 0.338583
vn -1 0 3.20494e-17
v 0.0121793 -0.002 0.0210952
vt 0.479501 -0.0787402
vn -0.5 0 -0.866025
v 0.0121793 0.0086 0.0210952
vt 0.479501 0.338583
f 1/1/1 2/2/2 3/3/2

v 0.0243587 -0.002 -7.04992e-18
vt -0.479501 -0.0787402
f 2/2/2 1/1/1 4/4/1

vn 0.5 -0 0.866025
vn 1 -0 -3.20494e-17
f 3/3/3 2/2/3 1/1/4

v -0.0121793 0.0086 0.0210952
vn 0.5 0 -0.866025
f 2/4/2 5/3/5 3/1/2

v -0.0121793 -0.002 0.0210952
f 5/3/5 2/4/2 6/2/5

vn -0.5 -0 0.866025
f 6/2/6 2/4/3 5/3/6

v 0.0212 -0.002 0.0367195
vt -0.834646 -1.44565
vn 0 -1 -0
vt 0.479501 -0.83052
vt -0.479501 -0.83052
f 7/5/7 6/6/7 2/7/7

v -0.0212 -0.002 0.0367195
vt 0.834646 -1.44565
f 8/8/7 6/6/7 7/5/7

v -0.0243587 -0.002 4.22995e-18
vt 0.959002 -1.66533e-16
f 8/8/7 9/9/7 6/6/7

v -0.0424 -0.002 3.52496e-19
vt 1.66929 -1.38778e-17
f 9/9/7 8/8/7 10/10/7

vn -0 1 0
f 10/10/8 8/8/8 9/9/8

vt 0.834646 -0.0787402
vn -0.866025 0 0.5
v -0.0424 0.0033 3.52496e-19
vt -0.834646 0.129921
vt -0.834646 -0.0787402
f 8/11/9 11/12/9 10/13/9

v -0.0212 0.0033 0.0367195
vt 0.834646 0.129921
f 11/12/9 8/11/9 12/14/9

vn 0.866025 -0 -0.5
f 12/14/10 8/11/10 11/12/10

vn -3.99052e-16 0 1
v 0.0212 0.0033 0.0367195
f 8/13/11 13/14/11 12/12/11

f 13/14/11 8/13/11 7/11/11

vn 3.99052e-16 -0 -1
f 7/11/12 8/13/12 13/14/12

f 7/5/8 6/6/8 8/8/8

f 2/7/8 6/6/8 7/5/8

vt -0.959002 2.77556e-16
f 7/5/7 2/7/7 4/15/7

f 4/15/8 2/7/8 7/5/8

f 4/4/4 1/1/4 2/2/3

v 0.0121793 0.0086 -0.0210952
vn -0.5 0 0.866025
f 14/1/13 4/2/1 1/3/1

v 0.0121793 -0.002 -0.0210952
f 4/2/1 14/1/13 15/4/13

vn 0.5 -0 -0.866025
f 1/3/4 4/2/4 14/1/14

f 15/4/14 14/1/14 4/2/4

v -0.0121793 -0.002 -0.0210952
vn 0.5 0 0.866025
f 14/3/13 16/4/15 15/2/13

v -0.0121793 0.0086 -0.0210952
f 16/4/15 14/3/13 17/1/15

vn -0.5 -0 -0.866025
f 15/2/14 16/4/16 14/3/14

vt 0.479501 0.83052
v 0.0212 -0.002 -0.0367195
vt -0.834646 1.44565
vt -0.479501 0.83052
f 16/16/7 18/17/7 15/18/7

v -0.0212 -0.002 -0.0367195
vt 0.834646 1.44565
f 16/16/7 19/19/7 18/17/7

f 9/9/7 19/19/7 16/16/7

f 19/19/7 9/9/7 10/10/7

f 10/10/8 9/9/8 19/19/8

f 16/16/8 19/19/8 9/9/8

f 18/17/8 19/19/8 16/16/8

v -0.0212 0.0033 -0.0367195
vn -2.66035e-16 0 -1
f 20/14/17 18/13/17 19/11/17

v 0.0212 0.0033 -0.0367195
f 18/13/17 20/14/17 21/12/17

vn 2.66035e-16 -0 1
f 19/11/18 18/13/18 20/14/18

f 21/12/18 20/14/18 18/13/18

vt 0.479501 -0.677736
vn -3.46952e-17 0.946999 -0.321237
vt -0.834646 -1.32729
vt 0.834646 -1.32729
f 17/20/19 21/21/19 20/22/19

vt -0.479501 -0.677736
f 21/21/19 17/20/19 14/23/19

vn 3.46952e-17 -0.946999 0.321237
f 20/22/20 21/21/20 17/20/20

f 14/23/20 17/20/20 21/21/20

f 17/1/16 14/3/14 16/4/16

v -0.00911502 0.0086 -0.0157877
vt 0.358859 0.621562
f 22/24/7 17/16/7 14/18/7

v -0.01823 0.0086 5.63993e-18
vt 0.717718 -2.22045e-16
f 23/25/7 17/16/7 22/24/7

v -0.0243587 0.0086 4.22995e-18
f 17/16/7 23/25/7 24/9/7

f 24/9/8 23/25/8 17/16/8

f 23/25/7 5/6/7 24/9/7

v -0.00911502 0.0086 0.0157877
vt 0.358859 -0.621562
f 5/6/7 23/25/7 25/26/7

f 24/9/8 5/6/8 23/25/8

vn 1 0 -0
f 5/1/5 9/2/21 24/3/21

f 9/2/21 5/1/5 6/4/5

vn -1 -0 0
f 6/4/6 5/1/6 9/2/22

f 24/3/22 9/2/22 5/1/6

f 16/2/15 24/1/21 9/4/21

f 24/1/21 16/2/15 17/3/15

f 9/4/22 24/1/22 16/2/16

f 17/3/16 16/2/16 24/1/22

vn -0.2782 0.946999 -0.160619
f 20/21/23 24/20/23 17/23/23

f 24/20/23 20/21/23 11/22/23

vn 0.2782 -0.946999 0.160619
f 11/22/24 20/21/24 24/20/24

vn -0.866025 0 -0.5
f 20/12/25 10/11/25 11/14/25

f 10/11/25 20/12/25 19/13/25

vn 0.866025 -0 0.5
f 11/14/26 10/11/26 20/12/26

f 10/13/10 11/12/10 8/11/10

f 19/13/26 20/12/26 10/11/26

f 17/23/24 24/20/24 20/21/24

vn -0.2782 0.946999 0.160619
f 12/22/27 24/23/27 11/21/27

f 24/23/27 12/22/27 5/20/27

vn 0.2782 -0.946999 -0.160619
f 11/21/28 24/23/28 12/22/28

f 5/20/28 12/22/28 24/23/28

vn -1.39281e-16 0.946999 0.321237
f 13/22/29 5/23/29 12/21/29

f 5/23/29 13/22/29 3/20/29

vn 1.39281e-16 -0.946999 -0.321237
f 12/21/30 5/23/30 13/22/30

f 3/20/30 13/22/30 5/23/30

vn 0.2782 0.946999 0.160619
f 13/21/31 1/20/31 3/23/31

v 0.0424 0.0033 -5.63993e-18
f 1/20/31 13/21/31 26/22/31

vn -0.2782 -0.946999 -0.160619
f 3/23/32 1/20/32 13/21/32

v 0.01823 0.0086 -5.99243e-18
vt -0.717718 2.35922e-16
f 3/7/7 27/27/7 1/15/7

v 0.00911502 0.0086 0.0157877
vt -0.358859 -0.621562
f 3/7/7 28/28/7 27/27/7

f 3/7/7 25/26/7 28/28/7

f 5/6/7 25/26/7 3/7/7

f 25/26/8 23/25/8 5/6/8

vt 0.358859 0.338583
vn 0.866025 -1.53231e-32 -0.5
v -0.00911502 0.0192 0.0157877
vt -0.358859 0.755906
vt -0.358859 0.338583
f 23/29/33 29/30/33 25/31/33

v -0.01823 0.0192 5.63993e-18
vt 0.358859 0.755906
f 29/30/33 23/29/33 30/32/33

vn -0.866025 1.53231e-32 0.5
f 25/31/34 29/30/34 23/29/34

vn 6.18752e-16 0 -1
f 29/32/35 28/31/35 25/29/35

v 0.00911502 0.0192 0.0157877
f 28/31/35 29/32/35 31/30/35

vn -6.18752e-16 -0 1
f 25/29/36 28/31/36 29/32/36

f 28/28/8 25/26/8 3/7/8

f 3/7/8 25/26/8 5/6/8

f 3/1/3 5/3/6 2/4/3

f 27/27/8 28/28/8 3/7/8

vn -0.866025 3.45046e-17 -0.5
v 0.01823 0.0192 -5.99243e-18
f 28/29/37 32/30/37 27/31/37

f 32/30/37 28/29/37 31/32/37

vn 0.866025 -3.45046e-17 0.5
f 31/32/38 28/29/38 32/30/38

f 31/30/36 29/32/36 28/31/36

v -0.00781519 0.0192 0.0135363
vt 0.307685 -0.532926
f 29/26/7 33/33/7 31/28/7

v -0.0156304 0.0192 7.75491e-18
vt 0.61537 -3.05311e-16
f 29/26/7 34/34/7 33/33/7

f 34/34/7 29/26/7 30/25/7

f 30/25/8 29/26/8 34/34/8

f 30/32/34 23/29/34 29/30/34

vn 0.866025 -1.53231e-32 0.5
f 22/29/39 30/30/39 23/31/39

v -0.00911502 0.0192 -0.0157877
f 30/30/39 22/29/39 35/32/39

vn -0.866025 1.53231e-32 -0.5
f 23/31/40 30/30/40 22/29/40

f 35/32/40 22/29/40 30/30/40

vn 0 0 1
v 0.00911502 0.0192 -0.0157877
f 22/31/41 36/32/41 35/30/41

v 0.00911502 0.0086 -0.0157877
f 36/32/41 22/31/41 37/29/41

vn -0 -0 -1
f 37/29/42 22/31/42 36/32/42

vt -0.358859 0.621562
f 22/24/7 14/18/7 37/35/7

f 14/18/8 17/16/8 22/24/8

f 22/24/8 17/16/8 23/25/8

f 37/35/8 14/18/8 22/24/8

f 37/35/7 14/18/7 27/27/7

f 27/27/8 14/18/8 37/35/8

f 27/27/7 14/18/7 1/15/7

f 1/15/8 14/18/8 27/27/8

vn 0.2782 0.946999 -0.160619
f 1/23/43 21/22/43 14/20/43

f 21/22/43 1/23/43 26/21/43

vn -0.2782 -0.946999 0.160619
f 14/20/44 21/22/44 1/23/44

f 26/21/44 1/23/44 21/22/44

f 26/22/32 13/21/32 1/20/32

vn 0.866025 0 0.5
v 0.0424 -0.002 -5.63993e-18
f 13/12/45 38/11/45 26/14/45

f 38/11/45 13/12/45 7/13/45

vn -0.866025 -0 -0.5
f 7/13/46 13/12/46 38/11/46

f 26/14/46 38/11/46 13/12/46

vn 0.866025 0 -0.5
f 18/11/47 26/12/47 38/13/47

f 26/12/47 18/11/47 21/14/47

vn -0.866025 -0 0.5
f 38/13/48 26/12/48 18/11/48

f 21/14/48 18/11/48 26/12/48

vt -1.66929 2.22045e-16
f 4/15/7 18/17/7 38/36/7

f 15/18/7 18/17/7 4/15/7

f 15/18/8 18/17/8 16/16/8

f 4/15/8 18/17/8 15/18/8

f 38/36/8 18/17/8 4/15/8

f 7/5/7 4/15/7 38/36/7

f 38/36/8 4/15/8 7/5/8

f 1/15/8 27/27/8 3/7/8

f 27/29/9 36/30/9 37/31/9

f 36/30/9 27/29/9 32/32/9

f 32/32/10 27/29/10 36/30/10

f 27/31/38 32/30/38 28/29/38

f 37/31/10 36/30/10 27/29/10

v 0.0156304 0.0192 -5.28744e-18
vt -0.61537 2.08167e-16
f 39/37/7 36/35/7 32/27/7

v 0.00781519 0.0192 -0.0135363
vt -0.307685 0.532926
f 40/38/7 36/35/7 39/37/7

v -0.00781519 0.0192 -0.0135363
vt 0.307685 0.532926
f 41/39/7 36/35/7 40/38/7

f 41/39/7 35/24/7 36/35/7

f 34/34/7 35/24/7 41/39/7

f 35/24/7 34/34/7 30/25/7

f 30/25/8 34/34/8 35/24/8

f 41/39/8 35/24/8 34/34/8

f 36/35/8 35/24/8 41/39/8

f 35/30/42 36/32/42 22/31/42

f 40/38/8 36/35/8 41/39/8

f 39/37/8 36/35/8 40/38/8

f 32/27/8 36/35/8 39/37/8

f 31/28/7 39/37/7 32/27/7

v 0.00781519 0.0192 0.0135363
vt -0.307685 -0.532926
f 31/28/7 42/40/7 39/37/7

f 31/28/7 33/33/7 42/40/7

f 31/28/8 33/33/8 29/26/8

f 42/40/8 33/33/8 31/28/8

v -0.00781519 0.1676 0.0135363
vt 0.307685 6.59843
vn 3.60831e-16 0 -1
vt -0.307685 0.755906
vt 0.307685 0.755906
f 43/41/49 42/42/49 33/43/49

v 0.00781519 0.1676 0.0135363
vt -0.307685 6.59843
f 42/42/49 43/41/49 44/44/49

vn -3.60831e-16 -0 1
f 33/43/50 42/42/50 43/41/50

f 44/44/50 43/41/50 42/42/50

v -0.00722848 0.1676 0.0125201
vt 0.284586 -0.492917
f 43/33/7 45/45/7 44/40/7

v -0.014457 0.1676 7.04992e-18
vt 0.569172 -2.77556e-16
f 43/33/7 46/46/7 45/45/7

v -0.0156304 0.1676 7.75491e-18
f 46/46/7 43/33/7 47/34/7

f 47/34/8 43/33/8 46/46/8

vn 0.866025 -3.61094e-34 -0.5
f 43/44/51 34/43/51 47/41/51

f 34/43/51 43/44/51 33/42/51

vn -0.866025 3.61094e-34 0.5
f 33/42/52 43/44/52 34/43/52

f 47/41/52 34/43/52 43/44/52

vn 0.555247 -0.000227041 0.831685
vn 0.865311 -0.000150386 0.501236
vn 0.866025 3.7191e-18 0.5
f 41/43/53 47/44/54 34/42/55

vn -0.866025 -3.7191e-18 -0.5
vn -0.865311 0.000150386 -0.501236
vn -0.555247 0.000227041 -0.831685
f 34/42/56 47/44/57 41/43/58

vt 0.306162 0.755745
v -0.00780763 0.1676 -0.0134605
vt 0.303731 6.59826
vn -0.211876 -0.000488463 0.977296
vt -0.309205 6.59826
f 41/47/53 48/48/59 47/49/54

vn 0.211876 0.000488463 -0.977296
f 47/49/57 48/48/60 41/47/58

vt 0.307387 0.529941
f 48/50/7 46/46/7 47/34/7

v -0.0070773 0.1676 -0.0125362
vt 0.278634 0.49355
f 46/46/7 48/50/7 49/51/7

f 47/34/8 46/46/8 48/50/8

f 49/51/8 48/50/8 46/46/8

v -0.00388825 0.1676 -0.0133424
vt 0.153081 0.525292
f 49/51/7 48/50/7 50/52/7

f 50/52/8 48/50/8 49/51/8

vt -0.323207 5.10179
vn -0.0246499 -0.57451 0.818126
v -0.000420821 0.15965 -0.0188206
vt -0.0388753 4.7194
vt -0.168831 5.10179
f 48/53/61 51/54/61 50/55/61

vn 0.0246499 0.57451 -0.818126
f 50/55/62 51/54/62 48/53/62

v -0.000257594 0.1676 -0.0240839
vt 0.895015 6.53864
vn 0.930262 0.189068 0.31443
vt 0.448617 6.53864
vt 0.696652 6.2199
f 52/56/63 50/57/63 51/58/63

vn -0.930262 -0.189068 -0.31443
f 51/58/64 50/57/64 52/56/64

v -0.00304669 0.1676 -0.0123794
vt 0.119949 0.487379
vt 0.0101415 0.948186
f 53/59/7 50/52/7 52/60/7

f 49/51/7 50/52/7 53/59/7

f 53/59/8 50/52/8 49/51/8

f 52/60/8 50/52/8 53/59/8

v -4.64361e-05 0.1676 -0.021559
vt 0.00182819 0.848779
f 53/59/7 52/60/7 54/61/7

f 54/61/8 52/60/8 53/59/8

v 0.00392804 0.1676 -0.0133315
vt -0.154647 0.524861
f 54/61/7 52/60/7 55/62/7

f 55/62/8 52/60/8 54/61/8

vt -0.887278 6.47116
vn -0.902053 0.250995 0.351144
vt -0.696508 6.14782
vt -0.433011 6.47116
f 52/63/65 51/64/65 55/65/65

vn 0.902053 -0.250995 -0.351144
f 55/65/66 51/64/66 52/63/66

vt 0.17777 5.06927
vn 0.0360892 -0.581106 0.813028
vt 0.0163068 4.68468
v 0.0078184 0.1676 -0.0135042
vt 0.331085 5.06927
f 55/66/67 51/67/67 56/68/67

vn -0.0360892 0.581106 -0.813028
f 56/68/68 51/67/68 55/66/68

vt -0.0287378 6.59733
vn -0.54098 -0.00177171 0.841034
vt -0.414784 6.28433
v 0.00781519 0.15332 -0.0135363
vt -0.0295286 6.03511
f 56/69/69 51/70/69 57/71/69

vn 0.54098 0.00177171 -0.841034
f 57/71/70 51/70/70 56/69/70

vt 0.0617718 5.03087
vn 0.0758948 0.695323 0.714679
v 0.000340663 0.153914 -0.0133209
vt 0.0687187 4.71666
vt 0.362242 4.68409
f 51/72/71 58/73/71 57/74/71

vt -0.0139491 5.04884
vn 0.00255028 0.692262 0.721641
v -0.000297548 0.153917 -0.013321
vt -0.00986104 4.73604
vt 0.0152652 4.73591
f 51/75/72 59/76/72 58/77/72

vt -0.0935795 5.05979
vn -0.0753732 0.689423 0.720427
v -0.00781519 0.15332 -0.0135363
vt -0.361468 4.71573
vt -0.0662225 4.74817
f 51/78/73 60/79/73 59/80/73

vt 0.0599965 6.59554
vn 0.584038 -0.00461866 0.811713
vt 0.0614979 6.03331
vt 0.419311 6.28254
f 48/81/74 60/82/74 51/83/74

vn -0.584038 0.00461866 -0.811713
f 51/83/75 60/82/75 48/81/75

vn 0.0753732 -0.689423 -0.720427
f 59/80/76 60/79/76 51/78/76

vt -0.0267226 6.05971
vn -0.0143146 -0.0007993 0.999897
vt -0.322814 6.03621
vn -0.028626 -2.66238e-19 0.99959
vt -0.322814 0.755906
f 59/84/77 60/85/78 41/86/77

vn 0.0143146 0.0007993 -0.999897
vn 0.028626 2.66238e-19 -0.99959
f 41/86/79 60/85/80 59/84/79

vt -0.560845 0.755906
vt -0.557846 6.59843
vt -0.560845 6.03621
vn -0.995057 0 0.0993013
f 41/87/53 48/88/59 60/89/81

vn 0.995057 -0 -0.0993013
f 60/89/82 48/88/60 41/87/58

vt -0.307685 0.755053
vt 0.0134118 6.05876
vn 0.014403 -0.000799301 0.999896
vt -0.0117146 6.05886
f 41/90/77 58/91/83 59/92/77

vt 0.307685 0.755053
f 58/91/83 41/90/77 40/93/83

vn -0.014403 0.000799301 -0.999896
f 40/93/84 41/90/79 58/91/84

f 59/92/79 58/91/84 41/90/79

vn -0.00255028 -0.692262 -0.721641
f 58/77/85 59/76/85 51/75/85

vn -0.0758948 -0.695323 -0.714679
f 57/74/86 58/73/86 51/72/86

vt 0.0285121 6.05961
vt 0.322907 0.755906
vt 0.322907 6.03621
vn 0.0288032 0 0.999585
f 58/94/83 40/95/83 57/96/87

vn -0.0288032 -0 -0.999585
f 57/96/88 40/95/84 58/94/84

vt 0.499738 6.03621
vn 0.995057 -6.91137e-21 -0.0993013
vt 0.498466 6.59843
vn 0.30672 -0.000106405 0.9518
vt 0.499738 0.755906
f 57/97/89 56/98/90 40/99/90

vn -0.30672 0.000106405 -0.9518
vn -0.995057 6.91137e-21 0.0993013
f 40/99/91 56/98/91 57/97/92

vt 0.307911 0.755882
vn -0.865813 -4.48366e-05 0.500368
vt -0.306299 6.5984
vt -0.307458 0.755882
f 39/100/93 56/101/90 40/102/90

v 0.0156304 0.1676 -5.28744e-18
vt 0.307911 6.5984
f 56/101/90 39/100/93 61/103/93

vn 0.865813 4.48366e-05 -0.500368
f 61/103/94 39/100/94 56/101/91

vn -0.866025 1.25087e-33 -0.5
f 42/43/95 61/44/95 39/42/95

f 61/44/95 42/43/95 44/41/95

vn 0.866025 -1.25087e-33 0.5
f 44/41/96 42/43/96 61/44/96

f 39/42/96 61/44/96 42/43/96

f 39/37/8 42/40/8 31/28/8

f 32/27/8 39/37/8 31/28/8

v 0.014457 0.1676 -5.28744e-18
vt -0.569172 2.08167e-16
f 44/40/7 62/104/7 61/37/7

v 0.00722848 0.1676 0.0125201
vt -0.284586 -0.492917
f 44/40/7 63/105/7 62/104/7

f 44/40/7 45/45/7 63/105/7

f 44/40/8 45/45/8 43/33/8

f 63/105/8 45/45/8 44/40/8

v -0.00722848 0.0086 0.0125201
vt -0.284586 0.338583
vn -1.95059e-16 0 1
vt 0.284586 6.59843
vt -0.284586 6.59843
f 64/106/97 63/107/97 45/108/97

v 0.00722848 0.0086 0.0125201
vt 0.284586 0.338583
f 63/107/97 64/106/97 65/109/97

vn 1.95059e-16 -0 -1
f 65/109/98 64/106/98 63/107/98

v -0.00709821 0.0086 -0.0127457
vt 0.279457 0.501801
f 64/45/7 66/110/7 65/105/7

v -0.014457 0.0086 7.04992e-18
f 66/110/7 64/45/7 67/46/7

f 67/46/8 64/45/8 66/110/8

vn -0.866025 2.17929e-33 0.5
f 64/109/99 46/108/99 67/106/99

f 46/108/99 64/109/99 45/107/99

vn 0.866025 -2.17929e-33 -0.5
f 45/107/100 64/109/100 46/108/100

f 45/108/98 63/107/98 64/106/98

f 67/106/100 46/108/100 64/109/100

vt -0.283976 6.59843
vn -0.863905 0.000386483 -0.503654
vt 0.28874 0.338583
vt 0.28874 6.59843
vn -0.86177 0 -0.507299
f 49/111/101 67/112/101 46/113/102

vn 0.86177 -0 0.507299
vn 0.863905 -0.000386483 0.503654
f 46/113/103 67/112/104 49/111/104

vt -0.294844 0.338202
vn -0.866025 0.00077296 -0.5
vt 0.284586 0.338202
vt -0.28811 6.59805
f 66/114/105 67/115/101 49/116/101

vn 0.866025 -0.00077296 0.5
f 49/116/104 67/115/104 66/114/106

vt 0.138797 6.59779
vn 0.0388586 0.00131198 -0.999244
vt 0.298745 0.337939
vt 0.297602 6.59779
f 53/117/107 66/118/107 49/119/107

vn -0.0388586 -0.00131198 0.999244
f 49/119/108 66/118/108 53/117/108

vt 0.119599 6.59728
vn -0.000718111 0.00232218 -0.999997
v 0.000113383 0.15965 -0.0124001
vt -0.00481448 6.28428
vt 0.279097 0.337416
f 53/120/109 68/121/109 66/122/109

vt 0.739792 5.82667
vn 0.926444 0.368457 -0.0770828
vt 0.495646 6.16335
vt 0.486144 5.82667
f 51/123/110 53/124/110 68/125/110

vn -0.926444 -0.368457 0.0770828
f 68/125/111 53/124/111 51/123/111

vn 0.000718111 -0.00232218 0.999997
f 66/122/112 68/121/112 53/120/112

vt -0.00393244 6.28433
vn 0.00108862 0.00223592 -0.999997
v 0.00710714 0.0086 -0.0127303
vt -0.279263 0.337461
vt 0.280003 0.337461
f 68/126/113 69/127/113 66/128/113

v 0.00322632 0.1676 -0.0123233
vt 0.11872 6.59695
vn -0.0170694 -0.00297553 0.99985
vt -0.00387 6.28395
vt 0.271213 0.337076
f 70/129/114 68/130/114 69/131/114

vt -0.739792 5.87332
vn -0.92863 0.362872 0.0772647
vt -0.486144 5.87332
vt -0.472968 6.2092
f 51/132/115 68/133/115 70/134/115

vn 0.92863 -0.362872 -0.0772647
f 70/134/116 68/133/116 51/132/116

vn 0.0170694 0.00297553 -0.99985
f 69/131/117 68/130/117 70/129/117

vn -0.00108862 -0.00223592 0.999997
f 66/128/118 69/127/118 68/126/118

vt -0.279809 0.501192
f 65/105/7 66/110/7 69/135/7

f 65/105/8 66/110/8 64/45/8

f 69/135/8 66/110/8 65/105/8

v 0.014457 0.0086 -5.28744e-18
f 65/105/7 69/135/7 71/104/7

f 71/104/8 69/135/8 65/105/8

vt 0.294141 0.338583
vn 0.865054 0.000179337 -0.501679
vn 0.866025 7.32601e-18 -0.5
f 69/136/119 62/108/119 71/106/120

vn -0.866025 -7.32601e-18 0.5
vn -0.865054 -0.000179337 0.501679
f 71/106/121 62/108/122 69/136/122

f 63/108/45 71/109/45 62/107/45

f 71/109/45 63/108/45 65/106/45

f 65/106/46 63/108/46 71/109/46

f 62/107/46 71/109/46 63/108/46

f 62/104/8 63/105/8 44/40/8

f 61/37/8 62/104/8 44/40/8

vt -0.307811 0.53166
f 62/104/7 56/137/7 61/37/7

v 0.00712078 0.1676 -0.0125936
vt -0.280346 0.495809
f 72/138/7 56/137/7 62/104/7

f 72/138/7 55/62/7 56/137/7

vt -0.12702 0.485171
f 70/139/7 55/62/7 72/138/7

f 54/61/7 55/62/7 70/139/7

f 70/139/8 55/62/8 54/61/8

f 72/138/8 55/62/8 70/139/8

f 56/137/8 55/62/8 72/138/8

f 62/104/8 56/137/8 72/138/8

f 61/37/8 56/137/8 62/104/8

vt 0.292226 0.338405
vt 0.287305 6.59825
vn 0.864079 0.000358674 -0.503356
vt -0.286496 6.59825
f 69/140/119 72/141/123 62/142/119

vn -0.864079 -0.000358674 0.503356
f 62/142/122 72/141/124 69/140/122

vt -0.313991 6.59801
vn -0.0692158 0.000863748 -0.997601
vt -0.313828 0.338167
vt -0.160297 6.59801
f 72/143/125 69/144/125 70/145/125

vn 0.0692158 -0.000863748 0.997601
f 70/145/126 69/144/126 72/143/126

vt 0.800644 6.56049
vn 0.930813 -0.157448 -0.329844
vt 0.414882 6.56049
vt 0.70395 6.24354
f 54/146/127 70/147/127 51/148/127

vn -0.930813 0.157448 0.329844
f 51/148/128 70/147/128 54/146/128

vt -0.806213 6.60217
vn -0.948682 -0.0621262 -0.310068
vt -0.699159 6.28857
vt -0.425998 6.60217
f 54/149/129 51/150/129 53/151/129

vn 0.948682 0.0621262 0.310068
f 53/151/130 51/150/130 54/149/130

f 45/45/8 46/46/8 43/33/8

f 40/102/91 56/101/91 39/100/94

f 33/33/8 34/34/8 29/26/8

f 12/12/12 13/14/12 8/13/12

f 6/6/8 9/9/8 8/8/8

g Mesh2 Model

l 26 21

l 13 26

l 12 13

l 11 12

l 20 11

l 21 20

l 21 14

l 21 18

l 18 19

l 38 18

l 7 38

l 8 7

l 10 8

l 19 10

l 20 19

l 20 17

l 17 24

l 14 17

l 1 14

l 3 1

l 5 3

l 24 5

l 11 24

l 11 10

l 12 5

l 12 8

l 13 3

l 13 7

l 1 26

l 26 38

g Mesh3 Model

l 4 15

l 2 4

l 6 2

l 9 6

l 16 9

l 15 16

g Mesh4 Model

l 44 61

l 43 44

l 47 43

l 48 47

l 48 60

l 50 48

l 52 50

l 52 51

l 55 52

l 56 55

l 61 56

l 61 39

l 39 40

l 42 39

l 33 42

l 34 33

l 41 34

l 40 41

l 57 40

l 51 57

l 51 50

l 51 55

l 51 48

l 60 51

l 60 41

l 59 60

l 59 51

l 58 51

l 58 57

l 56 57

l 56 51

l 51 68

l 70 51

l 72 70

l 62 72

l 63 62

l 45 63

l 46 45

l 49 46

l 53 49

l 54 53

l 70 54

l 69 70

l 69 66

l 71 69

l 65 71

l 64 65

l 67 64

l 66 67

l 49 66

l 66 53

l 68 66

l 68 53

l 68 70

l 69 68

l 72 69

l 51 53

l 51 54

l 46 67

l 45 64

l 63 65

l 62 71

l 47 34

l 43 33

l 44 42

g Mesh5 Model

l 28 27

l 25 28

l 23 25

l 22 23

l 37 22

l 27 37

l 27 32

l 31 32

l 29 31

l 30 29

l 35 30

l 36 35

l 32 36

l 37 36

l 22 35

l 23 30

l 25 29

l 28 31

