# Alias OBJ Model File
# Exported from SketchUp, (c) 2000-2012 Trimble Navigation Limited
# File units = meters

mtllib Pipette_Liquid.mtl

g Mesh1 Model

usemtl FrontColor
v -0.00384243 0.01 -0.00221866
vt 0.151277 0.0873487
vn 0 -1 -0
v -3.92005e-07 0.01 0.00443595
vt 1.54333e-05 -0.174644
v -0.00384243 0.01 0.00221775
vt 0.151277 -0.087313
f 1/1/1 2/2/1 3/3/1

v -3.92005e-07 0.01 -0.00443686
vt 1.54333e-05 0.17468
f 2/2/1 1/1/1 4/4/1

usemtl BackColor
vn -0 1 0
f 3/3/2 2/2/2 1/1/2

usemtl FrontColor
v -3.92005e-07 0.06 0.00443595
vt 0.0873086 2.3622
vn -0.5 0 0.866025
vt -0.0873531 0.393701
vt 0.0873086 0.393701
f 5/5/3 3/6/3 2/7/3

v -0.00384243 0.06 0.00221775
vt -0.0873531 2.3622
f 3/6/3 5/5/3 6/8/3

usemtl BackColor
vn 0.5 -0 -0.866025
f 2/7/4 3/6/4 5/5/4

f 6/8/4 5/5/4 3/6/4

usemtl FrontColor
vt -1.54333e-05 -0.174644
vn 0 1 -0
v -0.00384243 0.06 -0.00221866
vt -0.151277 0.0873487
vt -0.151277 -0.087313
f 5/9/5 7/10/5 6/11/5

v -3.92005e-07 0.06 -0.00443686
vt -1.54333e-05 0.17468
f 7/10/5 5/9/5 8/12/5

usemtl BackColor
vn -0 -1 0
f 6/11/6 7/10/6 5/9/6

usemtl FrontColor
vt -0.0873487 2.3622
vn -1 0 -1.55748e-16
vt 0.087313 0.393701
vt 0.087313 2.3622
f 7/13/7 3/14/7 6/15/7

vt -0.0873487 0.393701
f 3/14/7 7/13/7 1/16/7

usemtl BackColor
vn 1 -0 1.55748e-16
f 6/15/8 3/14/8 7/13/8

f 1/16/8 7/13/8 3/14/8

usemtl FrontColor
vt 0.0873353 2.3622
vn -0.5 0 -0.866025
vt -0.0873264 0.393701
vt 0.0873353 0.393701
f 7/17/9 4/18/9 1/19/9

vt -0.0873264 2.3622
f 4/18/9 7/17/9 8/20/9

usemtl BackColor
vn 0.5 -0 0.866025
f 1/19/10 4/18/10 7/17/10

f 4/4/2 1/1/2 2/2/2

usemtl FrontColor
v 0.00384165 0.01 0.00221775
vt -0.151246 -0.087313
f 2/2/1 4/4/1 9/21/1

usemtl BackColor
f 9/21/2 4/4/2 2/2/2

usemtl FrontColor
v 0.00384165 0.01 -0.00221866
vt -0.151246 0.0873487
f 9/21/1 4/4/1 10/22/1

usemtl BackColor
f 10/22/2 4/4/2 9/21/2

usemtl FrontColor
vt 0.0873531 2.3622
vn 0.5 0 -0.866025
vt -0.0873086 0.393701
vt 0.0873531 0.393701
f 8/23/11 10/24/11 4/25/11

v 0.00384165 0.06 -0.00221866
vt -0.0873086 2.3622
f 10/24/11 8/23/11 11/26/11

usemtl BackColor
vn -0.5 -0 0.866025
f 4/25/12 10/24/12 8/23/12

f 11/26/12 8/23/12 10/24/12

usemtl FrontColor
v 0.00384165 0.06 0.00221775
vt 0.151246 -0.087313
vt 0.151246 0.0873487
f 8/12/5 12/27/5 11/28/5

f 8/12/5 5/9/5 12/27/5

usemtl BackColor
f 8/12/6 5/9/6 7/10/6

f 12/27/6 5/9/6 8/12/6

usemtl FrontColor
vt -0.0873353 0.393701
vn 0.5 0 0.866025
vt 0.0873264 2.3622
vt -0.0873353 2.3622
f 2/29/13 12/30/13 5/31/13

vt 0.0873264 0.393701
f 12/30/13 2/29/13 9/32/13

usemtl BackColor
vn -0.5 -0 -0.866025
f 9/32/14 2/29/14 12/30/14

f 5/31/14 12/30/14 2/29/14

usemtl FrontColor
vt 0.0873487 0.393701
vn 1 0 3.11496e-16
vt -0.087313 2.3622
vt -0.087313 0.393701
f 10/33/15 12/34/15 9/35/15

vt 0.0873487 2.3622
f 12/34/15 10/33/15 11/36/15

usemtl BackColor
vn -1 -0 -3.11496e-16
f 9/35/16 12/34/16 10/33/16

f 11/36/16 10/33/16 12/34/16

f 11/28/6 12/27/6 8/12/6

f 8/20/10 7/17/10 4/18/10

g Mesh2 Model

l 3 2

l 1 3

l 4 1

l 10 4

l 9 10

l 2 9

l 2 5

l 5 12

l 6 5

l 7 6

l 8 7

l 11 8

l 12 11

l 9 12

l 10 11

l 4 8

l 1 7

l 3 6

