# Alias OBJ Model File
# Exported from SketchUp, (c) 2000-2012 Trimble Navigation Limited
# File units = meters

mtllib FumeHoodDoor_Highlight.mtl

g Mesh1 Model

usemtl FrontColor
v 0.088 0.033 0.002
vt 3.46457 1.29921
vn 0 0 1
v -0.088 0 0.002
vt -3.46457 0
v 0.088 0 0.002
vt 3.46457 0
f 1/1/1 2/2/1 3/3/1

v -0.088 0.033 0.002
vt -3.46457 1.29921
f 2/2/1 1/1/1 4/4/1

usemtl BackColor
vn -0 -0 -1
f 3/3/2 2/2/2 1/1/2

usemtl FrontColor
vt 3.46457 -0.0787402
vn 0 -1 -0
v -0.077 0 -0.009
vt 3.0315 0.354331
vt -3.46457 -0.0787402
f 2/5/3 5/6/3 3/7/3

v -0.077 0 -0.02
vt 3.0315 0.787402
f 5/6/3 2/5/3 6/8/3

usemtl Color_M00
vn -0 1 0
f 3/7/4 5/6/4 2/5/4

usemtl FrontColor
v 0.077 0 -0.009
vt -3.0315 0.354331
f 3/7/3 5/6/3 7/9/3

usemtl Color_M00
f 7/9/4 5/6/4 3/7/4

usemtl FrontColor
v -0.077 0.022 -0.009
vt 3.0315 0.866142
vn 0 0 -1
vt -3.0315 0
vt 3.0315 0
f 8/10/5 7/11/5 5/12/5

v 0.077 0.022 -0.009
vt -3.0315 0.866142
f 7/11/5 8/10/5 9/13/5

usemtl BackColor
vn -0 -0 1
f 5/12/6 7/11/6 8/10/6

usemtl FrontColor
v 0.077 0 -0.02
vt -3.0315 0.787402
f 7/9/3 5/6/3 10/14/3

usemtl BackColor
f 10/14/4 5/6/4 7/9/4

usemtl FrontColor
f 10/14/3 5/6/3 6/8/3

usemtl BackColor
f 6/8/4 5/6/4 10/14/4

usemtl Color_M00
f 6/8/4 2/5/4 5/6/4

usemtl FrontColor
v -0.088 0 -0.031
vt 3.46457 1.22047
f 11/15/3 6/8/3 2/5/3

v 0.088 0 -0.031
vt -3.46457 1.22047
f 6/8/3 11/15/3 12/16/3

usemtl Color_M00
f 2/5/4 6/8/4 11/15/4

f 12/16/4 11/15/4 6/8/4

usemtl FrontColor
v 0.088 0.033 -0.031
f 13/1/1 11/2/1 12/3/1

usemtl Color_M00
f 12/3/2 11/2/2 13/1/2

usemtl FrontColor
v -0.088 0.033 -0.031
f 14/4/1 11/2/1 13/1/1

usemtl Color_M00
vt 0.0787402 0
vn -1 0 -0
vt -1.22047 1.29921
vt -1.22047 0
f 2/17/7 14/18/7 11/19/7

vt 0.0787402 1.29921
f 14/18/7 2/17/7 4/20/7

vn 1 -0 0
f 4/20/8 2/17/8 14/18/8

usemtl BackColor
f 4/4/2 1/1/2 2/2/2

usemtl FrontColor
vn 0 1 -0
f 1/5/9 14/16/9 4/7/9

f 14/16/9 1/5/9 13/15/9

usemtl BackColor
vn -0 -1 0
f 4/7/10 14/16/10 1/5/10

f 13/15/10 1/5/10 14/16/10

usemtl FrontColor
vt -0.0787402 1.29921
vn 1 0 -0
vt 1.22047 0
vt 1.22047 1.29921
f 1/21/11 12/22/11 13/23/11

vt -0.0787402 0
f 12/22/11 1/21/11 3/24/11

usemtl BackColor
vn -1 -0 0
f 3/24/12 1/21/12 12/22/12

f 13/23/12 12/22/12 1/21/12

usemtl FrontColor
f 3/7/3 7/9/3 12/16/3

usemtl Color_M00
f 12/16/4 7/9/4 3/7/4

usemtl FrontColor
f 10/14/3 12/16/3 7/9/3

f 6/8/3 12/16/3 10/14/3

usemtl Color_M00
f 10/14/4 12/16/4 6/8/4

f 7/9/4 12/16/4 10/14/4

usemtl FrontColor
vt -0.354331 0
v 0.077 0.022 -0.02
vt -0.787402 0.866142
vt -0.787402 0
f 7/25/7 15/26/7 10/27/7

vt -0.354331 0.866142
f 15/26/7 7/25/7 9/28/7

usemtl BackColor
f 9/28/8 7/25/8 15/26/8

f 9/13/6 8/10/6 7/11/6

usemtl FrontColor
f 8/6/3 15/14/3 9/9/3

v -0.077 0.022 -0.02
f 15/14/3 8/6/3 16/8/3

usemtl BackColor
f 16/8/4 8/6/4 15/14/4

usemtl FrontColor
vt 0.354331 0.866142
vt 0.787402 0
vt 0.787402 0.866142
f 8/29/11 6/30/11 16/31/11

vt 0.354331 0
f 6/30/11 8/29/11 5/32/11

usemtl BackColor
f 5/32/12 8/29/12 6/30/12

f 16/31/12 6/30/12 8/29/12

usemtl FrontColor
f 6/11/1 15/10/1 16/13/1

f 15/10/1 6/11/1 10/12/1

usemtl BackColor
f 10/12/2 6/11/2 15/10/2

f 16/13/2 15/10/2 6/11/2

f 10/27/8 15/26/8 7/25/8

f 9/9/4 15/14/4 8/6/4

usemtl Color_M00
f 13/1/2 11/2/2 14/4/2

f 11/19/8 14/18/8 2/17/8

g Mesh2 Model

l 11 12

l 11 14

l 11 2

l 11 13

l 12 13

l 12 3

l 2 3

l 2 4

l 1 4

l 3 1

l 13 1

l 13 14

l 14 4

g Mesh3 Model

l 10 7

l 6 10

l 5 6

l 7 5

l 7 9

l 15 9

l 16 15

l 8 16

l 9 8

l 5 8

l 5 10

l 10 15

l 6 16

