# Alias OBJ Model File
# Exported from SketchUp, (c) 2000-2012 Trimble Navigation Limited
# File units = meters

mtllib WashBottle_Liquid.mtl

g Mesh1 Model

usemtl Color_M00
v -0.0191761 0.002 -0.0332139
vt 0.754964 1.30764
vn 0 -1 -0
v -0.0191761 0.002 0.0332139
vt 0.754964 -1.30764
v -0.0383522 0.002 -4.75869e-18
vt 1.50993 1.8735e-16
f 1/1/1 2/2/1 3/3/1

v 0.0191761 0.002 0.0332139
vt -0.754964 -1.30764
f 2/2/1 1/1/1 4/4/1

usemtl Color_M01
vn -0 1 0
f 3/3/2 2/2/2 1/1/2

usemtl Color_M00
vt 0.754964 0.0787402
vn -0.5 0 0.866025
v -0.0383522 0.062 -4.75869e-18
vt -0.754964 2.44094
vn -1 0 -3.20494e-16
vt -0.754964 0.0787402
f 2/5/3 5/6/4 3/7/4

v -0.0191761 0.062 0.0332139
vt 0.754964 2.44094
f 5/6/4 2/5/3 6/8/3

usemtl Color_M01
vn 0.5 -0 -0.866025
vn 1 -0 3.20494e-16
f 6/8/5 2/5/5 5/6/6

usemtl Color_M00
v 0.0191761 0.062 0.0332139
vn 0.5 0 0.866025
f 2/7/3 7/8/7 6/6/3

f 7/8/7 2/7/3 4/5/7

usemtl Color_M01
vn -0.5 -0 -0.866025
f 4/5/8 2/7/5 7/8/8

f 4/4/2 1/1/2 2/2/2

usemtl Color_M00
v 0.0191761 0.002 -0.0332139
vt -0.754964 1.30764
f 4/4/1 1/1/1 8/9/1

usemtl Color_M01
f 8/9/2 1/1/2 4/4/2

usemtl Color_M00
v -0.0191761 0.062 -0.0332139
vn -0.5 0 -0.866025
vn 0.5 0 -0.866025
f 9/8/9 8/7/10 1/5/9

v 0.0191761 0.062 -0.0332139
f 8/7/10 9/8/9 10/6/10

usemtl Color_M01
vn 0.5 -0 0.866025
vn -0.5 -0 0.866025
f 1/5/11 8/7/12 9/8/11

f 10/6/12 9/8/11 8/7/12

usemtl Color_M00
vn 0 1 -0
f 9/9/13 7/2/13 10/1/13

f 9/9/13 6/4/13 7/2/13

vt -1.50993 1.8735e-16
f 6/4/13 9/9/13 5/10/13

usemtl Color_M01
vn -0 -1 0
f 5/10/14 9/9/14 6/4/14

usemtl Color_M00
f 9/6/9 3/5/4 5/8/4

f 3/5/4 9/6/9 1/7/9

usemtl Color_M01
f 5/8/6 3/5/6 9/6/11

f 3/7/6 5/6/6 2/5/5

f 1/7/11 9/6/11 3/5/6

f 7/2/14 6/4/14 9/9/14

f 6/6/5 7/8/8 2/7/5

f 10/1/14 7/2/14 9/9/14

usemtl Color_M00
v 0.0383522 0.062 -3.52496e-19
vt 1.50993 1.38778e-17
f 10/1/13 7/2/13 11/11/13

usemtl Color_M01
f 11/11/14 7/2/14 10/1/14

usemtl Color_M00
v 0.0383522 0.002 -3.52496e-19
vn 1 0 1.92296e-16
f 7/6/7 12/5/15 11/8/15

f 12/5/15 7/6/7 4/7/7

usemtl Color_M01
vn -1 -0 -1.92296e-16
f 4/7/8 7/6/8 12/5/16

f 11/8/16 12/5/16 7/6/8

usemtl Color_M00
f 8/5/10 11/6/15 12/7/15

f 11/6/15 8/5/10 10/8/10

usemtl Color_M01
f 12/7/16 11/6/16 8/5/12

f 10/8/12 8/5/12 11/6/16

usemtl Color_M00
vt -1.50993 1.38778e-17
f 4/4/1 8/9/1 12/12/1

usemtl Color_M01
f 12/12/2 8/9/2 4/4/2

g Mesh2 Model

l 12 8

l 4 12

l 2 4

l 3 2

l 1 3

l 8 1

g Mesh3 Model

l 11 10

l 7 11

l 6 7

l 5 6

l 9 5

l 10 9

