# Alias OBJ Model File
# Exported from SketchUp, (c) 2000-2012 Trimble Navigation Limited
# File units = meters

mtllib Solid.mtl

g Mesh1 Model

usemtl FrontColor
v 0.01 0.01 0.01
vt 0.393701 -0.393701
vn 0 1 -0
v -0.0100245 0.01 -0.01
vt -0.394666 0.393701
v -0.0100245 0.01 0.01
vt -0.394666 -0.393701
f 1/1/1 2/2/1 3/3/1

v 0.01 0.01 -0.01
vt 0.393701 0.393701
f 2/2/1 1/1/1 4/4/1

usemtl BackColor
vn -0 -1 0
f 3/3/2 2/2/2 1/1/2

usemtl FrontColor
vt -0.393701 0.393701
vn -1 0 -0
v -0.0100245 -0.01 0.01
f 2/5/3 5/1/3 3/4/3

v -0.0100245 -0.01 -0.01
vt -0.393701 -0.393701
f 5/1/3 2/5/3 6/6/3

usemtl BackColor
vn 1 -0 0
f 3/4/4 5/1/4 2/5/4

usemtl FrontColor
vn 0 0 1
f 5/3/5 1/4/5 3/2/5

v 0.01 -0.01 0.01
f 1/4/5 5/3/5 7/1/5

usemtl BackColor
vn -0 -0 -1
f 7/1/6 5/3/6 1/4/6

usemtl FrontColor
vt 0.394666 -0.393701
vn 0 -1 -0
v 0.01 -0.01 -0.01
f 5/7/7 8/5/7 7/6/7

vt 0.394666 0.393701
f 8/5/7 5/7/7 6/8/7

usemtl BackColor
vn -0 1 0
f 6/8/8 5/7/8 8/5/8

f 6/6/4 2/5/4 5/1/4

usemtl FrontColor
vn 0 0 -1
f 2/8/9 8/6/9 6/7/9

f 8/6/9 2/8/9 4/5/9

usemtl BackColor
vn -0 -0 1
f 6/7/10 8/6/10 2/8/10

f 4/5/10 2/8/10 8/6/10

f 4/4/2 1/1/2 2/2/2

usemtl FrontColor
vn 1 0 -0
f 1/5/11 8/1/11 4/4/11

f 8/1/11 1/5/11 7/6/11

usemtl BackColor
vn -1 -0 0
f 7/6/12 1/5/12 8/1/12

f 4/4/12 8/1/12 1/5/12

f 7/6/8 8/5/8 5/7/8

f 3/2/6 1/4/6 5/3/6

g Mesh2 Model

l 1 4

l 1 3

l 1 7

l 7 5

l 7 8

l 8 6

l 4 8

l 4 2

l 3 2

l 3 5

l 5 6

l 2 6

