# Alias OBJ Model File
# Exported from SketchUp, (c) 2000-2012 Trimble Navigation Limited
# File units = meters

mtllib ReagentBottle.mtl

g Mesh1 Model

usemtl Color_M01
v -0.03 0 -0.0519615
vt 1.1811 2.04573
vn 0 -1 -0
v -0.03 0 0.0519615
vt 1.1811 -2.04573
v -0.06 0 -7.34788e-18
vt 2.3622 2.89287e-16
f 1/1/1 2/2/1 3/3/1

v 0.03 0 0.0519615
vt -1.1811 -2.04573
f 2/2/1 1/1/1 4/4/1

vn -0 1 0
f 3/3/2 2/2/2 1/1/2

vt 1.1811 0
vn -0.866025 0 0.5
v -0.06 0.105 -7.34788e-18
vt -1.1811 4.13386
vt -1.1811 0
f 2/5/3 5/6/3 3/7/3

v -0.03 0.105 0.0519615
vt 1.1811 4.13386
f 5/6/3 2/5/3 6/8/3

vn 0.866025 -0 -0.5
f 6/8/4 2/5/4 5/6/4

vn -5.63993e-16 0 1
v 0.03 0.105 0.0519615
f 2/7/5 7/8/5 6/6/5

f 7/8/5 2/7/5 4/5/5

vn 5.63993e-16 -0 -1
f 4/5/6 2/7/6 7/8/6

f 4/4/2 1/1/2 2/2/2

v 0.03 0 -0.0519615
vt -1.1811 2.04573
f 4/4/1 1/1/1 8/9/1

f 8/9/2 1/1/2 4/4/2

v -0.03 0.105 -0.0519615
vn 1.87998e-16 0 -1
f 9/8/7 8/7/7 1/5/7

v 0.03 0.105 -0.0519615
f 8/7/7 9/8/7 10/6/7

vn -1.87998e-16 -0 1
f 1/5/8 8/7/8 9/8/8

f 10/6/8 9/8/8 8/7/8

vn 0 1 -0
v -0.0261554 0.105 -0.0453025
vt -1.02974 1.78356
f 9/9/9 11/10/9 10/1/9

v -0.0523108 0.105 -4.22995e-18
vt -2.05948 1.66533e-16
f 9/9/9 12/11/9 11/10/9

vt -2.3622 2.89287e-16
f 12/11/9 9/9/9 5/12/9

vn -0 -1 0
f 5/12/10 9/9/10 12/11/10

vn -0.866025 0 -0.5
f 9/6/11 3/5/11 5/8/11

f 3/5/11 9/6/11 1/7/11

vn 0.866025 -0 0.5
f 5/8/12 3/5/12 9/6/12

f 3/7/4 5/6/4 2/5/4

f 1/7/12 9/6/12 3/5/12

v -0.0194696 0.125 8.4599e-18
vt 0.38326 1.85959
vn -0.428742 0.868854 -0.247534
vt -1.1811 0.269103
vt 1.1811 0.269103
f 13/13/13 9/14/13 5/15/13

v -0.0097348 0.125 -0.0168612
vt -0.38326 1.85959
f 9/14/13 13/13/13 14/16/13

vn 0.428742 -0.868854 0.247534
f 5/15/14 9/14/14 13/13/14

f 14/16/14 13/13/14 9/14/14

usemtl Color_M02
v -0.0230699 0.15 7.40241e-18
vt 0.454132 5.95746
vn -0.859368 -0.123759 -0.496156
vt -0.38326 4.96558
vt 0.38326 4.96558
f 15/17/15 14/18/15 13/19/15

v -0.011535 0.15 -0.0199791
vt -0.454132 5.95746
f 14/18/15 15/17/15 16/20/15

vn 0.859368 0.123759 0.496156
f 13/19/16 14/18/16 15/17/16

usemtl Color_M01
vt -0.38326 4.92126
vn -0.866025 3.2215e-16 -0.5
v -0.0194696 0.12 8.4599e-18
vt 0.38326 4.72441
vt 0.38326 4.92126
f 14/21/17 17/22/17 13/23/17

v -0.0097348 0.12 -0.0168612
vt -0.38326 4.72441
f 17/22/17 14/21/17 18/24/17

vn 0.866025 -3.2215e-16 0.5
f 13/23/18 17/22/18 14/21/18

v -0.0097348 0.12 0.0168612
vn -0.866025 3.10155e-16 0.5
f 19/22/19 13/21/19 17/24/19

v -0.0097348 0.125 0.0168612
f 13/21/19 19/22/19 20/23/19

vn 0.866025 -3.10155e-16 -0.5
f 20/23/20 19/22/20 13/21/20

vn -5.79358e-16 0 1
v 0.0097348 0.125 0.0168612
f 19/24/21 21/23/21 20/21/21

v 0.0097348 0.12 0.0168612
f 21/23/21 19/24/21 22/22/21

vn 5.79358e-16 -0 -1
f 22/22/22 19/24/22 21/23/22

vt -0.38326 1.61676
vn -2.48487e-16 0.884522 0.466499
v 0.0261554 0.105 0.0453025
vt 1.02974 0.350841
vt 0.38326 1.61676
f 19/25/23 23/26/23 22/27/23

v -0.0261554 0.105 0.0453025
vt -1.02974 0.350841
f 23/26/23 19/25/23 24/28/23

vn 2.48487e-16 -0.884522 -0.466499
f 24/28/24 19/25/24 23/26/24

vn -0.404 0.884522 0.233249
f 17/25/25 24/26/25 19/27/25

f 24/26/25 17/25/25 12/28/25

vn 0.404 -0.884522 -0.233249
f 12/28/26 17/25/26 24/26/26

vn -0.404 0.884522 -0.233249
f 17/27/27 11/28/27 12/26/27

f 11/28/27 17/27/27 18/25/27

vn 0.404 -0.884522 0.233249
f 12/26/28 11/28/28 17/27/28

f 11/10/10 12/11/10 9/9/10

vt -1.02974 4.13386
vn 1 -4.1354e-18 4.16642e-16
v -0.0261554 0.005 -0.0453025
vt 1.02974 0.19685
vn 0.5 -4.1354e-18 0.866025
vt 1.02974 4.13386
f 12/29/29 25/30/30 11/31/30

v -0.0523108 0.005 -4.22995e-18
vt -1.02974 0.19685
f 25/30/30 12/29/29 26/32/29

vn -1 4.1354e-18 -4.16642e-16
vn -0.5 4.1354e-18 -0.866025
f 26/32/31 12/29/31 25/30/32

vn 0.5 -3.67297e-33 -0.866025
f 24/29/33 26/30/29 12/31/29

v -0.0261554 0.005 0.0453025
f 26/30/29 24/29/33 27/32/33

vn -0.5 3.67297e-33 0.866025
f 27/32/34 24/29/34 26/30/31

v 0.0261554 0.005 0.0453025
vn -0.5 -3.67297e-33 -0.866025
f 24/31/33 28/32/35 27/30/33

f 28/32/35 24/31/33 23/29/35

vn 0.5 3.67297e-33 0.866025
f 27/30/34 28/32/36 24/31/34

vt 1.02974 -1.78356
vt 1.02974 1.78356
vt -1.02974 -1.78356
f 27/33/1 25/34/1 28/35/1

vt 2.05948 1.66533e-16
f 25/34/1 27/33/1 26/36/1

f 26/36/2 27/33/2 25/34/2

f 28/35/2 25/34/2 27/33/2

v 0.0261554 0.005 -0.0453025
f 28/35/1 25/34/1 29/10/1

f 29/10/2 25/34/2 28/35/2

v 0.0261554 0.105 -0.0453025
vn -0.5 0 0.866025
f 30/31/37 25/32/30 29/30/37

f 25/32/30 30/31/37 11/29/30

vn 0.5 -0 -0.866025
f 29/30/38 25/32/32 30/31/38

f 11/29/32 30/31/38 25/32/32

f 10/1/9 11/10/9 30/34/9

f 10/1/10 11/10/10 9/9/10

f 30/34/10 11/10/10 10/1/10

vn 8.92133e-17 0.884522 -0.466499
f 18/27/39 30/28/39 11/26/39

v 0.0097348 0.12 -0.0168612
f 30/28/39 18/27/39 31/25/39

vn -8.92133e-17 -0.884522 0.466499
f 11/26/40 30/28/40 18/27/40

f 31/25/40 18/27/40 30/28/40

vn 1.44839e-16 5.63993e-16 -1
f 14/23/41 31/24/41 18/22/41

v 0.0097348 0.125 -0.0168612
f 31/24/41 14/23/41 32/21/41

vn -1.44839e-16 -5.63993e-16 1
f 18/22/42 31/24/42 14/23/42

f 32/21/42 14/23/42 31/24/42

vn 1.00391e-16 0.868854 -0.495068
f 10/14/43 14/13/43 32/16/43

f 14/13/43 10/14/43 9/15/43

vn -1.00391e-16 -0.868854 0.495068
f 9/15/44 10/14/44 14/13/44

f 32/16/44 14/13/44 10/14/44

usemtl Color_M02
vn 1.31607e-16 -0.123759 -0.992312
f 16/17/45 32/18/45 14/19/45

v 0.011535 0.15 -0.0199791
f 32/18/45 16/17/45 33/20/45

vn -1.31607e-16 0.123759 0.992312
f 14/19/46 32/18/46 16/17/46

f 33/20/46 16/17/46 32/18/46

vt -0.454132 0.78658
v -0.00926988 0.15 -0.0160559
vt -0.364956 0.632122
vt 0.454132 0.78658
f 16/37/9 34/38/9 33/39/9

v -0.0185398 0.15 8.4599e-18
vt -0.729912 -3.33067e-16
f 16/37/9 35/40/9 34/38/9

vt -0.908264 -2.91434e-16
f 35/40/9 16/37/9 15/41/9

usemtl Color_M01
f 15/41/10 16/37/10 35/40/10

usemtl Color_M02
f 16/20/16 15/17/16 14/18/16

usemtl Color_M01
f 34/38/10 35/40/10 16/37/10

f 33/39/10 34/38/10 16/37/10

usemtl Color_M02
v 0.00926988 0.15 -0.0160559
vt 0.364956 0.632122
f 33/39/9 34/38/9 36/42/9

usemtl Color_M01
f 36/42/10 34/38/10 33/39/10

usemtl Color_M02
v 0.0185398 0.15 1.40998e-18
vt 0.729912 -5.55112e-17
f 33/39/9 36/42/9 37/43/9

usemtl Color_M01
f 37/43/10 36/42/10 33/39/10

usemtl Color_M02
v 0.0230699 0.15 2.46747e-18
vt 0.908264 -9.71445e-17
f 33/39/9 37/43/9 38/44/9

usemtl Color_M01
f 38/44/10 37/43/10 33/39/10

usemtl Color_M02
v 0.011535 0.15 0.0199791
vt 0.454132 -0.78658
f 37/43/9 39/45/9 38/44/9

v 0.00926988 0.15 0.0160559
vt 0.364956 -0.632122
f 40/46/9 39/45/9 37/43/9

v -0.00926988 0.15 0.0160559
vt -0.364956 -0.632122
f 41/47/9 39/45/9 40/46/9

v -0.011535 0.15 0.0199791
vt -0.454132 -0.78658
f 41/47/9 42/48/9 39/45/9

f 35/40/9 42/48/9 41/47/9

f 42/48/9 35/40/9 15/41/9

usemtl Color_M01
f 15/41/10 35/40/10 42/48/10

f 41/47/10 42/48/10 35/40/10

f 39/45/10 42/48/10 41/47/10

usemtl Color_M02
vn -5.8981e-16 -0.123759 0.992312
f 20/18/47 39/17/47 42/20/47

f 39/17/47 20/18/47 21/19/47

vn 5.8981e-16 0.123759 -0.992312
f 21/19/48 20/18/48 39/17/48

usemtl Color_M01
vn -2.78983e-16 0.868854 0.495068
f 20/16/49 7/15/49 21/13/49

f 7/15/49 20/16/49 6/14/49

vn 2.78983e-16 -0.868854 -0.495068
f 6/14/50 20/16/50 7/15/50

vn -0.428742 0.868854 0.247534
f 13/16/51 6/15/51 20/13/51

f 6/15/51 13/16/51 5/14/51

vn 0.428742 -0.868854 -0.247534
f 5/14/52 13/16/52 6/15/52

f 20/13/52 6/15/52 13/16/52

usemtl Color_M02
vn -0.859368 -0.123759 0.496156
f 20/19/53 15/20/53 13/18/53

f 15/20/53 20/19/53 42/17/53

vn 0.859368 0.123759 -0.496156
f 42/17/54 20/19/54 15/20/54

f 42/20/48 39/17/48 20/18/48

f 13/18/54 15/20/54 20/19/54

usemtl Color_M01
f 6/4/9 12/11/9 5/12/9

f 12/11/9 6/4/9 24/35/9

f 5/12/10 12/11/10 6/4/10

f 24/35/10 6/4/10 12/11/10

f 24/35/9 6/4/9 7/2/9

f 7/2/10 6/4/10 24/35/10

f 6/6/6 7/8/6 2/7/6

f 24/35/9 7/2/9 23/33/9

f 23/33/10 7/2/10 24/35/10

v 0.0523108 0.105 -1.40998e-18
vt 2.05948 5.55112e-17
f 23/33/9 7/2/9 43/49/9

f 43/49/10 7/2/10 23/33/10

v 0.06 0.105 -0
vt 2.3622 0
f 43/49/9 7/2/9 44/50/9

f 44/50/10 7/2/10 43/49/10

vn 0.866025 0 0.5
v 0.06 0 -0
f 7/6/55 45/5/55 44/8/55

f 45/5/55 7/6/55 4/7/55

vn -0.866025 -0 -0.5
f 4/7/56 7/6/56 45/5/56

f 44/8/56 45/5/56 7/6/56

vn 0.866025 0 -0.5
f 8/5/57 44/6/57 45/7/57

f 44/6/57 8/5/57 10/8/57

vn -0.866025 -0 0.5
f 45/7/58 44/6/58 8/5/58

f 10/8/58 8/5/58 44/6/58

f 10/1/9 43/49/9 44/50/9

f 10/1/9 30/34/9 43/49/9

f 43/49/10 30/34/10 10/1/10

v 0.0523108 0.005 -1.40998e-18
vn -1 0 -1.92296e-16
f 30/29/37 46/30/59 43/31/59

f 46/30/59 30/29/37 29/32/37

vn 1 -0 1.92296e-16
f 43/31/60 46/30/60 30/29/38

f 28/30/35 43/29/59 46/32/59

f 43/29/59 28/30/35 23/31/35

f 23/31/36 28/30/36 43/29/60

f 23/29/36 24/31/34 28/32/36

f 46/32/60 43/29/60 28/30/36

vt -2.05948 5.55112e-17
f 28/35/1 29/10/1 46/51/1

f 46/51/2 29/10/2 28/35/2

f 29/32/38 30/29/38 46/30/60

v 0.0194696 0.12 1.40998e-18
vn 0.404 0.884522 0.233249
f 47/27/61 23/28/61 43/26/61

f 23/28/61 47/27/61 22/25/61

vn -0.404 -0.884522 -0.233249
f 22/25/62 47/27/62 23/28/62

vn 0.866025 3.10155e-16 0.5
f 47/22/63 21/21/63 22/24/63

v 0.0194696 0.125 1.40998e-18
f 21/21/63 47/22/63 48/23/63

vn -0.866025 -3.10155e-16 -0.5
f 22/24/64 21/21/64 47/22/64

f 48/23/64 47/22/64 21/21/64

vn 0.866025 3.99689e-16 -0.5
f 31/22/65 48/21/65 47/24/65

f 48/21/65 31/22/65 32/23/65

vn -0.866025 -3.99689e-16 0.5
f 47/24/66 48/21/66 31/22/66

f 32/23/66 31/22/66 48/21/66

vn 0.428742 0.868854 -0.247534
f 48/16/67 10/15/67 32/13/67

f 10/15/67 48/16/67 44/14/67

vn -0.428742 -0.868854 0.247534
f 32/13/68 10/15/68 48/16/68

f 44/14/68 48/16/68 10/15/68

vn 0.428742 0.868854 0.247534
f 48/13/69 7/14/69 44/15/69

f 7/14/69 48/13/69 21/16/69

vn -0.428742 -0.868854 -0.247534
f 21/16/70 48/13/70 7/14/70

usemtl Color_M02
vn 0.859368 -0.123759 0.496156
f 38/17/71 21/18/71 48/19/71

f 21/18/71 38/17/71 39/20/71

vn -0.859368 0.123759 -0.496156
f 39/20/72 38/17/72 21/18/72

usemtl Color_M01
f 38/44/10 39/45/10 37/43/10

f 37/43/10 39/45/10 40/46/10

f 40/46/10 39/45/10 41/47/10

usemtl Color_M02
f 48/19/72 21/18/72 38/17/72

vn 0.859368 -0.123759 -0.496156
f 48/18/73 33/17/73 38/20/73

f 33/17/73 48/18/73 32/19/73

vn -0.859368 0.123759 0.496156
f 38/20/74 33/17/74 48/18/74

f 32/19/74 48/18/74 33/17/74

usemtl Color_M01
f 44/15/70 7/14/70 48/13/70

f 21/13/50 7/15/50 20/16/50

f 20/21/22 21/23/22 19/24/22

f 44/50/10 43/49/10 10/1/10

vn 0.404 0.884522 -0.233249
f 47/25/75 30/26/75 31/27/75

f 30/26/75 47/25/75 43/28/75

vn -0.404 -0.884522 0.233249
f 31/27/76 30/26/76 47/25/76

f 43/28/76 47/25/76 30/26/76

f 43/26/62 23/28/62 47/27/62

f 22/27/24 23/26/24 19/25/24

vt -2.3622 0
f 4/4/1 8/9/1 45/52/1

f 45/52/2 8/9/2 4/4/2

f 12/31/31 26/30/31 24/29/34

f 18/24/18 14/21/18 17/22/18

f 18/25/28 17/27/28 11/28/28

f 11/31/32 25/30/32 12/29/31

f 19/27/26 24/26/26 17/25/26

f 17/24/20 13/21/20 19/22/20

g Mesh2 Model

l 45 8

l 4 45

l 2 4

l 3 2

l 1 3

l 8 1

l 8 10

l 10 9

l 44 10

l 45 44

l 7 44

l 4 7

l 6 7

l 2 6

l 5 6

l 3 5

l 9 5

l 1 9

l 9 14

l 14 16

l 14 18

l 14 13

l 32 14

l 32 10

l 32 33

l 31 32

l 47 31

l 22 47

l 19 22

l 17 19

l 18 17

l 31 18

l 31 30

l 30 11

l 43 30

l 23 43

l 24 23

l 12 24

l 11 12

l 18 11

l 17 12

l 17 13

l 5 13

l 13 15

l 20 13

l 6 20

l 20 42

l 19 20

l 24 19

l 20 21

l 7 21

l 21 39

l 22 21

l 23 22

l 48 21

l 48 44

l 48 38

l 47 48

l 47 43

l 48 32

l 39 38

l 42 39

l 15 42

l 16 15

l 33 16

l 38 33

g Mesh3 Model

l 46 29

l 28 46

l 27 28

l 26 27

l 25 26

l 29 25

g Mesh4 Model

l 40 37

l 41 40

l 35 41

l 34 35

l 36 34

l 37 36

