# Alias OBJ Model File
# Exported from SketchUp, (c) 2000-2012 Trimble Navigation Limited
# File units = meters

mtllib Erlenmeyer.mtl

g Mesh1 Model

usemtl Color_M01
v -0.0424264 0 -0.0424264
vt 1.67033 1.67033
vn 0 -1 -0
v -0.0424264 0 0.0424264
vt 1.67033 -1.67033
v -0.06 0 -0
vt 2.3622 0
f 1/1/1 2/2/1 3/3/1

v 0 0 -0.06
vt 0 2.3622
f 2/2/1 1/1/1 4/4/1

vn -0 1 0
f 3/3/2 2/2/2 1/1/2

vt -0.903977 -1.10652
vn -0.796371 0.507092 0.329624
vt 0.903977 -1.10652
vn -0.796322 0.507023 0.329847
v -0.0109024 0.07 0.0109321
vt 0.233376 2.09083
f 3/5/3 2/6/4 5/7/3

vn 0.796371 -0.507092 -0.329624
vn 0.796322 -0.507023 -0.329847
f 5/7/5 2/6/6 3/5/5

vt -0.231556 2.09059
vn -0.330278 0.506957 0.796185
vt -0.902837 -1.10662
vn -0.330085 0.506888 0.796309
v -4.59409e-06 0.07 0.0154528
vt 0.232942 2.09059
f 5/8/7 2/9/8 6/10/8

vn 0.330085 -0.506888 -0.796309
vn 0.330278 -0.506957 -0.796185
f 6/10/9 2/9/9 5/8/10

vt 0.232648 2.09083
vt -0.903977 -1.10608
v -2.25597e-17 0 0.06
vt 0.903977 -1.10608
vn -0.329893 0.506819 0.796432
f 6/11/8 2/12/8 7/13/11

vn 0.329893 -0.506819 -0.796432
f 7/13/12 2/12/9 6/11/9

vt 8.88178e-16 -2.3622
f 2/2/1 4/4/1 7/14/1

f 4/4/2 1/1/2 2/2/2

v -0.0109024 0.07 -0.0108957
vt 0.232397 2.09083
vn -0.330035 0.507114 -0.796186
vt -0.903977 -1.10687
vt 0.903977 -1.10687
vn -0.329811 0.507183 -0.796235
f 8/15/13 4/16/13 1/17/14

vn 0.329811 -0.507183 0.796235
vn 0.330035 -0.507114 0.796186
f 1/17/15 4/16/16 8/15/16

v -4.59409e-06 0.07 -0.0154164
vt -0.232394 2.09107
vn -0.330258 0.507045 -0.796138
vt -0.905116 -1.10633
vt 0.232104 2.09107
f 9/18/17 4/19/13 8/20/13

vn 0.330258 -0.507045 0.796138
f 8/20/16 4/19/16 9/18/18

vt 0.232453 2.09078
vn 0.329836 0.507187 -0.796222
v 0.0424264 0 -0.0424264
vt -0.903906 -1.1069
vt 0.904047 -1.10687
f 9/21/19 10/22/19 4/23/19

v 0.0108932 0.07 -0.0108957
vt -0.232045 2.09089
f 10/22/19 9/21/19 11/24/19

vn -0.329836 -0.507187 0.796222
f 4/23/20 10/22/20 9/21/20

v 0.0424264 0 0.0424264
vt -1.67033 -1.67033
vt -1.67033 1.67033
f 12/25/1 4/4/1 10/26/1

f 7/14/1 4/4/1 12/25/1

f 7/14/2 4/4/2 2/2/2

f 12/25/2 4/4/2 7/14/2

f 10/26/2 4/4/2 12/25/2

v 0.06 0 -0
vt -2.3622 0
f 12/25/1 10/26/1 13/27/1

f 13/27/2 10/26/2 12/25/2

vt 0.903977 -1.10709
vn 0.796303 0.507215 -0.329596
v 0.0154072 0.07 1.81693e-05
vt -0.23279 2.09083
vt -0.903977 -1.10709
vn 0.79618 0.507284 -0.329789
f 10/28/21 14/29/21 13/30/22

vn -0.79618 -0.507284 0.329789
vn -0.796303 -0.507215 0.329596
f 13/30/23 14/29/24 10/28/24

vt 0.902838 -1.10723
vn 0.796328 0.507169 0.329607
vt 0.231176 2.09059
vn 0.796377 0.507238 0.329384
v 0.0108932 0.07 0.0109321
vt -0.233807 2.09059
f 13/31/25 14/32/26 15/33/25

vn -0.796328 -0.507169 -0.329607
vn -0.796377 -0.507238 -0.329384
f 15/33/27 14/32/28 13/31/27

vt 0.231176 2.75591
vn 0.924079 -3.57763e-17 0.382202
v 0.0108932 0.1445 0.0109321
vt -0.233807 5.68898
vt -0.233807 2.75591
f 14/34/29 16/35/29 15/36/29

v 0.0154072 0.1445 1.81693e-05
vt 0.231176 5.68898
f 16/35/29 14/34/29 17/37/29

vn -0.924079 3.57763e-17 -0.382202
f 15/36/30 16/35/30 14/34/30

vt 0.231222 5.68898
vn 0.383166 0 0.92368
vt -0.233276 2.75591
vt 0.231222 2.75591
f 16/38/31 6/39/31 15/40/31

v -4.59409e-06 0.1445 0.0154528
vt -0.233276 5.68898
f 6/39/31 16/38/31 18/41/31

vn -0.383166 -0 -0.92368
f 15/40/32 6/39/32 16/38/32

vt -0.233276 2.09107
vn 0.33032 0.50677 0.796287
vt -0.905116 -1.10573
vn 0.330097 0.506839 0.796336
vt 0.231222 2.09107
f 6/42/33 7/43/34 15/44/34

vn -0.330097 -0.506839 -0.796336
vn -0.33032 -0.50677 -0.796287
f 15/44/35 7/43/35 6/42/36

vt 0.231515 2.09083
vt -0.903977 -1.10627
vt 0.903977 -1.10627
vn 0.329873 0.506908 0.796384
f 15/45/34 7/46/34 12/47/37

vn -0.329873 -0.506908 -0.796384
f 12/47/38 7/46/35 15/45/35

vt 0.903977 -1.10669
vt -0.233514 2.09083
vt -0.903977 -1.10669
vn 0.79628 0.5071 0.32983
f 13/48/25 15/49/25 12/50/39

vn -0.79628 -0.5071 -0.32983
f 12/50/40 15/49/27 13/48/27

f 18/41/32 16/38/32 6/39/32

vt 0.00018087 -0.608376
v 0.0108932 0.1445 -0.0108957
vt -0.428867 0.428966
vt -0.428867 -0.430396
f 18/51/1 19/52/1 16/53/1

v -4.59409e-06 0.1445 -0.0154164
vt 0.00018087 0.606945
f 18/51/1 20/54/1 19/52/1

v -0.0109024 0.1445 0.0109321
vt 0.429228 -0.430396
f 21/55/1 20/54/1 18/51/1

v -0.0109024 0.1445 -0.0108957
vt 0.429228 0.428966
f 21/55/1 22/56/1 20/54/1

v -0.0154164 0.1445 1.81693e-05
vt 0.606945 -0.000715329
f 22/56/1 21/55/1 23/57/1

f 23/57/2 21/55/2 22/56/2

vt -0.231314 5.68898
vn -0.924079 0 0.382202
vt 0.233669 2.75591
vt 0.233669 5.68898
f 23/58/41 5/59/41 21/60/41

v -0.0154164 0.07 1.81693e-05
vt -0.231314 2.75591
f 5/59/41 23/58/41 24/61/41

vn 0.924079 -0 -0.382202
f 21/60/42 5/59/42 23/58/42

vt -0.231556 2.75591
vn -0.383166 0 0.92368
vt 0.232942 5.68898
vt -0.231556 5.68898
f 5/62/43 18/63/43 21/64/43

vt 0.232942 2.75591
f 18/63/43 5/62/43 6/65/43

vn 0.383166 -0 -0.92368
f 6/65/44 5/62/44 18/63/44

f 21/64/44 18/63/44 5/62/44

f 18/51/2 20/54/2 21/55/2

f 19/52/2 20/54/2 18/51/2

vt 0.232728 3.73636
vn 0.220797 -0.817278 -0.532265
v 0.0135905 0.147 -0.0136155
vt -0.288829 3.90717
vt -0.23177 3.73636
f 20/66/45 25/67/45 19/68/45

v -1.38404e-05 0.147 -0.0192589
vt 0.291029 3.90717
f 25/67/45 20/66/45 26/69/45

vn -0.220797 0.817278 0.532265
f 26/69/46 20/66/46 25/67/46

vt 0.232104 3.73241
vn -0.220502 -0.817819 -0.531555
vt -0.290023 3.90344
vt -0.232394 3.73241
f 22/70/47 26/71/47 20/72/47

v -0.0136182 0.147 -0.0136155
vt 0.289836 3.90344
f 26/71/47 22/70/47 27/73/47

vn 0.220502 0.817819 0.531555
f 27/73/48 22/70/48 26/71/48

vt 0.232637 3.73445
vn -0.532156 -0.817536 -0.220101
vt -0.29043 3.90537
vt -0.232347 3.73445
f 23/74/49 27/75/49 22/76/49

v -0.0192533 0.147 8.90934e-06
vt 0.290034 3.90537
f 27/75/49 23/74/49 28/77/49

vn 0.532156 0.817536 0.220101
f 28/77/50 23/74/50 27/75/50

vt -0.231314 3.73897
vn -0.532866 -0.816995 0.220395
v -0.0136182 0.147 0.0136333
vt 0.291078 3.90966
vt -0.289386 3.90966
f 23/78/51 29/79/51 28/80/51

vt 0.233669 3.73897
f 29/79/51 23/78/51 21/81/51

vn 0.532866 0.816995 -0.220395
f 28/80/52 29/79/52 23/78/52

vt 0.291078 5.7874
v -0.0192533 0.1495 8.90934e-06
vt -0.289386 5.88583
vt -0.289386 5.7874
f 29/82/41 30/83/41 28/84/41

v -0.0136182 0.1495 0.0136333
vt 0.291078 5.88583
f 30/83/41 29/82/41 31/85/41

f 31/85/42 29/82/42 30/83/42

vt -0.289567 5.7874
v -1.38404e-05 0.1495 0.0192768
vt 0.290292 5.88583
vt -0.289567 5.88583
f 29/86/43 32/87/43 31/88/43

v -1.38404e-05 0.147 0.0192768
vt 0.290292 5.7874
f 32/87/43 29/86/43 33/89/43

f 33/89/44 29/86/44 32/87/44

vt -0.231556 3.74332
vn -0.221214 -0.816509 0.533271
vt 0.290292 3.91381
vt -0.289567 3.91381
f 21/90/53 33/91/53 29/92/53

vt 0.232942 3.74332
f 33/91/53 21/90/53 18/93/53

vn 0.221214 0.816509 -0.533271
f 29/92/54 33/91/54 21/90/54

f 18/93/54 21/90/54 33/91/54

vt -0.233276 3.7473
vn 0.22151 -0.815962 0.533984
v 0.0135905 0.147 0.0136333
vt 0.28856 3.91755
vt -0.291298 3.91755
f 18/94/55 34/95/55 33/96/55

vt 0.231222 3.7473
f 34/95/55 18/94/55 16/97/55

vn -0.22151 0.815962 -0.533984
f 33/96/56 34/95/56 18/94/56

v 0.0135905 0.1495 0.0136333
vt 0.28856 5.88583
vt -0.291298 5.7874
vt 0.28856 5.7874
f 35/98/31 33/99/31 34/100/31

vt -0.291298 5.88583
f 33/99/31 35/98/31 32/101/31

f 34/100/32 33/99/32 35/98/32

f 32/101/32 35/98/32 33/99/32

v -1.38404e-05 0.1495 0.0159038
vt -0.000544899 -0.626133
vn 0 1 -0
vt -0.000544899 -0.758927
vt 0.535059 -0.536745
f 36/102/57 32/103/57 35/104/57

v -0.0112324 0.1495 0.01125
vt -0.44222 -0.442915
f 37/105/57 32/103/57 36/102/57

vt -0.536148 -0.536745
f 37/105/57 31/106/57 32/103/57

v -0.0158818 0.1495 8.90934e-06
vt -0.625266 -0.000350761
f 38/107/57 31/106/57 37/105/57

vt -0.758003 -0.000350761
f 31/106/57 38/107/57 30/108/57

vn -0 -1 0
f 30/108/58 38/107/58 31/106/58

v -0.0136182 0.1495 -0.0136155
vt -0.536148 0.536044
f 38/107/57 39/109/57 30/108/57

v -0.0112324 0.1495 -0.0112322
vt -0.44222 0.442214
f 39/109/57 38/107/57 40/110/57

f 30/108/58 39/109/58 38/107/58

vt -0.29043 5.88583
vn -0.924079 0 -0.382202
vt 0.290034 5.7874
vt 0.290034 5.88583
f 39/111/59 28/112/59 30/113/59

vt -0.29043 5.7874
f 28/112/59 39/111/59 27/114/59

vn 0.924079 -0 0.382202
f 30/113/60 28/112/60 39/111/60

f 28/84/42 30/83/42 29/82/42

f 27/114/60 39/111/60 28/112/60

vt 0.289836 5.88583
vn -0.383166 0 -0.92368
vt -0.290023 5.7874
vt 0.289836 5.7874
f 39/115/61 26/116/61 27/117/61

v -1.38404e-05 0.1495 -0.0192589
vt -0.290023 5.88583
f 26/116/61 39/115/61 41/118/61

vn 0.383166 -0 0.92368
f 27/117/62 26/116/62 39/115/62

f 41/118/62 39/115/62 26/116/62

vt -0.000544899 0.758226
f 39/109/57 40/110/57 41/119/57

f 40/110/58 38/107/58 39/109/58

vt -0.239302 5.88583
vn 0.924079 0 0.382202
v -0.0112324 0.147 -0.0112322
vt 0.239623 5.7874
vt 0.239623 5.88583
f 38/120/63 42/121/63 40/122/63

v -0.0158818 0.147 8.90934e-06
vt -0.239302 5.7874
f 42/121/63 38/120/63 43/123/63

vn -0.924079 -0 -0.382202
f 43/123/64 38/120/64 42/121/64

vt -0.240271 5.88583
vn 0.924079 0 -0.382202
vt 0.238653 5.7874
vt 0.238653 5.88583
f 37/124/65 43/125/65 38/126/65

v -0.0112324 0.147 0.01125
vt -0.240271 5.7874
f 43/125/65 37/124/65 44/127/65

vn -0.924079 -0 0.382202
f 44/127/66 37/124/66 43/125/66

vt 0.23876 5.88583
vn 0.383166 0 -0.92368
v -1.38404e-05 0.147 0.0159038
vt -0.239409 5.7874
vt 0.23876 5.7874
f 37/128/67 45/129/67 44/130/67

vt -0.239409 5.88583
f 45/129/67 37/128/67 36/131/67

vn -0.383166 -0 0.92368
f 44/130/68 45/129/68 37/128/68

f 42/110/57 44/105/57 45/102/57

f 44/105/57 42/110/57 43/107/57

f 43/107/58 42/110/58 44/105/58

f 45/102/58 44/105/58 42/110/58

v -1.38404e-05 0.147 -0.015886
vt -0.000544899 0.625432
f 42/110/57 45/102/57 46/132/57

f 46/132/58 45/102/58 42/110/58

v 0.0112047 0.147 0.01125
vt 0.44113 -0.442915
f 46/132/57 45/102/57 47/133/57

f 47/133/58 45/102/58 46/132/58

vt 0.240416 5.88583
vt -0.237753 5.7874
vt 0.240416 5.7874
f 36/134/61 47/135/61 45/136/61

v 0.0112047 0.1495 0.01125
vt -0.237753 5.88583
f 47/135/61 36/134/61 48/137/61

f 45/136/62 47/135/62 36/134/62

f 48/137/62 36/134/62 47/135/62

f 36/102/57 35/104/57 48/133/57

f 35/104/58 32/103/58 36/102/58

f 36/102/58 32/103/58 37/105/58

f 32/103/58 31/106/58 37/105/58

f 31/88/44 32/87/44 29/86/44

f 37/105/58 31/106/58 38/107/58

f 38/126/66 43/125/66 37/124/66

f 36/131/68 37/128/68 45/129/68

f 48/133/58 35/104/58 36/102/58

v 0.0158541 0.1495 8.90934e-06
vt 0.624176 -0.000350761
f 48/133/57 35/104/57 49/138/57

f 49/138/58 35/104/58 48/133/58

v 0.0192256 0.1495 8.90934e-06
vt 0.756913 -0.000350761
f 49/138/57 35/104/57 50/139/57

f 50/139/58 35/104/58 49/138/58

vt -0.291495 5.88583
v 0.0192256 0.147 8.90934e-06
vt 0.288969 5.7874
vt 0.288969 5.88583
f 35/140/63 51/141/63 50/142/63

vt -0.291495 5.7874
f 51/141/63 35/140/63 34/143/63

f 34/143/64 35/140/64 51/141/64

f 50/142/64 51/141/64 35/140/64

vt 0.290847 5.7874
vt -0.289617 5.88583
vt -0.289617 5.7874
f 25/144/65 50/145/65 51/146/65

v 0.0135905 0.1495 -0.0136155
vt 0.290847 5.88583
f 50/145/65 25/144/65 52/147/65

f 51/146/66 50/145/66 25/144/66

f 52/147/66 25/144/66 50/145/66

vt -0.288829 5.7874
vt 0.291029 5.88583
vt -0.288829 5.88583
f 25/148/67 41/149/67 52/150/67

vt 0.291029 5.7874
f 41/149/67 25/148/67 26/151/67

f 26/151/68 25/148/68 41/149/68

f 52/150/68 41/149/68 25/148/68

v 0.0112047 0.1495 -0.0112322
vt 0.44113 0.442214
vt 0.535059 0.536044
f 41/119/57 53/152/57 52/153/57

v -1.38404e-05 0.1495 -0.015886
f 41/119/57 54/132/57 53/152/57

f 41/119/57 40/110/57 54/132/57

f 41/119/58 40/110/58 39/109/58

f 54/132/58 40/110/58 41/119/58

vt -0.239029 5.7874
vt 0.239141 5.88583
vt -0.239029 5.88583
f 42/154/31 54/155/31 40/156/31

vt 0.239141 5.7874
f 54/155/31 42/154/31 46/157/31

f 46/157/32 42/154/32 54/155/32

f 40/156/32 54/155/32 42/154/32

f 40/122/64 42/121/64 38/120/64

vt -0.240147 5.7874
vt 0.238022 5.88583
vt -0.240147 5.88583
f 46/158/43 53/159/43 54/160/43

v 0.0112047 0.147 -0.0112322
vt 0.238022 5.7874
f 53/159/43 46/158/43 55/161/43

f 55/161/44 46/158/44 53/159/44

f 46/132/57 47/133/57 55/152/57

f 55/152/58 47/133/58 46/132/58

v 0.0158541 0.147 8.90934e-06
f 55/152/57 47/133/57 56/138/57

f 56/138/58 47/133/58 55/152/58

vt 0.240688 5.7874
vt -0.238237 5.88583
vt -0.238237 5.7874
f 47/162/59 49/163/59 56/164/59

vt 0.240688 5.88583
f 49/163/59 47/162/59 48/165/59

f 48/165/60 47/162/60 49/163/60

f 56/164/60 49/163/60 47/162/60

vt -0.24004 5.88583
vt 0.238885 5.7874
vt 0.238885 5.88583
f 53/166/41 56/167/41 49/168/41

vt -0.24004 5.7874
f 56/167/41 53/166/41 55/169/41

f 49/168/42 56/167/42 53/166/42

f 55/169/42 53/166/42 56/167/42

f 52/153/57 53/152/57 49/138/57

f 52/153/58 53/152/58 41/119/58

f 49/138/58 53/152/58 52/153/58

f 52/153/57 49/138/57 50/139/57

f 50/139/58 49/138/58 52/153/58

f 53/152/58 54/132/58 41/119/58

f 54/160/44 53/159/44 46/158/44

vt -0.232498 3.74402
vn 0.533873 -0.816225 -0.220811
vt 0.290847 3.91438
vt -0.289617 3.91438
f 17/170/69 25/171/69 51/172/69

vt 0.232485 3.74402
f 25/171/69 17/170/69 19/173/69

vn -0.533873 0.816225 0.220811
f 19/173/70 17/170/70 25/171/70

vt -0.232498 5.68898
vn 0.924079 2.63938e-17 -0.382202
vt 0.232485 2.75591
vt 0.232485 5.68898
f 17/174/71 11/175/71 19/176/71

vt -0.232498 2.75591
f 11/175/71 17/174/71 14/177/71

vn -0.924079 -2.63938e-17 0.382202
f 14/177/72 17/174/72 11/175/72

f 17/37/30 14/34/30 16/35/30

vt -0.606584 -0.000715329
f 16/53/1 19/52/1 17/178/1

f 16/53/2 19/52/2 18/51/2

f 17/178/2 19/52/2 16/53/2

f 19/176/72 11/175/72 17/174/72

vt 0.23177 5.68898
vn -0.383166 -1.37083e-16 0.92368
vt -0.232728 2.75591
vt 0.23177 2.75591
f 19/179/73 9/180/73 11/181/73

vt -0.232728 5.68898
f 9/180/73 19/179/73 20/182/73

vn 0.383166 1.37083e-16 -0.92368
f 11/181/74 9/180/74 19/179/74

f 11/24/20 9/21/20 10/22/20

vt 0.905115 -1.10655
vt 0.232485 2.09107
vn 0.796427 0.507146 -0.329404
vt -0.232498 2.09107
f 10/183/21 11/184/75 14/185/21

vn -0.796427 -0.507146 0.329404
f 14/185/24 11/184/76 10/183/24

f 20/182/74 19/179/74 9/180/74

f 19/68/46 25/67/46 20/66/46

vt -0.232394 2.75591
vt 0.232104 5.68898
vt -0.232394 5.68898
f 9/186/61 22/187/61 20/188/61

vt 0.232104 2.75591
f 22/187/61 9/186/61 8/189/61

f 8/189/62 9/186/62 22/187/62

f 20/188/62 22/187/62 9/186/62

f 20/54/2 22/56/2 21/55/2

f 20/72/48 26/71/48 22/70/48

vt 0.232637 2.75591
vt -0.232347 5.68898
vt -0.232347 2.75591
f 24/190/59 22/191/59 8/192/59

vt 0.232637 5.68898
f 22/191/59 24/190/59 23/193/59

f 23/193/60 24/190/60 22/191/60

f 24/61/42 23/58/42 5/59/42

vt -0.902838 -1.10706
vt 0.233669 2.09059
vt -0.231314 2.09059
vn -0.796419 0.50716 0.329401
f 3/194/3 5/195/3 24/196/77

vn 0.796419 -0.50716 -0.329401
f 24/196/78 5/195/5 3/194/5

vt -0.232347 2.09059
vn -0.796301 0.507219 -0.329596
vt 0.902838 -1.10734
vt 0.232637 2.09059
vn -0.79635 0.507287 -0.329372
f 8/197/79 3/198/79 24/199/80

vn 0.79635 -0.507287 0.329372
vn 0.796301 -0.507219 0.329596
f 24/199/81 3/198/82 8/197/82

vt -0.903977 -1.1068
vn -0.796253 0.50715 -0.329819
vt 0.903977 -1.1068
vt -0.232054 2.09083
f 1/200/83 3/201/79 8/202/79

vn 0.796253 -0.50715 0.329819
f 8/202/82 3/201/82 1/200/84

f 8/192/60 22/191/60 24/190/60

f 22/76/50 27/75/50 23/74/50

vt 0.231176 3.74855
vn 0.534586 -0.815678 0.221106
vt -0.291495 3.91868
vt -0.233807 3.74855
f 17/203/85 34/204/85 16/205/85

vt 0.288969 3.91868
f 34/204/85 17/203/85 51/206/85

vn -0.534586 0.815678 -0.221106
f 16/205/86 34/204/86 17/203/86

f 16/97/56 18/94/56 34/95/56

f 51/206/86 17/203/86 34/204/86

f 51/172/70 25/171/70 17/170/70

f 21/81/52 23/78/52 29/79/52

g Mesh2 Model

l 13 10

l 12 13

l 7 12

l 2 7

l 3 2

l 1 3

l 4 1

l 10 4

l 10 11

l 14 11

l 15 14

l 6 15

l 5 6

l 24 5

l 8 24

l 9 8

l 4 9

l 9 20

l 11 9

l 11 19

l 19 25

l 19 20

l 17 19

l 14 17

l 14 13

l 17 51

l 16 17

l 15 16

l 12 15

l 16 34

l 18 16

l 6 18

l 7 6

l 18 33

l 21 18

l 5 21

l 2 5

l 21 29

l 23 21

l 24 23

l 3 24

l 23 28

l 22 23

l 8 22

l 1 8

l 22 27

l 20 22

l 20 26

l 26 27

l 25 26

l 51 25

l 34 51

l 33 34

l 29 33

l 28 29

l 27 28

l 27 39

l 41 39

l 52 41

l 50 52

l 35 50

l 32 35

l 31 32

l 30 31

l 39 30

l 28 30

l 29 31

l 33 32

l 34 35

l 51 50

l 25 52

l 26 41

g Mesh3 Model

l 48 49

l 36 48

l 37 36

l 38 37

l 40 38

l 54 40

l 53 54

l 49 53

l 49 56

l 47 56

l 45 47

l 44 45

l 43 44

l 42 43

l 46 42

l 55 46

l 56 55

l 53 55

l 54 46

l 40 42

l 38 43

l 37 44

l 36 45

l 48 47

