# Alias OBJ Model File
# Exported from SketchUp, (c) 2000-2012 Trimble Navigation Limited
# File units = meters

mtllib Erlenmeyer.mtl

g Mesh1 Component_5_1 Model

usemtl Color_M02
v -0.0155169 0.0954606 0.0155588
vt 1.84653 8.7965
vn 0.909632 0.176133 -0.376226
v -0.0232298 0.102313 0.000118477
vt 2.69271 9.13864
v -0.0164606 0.102313 0.016485
vt 1.82219 9.13864
f 1/1/1 2/2/1 3/3/1

v -0.0218976 0.0954606 0.000131566
vt 2.66709 8.7965
f 2/2/1 1/1/1 4/4/1

vn -0.909632 -0.176133 0.376226
f 3/3/2 2/2/2 1/1/2

vt 3.03206 4.16801
vn 0 1 -0
v -0.0193557 0.102313 0.0193772
vt 3.22248 3.22142
vt 3.36478 3.36358
f 2/5/3 5/6/3 3/7/3

v -0.0273212 0.102313 0.000118477
vt 2.83097 4.16801
f 5/6/3 2/5/3 6/8/3

vn -0 -1 0
f 6/8/4 2/5/4 5/6/4

v -0.0193557 0.102313 -0.0191402
vt 3.22248 5.1146
f 2/5/3 7/9/3 6/8/3

v -0.0164606 0.102313 -0.0162481
vt 3.36478 4.97245
f 7/9/3 2/5/3 8/10/3

f 6/8/4 7/9/4 2/5/4

vt -5.95793 10.0702
vn -0.707476 0 -0.706738
v -0.0273212 0.0988867 0.000118477
vt -4.93357 9.90176
vn -0.868375 -0.495909 8.81449e-05
vt -4.93357 10.0702
vn -1 0 3.30395e-16
f 7/11/5 9/12/6 6/13/7

v -0.0193557 0.0988867 -0.0191402
vt -5.95793 9.90176
vn -0.614224 -0.49631 -0.613518
f 9/12/6 7/11/5 10/14/8

vn 1 -0 -3.30395e-16
vn 0.868375 0.495909 -8.81449e-05
vn 0.707476 -0 0.706738
f 6/13/9 9/12/10 7/11/11

v -0.0193557 0.0988867 0.0193772
vt -1.74521 9.90176
vn -0.614427 -0.49559 0.613898
vt -2.76957 10.0702
vt -2.76957 9.90176
f 11/15/12 6/16/7 9/17/6

vt -1.74521 10.0702
vn -0.707476 0 0.706738
f 6/16/7 11/15/12 5/18/13

vn 0.707476 -0 -0.706738
vn 0.614427 0.49559 -0.613898
f 5/18/14 11/15/15 6/16/9

vt 1.7422 9.90176
v -0.000125447 0.102313 0.0273544
vt 2.76549 10.0702
vn -1.20196e-16 0 1
vt 1.7422 10.0702
f 11/19/12 12/20/16 5/21/13

v -0.000125447 0.0988867 0.0273544
vt 2.76549 9.90176
vn 8.88024e-05 -0.49527 0.868739
f 12/20/16 11/19/12 13/22/17

vn -8.88024e-05 0.49527 -0.868739
vn 1.20196e-16 -0 -1
f 13/22/18 11/19/15 12/20/19

vt 1.84457 1.82813
vn -0.378201 -0.845034 0.377997
vt 2.76549 2.12595
vt 1.7422 2.12595
f 1/23/20 13/24/17 11/25/12

v -0.000112377 0.0954606 0.021949
vt 2.66428 1.82813
vn 0.000151442 -0.844628 0.535354
f 13/24/17 1/23/20 14/26/21

vn 0.378201 0.845034 -0.377997
f 11/25/15 13/24/18 1/23/22

vn -0.000151442 0.844628 -0.535354
f 14/26/23 1/23/22 13/24/18

vt -1.81917 9.14613
vn 0.37726 0.174889 -0.909444
vt -2.66428 8.80406
vt -1.84457 8.80406
f 3/27/24 14/28/24 1/29/24

v -0.000125447 0.102313 0.0232613
vt -2.6884 9.14613
f 14/28/24 3/27/24 15/30/24

vn -0.37726 -0.174889 0.909444
f 1/29/25 14/28/25 3/27/25

v -0.0155169 -0.0066375 0.0155588
vt 1.84457 4.71512
vn -0.713212 0.345273 0.610012
vt 2.66428 9.73336
vn 6.31027e-16 0 1
vt 1.84457 9.73336
f 16/31/26 14/32/27 1/33/13

v -0.000112377 -0.0066375 0.021949
vt 2.66428 4.71512
vn -0.0725994 0.345195 0.935719
f 14/32/27 16/31/26 17/34/28

vn 0.0725994 -0.345195 -0.935719
vn 0.713212 -0.345273 -0.610012
vn -6.31027e-16 -0 -1
f 17/34/29 16/31/30 14/32/31

vt 1.84457 6.34247
v -0.0600773 -0.102569 0.0600773
vt 0.659948 0.827578
vn -0.506232 0.545206 0.668191
vt 2.66428 6.34247
f 16/35/26 18/36/32 17/37/28

vn 0.506232 -0.545206 -0.668191
f 17/37/29 18/36/33 16/35/30

vt 2.66661 6.34152
vt 0.660781 0.827178
v -0.000105883 -0.102569 0.0849183
vt 3.85131 0.827178
vn 0.114811 0.545141 0.830446
f 17/38/28 18/39/32 19/40/34

vn -0.114811 -0.545141 -0.830446
f 19/40/35 18/39/33 17/38/29

vt -1.22096 1.22096
vn 0 -1 -0
v -0.000105883 -0.102569 -0.0847066
vt -4.16863 8.33726
vt -4.16863 0
f 18/41/36 20/42/36 19/43/36

v -0.0600773 -0.102569 -0.0598656
vt -1.22096 7.1163
f 18/41/36 21/44/36 20/42/36

v -0.0849183 -0.102569 0.000105883
vt 0 4.16863
f 21/44/36 18/41/36 22/45/36

vn -0 1 0
f 22/45/37 18/41/37 21/44/37

vt -3.85131 0.827504
vn -0.835803 0.549029 1.57111e-05
vt -0.660781 0.827504
vt -1.8442 6.34265
f 22/46/38 18/47/32 16/48/26

vn 0.835803 -0.549029 -1.57111e-05
f 16/48/30 18/47/33 22/46/39

vt -3.85214 0.826683
vt -1.84653 6.34237
v -0.0218976 -0.0066375 0.000131566
vt -2.66709 6.34237
vn -0.957097 0.289769 8.28081e-06
f 22/49/38 16/50/26 23/51/40

vn 0.957097 -0.289769 -8.28081e-06
f 23/51/41 16/50/30 22/49/39

vt -1.84653 4.71512
vt -2.66709 9.73336
vn -1 0 4.20503e-16
vt -2.66709 4.71512
f 16/52/26 4/53/42 23/54/40

vt -1.84653 9.73336
f 4/53/42 16/52/26 1/55/13

vn 1 -0 -4.20503e-16
f 1/55/14 16/52/30 4/53/43

f 1/33/14 14/32/31 16/31/30

f 23/54/41 4/53/43 16/52/30

v -0.0155169 0.0954606 -0.0152957
vt -5.85543 9.73336
vt -5.03486 4.71512
vt -5.03486 9.73336
f 24/56/5 23/57/40 4/58/42

v -0.0155169 -0.0066375 -0.0152957
vt -5.85543 4.71512
vn -0.653436 0.382929 -0.652983
f 23/57/40 24/56/5 25/59/44

f 4/58/43 23/57/41 24/56/11

vn 0.653436 -0.382929 0.652983
f 25/59/45 24/56/11 23/57/41

vt -5.03816 9.73336
v -0.000112377 -0.0066375 -0.0216858
vt -5.85786 4.71512
vn -0.375966 0.508791 -0.774456
vt -5.03816 4.71512
f 24/60/5 26/61/46 25/62/44

v -0.000112377 0.0954606 -0.0216858
vt -5.85786 9.73336
vn -1 -1.84508e-16 -8.6925e-16
f 26/61/46 24/60/5 27/63/47

vn 0.375966 -0.508791 0.774456
f 25/62/45 26/61/48 24/60/11

vt -5.85786 2.34896
vt -7.04503 -3.16627
vn -0.114785 0.545454 -0.830244
vt -5.03816 2.34896
f 26/64/46 20/65/49 25/66/44

vn 0.114785 -0.545454 0.830244
f 25/66/45 20/65/50 26/64/48

vt -5.03646 2.34675
vt -7.04184 -3.16902
vt -3.85131 -3.16902
vn -0.59098 0.549082 -0.590975
f 25/67/44 20/68/49 21/69/51

vn 0.59098 -0.549082 0.590975
f 21/69/52 20/68/50 25/67/45

f 20/42/37 21/44/37 18/41/37

f 19/43/37 20/42/37 18/41/37

v 0.0598656 -0.102569 0.0600773
vt -7.1163 1.22096
f 19/43/36 20/42/36 28/70/36

f 28/70/37 20/42/37 19/43/37

v 0.0598656 -0.102569 -0.0598656
vt -7.1163 7.1163
f 28/70/36 20/42/36 29/71/36

f 29/71/37 20/42/37 28/70/37

vt -1.84566 0.691066
vt -3.85101 -4.82465
vn 0.668206 0.545518 -0.505876
vt -0.66048 -4.8246
f 26/72/46 29/73/53 20/74/49

v 0.0152921 -0.0066375 -0.0152957
vt -2.66536 0.691275
vn 0.813249 0.509 -0.282037
f 29/73/53 26/72/46 30/75/54

vn -0.668206 -0.545518 0.505876
f 20/74/50 29/73/55 26/72/48

vn -0.813249 -0.509 0.282037
f 30/75/56 26/72/48 29/73/55

v 0.0152921 0.0954606 -0.0152957
vt 2.66221 9.73336
vn 0.706738 -1.49171e-16 0.707476
vt 1.8425 4.71512
vt 2.66221 4.71512
f 31/76/57 26/77/46 30/78/54

vt 1.8425 9.73336
f 26/77/46 31/76/57 27/79/47

vn -0.706738 1.49171e-16 -0.707476
f 30/78/56 26/77/48 31/76/58

vn 1 1.84508e-16 8.6925e-16
f 27/79/59 31/76/58 26/77/48

v 0.0162097 0.102313 -0.0162481
vt 2.68593 11.0606
vn -0.377125 0.176861 0.909119
vt 1.8425 10.7184
vt 2.66221 10.7184
f 32/80/60 27/81/60 31/82/60

v -0.000125447 0.102313 -0.0230243
vt 1.8167 11.0606
f 27/81/60 32/80/60 33/83/60

vn 0.377125 -0.176861 -0.909119
f 31/82/61 27/81/61 32/80/61

vt -1.8425 10.8069
vn 0.000150657 -0.845794 -0.533509
v 0.0191048 0.0988867 -0.0191402
vt -2.7629 11.1053
vn 0.614604 -0.49559 -0.613721
vt -2.66221 10.8069
vn 0.378503 -0.845034 -0.377695
f 27/84/62 34/85/63 31/86/64

v -0.000125447 0.0988867 -0.0271174
vt -1.73962 11.1053
vn 8.84018e-05 -0.496291 -0.868156
f 34/85/63 27/84/62 35/87/65

vn -8.84018e-05 0.496291 0.868156
vn -0.000150657 0.845794 0.533509
vn -0.614604 0.49559 0.613721
f 35/87/66 27/84/67 34/85/68

vt -5.03816 8.16403
vn -0.37743 -0.845857 -0.376925
vt -5.95956 8.46284
vt -5.85786 8.16403
f 24/88/69 35/89/65 27/90/62

vt -4.93628 8.46284
f 35/89/65 24/88/69 10/91/8

vn 0.614224 0.49631 0.613518
vn 0.37743 0.845857 0.376925
f 10/91/70 24/88/71 35/89/66

vt -5.03486 4.44082
vn -0.534073 -0.845439 0.000150272
vt -5.95793 4.73942
vt -5.85543 4.44082
f 4/92/72 10/93/8 24/94/69

vt -4.93357 4.73942
f 10/93/8 4/92/72 9/95/6

vn 0.534073 0.845439 -0.000150272
f 9/95/10 4/92/73 10/93/70

vt -2.66709 1.82001
vt -1.74521 2.1182
vt -2.76957 2.1182
f 4/96/72 11/97/12 9/98/6

vt -1.84653 1.82001
f 11/97/12 4/96/72 1/99/20

f 9/98/10 11/97/15 4/96/73

f 9/17/10 6/16/9 11/15/15

f 1/99/22 4/96/73 11/97/15

f 4/4/2 1/1/2 2/2/2

vt 5.85543 9.35338
vn 0.909401 0.177525 0.376131
vt 5.01043 9.69561
vt 5.03486 9.35338
f 24/100/74 2/101/74 4/102/74

vt 5.88096 9.69561
f 2/101/74 24/100/74 8/103/74

vn -0.909401 -0.177525 -0.376131
f 4/102/75 2/101/75 24/100/75

f 8/103/75 24/100/75 2/101/75

vt 5.03816 10.1555
vn 0.377029 0.178254 0.908886
vt 5.88248 10.4978
vt 5.01325 10.4978
f 24/104/76 33/105/76 8/106/76

vt 5.85786 10.1555
f 33/105/76 24/104/76 27/107/76

vn -0.377029 -0.178254 -0.908886
f 27/107/77 24/104/77 33/105/77

f 27/63/59 24/60/11 26/61/48

f 27/90/67 35/89/66 24/88/71

f 8/106/77 33/105/77 24/104/77

v -0.000125447 0.102313 -0.0271174
vt 4.16767 5.50669
vt 4.16767 5.30551
f 36/108/3 8/10/3 33/109/3

f 7/9/3 8/10/3 36/108/3

f 8/10/4 2/5/4 7/9/4

f 36/108/4 8/10/4 7/9/4

f 33/109/4 8/10/4 36/108/4

vt 4.97056 4.97245
f 36/108/3 33/109/3 32/110/3

f 32/110/4 33/109/4 36/108/4

f 33/83/61 32/80/61 27/81/61

v 0.0191048 0.102313 -0.0191402
vt 5.11286 5.1146
f 36/108/3 32/110/3 37/111/3

f 37/111/4 32/110/4 36/108/4

v 0.0229789 0.102313 0.000118477
vt 5.30328 4.16801
f 37/111/3 32/110/3 38/112/3

f 38/112/4 32/110/4 37/111/4

vt -2.66916 10.7052
vn -0.909956 0.174162 0.37636
vt -1.82465 11.0472
vt -2.69518 11.0472
f 31/113/78 38/114/78 32/115/78

v 0.0216729 0.0954606 0.000131566
vt -1.84859 10.7052
f 38/114/78 31/113/78 39/116/78

vn 0.909956 -0.174162 -0.37636
f 39/116/79 31/113/79 38/114/79

vt 2.77215 11.11
vt 1.84859 10.8124
vn 0.535918 -0.84427 0.000151054
vt 2.66916 10.8124
f 34/117/63 39/118/80 31/119/64

v 0.0270703 0.0988867 0.000118477
vt 1.74779 11.11
vn 0.868957 -0.494888 8.85437e-05
f 39/118/80 34/117/63 40/120/81

vn -0.378503 0.845034 0.377695
vn -0.535918 0.84427 -0.000151054
f 31/119/82 39/118/83 34/117/68

vt 1.84859 9.73336
vn 1 -5.23635e-18 1.44172e-15
vt 2.66916 4.71512
vt 2.66916 9.73336
f 39/121/84 30/122/54 31/123/57

v 0.0216729 -0.0066375 0.000131566
vt 1.84859 4.71512
vn 0.935662 0.345355 -0.0725708
f 30/122/54 39/121/84 41/124/85

vn -0.935662 -0.345355 0.0725708
vn -1 5.23635e-18 -1.44172e-15
f 41/124/86 39/121/87 30/122/56

v 0.0152921 0.0954606 0.0155588
vt 5.0328 9.73336
vn 0.707476 -1.99709e-17 0.706738
vt 5.85336 4.71512
vt 5.85336 9.73336
f 42/125/88 41/126/85 39/127/84

v 0.0152921 -0.0066375 0.0155588
vt 5.0328 4.71512
vn 0.65346 0.382802 0.653033
f 41/126/85 42/125/88 43/128/89

vn -0.65346 -0.382802 -0.653033
vn -0.707476 1.99709e-17 -0.706738
f 43/128/90 42/125/91 41/126/86

vt 5.8558 9.73336
vt 5.03609 4.71512
vt 5.8558 4.71512
f 42/129/88 17/130/28 43/131/89

vt 5.03609 9.73336
f 17/130/28 42/129/88 14/132/27

f 43/131/90 17/130/29 42/129/91

vt 5.03609 4.68601
vt 3.85048 -0.828141
vt 5.8558 4.68601
f 17/133/28 19/134/34 43/135/89

f 43/135/90 19/134/35 17/133/29

vt 5.85514 4.68737
vt 3.85131 -0.82732
vt 7.04184 -0.82732
vn 0.591037 0.548917 0.591071
f 43/136/89 19/137/34 28/138/92

vn -0.591037 -0.548917 -0.591071
f 28/138/93 19/137/35 43/136/90

v 0.0847066 -0.102569 0.000105883
vt 7.04184 -3.16852
vn 0.830263 0.545485 0.114495
vt 5.03449 2.34693
vt 3.85131 -3.16852
f 44/139/94 43/140/89 28/141/92

vt 7.03866 -3.17127
vt 5.85336 2.34473
vt 5.0328 2.34473
f 44/142/94 41/143/85 43/144/89

vn -0.830263 -0.545485 -0.114495
f 43/144/90 41/143/86 44/142/95

vt 3.85131 -4.82549
vt 1.84524 0.690683
vt 0.660781 -4.82549
f 29/145/53 41/146/85 44/147/94

vt 3.85616 -4.82316
vt 2.66916 0.692472
vt 1.84859 0.692472
f 29/148/53 30/149/54 41/150/85

f 41/150/86 30/149/56 29/148/55

f 44/147/95 41/146/86 29/145/55

vt -8.33726 4.16863
f 28/70/36 29/71/36 44/151/36

f 44/151/37 29/71/37 28/70/37

f 28/141/93 43/140/90 44/139/95

f 14/132/31 42/129/91 17/130/29

vt -5.01078 9.70885
vn -0.377355 0.173493 -0.909672
vt -5.8558 9.36687
vt -5.03609 9.36687
f 15/152/96 42/153/96 14/154/96

v 0.0162097 0.102313 0.016485
vt -5.88001 9.70885
f 42/153/96 15/152/96 45/155/96

vn 0.377355 -0.173493 0.909672
f 14/154/97 42/153/97 15/152/97

v 0.0191048 0.0988867 0.0193772
vt 5.95698 4.76841
vn 0.614807 -0.494867 0.6141
vt 5.03609 4.47098
vt 5.8558 4.47098
vn 0.379276 -0.844206 0.378769
f 46/156/98 14/157/21 42/158/99

vt 4.93369 4.76841
f 14/157/21 46/156/98 13/159/17

vn -0.614807 0.494867 -0.6141
f 13/159/18 46/156/100 14/157/23

v 0.0191048 0.102313 0.0193772
vt 5.95698 10.0702
vn 0.707476 0 0.706738
vt 4.93369 9.90176
vt 5.95698 9.90176
f 47/160/101 13/161/17 46/162/98

vt 4.93369 10.0702
f 13/161/17 47/160/101 12/163/16

vn -0.707476 -0 -0.706738
f 46/162/100 13/161/18 47/160/102

f 12/163/19 47/160/102 13/161/18

vt 4.16767 3.03052
vt 4.16767 2.82934
vt 5.11286 3.22142
f 15/164/3 12/165/3 47/166/3

f 3/7/3 12/165/3 15/164/3

f 3/7/3 5/6/3 12/165/3

f 3/7/4 5/6/4 2/5/4

f 12/165/4 5/6/4 3/7/4

f 5/21/14 12/20/19 11/19/15

f 15/164/4 12/165/4 3/7/4

f 47/166/4 12/165/4 15/164/4

vt 4.97056 3.36358
f 15/164/3 47/166/3 45/167/3

f 45/167/4 47/166/4 15/164/4

f 45/167/3 47/166/3 38/112/3

f 38/112/4 47/166/4 45/167/4

v 0.0270703 0.102313 0.000118477
vt 5.50437 4.16801
f 38/112/3 47/166/3 48/168/3

f 48/168/4 47/166/4 38/112/4

vt 4.93099 10.0702
vt 5.95535 9.90176
vt 5.95535 10.0702
vn 1 0 1.35162e-15
f 47/169/101 40/170/81 48/171/103

vt 4.93099 9.90176
f 40/170/81 47/169/101 46/172/98

vn -0.868957 0.494888 -8.85437e-05
f 46/172/100 47/169/102 40/170/104

vn -1 -0 -1.35162e-15
f 48/171/105 40/170/104 47/169/102

vt 2.77215 9.90176
vt 1.74779 10.0702
vt 1.74779 9.90176
f 34/173/63 48/174/103 40/175/81

vt 2.77215 10.0702
vn 0.707476 0 -0.706738
f 48/174/103 34/173/63 37/176/106

f 40/175/104 48/174/105 34/173/68

vn -0.707476 -0 0.706738
f 37/176/107 34/173/68 48/174/105

vt -2.7629 9.90176
vt -1.73962 10.0702
vn -7.81272e-16 0 -1
vt -2.7629 10.0702
f 34/177/63 36/178/108 37/179/106

vt -1.73962 9.90176
f 36/178/108 34/177/63 35/180/65

vn 7.81272e-16 -0 1
f 35/180/66 34/177/68 36/178/109

f 37/179/107 36/178/109 34/177/68

vt -5.95956 9.90176
vt -4.93628 10.0702
vt -5.95956 10.0702
f 35/181/65 7/182/5 36/183/108

vt -4.93628 9.90176
f 7/182/5 35/181/65 10/184/8

f 10/184/70 35/181/66 7/182/11

f 36/183/109 7/182/11 35/181/66

f 10/14/70 7/11/11 9/12/10

f 37/111/3 38/112/3 48/168/3

f 48/168/4 38/112/4 37/111/4

f 40/120/104 34/117/68 39/118/83

vt 4.93099 8.48885
vt 5.85336 8.19164
vt 5.95535 8.48885
f 46/185/98 39/186/80 40/187/81

vt 5.0328 8.19164
f 39/186/80 46/185/98 42/188/99

vn -0.379276 0.844206 -0.378769
f 42/188/110 46/185/100 39/186/83

f 42/158/110 14/157/23 46/156/100

f 40/187/104 39/186/83 46/185/100

vt -5.0328 10.1482
vn -0.910183 0.172768 -0.376454
vt -5.87849 10.4902
vt -5.85336 10.1482
f 42/189/111 38/190/111 39/191/111

vt -5.00796 10.4902
f 38/190/111 42/189/111 45/192/111

vn 0.910183 -0.172768 0.376454
f 45/192/112 42/189/112 38/190/112

f 45/155/97 15/152/97 42/153/97

f 39/191/112 38/190/112 42/189/112

f 39/127/87 41/126/86 42/125/91

f 15/30/25 3/27/25 14/28/25

f 31/123/58 30/122/56 39/121/87

f 31/86/82 34/85/68 27/84/67

f 32/115/79 38/114/79 31/113/79

f 24/94/71 10/93/70 4/92/73

vt -7.04184 -0.827708
vt -3.85131 -0.827708
vt -5.85609 4.68794
f 21/193/51 22/194/38 25/195/44

f 25/195/45 22/194/39 21/193/52

vt -5.85543 4.6893
vt -3.85214 -0.826887
vt -5.03486 4.6893
f 25/196/44 22/197/38 23/198/40

f 23/198/41 22/197/39 25/196/45

g Mesh2 Component_5_1 Model

l 4 2

l 4 1

l 24 4

l 24 8

l 27 24

l 31 27

l 31 32

l 39 31

l 39 38

l 42 39

l 42 45

l 14 42

l 14 15

l 1 14

l 1 3

l 2 3

l 8 2

l 33 8

l 27 33

l 32 33

l 38 32

l 45 38

l 15 45

l 3 15

g Mesh3 Component_5_1 Model

l 20 21

l 29 20

l 44 29

l 28 44

l 19 28

l 18 19

l 22 18

l 21 22

g Mesh4 Component_5_1 Model

l 48 37

l 47 48

l 12 47

l 5 12

l 6 5

l 7 6

l 36 7

l 37 36

