# Alias OBJ Model File
# Exported from SketchUp, (c) 2000-2012 Trimble Navigation Limited
# File units = meters

mtllib TestTube_Solid.mtl

g Mesh1 Model

usemtl FrontColor
v -0.00593236 -0.126639 -0.00884877
vt 0.233557 0.348377
vn 0 -1 -0
v -0.00593236 -0.126639 0.00893538
vt 0.233557 -0.351786
v -0.0110662 -0.126639 4.33013e-05
vt 0.435677 -0.00170477
f 1/1/1 2/2/1 3/3/1

v 0.00433533 -0.126639 0.00893538
vt -0.170682 -0.351786
f 2/2/1 1/1/1 4/4/1

usemtl BackColor
vn -0 1 0
f 3/3/2 2/2/2 1/1/2

usemtl FrontColor
vt 0.187877 -4.5457
vn -0.812349 -0.346581 0.46901
v -0.0158778 -0.115361 4.33013e-05
vt -0.311079 -4.07235
vt -0.216362 -4.5457
f 2/5/3 5/6/3 3/7/3

v -0.00796391 -0.115361 0.0137506
vt 0.312063 -4.07235
f 5/6/3 2/5/3 6/8/3

usemtl BackColor
vn 0.812349 0.346581 -0.46901
f 6/8/4 2/5/4 5/6/4

usemtl FrontColor
vt -0.233557 -4.4472
vn -4.36362e-16 -0.392667 0.919681
v 0.00786391 -0.115361 0.0137506
vt 0.309603 -3.96441
vt -0.31354 -3.96441
f 2/9/5 7/10/5 6/11/5

vt 0.170682 -4.4472
f 7/10/5 2/9/5 4/12/5

usemtl BackColor
vn 4.36362e-16 0.392667 -0.919681
f 4/12/6 2/9/6 7/10/6

f 4/4/2 1/1/2 2/2/2

usemtl FrontColor
v 0.00433533 -0.126639 -0.00884877
vt -0.170682 0.348377
f 4/4/1 1/1/1 8/13/1

usemtl BackColor
f 8/13/2 1/1/2 4/4/2

usemtl FrontColor
v -0.00796391 -0.115361 -0.013664
vt 0.31354 -3.96575
vn -3.66691e-18 -0.392667 -0.919681
vt -0.170682 -4.44854
vt 0.233557 -4.44854
f 9/14/7 8/15/7 1/16/7

v 0.00786391 -0.115361 -0.013664
vt -0.309603 -3.96575
f 8/15/7 9/14/7 10/17/7

usemtl BackColor
vn 3.66691e-18 0.392667 0.919681
f 1/16/8 8/15/8 9/14/8

f 10/17/8 9/14/8 8/15/8

usemtl FrontColor
v -0.00796391 -0.065361 -0.013664
vt 0.31354 -2.57327
vn 0 0 -1
vt -0.309603 -4.54177
vt 0.31354 -4.54177
f 11/18/9 10/19/9 9/20/9

v 0.00786391 -0.065361 -0.013664
vt -0.309603 -2.57327
f 10/19/9 11/18/9 12/21/9

usemtl BackColor
vn -0 -0 1
f 9/20/10 10/19/10 11/18/10

f 12/21/10 11/18/10 10/19/10

usemtl FrontColor
v -0.00323554 -0.045361 -0.00547421
vt 0.127383 -1.73434
vn 7.85312e-18 0.378949 -0.925418
vt -0.309603 -2.58521
vt 0.31354 -2.58521
f 13/22/11 12/23/11 11/24/11

v 0.00313554 -0.045361 -0.00547421
vt -0.123446 -1.73434
f 12/23/11 13/22/11 14/25/11

usemtl BackColor
vn -7.85312e-18 -0.378949 0.925418
f 11/24/12 12/23/12 13/22/12

f 14/25/12 13/22/12 12/23/12

usemtl FrontColor
vt -0.127383 0.21552
vn 0 1 -0
v 0.00313554 -0.045361 0.00556081
vt 0.123446 -0.21893
vt 0.123446 0.21552
f 13/26/13 15/27/13 14/28/13

v -0.00323554 -0.045361 0.00556081
vt -0.127383 -0.21893
f 13/26/13 16/29/13 15/27/13

v -0.00642107 -0.045361 4.33013e-05
vt -0.252798 -0.00170477
f 16/29/13 13/26/13 17/30/13

usemtl BackColor
vn -0 -1 0
f 17/30/14 13/26/14 16/29/14

usemtl FrontColor
vt -0.122954 -1.73531
vn -0.801435 0.378949 -0.462709
v -0.0158778 -0.065361 4.33013e-05
vt 0.314032 -2.58617
vt 0.127875 -1.73531
f 13/31/15 18/32/15 17/33/15

vt -0.309111 -2.58617
f 18/32/15 13/31/15 11/34/15

usemtl BackColor
vn 0.801435 -0.378949 0.462709
f 17/33/16 18/32/16 13/31/16

usemtl FrontColor
vt -0.311079 -2.58682
vn -0.801435 0.378949 0.462709
vt 0.125907 -1.73596
vt -0.124923 -1.73596
f 18/35/17 16/36/17 17/37/17

v -0.00796391 -0.065361 0.0137506
vt 0.312063 -2.58682
f 16/36/17 18/35/17 19/38/17

usemtl BackColor
vn 0.801435 -0.378949 -0.462709
f 19/38/18 18/35/18 16/36/18

usemtl FrontColor
vt -0.311079 -2.57327
vn -0.866025 0 0.5
vt 0.312063 -4.54177
vt 0.312063 -2.57327
f 18/39/19 6/40/19 19/41/19

vt -0.311079 -4.54177
f 6/40/19 18/39/19 5/42/19

usemtl BackColor
vn 0.866025 -0 -0.5
f 19/41/20 6/40/20 18/39/20

usemtl FrontColor
vt -0.31354 -4.54177
vn -3.5633e-16 0 1
v 0.00786391 -0.065361 0.0137506
vt 0.309603 -2.57327
vt -0.31354 -2.57327
f 6/43/21 20/44/21 19/45/21

vt 0.309603 -4.54177
f 20/44/21 6/43/21 7/46/21

usemtl BackColor
vn 3.5633e-16 -0 -1
f 7/46/22 6/43/22 20/44/22

f 6/11/6 7/10/6 2/9/6

f 19/45/22 20/44/22 6/43/22

usemtl FrontColor
vt 0.123446 -1.73564
vn -3.88165e-16 0.378949 0.925418
vt -0.31354 -2.5865
vt 0.309603 -2.5865
f 15/47/23 19/48/23 20/49/23

vt -0.127383 -1.73564
f 19/48/23 15/47/23 16/50/23

usemtl BackColor
vn 3.88165e-16 -0.378949 -0.925418
f 20/49/24 19/48/24 15/47/24

f 16/50/24 15/47/24 19/48/24

f 15/27/14 16/29/14 13/26/14

f 14/28/14 15/27/14 13/26/14

usemtl FrontColor
v 0.00632107 -0.045361 4.33013e-05
vt 0.248861 -0.00170477
f 14/28/13 15/27/13 21/51/13

usemtl BackColor
f 21/51/14 15/27/14 14/28/14

usemtl FrontColor
vt -0.127875 -1.73467
vn 0.801435 0.378949 0.462709
v 0.0157778 -0.065361 4.33013e-05
vt 0.309111 -2.58553
vt 0.122954 -1.73467
f 15/52/25 22/53/25 21/54/25

vt -0.314032 -2.58553
f 22/53/25 15/52/25 20/55/25

usemtl BackColor
vn -0.801435 -0.378949 -0.462709
f 20/55/26 15/52/26 22/53/26

f 21/54/26 22/53/26 15/52/26

usemtl FrontColor
vt 0.311079 -2.58488
vn 0.801435 0.378949 -0.462709
vt -0.125907 -1.73402
vt -0.312063 -2.58488
f 12/56/27 21/57/27 22/58/27

vt 0.124923 -1.73402
f 21/57/27 12/56/27 14/59/27

usemtl BackColor
vn -0.801435 -0.378949 0.462709
f 22/58/28 21/57/28 12/56/28

f 14/59/28 12/56/28 21/57/28

usemtl FrontColor
vt -0.312063 -2.57327
vn 0.866025 0 -0.5
vt 0.311079 -4.54177
vt 0.311079 -2.57327
f 22/60/29 10/61/29 12/62/29

v 0.0157778 -0.115361 4.33013e-05
vt -0.312063 -4.54177
f 10/61/29 22/60/29 23/63/29

usemtl BackColor
vn -0.866025 -0 0.5
f 23/63/30 22/60/30 10/61/30

usemtl FrontColor
vt -0.314032 -2.57327
vn 0.866025 0 0.5
vt 0.309111 -4.54177
vt 0.309111 -2.57327
f 20/64/31 23/65/31 22/66/31

vt -0.314032 -4.54177
f 23/65/31 20/64/31 7/67/31

usemtl BackColor
vn -0.866025 -0 -0.5
f 7/67/32 20/64/32 23/65/32

f 22/66/32 23/65/32 20/64/32

usemtl FrontColor
vt -0.219315 -4.34588
vn 0.779387 -0.435974 0.44998
vt 0.309111 -3.8525
vt -0.314032 -3.8525
f 4/68/33 23/69/33 7/70/33

v 0.00946917 -0.126639 4.33013e-05
vt 0.184925 -4.34588
f 23/69/33 4/68/33 24/71/33

usemtl BackColor
vn -0.779387 0.435974 -0.44998
f 7/70/34 23/69/34 4/68/34

f 24/71/34 4/68/34 23/69/34

usemtl FrontColor
vt -0.372802 -0.00170477
f 4/4/1 8/13/1 24/72/1

usemtl BackColor
f 24/72/2 8/13/2 4/4/2

usemtl FrontColor
vt 0.311079 -3.85325
vn 0.779387 -0.435974 -0.44998
vt -0.187877 -4.34662
vt 0.216362 -4.34662
f 10/73/35 24/74/35 8/75/35

vt -0.312063 -3.85325
f 24/74/35 10/73/35 23/76/35

usemtl BackColor
vn -0.779387 0.435974 0.44998
f 23/76/36 10/73/36 24/74/36

f 8/75/36 24/74/36 10/73/36

f 12/62/30 10/61/30 22/60/30

f 5/42/20 18/39/20 6/40/20

usemtl FrontColor
vt -0.309111 -2.57327
vn -0.866025 0 -0.5
vt 0.314032 -4.54177
vt 0.314032 -2.57327
f 11/77/37 5/78/37 18/79/37

vt -0.309111 -4.54177
f 5/78/37 11/77/37 9/80/37

usemtl BackColor
vn 0.866025 -0 0.5
f 18/79/38 5/78/38 11/77/38

f 9/80/38 11/77/38 5/78/38

usemtl FrontColor
vt -0.309111 -4.07294
vn -0.812349 -0.346581 -0.46901
vt 0.219315 -4.54629
vt 0.314032 -4.07294
f 9/81/39 3/82/39 5/83/39

vt -0.184925 -4.54629
f 3/82/39 9/81/39 1/84/39

usemtl BackColor
vn 0.812349 0.346581 0.46901
f 5/83/40 3/82/40 9/81/40

f 3/7/4 5/6/4 2/5/4

f 1/84/40 9/81/40 3/82/40

f 11/34/16 13/31/16 18/32/16

f 17/37/18 16/36/18 18/35/18

g Mesh2 Model

l 24 4

l 8 24

l 1 8

l 3 1

l 2 3

l 4 2

l 4 7

l 6 7

l 5 6

l 9 5

l 10 9

l 23 10

l 7 23

l 7 20

l 19 20

l 18 19

l 11 18

l 12 11

l 22 12

l 20 22

l 20 15

l 16 15

l 17 16

l 13 17

l 14 13

l 21 14

l 15 21

l 22 21

l 23 22

l 24 23

l 12 14

l 10 12

l 8 10

l 11 13

l 9 11

l 1 9

l 18 17

l 5 18

l 3 5

l 19 16

l 6 19

l 2 6

