# Alias OBJ Model File
# Exported from SketchUp, (c) 2000-2012 Trimble Navigation Limited
# File units = meters

mtllib ChemicalWasteDisposalContainer.mtl

g Mesh1 Component_1_1 Model

usemtl Color_M09
v 0.2294 0.239646 -0.346744
vt 18.063 19.5276
vn 0 0 1
v -0.2294 -0.256354 -0.346744
vt 0 0
v 0.2294 -0.256354 -0.346744
vt 18.063 0
f 1/1/1 2/2/1 3/3/1

v -0.2294 0.239646 -0.346744
vt 0 19.5276
f 2/2/1 1/1/1 4/4/1

usemtl Color_M02
vn -0 -0 -1
f 3/3/2 2/2/2 1/1/2

usemtl FrontColor
vt -18.063 27.3027
vn 0 -1 -0
v -0.2294 -0.256354 0.335256
vt 0 0.452291
vt 0 27.3027
f 3/5/3 5/6/3 2/7/3

v 0.2294 -0.256354 0.335256
vt -18.063 0.452291
f 5/6/3 3/5/3 6/8/3

usemtl Color_M09
vn -0 1 0
f 2/7/4 5/6/4 3/5/4

vt 27.3027 0
vn 1 0 -0
v -0.2294 0.136886 0.335256
vt 0.452291 15.4819
vt 0.452291 0
f 2/9/5 7/10/5 5/11/5

v -0.2294 0.239646 0.234845
vt 4.40548 19.5276
f 7/10/5 2/9/5 8/12/5

usemtl Color_M02
vn -1 -0 0
f 5/11/6 7/10/6 2/9/6

usemtl Color_M09
vt 0 15.4819
vn 0 0 -1
vt -18.063 0
f 7/13/7 6/14/7 5/2/7

v 0.2294 0.136886 0.335256
vt -18.063 15.4819
f 6/14/7 7/13/7 9/15/7

usemtl Color_M02
vn -0 -0 1
f 5/2/8 6/14/8 7/13/8

usemtl Color_M09
f 6/8/4 3/5/4 5/6/4

vt -0.452291 0
vn -1 0 -0
v 0.2294 0.239646 0.234845
vt -4.40548 19.5276
vt -27.3027 0
f 6/16/9 10/17/9 3/18/9

vt -0.452291 15.4819
f 10/17/9 6/16/9 9/19/9

usemtl Color_M02
vn 1 -0 0
f 9/19/10 6/16/10 10/17/10

f 9/15/8 7/13/8 6/14/8

usemtl Color_M09
vt 0 11.3893
vn 0 -0.698883 -0.715236
v -0.0273511 0.156896 0.315703
vt -7.95468 12.4908
vt -18.063 11.3893
f 7/20/11 11/21/11 9/22/11

vt 0 17.0457
f 11/21/11 7/20/11 8/23/11

usemtl Color_M02
vn -0 0.698883 0.715236
f 9/22/12 11/21/12 7/20/12

usemtl Color_M09
v 0.0284489 0.156896 0.315703
vt -10.1515 12.4908
f 12/24/11 9/22/11 11/21/11

vt -18.063 17.0457
f 9/22/11 12/24/11 10/25/11

usemtl Color_M02
f 10/25/12 12/24/12 9/22/12

usemtl Color_M09
v 0.0563489 0.191459 0.28193
vt -11.25 14.3933
f 10/25/11 12/24/11 13/26/11

usemtl Color_M02
f 13/26/12 12/24/12 10/25/12

usemtl _Color_I03_1
vt -4.93189 18.3968
vn -0.866025 0.357618 -0.349442
v 0.0563489 0.221791 0.312971
vt -5.44264 21.1327
vt -6.57596 19.854
f 12/27/13 14/28/13 13/29/13

v 0.0284489 0.187228 0.346744
vt -3.79858 19.6756
f 14/28/13 12/27/13 15/30/13

vn 0.866025 -0.357618 0.349442
f 15/30/14 12/27/14 14/28/14

vt -7.95468 10.4965
vn 0 0.715236 -0.698883
vt -10.1515 12.2052
vt -10.1515 10.4965
f 11/31/15 15/32/15 12/33/15

v -0.0273511 0.187228 0.346744
vt -7.95468 12.2052
f 15/32/15 11/31/15 16/34/15

vn -0 -0.715236 0.698883
f 16/34/16 11/31/16 15/32/16

vt -1.84323 12.3921
vn 0.866025 0.357618 -0.349442
v -0.0552511 0.221791 0.312971
vt -1.33247 15.128
vt -2.97654 13.6709
f 11/35/17 17/36/17 16/37/17

v -0.0552511 0.191459 0.28193
vt -0.19916 13.8492
f 17/36/17 11/35/17 18/38/17

vn -0.866025 -0.357618 0.349442
f 16/37/18 17/36/18 11/35/18

vt -3.34158 18.8246
vn 0.770955 1.15263e-16 -0.636889
v -0.0273511 0.218228 0.346744
vt -5.06625 18.6843
vt -5.06625 17.4638
f 17/39/19 19/40/19 16/41/19

vn -0.770955 -1.15263e-16 0.636889
f 16/41/20 19/40/20 17/39/20

vt -7.95468 18.6843
vt -10.1515 17.4638
vt -7.95468 17.4638
f 19/42/7 15/43/7 16/44/7

v 0.0284489 0.218228 0.346744
vt -10.1515 18.6843
f 15/43/7 19/42/7 20/45/7

f 16/44/8 15/43/8 19/42/8

f 20/45/8 19/42/8 15/43/8

vt -8.19007 18.8246
vn -0.770955 1.15263e-16 -0.636889
vt -6.4654 17.4638
vt -6.4654 18.6843
f 14/46/21 15/47/21 20/48/21

vn 0.770955 -1.15263e-16 0.636889
f 20/48/22 15/47/22 14/46/22

f 18/38/18 11/35/18 17/36/18

usemtl Color_M09
vt -6.85626 14.3933
f 11/21/11 8/23/11 18/49/11

usemtl Color_M02
f 8/23/12 7/20/12 11/21/12

f 8/12/6 2/9/6 7/10/6

usemtl Color_M09
vt 27.3027 19.5276
f 8/12/5 2/9/5 4/50/5

usemtl Color_M02
f 4/50/6 2/9/6 8/12/6

f 4/4/2 1/1/2 2/2/2

usemtl Color_M09
vt 0 4.40548
f 1/5/3 8/51/3 4/7/3

vt -18.063 4.40548
f 8/51/3 1/5/3 10/52/3

usemtl Color_M02
f 4/7/4 8/51/4 1/5/4

f 10/52/4 1/5/4 8/51/4

usemtl Color_M09
vt -27.3027 19.5276
f 3/18/9 10/17/9 1/53/9

usemtl Color_M02
f 3/18/10 10/17/10 6/16/10

f 1/53/10 10/17/10 3/18/10

usemtl Color_M09
v 0.0284489 0.226022 0.248157
vt -10.1515 16.2958
f 10/25/11 21/54/11 8/23/11

f 10/25/11 13/26/11 21/54/11

usemtl Color_M02
f 21/54/12 13/26/12 10/25/12

usemtl _Color_I03_1
vt 1.84323 12.3921
v 0.0284489 0.256354 0.279198
vt 1.33247 15.128
vt 0.19916 13.8492
f 13/55/18 22/56/18 21/57/18

vt 2.97654 13.6709
f 22/56/18 13/55/18 14/58/18

f 14/58/17 13/55/17 22/56/17

f 13/29/14 14/28/14 12/27/14

f 21/57/17 22/56/17 13/55/17

v -0.0273511 0.256354 0.279198
vt 7.95468 12.2052
vn 0 -0.715236 0.698883
vt 10.1515 10.4965
vt 10.1515 12.2052
f 23/59/23 21/60/23 22/61/23

v -0.0273511 0.226022 0.248157
vt 7.95468 10.4965
f 21/60/23 23/59/23 24/62/23

vn -0 0.715236 -0.698883
f 24/62/24 23/59/24 21/60/24

vt 5.44264 21.1327
vt 4.93189 18.3968
vt 6.57596 19.854
f 23/63/14 18/64/14 24/65/14

vt 3.79858 19.6756
f 18/64/14 23/63/14 17/66/14

f 17/66/13 23/63/13 18/64/13

f 24/65/13 18/64/13 23/63/13

usemtl Color_M09
vt -7.95468 16.2958
f 18/49/11 8/23/11 24/67/11

usemtl Color_M02
f 18/49/12 8/23/12 11/21/12

f 24/67/12 8/23/12 18/49/12

usemtl Color_M09
f 24/67/11 8/23/11 21/54/11

usemtl Color_M02
f 21/54/12 8/23/12 24/67/12

f 8/23/12 21/54/12 10/25/12

usemtl _Color_I03_1
f 22/61/24 21/60/24 23/59/24

f 12/33/16 15/32/16 11/31/16

usemtl Color_M02
f 11/21/12 9/22/12 12/24/12

g Mesh2 Component_1_1 Model

l 5 2

l 5 7

l 6 5

l 3 6

l 2 3

l 2 4

l 4 1

l 8 4

l 8 10

l 7 8

l 7 9

l 6 9

l 9 10

l 1 10

l 3 1

g Mesh3 Component_1_1 Model

l 16 19

l 17 16

l 18 17

l 18 11

l 24 18

l 21 24

l 13 21

l 12 13

l 12 15

l 11 12

l 11 16

l 16 15

l 20 15

l 19 20

l 19 17

l 23 17

l 22 23

l 21 22

l 14 22

l 15 14

l 20 14

l 13 14

l 24 23

