# Alias OBJ Model File
# Exported from SketchUp, (c) 2000-2012 Trimble Navigation Limited
# File units = meters

mtllib ChemicalWasteDisposalContainer.mtl

g Mesh1 Model

usemtl Color_M09
v 8.34089 1.416 3.42674
vt 328.381 55.748
vn 0 0 1
v 7.88209 0.92 3.42674
vt 310.318 36.2205
v 8.34089 0.92 3.42674
vt 328.381 36.2205
f 1/1/1 2/2/1 3/3/1

v 7.88209 1.416 3.42674
vt 310.318 55.748
f 2/2/1 1/1/1 4/4/1

usemtl Color_M02
vn -0 -0 -1
f 3/3/2 2/2/2 1/1/2

usemtl FrontColor
vt -328.381 -134.911
vn 0 -1 -0
v 7.88209 0.92 4.10874
vt -310.318 -161.762
vt -310.318 -134.911
f 3/5/3 5/6/3 2/7/3

v 8.34089 0.92 4.10874
vt -328.381 -161.762
f 5/6/3 3/5/3 6/8/3

usemtl Color_M09
vn -0 1 0
f 2/7/4 5/6/4 3/5/4

vt -134.911 36.2205
vn 1 0 -0
v 7.88209 1.31324 4.10874
vt -161.762 51.7023
vt -161.762 36.2205
f 2/9/5 7/10/5 5/11/5

v 7.88209 1.416 4.00833
vt -157.808 55.748
f 7/10/5 2/9/5 8/12/5

usemtl Color_M02
vn -1 -0 0
f 5/11/6 7/10/6 2/9/6

usemtl Color_M09
vt -310.318 51.7023
vn 0 0 -1
vt -328.381 36.2205
vt -310.318 36.2205
f 7/13/7 6/14/7 5/15/7

v 8.34089 1.31324 4.10874
vt -328.381 51.7023
f 6/14/7 7/13/7 9/16/7

usemtl Color_M02
vn -0 -0 1
f 5/15/8 6/14/8 7/13/8

usemtl Color_M09
f 6/8/4 3/5/4 5/6/4

vt 161.762 36.2205
vn -1 0 -0
v 8.34089 1.416 4.00833
vt 157.808 55.748
vt 134.911 36.2205
f 6/17/9 10/18/9 3/19/9

vt 161.762 51.7023
f 10/18/9 6/17/9 9/20/9

usemtl Color_M02
vn 1 -0 0
f 9/20/10 6/17/10 10/18/10

f 9/16/8 7/13/8 6/14/8

usemtl Color_M09
vt -310.318 -76.0731
vn 0 -0.698883 -0.715236
v 8.08414 1.33325 4.08919
vt -318.273 -74.9716
vt -328.381 -76.0731
f 7/21/11 11/22/11 9/23/11

vt -310.318 -70.4167
f 11/22/11 7/21/11 8/24/11

usemtl Color_M02
vn -0 0.698883 0.715236
f 9/23/12 11/22/12 7/21/12

usemtl Color_M09
v 8.13994 1.33325 4.08919
vt -320.47 -74.9716
f 12/25/11 9/23/11 11/22/11

vt -328.381 -70.4167
f 9/23/11 12/25/11 10/26/11

usemtl Color_M02
f 10/26/12 12/25/12 9/23/12

usemtl Color_M09
v 8.16784 1.36781 4.05542
vt -321.568 -73.0691
f 10/26/11 12/25/11 13/27/11

usemtl Color_M02
f 13/27/12 12/25/12 10/26/12

usemtl _Color_I03_1
vt 29.3804 176.842
vn -0.866025 0.357618 -0.349442
v 8.16784 1.39814 4.08646
vt 28.8696 179.578
vt 27.7363 178.299
f 12/28/13 14/29/13 13/30/13

v 8.13994 1.36358 4.12023
vt 30.5137 178.121
f 14/29/13 12/28/13 15/31/13

vn 0.866025 -0.357618 0.349442
f 15/31/14 12/28/14 14/29/14

vt -318.273 151.832
vn 0 0.715236 -0.698883
vt -320.47 153.54
vt -320.47 151.832
f 11/32/15 15/33/15 12/34/15

v 8.08414 1.36358 4.12023
vt -318.273 153.54
f 15/33/15 11/32/15 16/35/15

vn -0 -0.715236 0.698883
f 16/35/16 11/32/16 15/33/16

vt -268.39 -34.9893
vn 0.866025 0.357618 -0.349442
v 8.05624 1.39814 4.08646
vt -267.879 -32.2535
vt -269.523 -33.7106
f 11/36/17 17/37/17 16/38/17

v 8.05624 1.36781 4.05542
vt -266.746 -33.5322
f 17/37/17 11/36/17 18/39/17

vn -0.866025 -0.357618 0.349442
f 16/38/18 17/37/18 11/36/18

vt -326.04 55.0451
vn 0.770955 1.15263e-16 -0.636889
v 8.08414 1.39458 4.12023
vt -327.764 54.9048
vt -327.764 53.6843
f 17/40/19 19/41/19 16/42/19

vn -0.770955 -1.15263e-16 0.636889
f 16/42/20 19/41/20 17/40/20

vt -318.273 54.9048
vt -320.47 53.6843
vt -318.273 53.6843
f 19/43/7 15/44/7 16/45/7

v 8.13994 1.39458 4.12023
vt -320.47 54.9048
f 15/44/7 19/43/7 20/46/7

f 16/45/8 15/44/8 19/43/8

f 20/46/8 19/43/8 15/44/8

vt -80.7689 55.0451
vn -0.770955 1.15263e-16 -0.636889
vt -79.0442 53.6843
vt -79.0442 54.9048
f 14/47/21 15/48/21 20/49/21

vn 0.770955 -1.15263e-16 0.636889
f 20/49/22 15/48/22 14/47/22

f 18/39/18 11/36/18 17/37/18

usemtl Color_M09
vt -317.175 -73.0691
f 11/22/11 8/24/11 18/50/11

usemtl Color_M02
f 8/24/12 7/21/12 11/22/12

f 8/12/6 2/9/6 7/10/6

usemtl Color_M09
vt -134.911 55.748
f 8/12/5 2/9/5 4/51/5

usemtl Color_M02
f 4/51/6 2/9/6 8/12/6

f 4/4/2 1/1/2 2/2/2

usemtl Color_M09
vt -310.318 -157.808
f 1/5/3 8/52/3 4/7/3

vt -328.381 -157.808
f 8/52/3 1/5/3 10/53/3

usemtl Color_M02
f 4/7/4 8/52/4 1/5/4

f 10/53/4 1/5/4 8/52/4

usemtl Color_M09
vt 134.911 55.748
f 3/19/9 10/18/9 1/54/9

usemtl Color_M02
f 3/19/10 10/18/10 6/17/10

f 1/54/10 10/18/10 3/19/10

usemtl Color_M09
v 8.13994 1.40238 4.02165
vt -320.47 -71.1666
f 10/26/11 21/55/11 8/24/11

f 10/26/11 13/27/11 21/55/11

usemtl Color_M02
f 21/55/12 13/27/12 10/26/12

usemtl _Color_I03_1
vt 268.39 -34.9893
v 8.13994 1.43271 4.05269
vt 267.879 -32.2535
vt 266.746 -33.5322
f 13/56/18 22/57/18 21/58/18

vt 269.523 -33.7106
f 22/57/18 13/56/18 14/59/18

f 14/59/17 13/56/17 22/57/17

f 13/30/14 14/29/14 12/28/14

f 21/58/17 22/57/17 13/56/17

v 8.08414 1.43271 4.05269
vt 318.273 153.54
vn 0 -0.715236 0.698883
vt 320.47 151.832
vt 320.47 153.54
f 23/60/23 21/61/23 22/62/23

v 8.08414 1.40238 4.02165
vt 318.273 151.832
f 21/61/23 23/60/23 24/63/23

vn -0 0.715236 -0.698883
f 24/63/24 23/60/24 21/61/24

vt -28.8696 179.578
vt -29.3804 176.842
vt -27.7363 178.299
f 23/64/14 18/65/14 24/66/14

vt -30.5137 178.121
f 18/65/14 23/64/14 17/67/14

f 17/67/13 23/64/13 18/65/13

f 24/66/13 18/65/13 23/64/13

usemtl Color_M09
vt -318.273 -71.1666
f 18/50/11 8/24/11 24/68/11

usemtl Color_M02
f 18/50/12 8/24/12 11/22/12

f 24/68/12 8/24/12 18/50/12

usemtl Color_M09
f 24/68/11 8/24/11 21/55/11

usemtl Color_M02
f 21/55/12 8/24/12 24/68/12

f 8/24/12 21/55/12 10/26/12

usemtl _Color_I03_1
f 22/62/24 21/61/24 23/60/24

f 12/34/16 15/33/16 11/32/16

usemtl Color_M02
f 11/22/12 9/23/12 12/25/12

g Mesh2 Model

l 2 3

l 5 2

l 6 5

l 3 6

l 3 1

l 4 1

l 2 4

l 8 4

l 7 8

l 5 7

l 7 9

l 6 9

l 9 10

l 1 10

l 8 10

g Mesh3 Model

l 13 21

l 12 13

l 11 12

l 18 11

l 24 18

l 21 24

l 21 22

l 22 23

l 14 22

l 15 14

l 16 15

l 17 16

l 23 17

l 24 23

l 18 17

l 19 17

l 16 19

l 11 16

l 19 20

l 20 15

l 20 14

l 13 14

l 12 15

