# Alias OBJ Model File
# Exported from SketchUp, (c) 2000-2012 Trimble Navigation Limited
# File units = meters

mtllib Erlenmeyer_Liquid.mtl

g Mesh1 Model

usemtl Color_M00
v -0.0339396 -0.075 -0.0339396
vt 1.33621 1.33621
vn 0 -1 -0
v -0.0339396 -0.075 0.0339396
vt 1.33621 -1.33621
v -0.0479979 -0.075 -1.12799e-17
vt 1.88968 4.44089e-16
f 1/1/1 2/2/1 3/3/1

v 0 -0.075 -0.0479979
vt 0 1.88968
f 2/2/1 1/1/1 4/4/1

vn -0 1 0
f 3/3/2 2/2/2 1/1/2

usemtl FrontColor
v -0.00872224 -0.01 0.00875418
vt 0.187021 -0.554206
vn -0.620022 0.480781 0.620018
vt -0.723093 -3.42305
vn -0.876732 0.480979 1.56626e-05
vt 0.723206 -3.42302
f 5/5/3 3/6/4 2/7/3

v -0.0123355 -0.01 1.81693e-05
vt -0.185174 -0.554123
f 3/6/4 5/5/3 6/8/4

usemtl BackColor
vn 0.620022 -0.480781 -0.620018
vn 0.876732 -0.480979 -1.56626e-05
f 2/7/5 3/6/6 5/5/5

f 6/8/6 5/5/5 3/6/6

usemtl FrontColor
v -0.00872224 -0.01 -0.00871784
vt 0.343395 0.343222
vt 0.343395 -0.344653
vt 0.485649 -0.000715329
f 7/9/1 5/10/1 6/11/1

v -4.59409e-06 -0.01 -0.0123341
vt 0.00018087 0.485596
f 5/10/1 7/9/1 8/12/1

usemtl BackColor
f 6/11/2 5/10/2 7/9/2

usemtl FrontColor
vt 0.18724 -0.393701
vn -0.707476 0 0.706738
v -0.0123355 0.02 1.81693e-05
vt -0.184955 0.787402
vn -1 0 7.20862e-16
vt -0.184955 -0.393701
f 5/13/7 9/14/8 6/15/8

v -0.00872224 0.02 0.00875418
vt 0.18724 0.787402
f 9/14/8 5/13/7 10/16/7

usemtl BackColor
vn 0.707476 -0 -0.706738
vn 1 -0 -7.20862e-16
f 10/16/9 5/13/9 9/14/10

usemtl FrontColor
vt -0.185128 -0.393701
v -4.59409e-06 0.02 0.0123705
vt 0.186445 0.787402
vn -2.7044e-16 0 1
vt -0.185128 0.787402
f 5/17/7 11/18/11 10/19/7

v -4.59409e-06 -0.01 0.0123705
vt 0.186445 -0.393701
f 11/18/11 5/17/7 12/20/11

usemtl BackColor
vn 2.7044e-16 -0 -1
f 12/20/12 5/17/9 11/18/12

usemtl FrontColor
vt 0.00018087 -0.487027
f 5/10/1 8/12/1 12/21/1

usemtl BackColor
f 8/12/2 7/9/2 5/10/2

usemtl FrontColor
vt -0.723206 -3.42306
vn -3.96185e-06 0.481058 -0.876689
vt 0.185896 -0.553952
vn -0.619935 0.481048 -0.619899
vt -0.185677 -0.554034
f 4/22/13 7/23/14 8/24/13

vt 0.723093 -3.42308
f 7/23/14 4/22/13 1/25/14

usemtl BackColor
vn 0.619935 -0.481048 0.619899
vn 3.96185e-06 -0.481058 0.876689
f 1/25/15 4/22/16 7/23/15

usemtl Color_M00
f 4/4/2 1/1/2 2/2/2

v -1.69198e-17 -0.075 0.0479979
vt 6.66134e-16 -1.88968
f 2/2/1 4/4/1 13/26/1

f 13/26/2 4/4/2 2/2/2

v 0.0339396 -0.075 0.0339396
vt -1.33621 -1.33621
f 13/26/1 4/4/1 14/27/1

f 14/27/2 4/4/2 13/26/2

v 0.0339396 -0.075 -0.0339396
vt -1.33621 1.33621
f 14/27/1 4/4/1 15/28/1

f 15/28/2 4/4/2 14/27/2

usemtl FrontColor
vt 0.186011 -0.553981
vt -0.723093 -3.42309
vn 0.619904 0.481115 -0.619876
vt 0.723206 -3.42306
f 8/29/13 15/30/17 4/31/13

v 0.00871305 -0.01 -0.00871784
vt -0.185562 -0.553899
f 15/30/17 8/29/13 16/32/17

usemtl BackColor
vn -0.619904 -0.481115 0.619876
f 4/31/16 15/30/18 8/29/16

f 16/32/18 8/29/16 15/30/18

usemtl FrontColor
v 0.00871305 -0.01 0.00875418
vt -0.343033 -0.344653
vt -0.343033 0.343222
f 17/33/1 8/12/1 16/34/1

f 12/21/1 8/12/1 17/33/1

usemtl BackColor
f 12/21/2 8/12/2 5/10/2

f 17/33/2 8/12/2 12/21/2

f 16/34/2 8/12/2 17/33/2

usemtl FrontColor
v -4.59409e-06 0.02 -0.0123341
vt 0.186231 0.787402
vn -3.00489e-16 0 -1
vt -0.185342 -0.393701
vn 0.707476 0 -0.706738
vt 0.186231 -0.393701
f 18/35/19 16/36/20 8/37/19

v 0.00871305 0.02 -0.00871784
vt -0.185342 0.787402
f 16/36/20 18/35/19 19/38/20

usemtl BackColor
vn 3.00489e-16 -0 1
vn -0.707476 -0 0.706738
f 8/37/21 16/36/22 18/35/21

f 19/38/22 18/35/21 16/36/22

usemtl FrontColor
vt -0.00018087 0.485596
vn 0 1 -0
v 0.00871305 0.02 0.00875418
vt 0.343033 -0.344653
vt 0.343033 0.343222
f 18/39/23 20/40/23 19/41/23

vt -0.00018087 -0.487027
f 18/39/23 11/42/23 20/40/23

v -0.00872224 0.02 -0.00871784
vt -0.343395 0.343222
f 21/43/23 11/42/23 18/39/23

vt -0.343395 -0.344653
f 21/43/23 10/44/23 11/42/23

vt -0.485649 -0.000715329
f 10/44/23 21/43/23 9/45/23

usemtl BackColor
vn -0 -1 0
f 9/45/24 21/43/24 10/44/24

usemtl FrontColor
vt -0.185918 0.787402
vn -0.707476 0 -0.706738
vt 0.186277 -0.393701
vt 0.186277 0.787402
f 21/46/25 6/47/8 9/48/8

vt -0.185918 -0.393701
f 6/47/8 21/46/25 7/49/25

usemtl BackColor
vn 0.707476 -0 0.706738
f 9/48/10 6/47/10 21/46/26

f 6/15/10 9/14/10 5/13/9

f 7/49/26 21/46/26 6/47/10

usemtl FrontColor
vt 0.185676 0.787402
vt -0.185897 -0.393701
vt 0.185676 -0.393701
f 21/50/25 8/51/19 7/52/25

vt -0.185897 0.787402
f 8/51/19 21/50/25 18/53/19

usemtl BackColor
f 7/52/26 8/51/21 21/50/26

f 8/24/16 7/23/15 4/22/16

f 18/53/21 21/50/26 8/51/21

f 18/39/24 11/42/24 21/43/24

f 20/40/24 11/42/24 18/39/24

usemtl FrontColor
vt -0.186779 -0.393701
vt 0.184794 0.787402
vn 0.707476 0 0.706738
vt -0.186779 0.787402
f 12/54/11 20/55/27 11/56/11

vt 0.184794 -0.393701
f 20/55/27 12/54/11 17/57/27

usemtl BackColor
vn -0.707476 -0 -0.706738
f 17/57/28 12/54/12 20/55/28

usemtl FrontColor
vt -0.723206 -3.42297
vn -3.96039e-06 0.480681 0.876895
vt 0.185014 -0.554405
vn 0.619992 0.480849 0.619995
vt -0.186559 -0.554487
f 13/58/29 17/59/30 12/60/29

vt 0.723093 -3.42299
f 17/59/30 13/58/29 14/61/30

usemtl BackColor
vn -0.619992 -0.480849 -0.619995
vn 3.96039e-06 -0.480681 -0.876895
f 14/61/31 13/58/32 17/59/31

f 12/60/32 17/59/31 13/58/32

usemtl FrontColor
vt 0.186225 -0.55454
vt -0.723093 -3.42298
vt 0.723206 -3.42296
f 12/62/29 2/63/3 13/64/29

vt -0.185348 -0.554458
f 2/63/3 12/62/29 5/65/3

usemtl BackColor
f 13/64/32 2/63/5 12/62/32

f 5/65/5 12/62/32 2/63/5

usemtl FrontColor
v 0.0479979 -0.075 -1.12799e-17
vt 0.723093 -3.42307
vn 0.87668 0.481074 1.5664e-05
vt -0.187159 -0.554078
vt -0.723206 -3.42305
f 22/66/33 17/67/30 14/68/30

v 0.0123263 -0.01 1.81693e-05
vt 0.185036 -0.553995
f 17/67/30 22/66/33 23/69/33

usemtl BackColor
vn -0.87668 -0.481074 -1.5664e-05
f 14/68/31 17/67/31 22/66/34

f 23/69/34 22/66/34 17/67/31

usemtl FrontColor
vt -0.723093 -3.42311
vt 0.185837 -0.553868
vt -0.186358 -0.553785
f 22/70/33 16/71/17 23/72/33

vt 0.723206 -3.42309
f 16/71/17 22/70/33 15/73/17

usemtl BackColor
f 23/72/34 16/71/18 22/70/34

usemtl FrontColor
vt -0.485287 -0.000715329
f 17/33/1 16/34/1 23/74/1

usemtl BackColor
f 23/74/2 16/34/2 17/33/2

usemtl FrontColor
vt 0.186056 -0.393701
v 0.0123263 0.02 1.81693e-05
vt -0.186138 0.787402
vn 1 0 1.08129e-15
vt -0.186138 -0.393701
f 16/75/20 24/76/35 23/77/35

vt 0.186056 0.787402
f 24/76/35 16/75/20 19/78/20

usemtl BackColor
vn -1 -0 -1.08129e-15
f 23/77/36 24/76/36 16/75/22

usemtl FrontColor
vt -0.187379 0.787402
vt 0.184816 -0.393701
vt 0.184816 0.787402
f 20/79/27 23/80/35 24/81/35

vt -0.187379 -0.393701
f 23/80/35 20/79/27 17/82/27

usemtl BackColor
f 17/82/28 20/79/28 23/80/36

f 24/81/36 23/80/36 20/79/28

usemtl FrontColor
vt 0.485287 -0.000715329
f 19/41/23 20/40/23 24/83/23

usemtl BackColor
f 19/41/24 20/40/24 18/39/24

f 24/83/24 20/40/24 19/41/24

f 19/78/22 16/75/22 24/76/36

f 15/73/18 22/70/34 16/71/18

usemtl Color_M00
vt -1.88968 4.44089e-16
f 14/27/1 15/28/1 22/84/1

f 22/84/2 15/28/2 14/27/2

usemtl BackColor
f 11/56/12 20/55/28 12/54/12

f 11/42/24 10/44/24 21/43/24

f 10/19/9 11/18/12 5/17/9

usemtl FrontColor
vt -0.185699 -0.553996
vt 0.186496 -0.553914
f 7/85/14 3/25/4 6/86/4

f 3/25/4 7/85/14 1/22/14

usemtl BackColor
f 6/86/6 3/25/6 7/85/15

f 1/22/15 7/85/15 3/25/6

g Mesh2 Model

l 13 14

l 2 13

l 3 2

l 1 3

l 4 1

l 15 4

l 22 15

l 14 22

g Mesh3 Model

l 16 8

l 23 16

l 17 23

l 12 17

l 5 12

l 6 5

l 7 6

l 8 7

g Mesh4 Model

l 10 11

l 9 10

l 21 9

l 18 21

l 19 18

l 24 19

l 20 24

l 11 20

