# Alias OBJ Model File
# Exported from SketchUp, (c) 2000-2012 Trimble Navigation Limited
# File units = meters

mtllib AnalyticalBalance.mtl

g Mesh1 Model

usemtl FrontColor
v 0.1 0 -0.12
vt -3.93701 4.72441
vn 0 -1 -0
v -0.1 0 0.12
vt 3.93701 -4.72441
v -0.1 0 -0.12
vt 3.93701 4.72441
f 1/1/1 2/2/1 3/3/1

v 0.1 0 0.12
vt -3.93701 -4.72441
f 2/2/1 1/1/1 4/4/1

usemtl BackColor
vn -0 1 0
f 3/3/2 2/2/2 1/1/2

usemtl FrontColor
vt 4.72441 0
vn -1 0 -0
v -0.1 0.02 0.08
vt 3.14961 0.787402
vt -4.72441 0
f 2/5/3 5/6/3 3/7/3

v -0.1 0.02 0.12
vt 4.72441 0.787402
f 5/6/3 2/5/3 6/8/3

usemtl BackColor
vn 1 -0 0
f 6/8/4 2/5/4 5/6/4

usemtl FrontColor
vt -3.93701 0
vn 0 0 1
v 0.1 0.02 0.12
vt 3.93701 0.787402
vt -3.93701 0.787402
f 2/9/5 7/10/5 6/11/5

vt 3.93701 0
f 7/10/5 2/9/5 4/12/5

usemtl BackColor
vn -0 -0 -1
f 4/12/6 2/9/6 7/10/6

f 4/4/2 1/1/2 2/2/2

usemtl FrontColor
vn 1 0 -0
vt -4.72441 0.787402
f 1/5/7 7/13/7 4/7/7

v 0.1 0.02 0.08
vt -3.14961 0.787402
f 7/13/7 1/5/7 8/14/7

usemtl BackColor
vn -1 -0 0
f 4/7/8 7/13/8 1/5/8

f 8/14/8 1/5/8 7/13/8

usemtl FrontColor
v 0.1 0.04 0.08
vt -3.14961 1.5748
f 8/14/7 1/5/7 9/15/7

usemtl BackColor
f 9/15/8 1/5/8 8/14/8

usemtl FrontColor
v 0.1 0.04 -0.12
vt 4.72441 1.5748
f 9/15/7 1/5/7 10/16/7

usemtl BackColor
f 10/16/8 1/5/8 9/15/8

usemtl FrontColor
vn 0 0 -1
v -0.1 0.04 -0.12
vt 3.93701 1.5748
vt -3.93701 1.5748
f 1/9/9 11/17/9 10/18/9

f 11/17/9 1/9/9 3/12/9

usemtl BackColor
vn -0 -0 1
f 3/12/10 1/9/10 11/17/10

f 10/18/10 11/17/10 1/9/10

usemtl FrontColor
vn 0 1 -0
v -0.09 0.04 -0.11
vt -3.54331 4.33071
f 11/1/11 12/19/11 10/3/11

v -0.09 0.04 0.07
vt -3.54331 -2.75591
f 12/19/11 11/1/11 13/20/11

usemtl BackColor
vn -0 -1 0
f 10/3/12 12/19/12 11/1/12

usemtl FrontColor
v 0.09 0.04 -0.11
vt 3.54331 4.33071
f 10/3/11 12/19/11 14/21/11

usemtl BackColor
f 14/21/12 12/19/12 10/3/12

usemtl Color_M02
v -0.09 0.05 -0.11
vt 3.54331 1.9685
vt -3.54331 1.5748
vt 3.54331 1.5748
f 15/22/9 14/23/9 12/24/9

v 0.09 0.05 -0.11
vt -3.54331 1.9685
f 14/23/9 15/22/9 16/25/9

usemtl BackColor
f 12/24/10 14/23/10 15/22/10

f 16/25/10 15/22/10 14/23/10

usemtl Color_M02
v 0.09 0.05 0.07
vt 3.54331 -2.75591
f 15/19/11 17/26/11 16/21/11

v -0.09 0.05 0.07
f 17/26/11 15/19/11 18/20/11

usemtl BackColor
f 18/20/12 15/19/12 17/26/12

usemtl Color_M02
vt -4.33071 1.9685
vt 2.75591 1.5748
vt 2.75591 1.9685
f 15/27/3 13/28/3 18/29/3

vt -4.33071 1.5748
f 13/28/3 15/27/3 12/30/3

usemtl BackColor
f 18/29/4 13/28/4 15/27/4

usemtl Color_M02
f 13/23/5 17/22/5 18/25/5

v 0.09 0.04 0.07
f 17/22/5 13/23/5 19/24/5

usemtl BackColor
f 19/24/6 13/23/6 17/22/6

usemtl FrontColor
vt 3.93701 -3.14961
f 13/20/11 9/31/11 19/26/11

v -0.1 0.04 0.08
vt -3.93701 -3.14961
f 13/20/11 20/32/11 9/31/11

f 20/32/11 13/20/11 11/1/11

usemtl BackColor
f 11/1/12 13/20/12 20/32/12

f 13/20/12 11/1/12 12/19/12

f 12/30/4 15/27/4 13/28/4

f 9/31/12 20/32/12 13/20/12

usemtl FrontColor
f 5/11/5 9/17/5 20/18/5

f 9/17/5 5/11/5 8/10/5

usemtl BackColor
f 8/10/6 5/11/6 9/17/6

usemtl FrontColor
f 5/32/11 7/2/11 8/31/11

f 7/2/11 5/32/11 6/4/11

usemtl BackColor
f 6/4/12 5/32/12 7/2/12

usemtl FrontColor
vt 3.14961 1.5748
f 5/6/3 6/8/3 20/33/3

usemtl BackColor
f 20/33/4 6/8/4 5/6/4

usemtl FrontColor
vt -3.93701 -3.8735
vn 0 0.894427 0.447214
v -0.095 0.0222361 0.115528
vt -3.74016 -3.67665
vt -3.93701 -2.11282
f 6/34/13 21/35/13 20/36/13

vt 3.93701 -3.8735
f 21/35/13 6/34/13 7/37/13

usemtl BackColor
vn -0 -0.894427 -0.447214
f 20/36/14 21/35/14 6/34/14

usemtl FrontColor
v -0.095 0.0377639 0.0844721
vt -3.74016 -2.30967
f 22/38/13 20/36/13 21/35/13

vt 3.93701 -2.11282
f 20/36/13 22/38/13 9/39/13

usemtl BackColor
f 9/39/14 22/38/14 20/36/14

usemtl FrontColor
v 0.0397133 0.0377639 0.0844721
vt 1.56352 -2.30967
f 9/39/13 22/38/13 23/40/13

usemtl BackColor
f 23/40/14 22/38/14 9/39/14

usemtl FrontColor
v -0.095 0.0359751 0.0835777
vt -3.74016 2.73835
vn 1.87543e-17 -0.447214 0.894427
vt 1.56352 2.81709
vt -3.74016 2.81709
f 24/41/15 23/42/15 22/43/15

v 0.0397133 0.0359751 0.0835777
vt 1.56352 2.73835
f 23/42/15 24/41/15 25/44/15

usemtl BackColor
vn -1.87543e-17 0.447214 -0.894427
f 25/44/16 24/41/16 23/42/16

usemtl Color_M09
vn 2.11813e-17 0.894427 0.447214
v 0.0397133 0.0204472 0.114633
vt 1.56352 -3.67665
f 24/38/17 26/45/17 25/40/17

v -0.095 0.0204472 0.114633
f 26/45/17 24/38/17 27/35/17

usemtl BackColor
vn -2.11813e-17 -0.894427 -0.447214
f 27/35/18 24/38/18 26/45/18

usemtl FrontColor
vt -3.32567 1.48677
vn 1 1.58731e-17 7.93653e-18
vt -4.51313 0.805008
vt -3.29046 1.41634
f 22/46/19 27/47/19 24/48/19

vt -4.54834 0.875436
f 27/47/19 22/46/19 21/49/19

usemtl BackColor
vn -1 -1.58731e-17 -7.93653e-18
f 21/49/20 22/46/20 27/47/20

f 21/35/14 20/36/14 22/38/14

f 24/48/20 27/47/20 22/46/20

f 22/43/16 23/42/16 24/41/16

usemtl FrontColor
v 0.0397133 0.0222361 0.115528
vt -1.56352 2.81709
vn 2.82418e-17 0.447214 -0.894427
vt 3.74016 2.73835
vt 3.74016 2.81709
f 28/50/21 27/51/21 21/52/21

vt -1.56352 2.73835
f 27/51/21 28/50/21 26/53/21

usemtl BackColor
vn -2.82418e-17 -0.447214 0.894427
f 26/53/22 28/50/22 27/51/22

usemtl FrontColor
vt 3.32567 1.48677
vn -1 -1.45285e-16 2.90571e-16
vt 4.51313 0.805008
vt 4.54834 0.875436
f 23/54/23 26/55/23 28/56/23

vt 3.29046 1.41634
f 26/55/23 23/54/23 25/57/23

usemtl BackColor
vn 1 1.45285e-16 -2.90571e-16
f 28/56/24 26/55/24 23/54/24

f 25/57/24 23/54/24 26/55/24

f 25/40/18 26/45/18 24/38/18

usemtl FrontColor
vn -2.72474e-16 0.894427 0.447214
v 0.095 0.0377639 0.0844721
vt 3.74016 -2.30967
f 28/45/25 29/58/25 23/40/25

v 0.095 0.0222361 0.115528
vt 3.74016 -3.67665
f 29/58/25 28/45/25 30/59/25

usemtl BackColor
vn 2.72474e-16 -0.894427 -0.447214
f 23/40/26 29/58/26 28/45/26

usemtl FrontColor
f 9/39/13 23/40/13 29/58/13

usemtl BackColor
f 29/58/14 23/40/14 9/39/14

usemtl FrontColor
f 9/39/13 29/58/13 7/37/13

usemtl BackColor
f 7/37/14 29/58/14 9/39/14

usemtl FrontColor
f 30/59/13 7/37/13 29/58/13

f 28/45/13 7/37/13 30/59/13

f 21/35/13 7/37/13 28/45/13

usemtl BackColor
f 7/37/14 6/34/14 21/35/14

f 6/11/6 7/10/6 2/9/6

f 28/45/14 7/37/14 21/35/14

f 30/59/14 7/37/14 28/45/14

f 29/58/14 7/37/14 30/59/14

f 30/59/26 28/45/26 29/58/26

f 21/52/22 27/51/22 28/50/22

usemtl FrontColor
f 9/15/7 7/13/7 8/14/7

usemtl BackColor
f 8/14/8 7/13/8 9/15/8

f 8/31/12 7/2/12 5/32/12

f 20/18/6 9/17/6 5/11/6

usemtl FrontColor
vt -4.72441 1.5748
f 11/60/3 5/6/3 20/33/3

f 3/7/3 5/6/3 11/60/3

usemtl BackColor
f 3/7/4 5/6/4 2/5/4

f 11/60/4 5/6/4 3/7/4

f 20/33/4 5/6/4 11/60/4

f 19/26/12 9/31/12 13/20/12

usemtl FrontColor
f 10/3/11 19/26/11 9/31/11

f 10/3/11 14/21/11 19/26/11

usemtl BackColor
f 19/26/12 14/21/12 10/3/12

usemtl Color_M02
vt 4.33071 1.5748
vn 1 0 -6.26659e-17
vt -2.75591 1.9685
vt -2.75591 1.5748
f 14/61/27 17/62/27 19/63/27

vt 4.33071 1.9685
f 17/62/27 14/61/27 16/64/27

usemtl BackColor
vn -1 -0 6.26659e-17
f 19/63/28 17/62/28 14/61/28

f 16/64/28 14/61/28 17/62/28

f 16/21/12 17/26/12 15/19/12

f 9/31/12 19/26/12 10/3/12

f 18/25/6 17/22/6 13/23/6

g Mesh2 Model

l 3 2

l 1 3

l 4 1

l 2 4

l 2 6

l 6 7

l 5 6

l 5 8

l 5 20

l 11 20

l 3 11

l 10 11

l 1 10

l 9 10

l 20 9

l 20 6

l 8 9

l 7 8

l 4 7

l 7 9

g Mesh3 Model

l 21 22

l 21 27

l 28 21

l 30 28

l 29 30

l 23 29

l 22 23

l 22 24

l 24 25

l 27 24

l 26 27

l 25 26

l 25 23

l 23 28

l 26 28

g Mesh4 Model

l 14 12

l 19 14

l 13 19

l 12 13

l 12 15

l 15 18

l 16 15

l 17 16

l 18 17

l 13 18

l 19 17

l 14 16

