# Alias OBJ Model File
# Exported from SketchUp, (c) 2000-2012 Trimble Navigation Limited
# File units = meters

mtllib GasSac_Highlight.mtl

g Mesh1 Component_1_1 Model

usemtl Color_M00
v -0.0697717 -0.120549 0.0166099
vt 1.23222 1.1504
vn 1.00024e-17 -0.358319 0.933599
v 0.0595022 -0.157794 0.00231513
vt 5.50913 -0.169459
v 0.0697717 -0.120549 0.0166099
vt 5.84889 1.1504
vn 8.42322e-18 -0.358319 0.933599
f 1/1/1 2/2/1 3/3/2

usemtl Color_M01
vn -8.42322e-18 0.358319 -0.933599
vn -1.00024e-17 0.358319 -0.933599
f 3/3/3 2/2/4 1/1/4

usemtl Color_M00
v 0.0595022 -0.157794 -0.000420059
vt 0.56342 1.46438
vn 0.964025 -0.26581 -2.39802e-18
vt 0 2.74258
vt 0.472929 1.46438
vn 0.964025 -0.26581 -0
f 4/4/5 3/5/5 2/6/6

usemtl Color_M01
vn -0.964025 0.26581 0
vn -0.964025 0.26581 2.39802e-18
f 2/6/7 3/5/8 4/4/8

usemtl Color_M00
v 0.107017 -0.110426 0.00246171
vt 6.49076 2.63533
vn 0.420023 -0.423806 0.802477
vt 5.18198 2.26557
vt 5.10027 0.905137
f 5/7/9 3/8/9 2/9/9

v 0.0697717 0.120549 0.0166099
vt 5.46768 9.20872
vn 0.35511 0 0.934825
vt 5.46768 1.23222
vt 6.78581 1.56713
f 6/10/10 3/11/10 5/12/10

vt 5.84889 9.20872
vn 0 0 1
vt 1.23222 1.23222
vt 5.84889 1.23222
f 6/13/11 1/14/11 3/15/11

v -0.0697717 0.120549 0.0166099
vt 1.23222 9.20872
f 1/14/11 6/13/11 7/16/11

usemtl Color_M01
vn -0 -0 -1
f 3/15/12 1/14/12 6/13/12

usemtl Color_M00
vt -5.84889 0
vn 0 -1 -0
vt -1.23222 0
v 0.0697717 -0.120549 -0.0166099
vt -5.84889 1.09905
f 3/17/13 1/18/13 8/19/13

usemtl Color_M01
vn -0 1 0
f 8/19/14 1/18/14 3/17/14

usemtl Color_M00
v -0.0697717 -0.120549 -0.0166099
vt -1.23222 1.09905
f 8/19/13 1/18/13 9/20/13

usemtl Color_M01
f 9/20/14 1/18/14 8/19/14

usemtl Color_M00
vt -1.09905 0.860352
vn -0.964025 -0.26581 -1.19901e-17
v -0.0595022 -0.157794 -0.000420059
vt -0.56342 -0.417847
vn -0.964025 -0.26581 2.82383e-15
vt -1.53257e-17 0.860352
f 9/21/15 10/22/16 1/23/16

vt -5.84889 1.5682
vn 5.68851e-18 -0.398651 -0.917103
vt -1.57197 0.224608
vt -1.23222 1.5682
vn 0 -0.398651 -0.917103
f 8/24/17 10/25/17 9/26/18

usemtl Color_M01
vn -0 0.398651 0.917103
vn -5.68851e-18 0.398651 0.917103
f 9/26/19 10/25/20 8/24/20

vn 0.964025 0.26581 -2.82383e-15
vn 0.964025 0.26581 1.19901e-17
f 1/23/21 10/22/21 9/21/22

usemtl Color_M00
v -0.0595022 -0.157794 0.00231513
vt -0.472929 -0.417847
vn -0.964025 -0.26581 5.65964e-15
vt 7.23415e-15 0.860352
f 10/22/16 11/27/23 1/28/16

usemtl Color_M01
vn 0.964025 0.26581 -5.65964e-15
f 1/28/21 11/27/24 10/22/21

usemtl Color_M00
vt 1.57197 -0.169459
vn 1.15817e-17 -0.358319 0.933599
f 1/1/1 11/29/25 2/2/1

usemtl Color_M01
vn -1.15817e-17 0.358319 -0.933599
f 2/2/4 11/29/26 1/1/4

usemtl Color_M00
vt -1.57197 0.472929
vt -5.50913 0.56342
vt -5.50913 0.472929
f 11/30/13 4/31/13 2/32/13

vt -1.57197 0.56342
f 4/31/13 11/30/13 10/33/13

usemtl Color_M01
f 10/33/14 11/30/14 4/31/14

usemtl Color_M00
vt -0.56342 -1.11092
vn -0.707512 -0.706701 -0
vt -0.472929 -1.11092
v -0.107017 -0.110225 0.00226064
vt -0.474732 1.11347
f 10/34/27 11/35/27 12/36/27

usemtl Color_M01
vn 0.707512 0.706701 0
f 12/36/28 11/35/28 10/34/28

usemtl Color_M00
vt 0.223079 1.24747
vn 0.425545 0.424142 -0.799384
vt -1.0877 0.870301
vt -1.16538 -0.490368
f 12/37/29 1/38/29 11/39/29

vt 1.14983 9.20872
vn -0.359508 3.37338e-18 0.933142
vt -0.17067 1.57378
vt 1.14983 1.23222
vn -0.359508 0 0.933142
f 7/40/30 12/41/30 1/42/31

usemtl Color_M01
vn 0.359508 -0 -0.933142
vn 0.359508 -3.37338e-18 -0.933142
f 1/42/32 12/41/33 7/40/33

usemtl Color_M00
vt 0 -0.858291
vn -0.26712 -0.963663 -2.09748e-18
vt -0.474732 0.420388
vn -0.26712 -0.963663 -0
v -0.107017 -0.110225 -0.000365562
vt -0.561617 0.420388
f 1/43/34 12/44/35 13/45/34

usemtl Color_M01
vn 0.26712 0.963663 2.09748e-18
vn 0.26712 0.963663 0
f 13/45/36 12/44/37 1/43/36

usemtl Color_M00
vt -0.474732 1.57378
vn -1 0 -0
v -0.107017 0.110225 -0.000365562
vt -0.561617 8.86716
vt -0.561617 1.57378
f 12/46/38 14/47/38 13/48/38

v -0.107017 0.110225 0.00226064
vt -0.474732 8.86716
f 14/47/38 12/46/38 15/49/38

usemtl Color_M01
vn 1 -0 0
f 15/49/39 12/46/39 14/47/39

usemtl Color_M00
vt -0.17067 8.86716
vn -0.359508 6.74676e-18 0.933142
f 7/40/30 15/50/40 12/41/30

vt 0 3.64728
vn -0.26712 0.963663 3.29603e-18
vt -0.561617 2.3686
vt -0.474732 2.3686
vn -0.26712 0.963663 -0
f 7/51/41 14/52/41 15/53/42

v -0.0697717 0.120549 -0.0166099
vt -1.09905 3.64728
vn -0.26712 0.963663 6.59206e-18
vt 3.04089e-17 3.64728
f 16/54/43 14/52/41 7/55/41

usemtl Color_M01
vn 0.26712 -0.963663 -3.29603e-18
vn 0.26712 -0.963663 -6.59206e-18
f 7/55/44 14/52/44 16/54/45

vn 0.26712 -0.963663 0
f 15/53/46 14/52/44 7/51/44

usemtl Color_M00
vt -0.561617 6.27048
vn -0.707158 0.707056 -0
vt -0.474732 6.27048
v -0.0594545 0.157794 0.00226749
vt -0.474505 8.49598
f 14/56/47 15/57/47 17/58/47

usemtl Color_M01
vn 0.707158 -0.707056 0
f 17/58/48 15/57/48 14/56/48

usemtl Color_M00
vt -1.1655 9.94189
vn 0.425623 -0.425447 -0.798648
vt -1.08743 8.58029
vt 0.223272 8.20287
f 17/59/49 7/60/49 15/61/49

v -0.0594545 0.157794 -0.000372411
vt -0.561844 10.4821
vn -0.963709 0.266956 -6.59238e-18
vt 0 9.20347
vt -0.474505 10.4821
vn -0.963709 0.266956 -0
f 18/62/50 7/63/50 17/64/51

vt -1.09905 9.20347
vn -0.963709 0.266956 -1.31848e-17
vt -1.68583e-17 9.20347
f 16/65/52 7/66/50 18/62/50

usemtl Color_M01
vn 0.963709 -0.266956 6.59238e-18
vn 0.963709 -0.266956 1.31848e-17
f 18/62/53 7/66/53 16/65/54

vn 0.963709 -0.266956 0
f 17/64/55 7/63/53 18/62/53

usemtl Color_M00
vn -0.425623 0.425447 0.798648
f 15/61/56 7/60/56 17/59/56

usemtl Color_M01
vn 0.359508 -6.74676e-18 -0.933142
f 12/41/33 15/50/57 7/40/33

usemtl FrontColor
vt 1.23222 8.59357
vn -2.58211e-18 0.359359 0.933199
v 0.0594545 0.157794 0.00226749
vt 5.50755 9.91399
vt 1.57355 9.91399
f 7/67/58 19/68/58 17/69/58

vt 5.84889 8.59357
f 19/68/58 7/67/58 6/70/58

usemtl BackColor
vn 2.58211e-18 -0.359359 -0.933199
f 6/70/59 7/67/59 19/68/59

usemtl Color_M00
v 0.0697717 0.120549 -0.0166099
vt 5.84889 1.09905
vn 0 1 -0
vt 1.23222 0
vt 5.84889 0
f 20/71/60 7/72/60 6/73/60

usemtl Color_M01
vn -0 -1 0
f 6/73/61 7/72/61 20/71/61

f 7/16/12 6/13/12 1/14/12

usemtl Color_M00
vt -1.09905 1.23222
vt 0 1.23222
vt 0 9.20872
f 9/74/38 1/75/38 7/76/38

vt -1.93511e-17 -0.858291
vt -1.09905 -0.858291
vn -0.26712 -0.963663 -4.19495e-18
f 1/77/34 13/45/34 9/78/62

usemtl Color_M01
vn 0.26712 0.963663 4.19495e-18
f 9/78/63 13/45/36 1/77/36

usemtl Color_M00
vt -0.224522 8.86716
vn -0.399778 8.85433e-18 -0.916612
vt -1.56884 1.23222
vt -0.224522 1.57378
vn -0.399778 6.62724e-18 -0.916612
f 14/79/64 9/80/64 13/81/65

vt -1.56884 9.20872
vn -0.399778 1.10814e-17 -0.916612
f 16/82/66 9/80/64 14/79/64

usemtl Color_M01
vn 0.399778 -8.85433e-18 0.916612
vn 0.399778 -1.10814e-17 0.916612
f 14/79/67 9/80/67 16/82/68

vn 0.399778 -6.62724e-18 0.916612
f 13/81/69 9/80/67 14/79/67

usemtl Color_M00
vt -0.289906 1.61945
vn -0.458985 -0.457587 -0.761543
vt -1.62268 1.23531
vt -1.63718 -0.150499
f 13/83/70 9/84/70 10/85/70

usemtl Color_M01
vn 0.458985 0.457587 0.761543
f 10/85/71 9/84/71 13/83/71

usemtl Color_M00
vt -0.561617 1.11347
f 10/34/27 12/36/27 13/86/27

usemtl Color_M01
f 13/86/28 12/36/28 10/34/28

f 13/48/39 14/47/39 12/46/39

usemtl Color_M00
vt -1.23222 9.20872
vn 0 0 -1
vt -5.84889 1.23222
vt -1.23222 1.23222
f 16/87/72 8/88/72 9/89/72

vt -5.84889 9.20872
f 8/88/72 16/87/72 20/90/72

usemtl Color_M01
vn -0 -0 1
f 9/89/73 8/88/73 16/87/73

f 20/90/73 16/87/73 8/88/73

usemtl Color_M00
vt 1.23222 1.09905
f 20/71/60 16/91/60 7/72/60

usemtl Color_M01
f 7/72/61 16/91/61 20/71/61

usemtl Color_M00
vt -1.09905 9.20872
f 9/74/38 7/76/38 16/92/38

usemtl Color_M01
f 16/92/39 7/76/39 9/74/39

f 7/76/39 1/75/39 9/74/39

usemtl FrontColor
vt -1.57355 9.3464
vn 6.83232e-18 0.399637 -0.916674
vt -5.84889 8.00217
vt -1.23222 8.00217
f 18/93/74 20/94/74 16/95/74

v 0.0594545 0.157794 -0.000372411
vt -5.50755 9.3464
f 20/94/74 18/93/74 21/96/74

usemtl BackColor
vn -6.83232e-18 -0.399637 0.916674
f 16/95/75 20/94/75 18/93/75

f 21/96/75 18/93/75 20/94/75

usemtl FrontColor
vt 1.57355 0.561844
vt 5.50755 0.474505
vt 5.50755 0.561844
f 18/97/60 19/98/60 21/99/60

vt 1.57355 0.474505
f 19/98/60 18/97/60 17/100/60

usemtl BackColor
f 17/100/61 18/97/61 19/98/61

usemtl Color_M00
vt -0.561844 8.49598
vn -0.707158 0.707056 -1.36608e-15
f 18/101/76 14/56/76 17/58/76

vt -1.63757 9.4293
vn -0.458999 0.458824 -0.760789
vt -1.62282 8.04249
vt -0.290123 7.65808
f 18/102/77 16/103/77 14/104/77

usemtl Color_M01
vn 0.458999 -0.458824 0.760789
f 14/104/78 16/103/78 18/102/78

vn 0.707158 -0.707056 1.36608e-15
f 17/58/79 14/56/79 18/101/79

usemtl BackColor
f 21/99/61 19/98/61 18/97/61

usemtl Color_M00
vt 0.561844 8.59175
vn 0.963709 0.266956 -6.07363e-15
vt 0.474505 8.59175
vn 0.963709 0.266956 -1.21473e-14
vt -7.37235e-14 7.31313
f 21/105/80 19/106/81 6/107/80

usemtl Color_M01
vn -0.963709 -0.266956 6.07363e-15
vn -0.963709 -0.266956 1.21473e-14
f 6/107/82 19/106/83 21/105/82

usemtl Color_M00
vt -5.09865 8.54253
vn -0.4201 -0.42511 -0.801746
v 0.107017 0.110426 0.00246171
vt -6.48947 6.81117
vt -5.18076 7.18118
f 19/108/84 22/109/84 6/110/84

vn 0.4201 0.42511 0.801746
f 6/110/85 22/109/85 19/108/85

vt 6.78581 8.87381
f 6/10/10 5/12/10 22/111/10

usemtl Color_M01
vn -0.35511 -0 -0.934825
f 22/111/86 5/12/86 6/10/86

usemtl Color_M00
v 0.107017 -0.110426 -0.000566633
vt 0.56827 1.56713
vn 1 0 -0
vt 0.46808 8.87381
vt 0.46808 1.56713
f 23/112/87 22/113/87 5/114/87

v 0.107017 0.110426 -0.000566633
vt 0.56827 8.87381
f 22/113/87 23/112/87 24/115/87

usemtl Color_M01
vn -1 -0 0
f 5/114/88 22/113/88 23/112/88

f 24/115/88 23/112/88 22/113/88

usemtl Color_M00
vt -6.27861 8.87381
vn 0.395609 -3.30807e-18 -0.918419
vt -6.27861 1.56713
vn 0.395609 -6.61615e-18 -0.918419
vt -4.93694 1.23222
f 24/116/89 23/117/90 8/118/89

usemtl Color_M01
vn -0.395609 3.30807e-18 0.918419
vn -0.395609 6.61615e-18 0.918419
f 8/118/91 23/117/92 24/116/91

usemtl Color_M00
vt 0.56827 7.24423
vn 0.262279 -0.964992 4.20073e-18
vt 1.87355e-16 5.96731
vt 1.09905 5.96731
vn 0.262279 -0.964992 8.40147e-18
f 23/119/93 3/120/93 8/121/94

usemtl Color_M01
vn -0.262279 0.964992 -8.40147e-18
vn -0.262279 0.964992 -4.20073e-18
f 8/121/95 3/120/96 23/119/96

usemtl Color_M00
vt 1.09905 2.74258
vn 0.964025 -0.26581 -4.79603e-18
vt -2.90982e-17 2.74258
f 8/122/97 3/123/5 4/4/5

usemtl Color_M01
vn -0.964025 0.26581 4.79603e-18
f 4/4/8 3/123/8 8/122/98

usemtl Color_M00
vt 1.09905 1.23222
f 8/124/87 6/76/87 3/75/87

usemtl Color_M01
f 3/75/88 6/76/88 8/124/88

f 5/12/86 3/11/86 6/10/86

usemtl Color_M00
vt 0.46808 7.24423
vn 0.262279 -0.964992 -0
vt 0 5.96731
f 5/125/99 3/126/93 23/119/93

usemtl Color_M01
vn -0.262279 0.964992 0
f 23/119/96 3/126/96 5/125/100

vn -0.420023 0.423806 -0.802477
f 2/9/101 3/8/101 5/7/101

usemtl Color_M00
vt 0.46808 6.12124
vn 0.706014 -0.708198 -0
vt 0.472929 3.90155
vt 0.56827 6.12124
f 5/127/102 2/128/102 23/129/102

usemtl Color_M01
vn -0.706014 0.708198 0
f 23/129/103 2/128/103 5/127/103

usemtl Color_M00
vt 0.56342 3.90155
f 23/129/102 2/128/102 4/130/102

usemtl Color_M01
f 4/130/103 2/128/103 23/129/103

f 2/32/14 4/31/14 11/30/14

usemtl Color_M00
vt -5.79977 3.2703
vn 0.453751 -0.457521 -0.764712
vt -4.45035 1.5079
vt -4.46922 2.89366
f 23/131/104 4/132/104 8/133/104

usemtl Color_M01
vn -0.453751 0.457521 0.764712
f 8/133/105 4/132/105 23/131/105

usemtl Color_M00
vt -5.50913 0.224608
vn 1.1377e-17 -0.398651 -0.917103
f 8/24/17 4/134/106 10/25/17

usemtl Color_M01
vn -1.1377e-17 0.398651 0.917103
f 10/25/20 4/134/107 8/24/20

usemtl Color_M00
vt 1.09905 9.20872
f 20/135/87 6/76/87 8/124/87

vt 0.56827 -4.50579
vn 0.262279 0.964992 2.31859e-15
vt 1.09905 -3.22887
vn 0.262279 0.964992 1.56027e-17
vt 3.47944e-16 -3.22887
f 24/136/108 20/137/109 6/138/108

usemtl Color_M01
vn -0.262279 -0.964992 -2.31859e-15
vn -0.262279 -0.964992 -1.56027e-17
f 6/138/110 20/137/111 24/136/110

usemtl Color_M00
vt 1.09905 7.31313
vn 0.963709 0.266956 -0
vt 0 7.31313
f 20/139/112 21/105/80 6/140/80

usemtl Color_M01
vn -0.963709 -0.266956 0
f 6/140/82 21/105/82 20/139/113

usemtl Color_M00
vt -4.44834 7.76553
vn 0.453764 0.458757 -0.763963
vt -5.79796 6.00186
vt -4.46747 6.37877
f 21/141/114 24/142/114 20/143/114

vt 0.56827 1.24455
vn 0.705659 0.708552 1.04045e-15
vt 0.561844 3.46535
vt 0.46808 1.24455
f 24/144/115 21/145/115 22/146/115

usemtl Color_M01
vn -0.705659 -0.708552 -1.04045e-15
f 22/146/116 21/145/116 24/144/116

usemtl Color_M00
vn 0.705659 0.708552 -0
vt 0.474505 3.46535
f 22/146/117 21/145/117 19/147/117

usemtl Color_M01
vn -0.705659 -0.708552 0
f 19/147/118 21/145/118 22/146/118

vn -0.453764 -0.458757 0.763963
f 20/143/119 24/142/119 21/141/119

usemtl Color_M00
vt -4.93694 9.20872
vn 0.395609 0 -0.918419
f 20/148/120 24/116/89 8/118/89

usemtl Color_M01
vn -0.395609 -0 0.918419
f 8/118/91 24/116/91 20/148/121

f 8/124/88 6/76/88 20/135/88

usemtl Color_M00
vt 1.03062e-13 -3.22887
vt 0.46808 -4.50579
vn 0.262279 0.964992 4.62158e-15
f 24/136/108 6/149/108 22/150/122

usemtl Color_M01
vn -0.262279 -0.964992 -4.62158e-15
f 22/150/123 6/149/110 24/136/110

usemtl BackColor
f 17/69/59 19/68/59 7/67/59

usemtl Color_M00
vn -0.425545 -0.424142 0.799384
f 11/39/124 1/38/124 12/37/124

g Mesh2 Component_1_1 Model

l 2 3

l 4 2

l 10 4

l 11 10

l 11 1

l 2 11

l 5 2

l 5 23

l 22 5

l 24 22

l 23 24

l 23 8

l 4 23

l 8 4

l 8 20

l 9 8

l 16 9

l 7 16

l 6 7

l 6 20

l 3 6

l 1 3

l 7 1

l 15 7

l 15 14

l 12 15

l 1 12

l 1 9

l 9 10

l 9 13

l 14 13

l 16 14

l 16 18

l 20 16

l 24 20

l 24 21

l 19 21

l 19 6

l 19 17

l 19 22

l 22 6

l 21 22

l 20 21

l 18 21

l 18 17

l 18 14

l 17 14

l 7 17

l 15 17

l 13 12

l 10 13

l 12 10

l 11 12

l 5 3

l 3 8

l 23 2

