# Alias OBJ Model File
# Exported from SketchUp, (c) 2000-2012 Trimble Navigation Limited
# File units = meters

mtllib TestTube_Liquid.mtl

g Mesh1 Model

usemtl Color_M00
v 0.00850192 -0.115361 -0.0147691
vt -0.336198 -3.76663
vn -0.769111 0.459664 0.444046
v 0.0103135 -0.126639 4.33013e-05
vt 0.204498 -4.26659
v 0.0170538 -0.115361 4.33013e-05
vt 0.337182 -3.76663
f 1/1/1 2/2/1 3/3/1

v 0.0047575 -0.126639 -0.00958
vt -0.232983 -4.26659
f 2/2/1 1/1/1 4/4/1

vn 0.769111 -0.459664 -0.444046
f 3/3/2 2/2/2 1/1/2

vt 0.334229 -3.76585
vn 0.769111 -0.459664 0.444046
v 0.0047575 -0.126639 0.0096666
vt -0.235936 -4.26581
vt 0.201546 -4.26581
f 3/5/3 5/6/3 2/7/3

v 0.00850192 -0.115361 0.0148557
vt -0.339151 -3.76585
f 5/6/3 3/5/3 6/8/3

vn -0.769111 0.459664 -0.444046
f 6/8/4 3/5/4 5/6/4

vt 0.334229 -4.54177
vn 0.866025 0 0.5
v 0.00850192 0.034639 0.0148557
vt -0.339151 1.36374
vt -0.339151 -4.54177
f 3/9/5 7/10/5 6/11/5

v 0.0170538 0.034639 4.33013e-05
vt 0.334229 1.36374
f 7/10/5 3/9/5 8/12/5

vn -0.866025 -0 -0.5
f 6/11/6 7/10/6 3/9/6

vt 0.334721 1.36374
vn -3.29746e-16 0 1
v -0.00860192 -0.115361 0.0148557
vt -0.338658 -4.54177
vt 0.334721 -4.54177
f 7/13/7 9/14/7 6/15/7

v -0.00860192 0.034639 0.0148557
vt -0.338658 1.36374
f 9/14/7 7/13/7 10/16/7

vn 3.29746e-16 -0 -1
f 6/15/8 9/14/8 7/13/8

v -0.00635453 -0.126639 0.0096666
vt -0.250178 -4.37028
vn -4.27676e-16 -0.417986 0.908453
vt 0.334721 -3.88152
vt -0.338658 -3.88152
f 11/17/9 6/18/9 9/19/9

vt 0.187303 -4.37028
f 6/18/9 11/17/9 5/20/9

vn 4.27676e-16 0.417986 -0.908453
f 5/20/10 11/17/10 6/18/10

usemtl FrontColor
vt 0.250178 -0.380575
vn 0 -1 -0
v -0.00635453 -0.126639 -0.00958
vt 0.250178 0.377165
vt -0.187303 -0.380575
f 11/21/11 12/22/11 5/23/11

v -0.0119105 -0.126639 4.33013e-05
vt 0.468919 -0.00170477
f 12/22/11 11/21/11 13/24/11

usemtl BackColor
vn -0 1 0
f 13/24/12 11/21/12 12/22/12

usemtl Color_M00
vt 0.204498 -4.47299
vn -0.803354 -0.373493 0.463817
v -0.0171538 -0.115361 4.33013e-05
vt -0.336198 -3.99434
vt -0.232983 -4.47299
f 11/25/13 14/26/13 13/27/13

vt 0.337182 -3.99434
f 14/26/13 11/25/13 9/28/13

vn 0.803354 0.373493 -0.463817
f 9/28/14 11/25/14 14/26/14

f 9/19/10 6/18/10 11/17/10

f 13/27/14 14/26/14 11/25/14

v -0.00860192 -0.115361 -0.0147691
vt -0.334229 -3.99497
vn -0.803354 -0.373493 -0.463817
vt 0.235936 -4.47363
vt 0.339151 -3.99497
f 15/29/15 13/30/15 14/31/15

vt -0.201546 -4.47363
f 13/30/15 15/29/15 12/32/15

vn 0.803354 0.373493 0.463817
f 14/31/16 13/30/16 15/29/16

f 12/32/16 15/29/16 13/30/16

vt 0.338658 -3.88295
vn 9.2973e-18 -0.417986 -0.908453
vt -0.187303 -4.3717
vt 0.250178 -4.3717
f 15/33/17 4/34/17 12/35/17

vt -0.334721 -3.88295
f 4/34/17 15/33/17 1/36/17

vn -9.2973e-18 0.417986 0.908453
f 12/35/18 4/34/18 15/33/18

usemtl FrontColor
vt -0.187303 0.377165
f 5/23/11 12/22/11 4/37/11

usemtl BackColor
f 5/23/12 12/22/12 11/21/12

f 4/37/12 12/22/12 5/23/12

usemtl FrontColor
vt -0.406044 -0.00170477
f 5/23/11 4/37/11 2/38/11

usemtl BackColor
f 2/38/12 4/37/12 5/23/12

usemtl Color_M00
f 4/4/2 1/1/2 2/2/2

f 1/36/18 15/33/18 4/34/18

v -0.00860192 0.034639 -0.0147691
vt 0.338658 1.36374
vn 0 0 -1
vt -0.334721 -4.54177
vt 0.338658 -4.54177
f 16/39/19 1/40/19 15/41/19

v 0.00850192 0.034639 -0.0147691
vt -0.334721 1.36374
f 1/40/19 16/39/19 17/42/19

vn -0 -0 1
f 15/41/20 1/40/20 16/39/20

f 17/42/20 16/39/20 1/40/20

vt -0.338658 0.581459
vn 0 1 -0
vt 0.334721 -0.584869
vt 0.334721 0.581459
f 16/43/21 7/44/21 17/45/21

vt -0.338658 -0.584869
f 16/43/21 10/46/21 7/44/21

v -0.0171538 0.034639 4.33013e-05
vt -0.675348 -0.00170477
f 10/46/21 16/43/21 18/47/21

vn -0 -1 0
f 18/47/22 16/43/22 10/46/22

vt -0.334229 1.36374
vn -0.866025 0 -0.5
vt 0.339151 -4.54177
vt 0.339151 1.36374
f 16/48/23 14/49/23 18/50/23

vt -0.334229 -4.54177
f 14/49/23 16/48/23 15/51/23

vn 0.866025 -0 0.5
f 18/50/24 14/49/24 16/48/24

vt 0.337182 -4.54177
vn -0.866025 0 0.5
vt -0.336198 1.36374
vt -0.336198 -4.54177
f 9/52/25 18/53/25 14/54/25

vt 0.337182 1.36374
f 18/53/25 9/52/25 10/55/25

vn 0.866025 -0 -0.5
f 10/55/26 9/52/26 18/53/26

f 10/16/8 7/13/8 9/14/8

f 7/44/22 10/46/22 16/43/22

f 17/45/22 7/44/22 16/43/22

vt 0.671411 -0.00170477
f 17/45/21 7/44/21 8/56/21

f 8/56/22 7/44/22 17/45/22

f 8/12/6 3/9/6 7/10/6

vt 0.336198 -4.54177
vn 0.866025 0 -0.5
vt -0.337182 1.36374
vt -0.337182 -4.54177
f 1/57/27 8/58/27 3/59/27

vt 0.336198 1.36374
f 8/58/27 1/57/27 17/60/27

vn -0.866025 -0 0.5
f 3/59/28 8/58/28 1/57/28

f 17/60/28 1/57/28 8/58/28

f 14/54/26 18/53/26 9/52/26

f 15/51/24 16/48/24 14/49/24

f 2/7/4 5/6/4 3/5/4

g Mesh2 Model

l 4 12

l 2 4

l 5 2

l 11 5

l 13 11

l 12 13

l 12 15

l 15 14

l 1 15

l 3 1

l 6 3

l 9 6

l 14 9

l 13 14

l 14 18

l 16 18

l 17 16

l 8 17

l 7 8

l 10 7

l 18 10

l 9 10

l 11 9

l 6 7

l 5 6

l 3 8

l 2 3

l 1 17

l 4 1

l 15 16

