# Alias OBJ Model File
# Exported from SketchUp, (c) 2000-2012 Trimble Navigation Limited
# File units = meters

mtllib Liquid.mtl

g Mesh1 Model

usemtl FrontColor
v -0.00309018 0.00850654 -0.00425318
vt -0.121658 0.0702415
vn -0.57735 0.794656 -0.187589
v -0.00809016 0.00525736 -0.00262861
vt 1.19349e-15 -0.14048
v -0.00499995 0.00850654 0.00162458
vt 0.121658 0.0702415
f 1/1/1 2/2/1 3/3/1

usemtl BackColor
vn 0.57735 -0.794656 0.187589
f 3/3/2 2/2/2 1/1/2

usemtl FrontColor
vt -0.119722 -0.0517704
vn -0.748779 0.661699 0.0385358
v -0.00850648 0.0044722 0.00276392
vt 0.091459 -0.0929989
vt 0.0537579 0.118843
f 2/4/3 4/5/3 3/6/3

usemtl BackColor
vn 0.748779 -0.661699 -0.0385358
f 3/6/4 4/5/4 2/4/4

usemtl FrontColor
vt -0.0537584 0.118843
vn -0.628425 0.661699 0.408946
vt -0.0914599 -0.0929987
v -0.00499998 0.00525738 0.00688187
vt 0.119723 -0.0517692
f 3/7/5 4/8/5 5/9/5

usemtl BackColor
vn 0.628425 -0.661699 -0.408946
f 5/9/6 4/8/6 3/7/6

usemtl FrontColor
vt -0.117558 0.0565174
vn -0.748782 0.330386 0.574604
v -0.00809014 0 0.00587789
vt -0.0103184 -0.130029
vt 0.0951049 0.0892691
f 4/10/7 6/11/7 5/12/7

v -0.01 0 4.37617e-09
vt -0.121661 -0.0470387
vn -0.943521 0.125627 0.306571
vt 0.121661 -0.0470387
vt -1.0632e-06 0.130438
f 7/13/8 6/14/8 4/15/8

vt -0.121661 0.0702415
vn -0.934171 -0.187595 0.303533
v -0.00809013 -0.00525736 0.00262867
vt 2.25385e-07 -0.140482
vt 0.121661 0.0702415
f 7/16/9 8/17/9 6/18/9

v -0.00850651 -0.00447216 -0.00276389
vt -0.117558 -0.0565162
vn -0.943522 -0.330385 0.0247459
vt 0.0951047 -0.089269
vt -0.0103219 0.130028
f 9/19/10 8/20/10 7/21/10

usemtl BackColor
vn 0.943522 0.330385 -0.0247459
f 7/21/11 8/20/11 9/19/11

vn 0.934171 0.187595 -0.303533
f 6/18/12 8/17/12 7/16/12

usemtl FrontColor
vt -0.0951067 -0.0892682
vn -0.777863 -0.330388 0.534578
v -0.00525722 -0.0044722 0.0072361
vt 0.117558 -0.0565171
vt 0.010319 0.130029
f 8/22/13 10/23/13 6/24/13

usemtl BackColor
vn 0.777863 0.330388 -0.534578
f 6/24/14 10/23/14 8/22/14

usemtl FrontColor
vt -0.12166 0.0470394
vn -0.583125 -0.125629 0.80261
vt 1.85051e-06 -0.130438
v -0.00309012 0 0.00951058
vt 0.12166 0.0470394
f 6/25/15 10/26/15 11/27/15

usemtl BackColor
vn 0.583125 0.125629 -0.80261
f 11/27/16 10/26/16 6/25/16

usemtl FrontColor
vt -0.0103224 0.130029
vn -0.268024 -0.330386 0.904991
vt -0.117558 -0.0565176
v 9.04321e-08 -0.00525738 0.00850647
vt 0.0951051 -0.0892692
f 11/28/17 10/29/17 12/30/17

usemtl BackColor
vn 0.268024 0.330386 -0.904991
f 12/30/18 10/29/18 11/28/18

usemtl FrontColor
vt -0.0914599 0.0929986
vn -0.268026 -0.661699 0.700226
v -0.00309009 -0.00850654 0.00425324
vt -0.0537584 -0.118843
vt 0.119723 0.0517693
f 10/31/19 13/32/19 12/33/19

usemtl BackColor
vn 0.268026 0.661699 -0.700226
f 12/33/20 13/32/20 10/31/20

usemtl FrontColor
v 0.00309018 -0.00850654 0.00425318
vt 0.121659 -0.0702409
vn 6.20215e-06 -0.794658 0.607058
vt 1.38734e-07 0.14048
vt -0.121659 -0.070241
f 14/34/21 12/35/21 13/36/21

v 0.00525737 -0.0044722 0.00723599
vt 0.0914599 0.0929987
vn 0.268041 -0.661699 0.70022
vt -0.119723 0.0517692
vt 0.0537584 -0.118843
f 15/37/22 12/38/22 14/39/22

usemtl BackColor
vn -0.268041 0.661699 -0.70022
f 14/39/23 12/38/23 15/37/23

vn -6.20215e-06 0.794658 -0.607058
f 13/36/24 12/35/24 14/34/24

usemtl FrontColor
vt 0.121659 0.0470369
vn 3.54985e-06 -0.943523 0.331306
vt -0.121659 0.0470367
v 0 -0.01 -0
vt 0 -0.130435
f 14/40/25 13/41/25 16/42/25

usemtl BackColor
vn -3.54985e-06 0.943523 -0.331306
f 16/42/26 13/41/26 14/40/26

usemtl FrontColor
vt 6.93889e-18 -0.130436
vn -0.315092 -0.943523 0.10238
vt 0.12166 0.047035
v -0.005 -0.00850652 -0.00162457
vt -0.121659 0.0470382
f 16/43/27 13/44/27 17/45/27

usemtl BackColor
vn 0.315092 0.943523 -0.10238
f 17/45/28 13/44/28 16/43/28

usemtl FrontColor
vt 0.121659 -0.0702413
vn -0.577345 -0.794657 0.187596
vt -1.57091e-06 0.140481
vt -0.12166 -0.0702396
f 13/46/29 8/47/29 17/48/29

vt 0.0537593 -0.118843
vn -0.583123 -0.661699 0.471299
vt 0.0914614 0.0929982
vt -0.119724 0.0517696
f 13/49/30 10/50/30 8/51/30

usemtl BackColor
vn 0.583123 0.661699 -0.471299
f 8/51/31 10/50/31 13/49/31

vn 0.577345 0.794657 -0.187596
f 17/48/32 8/47/32 13/46/32

usemtl FrontColor
vt -0.0914592 0.0929988
vn -0.748782 -0.661695 -0.0385325
vt -0.0537583 -0.118843
vt 0.119723 0.0517681
f 9/52/33 17/53/33 8/54/33

usemtl BackColor
vn 0.748782 0.661695 0.0385325
f 8/54/34 17/53/34 9/52/34

usemtl FrontColor
vt 0.0537583 -0.118843
vn -0.62843 -0.661695 -0.408943
vt 0.0914592 0.0929988
v -0.00500003 -0.00525736 -0.00688185
vt -0.119723 0.0517681
f 17/55/35 9/56/35 18/57/35

usemtl BackColor
vn 0.62843 0.661695 0.408943
f 18/57/36 9/56/36 17/55/36

usemtl FrontColor
vt -0.0951047 -0.089269
vn -0.748786 -0.330385 -0.574601
vt 0.117558 -0.0565162
v -0.00809023 0 -0.00587777
vt 0.0103219 0.130028
f 18/58/37 9/59/37 19/60/37

usemtl BackColor
vn 0.748786 0.330385 0.574601
f 19/60/38 9/59/38 18/58/38

usemtl FrontColor
vt -0.121659 0.0470394
vn -0.943523 -0.125629 -0.306564
vt 1.97065e-15 -0.130436
vt 0.121659 0.0470394
f 19/61/39 9/62/39 7/63/39

usemtl BackColor
vn 0.943523 0.125629 0.306564
f 7/63/40 9/62/40 19/61/40

usemtl FrontColor
vt -0.121659 -0.070243
vn -0.934173 0.187599 -0.303526
vt 0.121659 -0.070243
vt 1.13798e-15 0.140481
f 19/64/41 7/65/41 2/66/41

usemtl BackColor
vn 0.934173 -0.187599 0.303526
f 2/66/42 7/65/42 19/64/42

usemtl FrontColor
vt -0.0951043 0.089269
vn -0.943522 0.330385 -0.0247394
vt 0.0103196 -0.130028
vt 0.117556 0.056518
f 2/67/43 7/68/43 4/69/43

usemtl BackColor
vn 0.943522 -0.330385 0.0247394
f 4/69/44 7/68/44 2/67/44

vn 0.943521 -0.125627 -0.306571
f 4/15/45 6/14/45 7/13/45

vn 0.748782 -0.330386 -0.574604
f 5/12/46 6/11/46 4/10/46

usemtl FrontColor
vt -1.77743e-06 0.140482
vn -0.577346 0.187597 0.794656
vt -0.12166 -0.0702424
vt 0.12166 -0.0702424
f 5/70/47 6/71/47 11/72/47

usemtl BackColor
vn 0.577346 -0.187597 -0.794656
f 11/72/48 6/71/48 5/70/48

usemtl FrontColor
vt -0.0951051 0.0892692
vn -0.315095 0.330386 0.889697
vt 0.0103224 -0.130029
v 6.13001e-10 0.0044722 0.00894424
vt 0.117558 0.0565176
f 5/73/49 11/74/49 20/75/49

usemtl BackColor
vn 0.315095 -0.330386 -0.889697
f 20/75/50 11/74/50 5/73/50

usemtl FrontColor
vt -1.85051e-06 0.130438
vn 5.28147e-06 0.125629 0.992077
vt -0.12166 -0.0470394
v 0.00309022 0 0.00951055
vt 0.12166 -0.0470394
f 20/76/51 11/77/51 21/78/51

usemtl BackColor
vn -5.28147e-06 -0.125629 -0.992077
f 21/78/52 11/77/52 20/76/52

usemtl FrontColor
vt -0.12166 0.0702424
vn 5.22913e-06 -0.187597 0.982246
vt 1.77743e-06 -0.140482
vt 0.12166 0.0702424
f 11/79/53 12/80/53 21/81/53

usemtl BackColor
vn -5.22913e-06 0.187597 -0.982246
f 21/81/54 12/80/54 11/79/54

usemtl FrontColor
vt 0.0103184 0.130029
vn 0.268043 -0.330386 0.904985
vt -0.0951049 -0.0892691
vt 0.117558 -0.0565174
f 21/82/55 12/83/55 15/84/55

usemtl BackColor
vn -0.268043 0.330386 -0.904985
f 15/84/56 12/83/56 21/82/56

usemtl FrontColor
vt -0.121661 0.0470387
vn 0.583135 -0.125627 0.802603
vt 1.0632e-06 -0.130438
v 0.00809023 0 0.00587777
vt 0.121661 0.0470387
f 21/85/57 15/86/57 22/87/57

usemtl BackColor
vn -0.583135 0.125627 -0.802603
f 22/87/58 15/86/58 21/85/58

usemtl FrontColor
v 0.00809016 -0.00525736 0.00262861
vt 0.0951043 -0.089269
vn 0.777872 -0.330385 0.534566
vt -0.0103196 0.130028
vt -0.117556 -0.056518
f 23/88/59 22/89/59 15/90/59

usemtl BackColor
vn -0.777872 0.330385 -0.534566
f 15/90/60 22/89/60 23/88/60

usemtl FrontColor
v 0.01 0 -4.37617e-09
vt 0.121659 0.070243
vt -0.121659 0.070243
vt 1.1241e-15 -0.140481
f 24/91/42 22/92/42 23/93/42

usemtl BackColor
f 23/93/41 22/92/41 24/91/41

usemtl FrontColor
vt 0.121659 -0.0470394
v 0.00850651 0.00447216 0.00276389
vt 1.9984e-15 0.130436
vt -0.121659 -0.0470394
f 24/94/40 25/95/40 22/96/40

v 0.00809013 0.00525736 -0.00262867
vt 0.0951047 0.089269
vt -0.117558 0.0565162
vt -0.0103219 -0.130028
f 26/97/11 25/98/11 24/99/11

usemtl BackColor
f 24/99/10 25/98/10 26/97/10

f 22/96/39 25/95/39 24/94/39

usemtl FrontColor
vt 0.117558 0.0565162
v 0.00500003 0.00525736 0.00688185
vt -0.0951047 0.089269
vt 0.0103219 -0.130028
f 25/100/38 27/101/38 22/102/38

vt 0.0914592 -0.0929988
v 0.005 0.00850652 0.00162457
vt 0.0537583 0.118843
vt -0.119723 -0.0517681
f 25/103/36 28/104/36 27/105/36

usemtl BackColor
f 27/105/35 28/104/35 25/103/35

usemtl FrontColor
vt 1.57091e-06 -0.140481
vn 0.356821 0.794657 0.49112
vt 0.12166 0.0702396
v 0 0.00850654 0.00525725
vt -0.121659 0.0702413
f 27/106/61 28/107/61 29/108/61

usemtl BackColor
vn -0.356821 -0.794657 -0.49112
f 29/108/62 28/107/62 27/106/62

usemtl FrontColor
vt 0.121659 -0.0470382
vn 0.19474 0.943523 0.268032
v 0 0.01 -0
vt 6.93889e-18 0.130436
vt -0.12166 -0.047035
f 28/109/63 30/110/63 29/111/63

usemtl BackColor
vn -0.19474 -0.943523 -0.268032
f 29/111/64 30/110/64 28/109/64

usemtl FrontColor
vt 6.93889e-18 0.130435
vn -0.194737 0.943523 0.268032
vt -0.121659 -0.0470369
vt 0.121659 -0.0470367
f 30/112/65 3/113/65 29/114/65

vt -6.93889e-18 0.130435
vn -0.31509 0.943524 -0.102377
vt -0.121658 -0.047038
vt 0.121658 -0.047038
f 30/115/66 1/116/66 3/117/66

usemtl BackColor
vn 0.31509 -0.943524 0.102377
f 3/117/67 1/116/67 30/115/67

usemtl FrontColor
v 0.00309009 0.00850654 -0.00425324
vt -0.121659 -0.0470367
vt 0.121659 -0.0470369
vt 0 0.130435
f 31/118/26 1/119/26 30/120/26

vt -0.121659 0.070241
v -9.04321e-08 0.00525738 -0.00850647
vt 1.38734e-07 -0.14048
vt 0.121659 0.0702409
f 31/121/24 32/122/24 1/123/24

usemtl BackColor
f 1/123/21 32/122/21 31/121/21

usemtl FrontColor
vt 0.0537584 0.118843
vt -0.119723 -0.0517692
v -0.00525737 0.0044722 -0.00723599
vt 0.0914599 -0.0929987
f 1/124/23 32/125/23 33/126/23

usemtl BackColor
f 33/126/22 32/125/22 1/124/22

usemtl FrontColor
vt -0.0951049 0.0892691
v -0.00309022 0 -0.00951055
vt 0.0103184 -0.130029
vt 0.117558 0.0565174
f 32/127/56 34/128/56 33/129/56

vt 1.77743e-06 0.140482
v 0.00309012 0 -0.00951058
f 32/130/54 35/71/54 34/72/54

usemtl BackColor
f 34/72/53 35/71/53 32/130/53

usemtl FrontColor
v -6.13001e-10 -0.0044722 -0.00894424
vt -1.85051e-06 -0.130438
f 35/25/52 36/131/52 34/27/52

vt 0.0103224 0.130029
v 0.00499998 -0.00525738 -0.00688187
vt -0.0951051 -0.0892692
vt 0.117558 -0.0565176
f 35/132/50 37/133/50 36/134/50

usemtl BackColor
f 36/134/49 37/133/49 35/132/49

usemtl FrontColor
vt 0.0914599 0.0929986
vn 0.194737 -0.661699 -0.724039
vt -0.119723 0.0517693
v 0 -0.00850654 -0.00525725
f 36/135/68 37/136/68 38/39/68

usemtl BackColor
vn -0.194737 0.661699 0.724039
f 38/39/69 37/136/69 36/135/69

usemtl FrontColor
vt -1.38734e-07 0.14048
vn 0.35682 -0.794658 -0.49112
v 0.00499995 -0.00850654 -0.00162458
vt -0.121659 -0.0702409
vt 0.121659 -0.070241
f 37/137/70 39/138/70 38/139/70

usemtl BackColor
vn -0.35682 0.794658 0.49112
f 38/139/71 39/138/71 37/137/71

usemtl FrontColor
vt -0.121659 0.0470369
vn 0.194737 -0.943523 -0.268032
vt 0.121659 0.0470367
f 39/140/72 16/42/72 38/141/72

vt 0.121658 0.047038
vt -0.121658 0.047038
f 39/142/67 14/143/67 16/42/67

usemtl BackColor
f 16/42/66 14/143/66 39/142/66

usemtl FrontColor
vt 1.20737e-15 0.14048
vt -0.121658 -0.0702415
vt 0.121658 -0.0702415
f 23/144/2 14/145/2 39/146/2

vt 0.119722 0.0517704
vn 0.583129 -0.661699 0.471291
vt -0.091459 0.0929989
vt -0.0537579 -0.118843
f 23/147/73 15/148/73 14/149/73

usemtl BackColor
vn -0.583129 0.661699 -0.471291
f 14/149/74 15/148/74 23/147/74

f 39/146/1 14/145/1 23/144/1

usemtl FrontColor
v 0.00850648 -0.0044722 -0.00276392
vt 0.091459 0.0929989
vt -0.119722 0.0517704
vt 0.0537579 -0.118843
f 40/150/4 23/151/4 39/152/4

usemtl BackColor
f 39/152/3 23/151/3 40/150/3

usemtl FrontColor
vt 0.117556 -0.056518
vt 0.0103196 0.130028
vt -0.0951043 -0.089269
f 40/153/44 24/154/44 23/155/44

v 0.00809014 0 -0.00587789
vt -1.0632e-06 -0.130438
f 41/87/45 24/85/45 40/156/45

usemtl BackColor
f 40/156/8 24/85/8 41/87/8

f 23/155/43 24/154/43 40/153/43

usemtl FrontColor
vt 0.121661 -0.0702415
vt 2.25385e-07 0.140482
vt -0.121661 -0.0702415
f 41/157/12 26/158/12 24/159/12

usemtl BackColor
f 24/159/9 26/158/9 41/157/9

usemtl FrontColor
v 0.00525722 0.0044722 -0.0072361
vt 0.117558 0.0565171
vt -0.0951067 0.0892682
vt 0.010319 -0.130029
f 42/160/14 26/161/14 41/162/14

vt -0.119724 -0.0517696
vt 0.0914614 -0.0929982
vt 0.0537593 0.118843
f 26/163/31 42/164/31 31/165/31

usemtl BackColor
f 31/165/30 42/164/30 26/163/30

usemtl FrontColor
vt -0.0914599 -0.0929986
vt 0.119723 -0.0517693
f 31/7/20 42/166/20 32/167/20

usemtl BackColor
f 32/167/19 42/166/19 31/7/19

usemtl FrontColor
vt 0.0951051 0.0892692
vt -0.117558 0.0565176
vt -0.0103224 -0.130029
f 32/168/18 42/169/18 35/170/18

usemtl BackColor
f 35/170/17 42/169/17 32/168/17

usemtl FrontColor
vt 1.85051e-06 0.130438
f 42/171/16 41/77/16 35/78/16

usemtl BackColor
f 41/162/13 26/161/13 42/160/13

f 35/78/15 41/77/15 42/171/15

usemtl FrontColor
vt -1.77743e-06 -0.140482
f 41/79/48 37/172/48 35/81/48

vt 0.0951049 -0.0892691
vt -0.0103184 0.130029
vt -0.117558 -0.0565174
f 37/173/46 41/174/46 40/175/46

usemtl BackColor
f 40/175/7 41/174/7 37/173/7

f 35/81/47 37/172/47 41/79/47

usemtl FrontColor
vt -0.0914599 0.0929987
vt 0.119723 0.0517692
f 40/176/6 39/32/6 37/177/6

usemtl BackColor
f 37/177/5 39/32/5 40/176/5

usemtl FrontColor
vt -1.57091e-06 -0.140481
vt 0.121659 0.0702413
vt -0.12166 0.0702396
f 26/178/32 31/179/32 28/180/32

usemtl BackColor
f 28/180/29 31/179/29 26/178/29

usemtl FrontColor
vt -0.121659 -0.0470382
vt 0.12166 -0.047035
vt 0 0.130436
f 28/181/28 31/182/28 30/183/28

usemtl BackColor
f 30/183/27 31/182/27 28/181/27

f 30/120/25 1/119/25 31/118/25

usemtl FrontColor
vt 0.119723 -0.0517681
vt -0.0537583 0.118843
vt -0.0914592 -0.0929988
f 26/184/34 28/185/34 25/186/34

usemtl BackColor
f 25/186/33 28/185/33 26/184/33

f 38/141/65 16/42/65 39/140/65

usemtl FrontColor
vt -6.93889e-18 -0.130436
vt 0.121659 0.0470382
vt -0.12166 0.047035
f 16/187/64 17/188/64 38/189/64

usemtl BackColor
f 38/189/63 17/188/63 16/187/63

usemtl FrontColor
vt -0.121659 -0.0702413
vt 0.12166 -0.0702396
vt 1.57091e-06 0.140481
f 38/190/62 17/191/62 18/192/62

usemtl BackColor
f 18/192/61 17/191/61 38/190/61

usemtl FrontColor
vt -0.0914614 0.0929982
vn -0.19474 -0.661699 -0.724038
vt -0.0537593 -0.118843
vt 0.119724 0.0517696
f 36/193/75 38/194/75 18/195/75

usemtl BackColor
vn 0.19474 0.661699 0.724038
f 18/195/76 38/194/76 36/193/76

usemtl FrontColor
vt -0.010319 0.130029
vn -0.315096 -0.330388 -0.889696
vt -0.117558 -0.0565171
vt 0.0951067 -0.0892682
f 34/196/77 36/197/77 18/198/77

usemtl BackColor
vn 0.315096 0.330388 0.889696
f 18/198/78 36/197/78 34/196/78

f 34/27/51 36/131/51 35/25/51

usemtl FrontColor
vn -0.577356 -0.187595 -0.79465
vt -2.25385e-07 -0.140482
f 34/16/79 18/199/79 19/18/79

usemtl BackColor
vn 0.577356 0.187595 0.79465
f 19/18/80 18/199/80 34/16/80

usemtl FrontColor
vt 1.0632e-06 0.130438
f 33/200/58 34/13/58 19/14/58

usemtl BackColor
f 33/129/55 34/128/55 32/127/55

f 19/14/57 34/13/57 33/200/57

usemtl FrontColor
vt -0.117556 0.056518
vt -0.0103196 -0.130028
vt 0.0951043 0.089269
f 33/201/60 19/202/60 2/203/60

usemtl BackColor
f 2/203/59 19/202/59 33/201/59

usemtl FrontColor
vt -0.0537579 0.118843
vt -0.091459 -0.0929989
vt 0.119722 -0.0517704
f 1/204/74 33/205/74 2/206/74

usemtl BackColor
f 2/206/73 33/205/73 1/204/73

f 29/114/72 3/113/72 30/112/72

usemtl FrontColor
vt 0.121659 0.070241
vt -0.121659 0.0702409
vt -1.38734e-07 -0.14048
f 29/207/71 3/208/71 5/209/71

usemtl BackColor
f 5/209/70 3/208/70 29/207/70

usemtl FrontColor
vt -0.119723 -0.0517693
vt 0.0914599 -0.0929986
f 29/124/69 5/210/69 20/211/69

usemtl BackColor
f 20/211/68 5/210/68 29/124/68

usemtl FrontColor
vt -0.0537593 0.118843
vt -0.0914614 -0.0929982
vt 0.119724 -0.0517696
f 29/212/76 20/213/76 27/214/76

usemtl BackColor
f 27/214/75 20/213/75 29/212/75

usemtl FrontColor
vt 0.0951067 0.0892682
vt -0.117558 0.0565171
vt -0.010319 -0.130029
f 27/215/78 20/216/78 21/217/78

usemtl BackColor
f 21/217/77 20/216/77 27/215/77

usemtl FrontColor
vt -2.25385e-07 0.140482
f 27/218/80 21/159/80 22/157/80

usemtl BackColor
f 22/157/79 21/159/79 27/218/79

f 22/102/37 27/101/37 25/100/37

g Mesh2 Model

l 4 2

l 3 4

l 2 3

l 2 1

l 7 2

l 8 7

l 9 8

l 7 9

l 7 6

l 4 7

l 4 5

l 6 4

l 11 6

l 12 11

l 10 12

l 6 10

l 8 6

l 10 8

l 11 10

l 11 21

l 20 11

l 20 5

l 29 20

l 5 29

l 5 3

l 11 5

l 6 5

l 1 3

l 32 1

l 32 31

l 34 32

l 18 34

l 36 18

l 34 36

l 34 35

l 33 34

l 33 32

l 33 2

l 1 33

l 31 1

l 28 31

l 27 28

l 25 27

l 24 25

l 41 24

l 41 40

l 37 41

l 40 37

l 24 40

l 23 24

l 14 23

l 15 14

l 21 15

l 22 21

l 22 15

l 25 22

l 25 26

l 28 25

l 29 28

l 3 29

l 30 3

l 30 1

l 30 31

l 30 29

l 28 30

l 26 28

l 26 31

l 42 26

l 31 42

l 42 32

l 35 42

l 35 32

l 41 35

l 41 26

l 42 41

l 24 26

l 22 24

l 23 22

l 23 15

l 40 23

l 39 40

l 39 37

l 38 39

l 17 38

l 17 16

l 13 17

l 14 13

l 16 14

l 38 16

l 38 37

l 38 18

l 36 38

l 36 37

l 35 36

l 37 35

l 17 18

l 17 8

l 9 17

l 19 9

l 18 19

l 9 18

l 19 33

l 7 19

l 19 2

l 34 19

l 13 8

l 13 16

l 13 12

l 10 13

l 15 12

l 14 12

l 14 39

l 23 39

l 39 16

l 12 21

l 21 20

l 21 27

l 27 29

l 20 27

l 22 27

