# Alias OBJ Model File
# Exported from SketchUp, (c) 2000-2012 Trimble Navigation Limited
# File units = meters

mtllib FloorPlan.mtl

g Mesh1 Model

usemtl FrontColor
v 14.616 -3.60956e-16 10.5
vt 575.433 -413.386
vn -8.45283e-19 1 1.74165e-18
v -12.6 -3.56334e-16 4.90374
vt -496.063 -193.061
v -12.6 -3.60956e-16 10.5
vt -496.063 -413.386
f 1/1/1 2/2/1 3/3/1

v -11.395 -3.56334e-16 4.90374
vt -448.621 -193.061
f 2/2/1 1/1/1 4/4/1

usemtl BackColor
vn 8.45283e-19 -1 -1.74165e-18
f 3/3/2 2/2/2 1/1/2

f 4/4/2 1/1/2 2/2/2

usemtl FrontColor
v -11.395 -3.60956e-16 -8.4
vt -448.621 330.709
f 4/4/1 1/1/1 5/5/1

usemtl BackColor
f 5/5/2 1/1/2 4/4/2

usemtl FrontColor
v 14.616 -3.60956e-16 -8.4
vt 575.433 330.709
f 5/5/1 1/1/1 6/6/1

usemtl BackColor
f 6/6/2 1/1/2 5/5/2

g Mesh2 Model

l 3 1

l 2 3

l 4 2

l 4 5

l 6 5

l 6 1

