# Alias OBJ Model File
# Exported from SketchUp, (c) 2000-2012 Trimble Navigation Limited
# File units = meters

mtllib TestCollisionT.mtl

g Mesh1 Model

usemtl FrontColor
v 2.25597e-17 0.42676 0.159779
vt 6.29051 16.8016
vn -1 0 -0
v 2.25597e-17 0.37676 -0.130338
vt -5.13141 14.8331
v 2.25597e-17 0.37676 0.159779
vt 6.29051 14.8331
f 1/1/1 2/2/1 3/3/1

v 2.25597e-17 0.42676 -0.130338
vt -5.13141 16.8016
f 2/2/1 1/1/1 4/4/1

usemtl BackColor
vn 1 -0 0
f 3/3/2 2/2/2 1/1/2

f 4/4/2 1/1/2 2/2/2

usemtl FrontColor
v 2.25597e-17 0.37676 0.209779
vt 8.25902 14.8331
f 5/5/1 1/1/1 3/3/1

v 2.25597e-17 0.37676 0.259779
vt 10.2275 14.8331
f 6/6/1 1/1/1 5/5/1

v 2.25597e-17 0.37676 0.309779
vt 12.196 14.8331
f 7/7/1 1/1/1 6/6/1

v 2.25597e-17 0.37676 0.359779
vt 14.1645 14.8331
f 8/8/1 1/1/1 7/7/1

v 2.25597e-17 0.42676 0.409779
vt 16.133 16.8016
f 8/8/1 9/9/1 1/1/1

v 2.25597e-17 0.37676 0.409779
vt 16.133 14.8331
f 9/9/1 8/8/1 10/10/1

usemtl BackColor
f 10/10/2 8/8/2 9/9/2

usemtl FrontColor
vt -8.88178e-16 -16.133
vn 0 -1 -0
v -0.2 0.37676 0.359779
vt 7.87402 -14.1645
vt -8.88178e-16 -14.1645
f 10/11/3 11/12/3 8/13/3

v -0.25 0.37676 0.409779
vt 9.84252 -16.133
f 12/14/3 11/12/3 10/11/3

v -0.25 0.37676 0.359779
vt 9.84252 -14.1645
f 11/12/3 12/14/3 13/15/3

usemtl BackColor
vn -0 1 0
f 13/15/4 12/14/4 11/12/4

usemtl FrontColor
v -0.25 0.42676 0.409779
f 14/9/1 13/8/1 12/10/1

v -0.25 0.42676 0.359779
vt 14.1645 16.8016
f 13/8/1 14/9/1 15/16/1

usemtl BackColor
f 12/10/2 13/8/2 14/9/2

f 15/16/2 14/9/2 13/8/2

usemtl FrontColor
vt 2.35839e-15 -16.133
vn -8.75044e-17 1 1.29069e-15
vt -9.84252 -14.1645
vt -9.84252 -16.133
f 9/17/5 15/18/5 14/19/5

v -0.2 0.42676 0.359779
vt -7.87402 -14.1645
f 15/18/5 9/17/5 16/20/5

usemtl BackColor
vn 8.75044e-17 -1 -1.29069e-15
f 14/19/6 15/18/6 9/17/6

f 16/20/6 9/17/6 15/18/6

usemtl FrontColor
v -0.2 0.42676 0.309779
vt -7.87402 -12.196
f 16/20/5 9/17/5 17/21/5

usemtl BackColor
f 17/21/6 9/17/6 16/20/6

usemtl FrontColor
v -0.15 0.42676 0.309779
vt -5.90551 -12.196
f 17/21/5 9/17/5 18/22/5

usemtl BackColor
f 18/22/6 9/17/6 17/21/6

usemtl FrontColor
v -0.15 0.42676 0.259779
vt -5.90551 -10.2275
f 18/22/5 9/17/5 19/23/5

usemtl BackColor
f 19/23/6 9/17/6 18/22/6

usemtl FrontColor
v -0.1 0.42676 0.259779
vt -3.93701 -10.2275
f 19/23/5 9/17/5 20/24/5

usemtl BackColor
f 20/24/6 9/17/6 19/23/6

usemtl FrontColor
v -0.1 0.42676 0.209779
vt -3.93701 -8.25902
f 20/24/5 9/17/5 21/25/5

usemtl BackColor
f 21/25/6 9/17/6 20/24/6

usemtl FrontColor
v -0.05 0.42676 0.209779
vt -1.9685 -8.25902
f 21/25/5 9/17/5 22/26/5

usemtl BackColor
f 22/26/6 9/17/6 21/25/6

usemtl FrontColor
v -0.05 0.42676 0.159779
vt -1.9685 -6.29051
f 22/26/5 9/17/5 23/27/5

usemtl BackColor
f 23/27/6 9/17/6 22/26/6

usemtl FrontColor
vt 2.35839e-15 -6.29051
f 23/27/5 9/17/5 1/28/5

usemtl BackColor
f 1/28/6 9/17/6 23/27/6

f 1/1/2 9/9/2 8/8/2

f 7/7/2 1/1/2 8/8/2

f 6/6/2 1/1/2 7/7/2

f 5/5/2 1/1/2 6/6/2

f 3/3/2 1/1/2 5/5/2

usemtl FrontColor
vt -3.72642e-15 14.8331
vn 4.51195e-16 -4.51195e-16 -1
vt 1.9685 16.8016
vt -3.72642e-15 16.8016
f 3/29/7 23/30/7 1/31/7

v -0.05 0.37676 0.159779
vt 1.9685 14.8331
f 23/30/7 3/29/7 24/32/7

usemtl BackColor
vn -4.51195e-16 4.51195e-16 1
f 24/32/8 3/29/8 23/30/8

usemtl FrontColor
vt -8.88178e-16 -6.29051
v -0.05 0.37676 0.209779
vt 1.9685 -8.25902
vt 1.9685 -6.29051
f 3/33/3 25/34/3 24/35/3

vt -8.88178e-16 -8.25902
f 25/34/3 3/33/3 5/36/3

usemtl BackColor
f 24/35/4 25/34/4 3/33/4

usemtl FrontColor
f 25/5/1 23/1/1 24/3/1

vt 8.25902 16.8016
f 23/1/1 25/5/1 22/37/1

usemtl BackColor
f 22/37/2 25/5/2 23/1/2

usemtl FrontColor
vn 0 0 -1
vt 3.93701 16.8016
f 25/32/9 21/38/9 22/30/9

v -0.1 0.37676 0.209779
vt 3.93701 14.8331
f 21/38/9 25/32/9 26/39/9

usemtl BackColor
vn -0 -0 1
f 26/39/10 25/32/10 21/38/10

usemtl FrontColor
v -0.1 0.37676 0.259779
vt 3.93701 -10.2275
vt 3.93701 -8.25902
f 25/34/3 27/40/3 26/41/3

vt -8.88178e-16 -10.2275
f 27/40/3 25/34/3 6/42/3

usemtl BackColor
f 26/41/4 27/40/4 25/34/4

usemtl FrontColor
vt 10.2275 16.8016
f 20/43/1 26/5/1 27/6/1

f 26/5/1 20/43/1 21/37/1

usemtl BackColor
f 27/6/2 26/5/2 20/43/2

f 21/37/2 20/43/2 26/5/2

usemtl FrontColor
vn 0 -3.60956e-15 -1
vt 5.90551 16.8016
f 27/39/11 19/44/11 20/38/11

v -0.15 0.37676 0.259779
vt 5.90551 14.8331
f 19/44/11 27/39/11 28/45/11

usemtl BackColor
vn -0 3.60956e-15 1
f 28/45/12 27/39/12 19/44/12

usemtl FrontColor
vn 9.55196e-33 -1 2.70717e-15
v -0.15 0.37676 0.309779
vt 5.90551 -12.196
vt 5.90551 -10.2275
f 27/40/13 29/46/13 28/47/13

vt -8.88178e-16 -12.196
f 29/46/13 27/40/13 7/48/13

usemtl BackColor
vn -9.55196e-33 1 -2.70717e-15
f 28/47/14 29/46/14 27/40/14

usemtl FrontColor
f 29/7/1 19/43/1 28/6/1

vt 12.196 16.8016
f 19/43/1 29/7/1 18/49/1

usemtl BackColor
f 18/49/2 29/7/2 19/43/2

usemtl FrontColor
vt 7.87402 16.8016
f 29/45/9 17/50/9 18/44/9

v -0.2 0.37676 0.309779
vt 7.87402 14.8331
f 17/50/9 29/45/9 30/51/9

usemtl BackColor
f 30/51/10 29/45/10 17/50/10

usemtl FrontColor
vt 7.87402 -12.196
f 29/46/3 11/12/3 30/52/3

f 11/12/3 29/46/3 8/13/3

usemtl BackColor
f 30/52/4 11/12/4 29/46/4

usemtl FrontColor
f 11/8/1 17/49/1 30/7/1

f 17/49/1 11/8/1 16/16/1

usemtl BackColor
f 16/16/2 11/8/2 17/49/2

usemtl FrontColor
vt 9.84252 16.8016
f 11/51/9 15/53/9 16/50/9

vt 9.84252 14.8331
f 15/53/9 11/51/9 13/54/9

usemtl BackColor
f 13/54/10 11/51/10 15/53/10

f 16/50/10 15/53/10 11/51/10

f 30/7/2 17/49/2 11/8/2

f 8/13/4 29/46/4 11/12/4

usemtl FrontColor
f 8/13/3 29/46/3 7/48/3

usemtl BackColor
f 7/48/4 29/46/4 8/13/4

f 7/48/14 27/40/14 29/46/14

usemtl FrontColor
f 7/48/13 27/40/13 6/42/13

usemtl BackColor
f 6/42/14 27/40/14 7/48/14

f 6/42/4 25/34/4 27/40/4

usemtl FrontColor
f 6/42/3 25/34/3 5/36/3

usemtl BackColor
f 5/36/4 25/34/4 6/42/4

f 5/36/4 3/33/4 25/34/4

f 8/13/4 11/12/4 10/11/4

f 10/11/4 11/12/4 12/14/4

usemtl FrontColor
vt 8.88178e-16 16.8016
vn 5.87857e-47 3.60956e-15 1
vt -9.84252 14.8331
vt 8.88178e-16 14.8331
f 9/55/15 12/56/15 10/57/15

vt -9.84252 16.8016
f 12/56/15 9/55/15 14/58/15

usemtl BackColor
vn -5.87857e-47 -3.60956e-15 -1
f 10/57/16 12/56/16 9/55/16

f 14/58/16 9/55/16 12/56/16

f 18/44/10 17/50/10 29/45/10

f 28/6/2 19/43/2 29/7/2

f 20/38/12 19/44/12 27/39/12

f 22/30/10 21/38/10 25/32/10

f 24/3/2 23/1/2 25/5/2

usemtl FrontColor
v -0.05 0.42676 -0.0902209
vt -3.55201 16.8016
f 31/59/1 24/3/1 23/1/1

v -0.05 0.37676 -0.0902209
vt -3.55201 14.8331
f 24/3/1 31/59/1 32/60/1

usemtl BackColor
f 23/1/2 24/3/2 31/59/2

f 32/60/2 31/59/2 24/3/2

f 1/31/8 23/30/8 3/29/8

g Mesh2 Model

usemtl FrontColor
v -0.25 0.42676 -0.0902209
v -0.25 0.37676 -0.0402209
vt -1.5835 14.8331
v -0.25 0.42676 -0.0402209
vt -1.5835 16.8016
f 33/59/1 34/61/1 35/62/1

v -0.25 0.37676 -0.0902209
f 34/61/1 33/59/1 36/60/1

usemtl BackColor
f 35/62/2 34/61/2 33/59/2

f 36/60/2 33/59/2 34/61/2

g Mesh3 Model

usemtl FrontColor
v -0.2 0.42676 -0.0902209
v -0.2 0.37676 0.0137136
vt 0.539904 14.8331
v -0.2 0.42676 0.0137136
vt 0.539904 16.8016
f 37/59/1 38/63/1 39/64/1

v -0.2 0.37676 -0.0902209
f 38/63/1 37/59/1 40/60/1

usemtl BackColor
f 39/64/2 38/63/2 37/59/2

f 40/60/2 37/59/2 38/63/2

g Mesh4 Model

usemtl FrontColor
v -0.15 0.42676 -0.0902209
v -0.15 0.37676 0.0551945
vt 2.17301 14.8331
v -0.15 0.42676 0.0551945
vt 2.17301 16.8016
f 41/59/1 42/65/1 43/66/1

v -0.15 0.37676 -0.0902209
f 42/65/1 41/59/1 44/60/1

usemtl BackColor
f 43/66/2 42/65/2 41/59/2

f 44/60/2 41/59/2 42/65/2

g Mesh5 Model

usemtl FrontColor
v -0.1 0.42676 -0.0902209
v -0.1 0.37676 0.110802
vt 4.36227 14.8331
v -0.1 0.42676 0.110802
vt 4.36227 16.8016
f 45/59/1 46/67/1 47/68/1

v -0.1 0.37676 -0.0902209
f 46/67/1 45/59/1 48/60/1

usemtl BackColor
f 47/68/2 46/67/2 45/59/2

f 48/60/2 45/59/2 46/67/2

g Mesh6 Model

l 36 34

l 33 36

l 35 33

l 34 35

g Mesh7 Model

l 1 4

l 1 23

l 9 1

l 9 14

l 10 9

l 10 12

l 8 10

l 8 11

l 7 8

l 7 29

l 6 7

l 6 27

l 5 6

l 5 25

l 3 5

l 2 3

l 4 2

l 3 24

l 3 1

l 32 24

l 31 32

l 23 31

l 22 23

l 22 21

l 25 22

l 24 25

l 23 24

l 25 26

l 26 27

l 26 21

l 20 21

l 27 20

l 27 28

l 28 29

l 28 19

l 18 19

l 29 18

l 29 30

l 30 11

l 30 17

l 16 17

l 11 16

l 11 13

l 13 15

l 13 12

l 12 14

l 14 15

l 16 15

l 18 17

l 20 19

g Mesh8 Model

l 40 38

l 37 40

l 39 37

l 38 39

g Mesh9 Model

l 44 42

l 41 44

l 43 41

l 42 43

g Mesh10 Model

l 48 46

l 45 48

l 47 45

l 46 47

