# Alias OBJ Model File
# Exported from SketchUp, (c) 2000-2012 Trimble Navigation Limited
# File units = meters

mtllib Funnel.mtl

g Mesh1 Model

usemtl FrontColor
v -0.00132728 0 -0.00229892
vt 0.0522553 0.0905088
vn 0 -1 -0
v -0.00245302 0 -3.08434e-19
vt 0.0965757 1.21431e-17
v -0.00265457 0 -3.25091e-19
vt 0.104511 1.27989e-17
f 1/1/1 2/2/1 3/3/1

v -0.00122651 0 -0.00212438
vt 0.0482878 0.083637
f 2/2/1 1/1/1 4/4/1

usemtl BackColor
vn -0 1 0
f 3/3/2 2/2/2 1/1/2

usemtl FrontColor
v -0.00132728 0 0.00229892
vt 0.0522553 -0.0905088
f 2/2/1 5/5/1 3/3/1

v -0.00122651 0 0.00212438
vt 0.0482878 -0.083637
f 5/5/1 2/2/1 6/6/1

usemtl BackColor
f 3/3/2 5/5/2 2/2/2

usemtl FrontColor
vt 0.0522553 0
vn -0.866025 0 0.5
v -0.00265457 0.03 -3.25091e-19
vt -0.0522553 1.1811
vt -0.0522553 0
f 5/7/3 7/8/3 3/9/3

v -0.00132728 0.03 0.00229892
vt 0.0522553 1.1811
f 7/8/3 5/7/3 8/10/3

usemtl BackColor
vn 0.866025 -0 -0.5
f 8/10/4 5/7/4 7/8/4

usemtl FrontColor
vn -5.31153e-16 0 1
v 0.00132728 0.03 0.00229892
f 5/9/5 9/10/5 8/8/5

v 0.00132728 0 0.00229892
f 9/10/5 5/9/5 10/7/5

usemtl BackColor
vn 5.31153e-16 -0 -1
f 10/7/6 5/9/6 9/10/6

usemtl FrontColor
vt -0.0522553 -0.0905088
f 5/5/1 6/6/1 10/11/1

usemtl BackColor
f 6/6/2 2/2/2 5/5/2

usemtl FrontColor
vt 0.0482878 0
vn 1 0 4.16642e-16
v -0.00122651 0.03 0.00212438
vt -0.0482878 1.1811
vn 0.5 0 -0.866025
vt -0.0482878 0
f 2/12/7 11/13/8 6/14/8

v -0.00245302 0.03 -3.08434e-19
vt 0.0482878 1.1811
f 11/13/8 2/12/7 12/15/7

usemtl BackColor
vn -0.5 -0 0.866025
vn -1 -0 -4.16642e-16
f 6/14/9 11/13/9 2/12/10

usemtl FrontColor
v 0.00122651 0 0.00212438
vn -0.5 0 -0.866025
f 11/15/8 13/14/11 6/12/8

v 0.00122651 0.03 0.00212438
f 13/14/11 11/15/8 14/13/11

usemtl BackColor
vn 0.5 -0 0.866025
f 6/12/9 13/14/12 11/15/9

usemtl FrontColor
vt -0.0482878 -0.083637
f 10/11/1 6/6/1 13/16/1

usemtl BackColor
f 10/11/2 6/6/2 5/5/2

f 13/16/2 6/6/2 10/11/2

usemtl FrontColor
v 0.00245302 0 -6.6093e-20
vt -0.0965757 2.60209e-18
f 10/11/1 13/16/1 15/17/1

usemtl BackColor
f 15/17/2 13/16/2 10/11/2

usemtl FrontColor
v 0.00245302 0.03 -6.6093e-20
vn -1 0 -2.56395e-16
f 13/12/11 16/13/13 15/14/13

f 16/13/13 13/12/11 14/15/11

usemtl BackColor
vn 1 -0 2.56395e-16
f 14/15/12 13/12/12 16/13/14

f 14/13/12 11/15/9 13/14/12

usemtl FrontColor
vn 0 1 -0
f 11/16/15 9/5/15 14/6/15

f 11/16/15 8/11/15 9/5/15

vt -0.0965757 1.21431e-17
f 12/18/15 8/11/15 11/16/15

vt -0.104511 1.27989e-17
f 8/11/15 12/18/15 7/19/15

usemtl BackColor
vn -0 -1 0
f 7/19/16 12/18/16 8/11/16

usemtl FrontColor
v -0.00132728 0.03 -0.00229892
vt -0.0522553 0.0905088
f 12/18/15 17/20/15 7/19/15

v -0.00122651 0.03 -0.00212438
vt -0.0482878 0.083637
f 17/20/15 12/18/15 18/21/15

usemtl BackColor
f 7/19/16 17/20/16 12/18/16

usemtl FrontColor
vn -0.866025 0 -0.5
f 17/8/17 3/7/17 7/10/17

f 3/7/17 17/8/17 1/9/17

usemtl BackColor
vn 0.866025 -0 0.5
f 7/10/18 3/7/18 17/8/18

f 3/9/4 7/8/4 5/7/4

f 1/9/18 17/8/18 3/7/18

usemtl FrontColor
vn 1.32788e-16 0 -1
v 0.00132728 0 -0.00229892
f 17/10/19 19/9/19 1/7/19

v 0.00132728 0.03 -0.00229892
f 19/9/19 17/10/19 20/8/19

usemtl BackColor
vn -1.32788e-16 -0 1
f 1/7/20 19/9/20 17/10/20

usemtl FrontColor
f 4/4/1 1/1/1 19/20/1

usemtl BackColor
f 4/4/2 1/1/2 2/2/2

f 19/20/2 1/1/2 4/4/2

usemtl FrontColor
v 0.00122651 0 -0.00212438
f 4/4/1 19/20/1 21/21/1

usemtl BackColor
f 21/21/2 19/20/2 4/4/2

usemtl FrontColor
f 21/21/1 19/20/1 15/17/1

usemtl BackColor
f 15/17/2 19/20/2 21/21/2

usemtl FrontColor
v 0.00265457 0 -0
vt -0.104511 0
f 15/17/1 19/20/1 22/22/1

usemtl BackColor
f 22/22/2 19/20/2 15/17/2

usemtl FrontColor
vn 0.866025 0 -0.5
v 0.00265457 0.03 -0
f 19/7/21 23/8/21 22/9/21

f 23/8/21 19/7/21 20/10/21

usemtl BackColor
vn -0.866025 -0 0.5
f 22/9/22 23/8/22 19/7/22

usemtl FrontColor
vn 0.866025 0 0.5
f 9/8/23 22/7/23 23/10/23

f 22/7/23 9/8/23 10/9/23

usemtl BackColor
vn -0.866025 -0 -0.5
f 10/9/24 9/8/24 22/7/24

f 23/10/24 22/7/24 9/8/24

usemtl FrontColor
vt 0.0965757 2.60209e-18
vt 0.104511 0
f 16/23/15 9/5/15 23/24/15

f 14/6/15 9/5/15 16/23/15

usemtl BackColor
f 14/6/16 9/5/16 11/16/16

f 16/23/16 9/5/16 14/6/16

f 23/24/16 9/5/16 16/23/16

usemtl FrontColor
vt 0.0522553 0.858148
vn 0.579937 -0.742673 0.334827
v 0.0205364 0.06 0.0355702
vt -0.808521 2.6219
vt -0.0522553 0.858148
f 23/25/25 24/26/25 9/27/25

v 0.0410729 0.06 1.12799e-17
vt 0.808521 2.6219
f 24/26/25 23/25/25 25/28/25

usemtl BackColor
vn -0.579937 0.742673 -0.334827
f 9/27/26 24/26/26 23/25/26

usemtl FrontColor
vn -4.62857e-16 -0.742673 0.669654
f 24/28/27 8/27/27 9/25/27

v -0.0205364 0.06 0.0355702
f 8/27/27 24/28/27 26/26/27

usemtl BackColor
vn 4.62857e-16 0.742673 -0.669654
f 26/26/28 24/28/28 8/27/28

usemtl FrontColor
v -0.0203412 0.06 0.0352321
vt -0.800836 -1.38709
vt -0.808521 -1.4004
vt 0.808521 -1.4004
f 27/29/15 26/30/15 24/31/15

v -0.0406825 0.06 1.76248e-19
vt -1.60167 -6.93889e-18
f 28/32/15 26/30/15 27/29/15

v -0.0410729 0.06 -0
vt -1.61704 0
f 26/30/15 28/32/15 29/33/15

usemtl BackColor
f 29/33/16 28/32/16 26/30/16

usemtl FrontColor
v -0.0205364 0.06 -0.0355702
vt -0.808521 1.4004
f 28/32/15 30/34/15 29/33/15

v -0.0203412 0.06 -0.0352321
vt -0.800836 1.38709
f 30/34/15 28/32/15 31/35/15

usemtl BackColor
f 29/33/16 30/34/16 28/32/16

usemtl FrontColor
vn -0.579937 -0.742673 -0.334827
f 30/26/29 7/25/29 29/28/29

f 7/25/29 30/26/29 17/27/29

usemtl BackColor
vn 0.579937 0.742673 0.334827
f 29/28/30 7/25/30 30/26/30

usemtl FrontColor
vn -0.579937 -0.742673 0.334827
f 7/27/31 26/28/31 29/26/31

f 26/28/31 7/27/31 8/25/31

usemtl BackColor
vn 0.579937 0.742673 -0.334827
f 29/26/32 26/28/32 7/27/32

f 8/25/32 7/27/32 26/28/32

f 17/27/30 30/26/30 7/25/30

usemtl FrontColor
v 0.0205364 0.06 -0.0355702
vn -3.58201e-18 -0.742673 -0.669654
f 32/26/33 17/25/33 30/28/33

f 17/25/33 32/26/33 20/27/33

usemtl BackColor
vn 3.58201e-18 0.742673 0.669654
f 30/28/34 17/25/34 32/26/34

f 20/27/34 32/26/34 17/25/34

usemtl FrontColor
vn 0.579937 -0.742673 -0.334827
f 32/28/35 23/27/35 20/25/35

f 23/27/35 32/28/35 25/26/35

usemtl BackColor
vn -0.579937 0.742673 0.334827
f 20/25/36 23/27/36 32/28/36

usemtl FrontColor
f 20/1/15 16/23/15 23/24/15

v 0.00122651 0.03 -0.00212438
f 20/1/15 33/4/15 16/23/15

f 20/1/15 18/21/15 33/4/15

f 17/20/15 18/21/15 20/1/15

usemtl BackColor
f 18/21/16 12/18/16 17/20/16

usemtl FrontColor
vn 0.5 0 0.866025
f 12/13/7 4/12/37 18/15/37

f 4/12/37 12/13/7 2/14/7

usemtl BackColor
vn -0.5 -0 -0.866025
f 2/14/10 12/13/10 4/12/38

f 12/15/10 2/12/10 11/13/9

f 11/16/16 8/11/16 12/18/16

f 9/5/16 8/11/16 11/16/16

f 8/8/6 9/10/6 5/9/6

f 9/25/28 8/27/28 24/28/28

usemtl FrontColor
vt 0.0482878 0.855055
vn 0.581512 0.74103 -0.335736
vt -0.800836 2.61403
vt -0.0482878 0.855055
f 12/36/39 27/37/39 11/38/39

vt 0.800836 2.61403
f 27/37/39 12/36/39 28/39/39

usemtl BackColor
vn -0.581512 -0.74103 0.335736
f 28/39/40 12/36/40 27/37/40

usemtl FrontColor
vn 0.581512 0.74103 0.335736
f 12/38/41 31/39/41 28/37/41

f 31/39/41 12/38/41 18/36/41

usemtl BackColor
vn -0.581512 -0.74103 -0.335736
f 28/37/42 31/39/42 12/38/42

f 31/35/16 28/32/16 30/34/16

usemtl FrontColor
vt 0.808521 1.4004
f 30/34/15 31/35/15 32/40/15

usemtl BackColor
f 32/40/16 31/35/16 30/34/16

usemtl FrontColor
v 0.0203412 0.06 -0.0352321
vt 0.800836 1.38709
f 32/40/15 31/35/15 34/41/15

usemtl BackColor
f 34/41/16 31/35/16 32/40/16

usemtl FrontColor
vn -1.97409e-17 0.74103 0.671472
f 18/38/43 34/39/43 31/37/43

f 34/39/43 18/38/43 33/36/43

usemtl BackColor
vn 1.97409e-17 -0.74103 -0.671472
f 31/37/44 34/39/44 18/38/44

f 33/36/44 18/38/44 34/39/44

f 33/4/16 18/21/16 20/1/16

usemtl FrontColor
vn -0.5 0 0.866025
f 4/14/37 33/15/45 18/13/37

f 33/15/45 4/14/37 21/12/45

usemtl BackColor
vn 0.5 -0 -0.866025
f 21/12/46 4/14/38 33/15/46

f 18/13/38 33/15/46 4/14/38

f 18/15/38 4/12/38 12/13/10

f 18/36/42 12/38/42 31/39/42

usemtl FrontColor
f 15/12/13 33/13/45 21/14/45

f 33/13/45 15/12/13 16/15/13

usemtl BackColor
f 16/15/14 15/12/14 33/13/46

f 15/14/14 16/13/14 13/12/12

f 21/14/46 33/13/46 15/12/14

f 16/23/16 33/4/16 20/1/16

usemtl FrontColor
vn -0.581512 0.74103 0.335736
f 16/36/47 34/37/47 33/38/47

v 0.0406825 0.06 1.11477e-17
f 34/37/47 16/36/47 35/39/47

usemtl BackColor
vn 0.581512 -0.74103 -0.335736
f 33/38/48 34/37/48 16/36/48

f 35/39/48 16/36/48 34/37/48

usemtl FrontColor
vn -0.581512 0.74103 -0.335736
v 0.0203412 0.06 0.0352321
f 16/38/49 36/39/49 35/37/49

f 36/39/49 16/38/49 14/36/49

usemtl BackColor
vn 0.581512 -0.74103 0.335736
f 14/36/50 16/38/50 36/39/50

f 35/37/50 36/39/50 16/38/50

usemtl FrontColor
vt 0.800836 -1.38709
vt 1.60167 -4.38885e-16
f 36/42/15 24/31/15 35/43/15

f 27/29/15 24/31/15 36/42/15

usemtl BackColor
f 24/31/16 26/30/16 27/29/16

f 27/29/16 26/30/16 28/32/16

f 36/42/16 24/31/16 27/29/16

f 35/43/16 24/31/16 36/42/16

usemtl FrontColor
vt 1.61704 -4.44089e-16
f 35/43/15 24/31/15 25/44/15

usemtl BackColor
f 25/44/16 24/31/16 35/43/16

f 25/28/26 23/25/26 24/26/26

f 25/26/36 32/28/36 23/27/36

usemtl FrontColor
f 32/40/15 35/43/15 25/44/15

f 32/40/15 34/41/15 35/43/15

usemtl BackColor
f 35/43/16 34/41/16 32/40/16

f 25/44/16 35/43/16 32/40/16

usemtl FrontColor
vn 3.9767e-16 0.74103 -0.671472
f 36/37/51 11/36/51 27/39/51

f 11/36/51 36/37/51 14/38/51

usemtl BackColor
vn -3.9767e-16 -0.74103 0.671472
f 27/39/52 11/36/52 36/37/52

f 11/38/40 27/37/40 12/36/40

f 14/38/52 36/37/52 11/36/52

f 23/24/16 16/23/16 20/1/16

f 20/10/22 19/7/22 23/8/22

f 20/8/20 17/10/20 19/9/20

f 20/1/16 18/21/16 17/20/16

usemtl FrontColor
f 10/11/1 15/17/1 22/22/1

usemtl BackColor
f 22/22/2 15/17/2 10/11/2

g Mesh2 Model

l 22 19

l 10 22

l 5 10

l 3 5

l 1 3

l 19 1

l 19 20

l 20 17

l 23 20

l 9 23

l 8 9

l 7 8

l 17 7

l 1 17

l 17 30

l 32 30

l 25 32

l 24 25

l 26 24

l 29 26

l 30 29

l 7 29

l 3 7

l 8 26

l 5 8

l 24 9

l 10 9

l 23 25

l 22 23

l 20 32

g Mesh3 Model

l 13 15

l 6 13

l 2 6

l 4 2

l 21 4

l 15 21

g Mesh4 Model

l 16 33

l 14 16

l 11 14

l 12 11

l 18 12

l 33 18

l 33 34

l 35 34

l 36 35

l 27 36

l 28 27

l 31 28

l 34 31

l 18 31

l 12 28

l 11 27

l 14 36

l 16 35

