# Alias OBJ Model File
# Exported from SketchUp, (c) 2000-2012 Trimble Navigation Limited
# File units = meters

mtllib DistilledWaterContainer_Valve_Closed_Highlight.mtl

g Mesh1 Model

usemtl Color_M00
v 7.6985 0.9854 2.07649
vt -303.091 -81.7517
vn 0 -1 -0
v 7.6985 0.9854 2.08678
vt -303.091 -82.1569
v 7.69553 0.9854 2.08164
vt -302.974 -81.9543
f 1/1/1 2/2/1 3/3/1

v 7.70445 0.9854 2.118
vt -303.325 -83.3857
f 4/4/1 2/2/1 1/1/1

v 7.6985 0.9854 2.118
vt -303.091 -83.3857
f 2/2/1 4/4/1 5/5/1

vn -0 1 0
f 5/5/2 4/4/2 2/2/2

v 7.70445 0.978825 2.118
vt -303.325 38.5364
vn 1.56072e-12 0 -1
vt -303.091 38.7953
vt -303.325 38.7953
f 6/6/3 5/7/3 4/8/3

v 7.6985 0.978825 2.118
vt -303.091 38.5364
f 5/7/3 6/6/3 7/9/3

vn -1.56072e-12 -0 1
f 7/9/4 6/6/4 5/7/4

vt 303.325 -83.3857
vn 0 1 -0
v 7.6985 0.978825 2.08678
vt 303.091 -82.1569
vt 303.091 -83.3857
f 6/10/5 8/11/5 7/12/5

v 7.70445 0.978825 2.08678
vt 303.325 -82.1569
f 8/11/5 6/10/5 9/13/5

vn -0 -1 0
f 7/12/6 8/11/6 6/10/6

vt -82.1569 38.5364
vn 1 0 1.56072e-12
vt -83.3857 38.7953
vt -83.3857 38.5364
f 8/14/7 5/15/7 7/16/7

vt -82.1569 38.7953
f 5/15/7 8/14/7 2/17/7

vn -1 -0 -1.56072e-12
f 7/16/8 5/15/8 8/14/8

f 2/17/8 8/14/8 5/15/8

vt -222.695 38.5364
vn 0.866025 0 -0.5
v 7.69553 0.964592 2.08164
vt -222.461 37.9761
vt -222.695 38.7953
f 8/18/9 10/19/9 2/20/9

v 7.6985 0.964592 2.08678
vt -222.695 37.9761
f 10/19/9 8/18/9 11/21/9

vn -0.866025 -0 0.5
f 11/21/10 8/18/10 10/19/10

v 7.70445 0.964592 2.08678
vt -303.325 37.9761
vt -303.091 37.9761
f 8/9/3 12/22/3 11/23/3

f 12/22/3 8/9/3 9/6/3

f 11/23/4 12/22/4 8/9/4

f 9/6/4 8/9/4 12/22/4

f 9/13/6 6/10/6 8/11/6

vt 83.3857 38.5364
vn -1 0 -1.56072e-12
v 7.70445 0.9854 2.08678
vt 82.1569 38.7953
vt 82.1569 38.5364
f 6/24/11 13/25/11 9/26/11

vt 83.3857 38.7953
f 13/25/11 6/24/11 4/27/11

vn 1 -0 1.56072e-12
f 4/27/12 6/24/12 13/25/12

f 4/8/4 5/7/4 6/6/4

f 9/26/12 13/25/12 6/24/12

v 7.70742 0.9854 2.08164
vt -80.7463 38.7953
vn -0.866025 0 -0.5
vt -80.5124 38.5364
vt -80.5124 38.7953
f 14/28/13 9/29/13 13/30/13

vt -80.5124 37.9761
f 9/29/13 14/28/13 12/31/13

vn 0.866025 -0 0.5
f 13/30/14 9/29/14 14/28/14

f 12/31/14 14/28/14 9/29/14

v 7.70742 0.964592 2.08164
vt -80.7463 37.9761
f 12/31/13 14/28/13 15/32/13

f 15/32/14 14/28/14 12/31/14

v 7.70445 0.9854 2.07649
vt 222.461 38.7953
vn -0.866025 0 0.5
vt 222.695 37.9761
vt 222.695 38.7953
f 16/33/15 15/34/15 14/35/15

v 7.70445 0.964592 2.07649
vt 222.461 37.9761
f 15/34/15 16/33/15 17/36/15

vn 0.866025 -0 -0.5
f 14/35/16 15/34/16 16/33/16

f 17/36/16 16/33/16 15/34/16

vt 303.325 38.7953
vn -1.56072e-12 0 1
v 7.6985 0.964592 2.07649
vt 303.091 37.9761
vt 303.325 37.9761
f 16/37/17 18/38/17 17/39/17

vt 303.091 38.7953
f 18/38/17 16/37/17 1/40/17

vn 1.56072e-12 -0 -1
f 17/39/18 18/38/18 16/37/18

f 1/40/18 16/37/18 18/38/18

vt -303.325 -82.1569
vt -303.325 -81.7517
f 13/41/1 1/1/1 16/42/1

f 4/4/1 1/1/1 13/41/1

f 1/1/2 2/2/2 4/4/2

f 3/3/2 2/2/2 1/1/2

vt -222.461 38.7953
f 2/20/9 10/19/9 3/43/9

f 2/20/10 10/19/10 8/18/10

f 3/43/10 10/19/10 2/20/10

vt 80.7463 37.9761
vn 0.866025 0 0.5
vt 80.5124 38.7953
vt 80.5124 37.9761
f 18/44/19 3/45/19 10/46/19

vt 80.7463 38.7953
f 3/45/19 18/44/19 1/47/19

vn -0.866025 -0 -0.5
f 10/46/20 3/45/20 18/44/20

f 1/47/20 18/44/20 3/45/20

f 13/41/2 1/1/2 4/4/2

f 16/42/2 1/1/2 13/41/2

vt -303.442 -81.9543
f 13/41/1 16/42/1 14/48/1

f 14/48/2 16/42/2 13/41/2

g Mesh2 Model

l 12 15

l 11 12

l 10 11

l 18 10

l 17 18

l 15 17

l 15 14

l 13 14

l 9 13

l 12 9

l 8 9

l 11 8

l 8 2

l 8 7

l 7 6

l 7 5

l 5 4

l 2 5

l 3 2

l 1 3

l 16 1

l 14 16

l 17 16

l 18 1

l 10 3

l 6 4

l 9 6

l 13 4

