# Alias OBJ Model File
# Exported from SketchUp, (c) 2000-2012 Trimble Navigation Limited
# File units = meters

mtllib DistilledWaterContainer_Valve_Openned_Highlight.mtl

g Mesh1 Component_1_1 Model

usemtl Color_M00
v 0.0182125 0.0131475 -0.0116768
vt 2.01365 1.03524
vn 0.531554 1.37038e-17 0.847024
v 0.00890912 -0.0131475 -0.0058384
vt 1.58123 -2.44191e-18
v 0.0182125 -0.0131475 -0.0116768
vt 2.01365 -2.44191e-18
f 1/1/1 2/2/1 3/3/1

v 0.00890912 -0.00430137 -0.0058384
vt 1.58123 0.348273
f 2/2/1 1/1/1 4/4/1

vn -0.531554 -1.37038e-17 -0.847024
f 3/3/2 2/2/2 1/1/2

usemtl FrontColor
vt 1.43406 0.689574
vn 0 1 -0
v 0.0182125 -0.0131475 0.0116768
vt 1.80033 0
vt 1.80033 0.919432
f 2/5/3 5/6/3 3/7/3

v 0.00890912 -0.0131475 0.0058384
vt 1.43406 0.229858
f 5/6/3 2/5/3 6/8/3

usemtl BackColor
vn -0 -1 0
f 6/8/4 2/5/4 5/6/4

usemtl Color_M00
vt 0.689574 1.26668e-13
vn 1 -8.83281e-14 -1.23649e-13
v 0.00890912 -0.00430137 0.0058384
vt 0.229858 0.348273
vt 0.229858 1.26668e-13
f 2/9/5 7/10/5 6/11/5

vt 0.689574 0.348273
f 7/10/5 2/9/5 4/12/5

vn -1 8.83281e-14 1.23649e-13
f 6/11/6 7/10/6 2/9/6

vt -1.0925 0.348273
vn 0.531554 -3.12478e-14 -0.847024
vt -1.52493 2.99033e-14
vt -1.0925 2.99033e-14
f 7/13/7 5/14/7 6/15/7

v 0.0182125 0.0131475 0.0116768
vt -1.52493 1.03524
f 5/14/7 7/13/7 8/16/7

vn -0.531554 3.12478e-14 0.847024
f 6/15/8 5/14/8 7/13/8

f 8/16/8 7/13/8 5/14/8

v 0.00890912 0.0131475 0.0058384
vt -1.0925 1.03524
f 8/16/7 7/13/7 9/17/7

f 9/17/8 7/13/8 8/16/8

vt -1.43406 0.348273
vn 1.15147e-13 0 -1
v -0.0275159 0.0131475 0.0058384
vt -4.2828e-13 1.03524
vt -1.43406 1.03524
f 7/18/9 10/19/9 9/20/9

v -0.0275159 -0.00430137 0.0058384
vt -4.2828e-13 0.348273
f 10/19/9 7/18/9 11/21/9

vn -1.15147e-13 -0 1
f 11/21/10 7/18/10 10/19/10

vt 4.54747e-13 0.229858
f 4/5/3 11/22/3 7/8/3

v -0.0275159 -0.00430137 -0.0058384
vt 0 0.689574
f 11/22/3 4/5/3 12/23/3

f 12/23/4 4/5/4 11/22/4

v 0.00890912 0.0131475 -0.0058384
vt 1.43406 1.03524
vn 1.5353e-13 0 1
vt 1.0587e-13 0.348273
vt 1.43406 0.348273
f 13/24/11 12/25/11 4/26/11

v -0.0275159 0.0131475 -0.0058384
vt 1.0587e-13 1.03524
f 12/25/11 13/24/11 14/27/11

vn -1.5353e-13 -0 -1
f 4/26/12 12/25/12 13/24/12

f 14/27/12 13/24/12 12/25/12

vt -1.43406 0.689574
vn 0 -1 -0
vt -4.54747e-13 0.229858
f 13/28/13 10/29/13 14/23/13

vt -1.43406 0.229858
f 10/29/13 13/28/13 9/30/13

vn -0 1 0
f 14/23/14 10/29/14 13/28/14

vt 0.229858 1.03524
vn 1 0 -9.89191e-13
vt 0.689574 1.03524
f 10/31/15 12/12/15 14/32/15

f 12/12/15 10/31/15 11/10/15

vn -1 -0 9.89191e-13
f 11/10/16 10/31/16 12/12/16

f 14/32/16 12/12/16 10/31/16

f 9/30/14 13/28/14 10/29/14

vt -1.80033 0.919432
f 9/30/13 13/28/13 1/33/13

f 1/33/14 13/28/14 9/30/14

vt 1.58123 1.03524
f 4/4/1 1/1/1 13/34/1

f 4/4/2 1/1/2 2/2/2

f 13/34/2 1/1/2 4/4/2

f 4/12/6 2/9/6 7/10/6

f 7/8/4 11/22/4 4/5/4

vt -1.80033 0
f 9/30/13 1/33/13 8/35/13

f 8/35/14 1/33/14 9/30/14

v 0.0275159 0.0131475 0.0058384
vt -2.16661 0.229858
f 8/35/13 1/33/13 15/36/13

f 15/36/14 1/33/14 8/35/14

v 0.0275159 0.0131475 -0.0058384
vt -2.16661 0.689574
f 15/36/13 1/33/13 16/37/13

f 16/37/14 1/33/14 15/36/14

vt 1.0362 0
vn -0.531554 0 0.847024
vt 1.46862 1.03524
vt 1.0362 1.03524
f 3/38/17 16/39/17 1/40/17

v 0.0275159 -0.0131475 -0.0058384
vt 1.46862 0
f 16/39/17 3/38/17 17/41/17

vn 0.531554 -0 -0.847024
f 17/41/18 3/38/18 16/39/18

usemtl FrontColor
v 0.0275159 -0.0131475 0.0058384
vt 2.16661 0.229858
vt 2.16661 0.689574
f 3/7/3 18/42/3 17/43/3

f 3/7/3 5/6/3 18/42/3

usemtl BackColor
f 3/7/4 5/6/4 2/5/4

f 18/42/4 5/6/4 3/7/4

usemtl Color_M00
vn -0.531554 2.00327e-28 -0.847024
vt -1.95735 1.91708e-28
vt -1.52493 1.91708e-28
f 8/16/19 18/44/19 5/45/19

vt -1.95735 1.03524
f 18/44/19 8/16/19 15/46/19

vn 0.531554 -2.00327e-28 0.847024
f 5/45/20 18/44/20 8/16/20

f 15/46/20 8/16/20 18/44/20

vt -0.689574 1.03524
vn -1 0 -2.47298e-13
vt -0.229858 0
vt -0.229858 1.03524
f 16/47/21 18/48/21 15/49/21

vt -0.689574 0
f 18/48/21 16/47/21 17/50/21

vn 1 -0 2.47298e-13
f 15/49/22 18/48/22 16/47/22

f 17/50/22 16/47/22 18/48/22

usemtl BackColor
f 17/43/4 18/42/4 3/7/4

usemtl Color_M00
f 1/40/18 16/39/18 3/38/18

f 9/20/10 10/19/10 7/18/10

g Mesh2 Component_1_1 Model

l 5 6

l 5 8

l 18 5

l 17 18

l 3 17

l 2 3

l 2 4

l 2 6

l 6 7

l 7 9

l 4 7

l 4 13

l 4 12

l 12 14

l 12 11

l 11 10

l 7 11

l 9 10

l 9 8

l 8 15

l 18 15

l 15 16

l 17 16

l 16 1

l 3 1

l 1 13

l 13 14

l 14 10

