# Alias OBJ Model File
# Exported from SketchUp, (c) 2000-2012 Trimble Navigation Limited
# File units = meters

mtllib Gas.mtl

g Mesh1 Model

usemtl FrontColor
v 0.0018541 -0.0078541 -0.00570634
vt -0.0729961 0.224659
vn 0 -1 -0
v -0.0048541 -0.0078541 0.00352671
vt 0.191106 -0.138847
v -0.0048541 -0.0078541 -0.00352671
vt 0.191106 0.138847
f 1/1/1 2/2/1 3/3/1

v 0.0018541 -0.0078541 0.00570634
vt -0.0729961 -0.224659
f 2/2/1 1/1/1 4/4/1

usemtl Color_M00
vn -0 1 0
f 3/3/2 2/2/2 1/1/2

usemtl FrontColor
v -0.0097082 0.0018541 -0
vt -5.32643e-17 0.23622
vn 0.894427 0.447214 1.24645e-16
vt -0.138847 -0.191106
vt 0.138847 -0.191106
f 5/5/3 2/6/3 3/7/3

v -0.0078541 -0.0018541 0.00570634
vt -0.224659 0.0729961
f 2/6/3 5/5/3 6/8/3

usemtl Color_M00
vn -0.894427 -0.447214 -1.24645e-16
f 6/8/4 5/5/4 2/6/4

vt 7.68829e-15 -0.23622
vn -0.723607 0.447214 0.525731
v -0.006 0.0078541 -0
vt -0.138847 0.191106
vt -0.224659 -0.0729961
f 6/9/5 7/10/5 5/11/5

v -0.0018541 0.0078541 0.00570634
vt 0.138847 0.191106
f 6/9/5 8/12/5 7/10/5

v -0.003 0.0018541 0.00923305
vt 0.224659 -0.0729961
f 8/12/5 6/9/5 9/13/5

vn 0.723607 -0.447214 -0.525731
f 9/13/6 6/9/6 8/12/6

usemtl FrontColor
v 0.003 -0.0018541 0.00923305
vn 0.276393 0.447214 -0.850651
vt 0.224659 0.0729961
vt 3.747e-16 0.23622
f 10/8/7 6/14/7 9/15/7

f 4/6/7 6/14/7 10/8/7

f 6/14/7 4/6/7 2/7/7

usemtl Color_M00
vn -0.276393 -0.447214 0.850651
f 2/7/8 4/6/8 6/14/8

f 4/4/2 1/1/2 2/2/2

usemtl FrontColor
v 0.006 -0.0078541 -0
vt -0.23622 0
f 4/4/1 1/1/1 11/16/1

usemtl Color_M00
f 11/16/2 1/1/2 4/4/2

usemtl FrontColor
v 0.0078541 0.0018541 -0.00570634
vt -7.68829e-15 0.23622
f 11/7/5 12/17/5 1/6/5

v 0.0097082 -0.0018541 -0
f 12/17/5 11/7/5 13/14/5

usemtl Color_M00
f 13/14/6 11/7/6 12/17/6

usemtl FrontColor
vn -0.723607 0.447214 -0.525731
f 4/7/9 13/8/9 11/6/9

v 0.0078541 0.0018541 0.00570634
vt 7.68829e-15 0.23622
f 4/7/9 14/18/9 13/8/9

f 14/18/9 4/7/9 10/14/9

usemtl Color_M00
vn 0.723607 -0.447214 0.525731
f 10/14/10 4/7/10 14/18/10

f 10/8/8 6/14/8 4/6/8

f 9/15/8 6/14/8 10/8/8

vn 0.276393 0.447214 0.850651
vt 3.747e-16 -0.23622
f 14/13/11 9/11/11 10/19/11

v 0.0048541 0.0078541 0.00352671
f 9/11/11 14/13/11 15/12/11

vn -0.276393 -0.447214 -0.850651
f 10/19/12 9/11/12 14/13/12

f 15/12/12 14/13/12 9/11/12

usemtl FrontColor
vt 3.30799e-16 -0.23622
vn 0.894427 0.447214 7.74113e-16
f 13/20/13 15/10/13 14/11/13

v 0.0048541 0.0078541 -0.00352671
f 15/10/13 13/20/13 16/12/13

usemtl Color_M00
vn -0.894427 -0.447214 -7.74113e-16
f 14/11/14 15/10/14 13/20/14

f 16/12/14 13/20/14 15/10/14

usemtl FrontColor
f 16/12/13 13/20/13 12/13/13

usemtl Color_M00
f 12/13/14 13/20/14 16/12/14

usemtl FrontColor
v -0.0018541 0.0078541 -0.00570634
f 12/11/7 17/12/7 16/10/7

v -0.003 0.0018541 -0.00923305
f 12/11/7 18/13/7 17/12/7

v 0.003 -0.0018541 -0.00923305
vt -5.96745e-16 -0.23622
f 18/13/7 12/11/7 19/21/7

usemtl Color_M00
f 19/21/8 12/11/8 18/13/8

usemtl FrontColor
f 1/6/5 12/17/5 19/8/5

usemtl Color_M00
f 1/6/6 12/17/6 11/7/6

f 19/8/6 12/17/6 1/6/6

usemtl FrontColor
f 19/14/11 3/6/11 1/7/11

v -0.0078541 -0.0018541 -0.00570634
f 3/6/11 19/14/11 20/8/11

usemtl Color_M00
f 1/7/12 3/6/12 19/14/12

f 20/8/12 19/14/12 3/6/12

usemtl FrontColor
vt -5.82867e-16 0.23622
f 20/8/11 19/14/11 18/22/11

usemtl Color_M00
f 18/22/12 19/14/12 20/8/12

usemtl FrontColor
vt -8.07687e-15 -0.23622
f 20/23/9 17/10/9 18/11/9

f 5/13/9 17/10/9 20/23/9

f 17/10/9 5/13/9 7/12/9

usemtl Color_M00
f 7/12/10 5/13/10 17/10/10

f 5/11/6 7/10/6 6/9/6

f 7/10/6 8/12/6 6/9/6

usemtl FrontColor
vt 0.0729961 0.224659
vn -3.50423e-16 -1 1.24822e-15
vt 0.0729961 -0.224659
vt 0.23622 -3.85971e-16
f 17/24/15 8/25/15 7/26/15

vt -0.191106 0.138847
f 8/25/15 17/24/15 16/27/15

usemtl Color_M00
vn 3.50423e-16 1 -1.24822e-15
f 7/26/16 8/25/16 17/24/16

f 16/27/16 17/24/16 8/25/16

f 16/10/8 17/12/8 12/11/8

f 17/12/8 18/13/8 12/11/8

f 18/11/10 17/10/10 20/23/10

f 20/23/10 17/10/10 5/13/10

usemtl FrontColor
f 5/5/3 3/7/3 20/14/3

usemtl Color_M00
f 3/7/4 2/6/4 5/5/4

f 20/14/4 3/7/4 5/5/4

usemtl FrontColor
vt -0.191106 -0.138847
f 8/25/15 16/27/15 15/28/15

usemtl Color_M00
f 15/28/16 16/27/16 8/25/16

f 9/11/11 15/12/11 8/10/11

f 8/10/12 15/12/12 9/11/12

f 13/8/10 14/18/10 4/7/10

f 11/6/10 13/8/10 4/7/10

g Mesh2 Model

l 12 13

l 12 16

l 19 12

l 1 19

l 3 1

l 3 2

l 3 20

l 18 20

l 17 18

l 17 7

l 16 17

l 15 16

l 14 15

l 14 13

l 10 14

l 10 9

l 4 10

l 11 4

l 11 1

l 13 11

l 2 4

l 6 2

l 5 6

l 20 5

l 7 5

l 8 7

l 8 9

l 8 15

l 9 6

l 18 19

