# Alias OBJ Model File
# Exported from SketchUp, (c) 2000-2012 Trimble Navigation Limited
# File units = meters

mtllib Erlenmeyer_Highlight.mtl

g Mesh1 Model

usemtl Color_M00
v -0.0158678 0.103168 -0.0171386
vt -0.384754 4.06173
vn -0.707476 0 -0.706738
v -0.0227028 -0.00619951 -0.000612955
vt 0.319317 -0.244075
vn -0.957097 0.289769 8.28081e-06
v -0.0227028 0.103168 -0.000612955
vt 0.319317 4.06173
vn -1 0 4.20503e-16
f 1/1/1 2/2/2 3/3/3

v -0.0158678 -0.00619951 -0.0171386
vt -0.384754 -0.244075
vn -0.653436 0.382929 -0.652983
f 2/2/2 1/1/1 4/4/4

vn 1 -0 -4.20503e-16
vn 0.957097 -0.289769 -8.28081e-06
vn 0.707476 -0 0.706738
f 3/3/5 2/2/6 1/1/7

v -0.0158678 -0.00619951 0.0159127
vt 0.340154 -0.244075
vn -0.713212 0.345273 0.610012
vt -0.363916 4.06173
vt -0.363916 -0.244075
f 5/5/8 3/6/3 2/7/2

v -0.0158678 0.103168 0.0159127
vt 0.340154 4.06173
vn -0.707476 0 0.706738
f 3/6/3 5/5/8 6/8/9

vn 0.707476 -0 -0.706738
vn 0.713212 -0.345273 -0.610012
f 6/8/10 5/5/11 3/6/5

vt -0.33699 -0.244075
v 0.00063351 0.103168 0.0227579
vt 0.366346 4.06173
vn 6.31027e-16 0 1
vt -0.33699 4.06173
f 5/9/8 7/10/12 6/11/9

v 0.00063351 -0.00619951 0.0227579
vt 0.366346 -0.244075
vn -0.0725994 0.345195 0.935719
f 7/10/12 5/9/8 8/12/13

vn 0.0725994 -0.345195 -0.935719
vn -6.31027e-16 -0 -1
f 8/12/14 5/9/11 7/10/15

vt -0.33699 -0.632964
v -0.063601 -0.108961 0.063601
vt -1.35343 -5.36491
vn -0.506232 0.545206 0.668191
vt 0.366346 -0.632964
f 5/13/8 9/14/16 8/15/13

v -0.0902106 -0.108961 -0.000640466
vt -1.38243 -5.36459
vn -0.835803 0.549029 1.57111e-05
vt 1.35514 -5.36459
vt 0.339728 -0.63242
f 10/16/17 9/17/16 5/18/8

v -0.063601 -0.108961 -0.0648819
vt 2.50397 2.55441
vn 0 -1 -0
vt 2.50397 -2.50397
vt 3.5516 0.0252152
f 11/19/18 9/20/18 10/21/18

v 0.000640466 -0.108961 -0.0914916
vt -0.0252152 3.60203
f 9/20/18 11/19/18 12/22/18

vn -0 1 0
f 10/21/19 9/20/19 11/19/19

vn 0.506232 -0.545206 -0.668191
vn 0.835803 -0.549029 -1.57111e-05
f 5/18/11 9/17/20 10/16/21

f 8/15/14 9/14/20 5/13/11

vt 0.365919 -0.63297
vt -1.35514 -5.36445
v 0.000640466 -0.108961 0.0902106
vt 1.38243 -5.36445
vn 0.114811 0.545141 0.830446
f 8/23/13 9/24/16 13/25/22

vn -0.114811 -0.545141 -0.830446
f 13/25/23 9/24/20 8/23/14

vt -0.0252152 -3.5516
f 9/20/18 12/22/18 13/26/18

f 12/22/19 11/19/19 9/20/19

vt 0.318947 -0.656162
vt -1.40173 -5.38887
vn -0.114785 0.545454 -0.830244
vt 1.33584 -5.38887
vn -0.59098 0.549082 -0.590975
f 4/27/4 12/28/24 11/29/25

v 0.00063351 -0.00619951 -0.0239838
vt -0.384839 -0.656149
vn -0.375966 0.508791 -0.774456
vt -1.40347 -5.38839
vt 0.318497 -0.656149
f 14/30/26 12/31/24 4/32/4

vt 0.338332 -0.666255
v 0.0648819 -0.108961 -0.0648819
vt -1.38233 -5.39891
vn 0.668206 0.545518 -0.505876
vt 1.35525 -5.39886
f 14/33/26 15/34/27 12/35/24

v 0.0171348 -0.00619951 -0.0171386
vt -0.365004 -0.666076
vn 0.813249 0.509 -0.282037
f 15/34/27 14/33/26 16/36/28

vn 0.114785 -0.545454 0.830244
vn -0.668206 -0.545518 0.505876
vn 0.375966 -0.508791 0.774456
f 12/35/29 15/34/30 14/33/31

v 0.0648819 -0.108961 0.063601
vt -2.55441 -2.50397
vt -2.55441 2.55441
f 17/37/18 12/22/18 15/38/18

f 13/26/18 12/22/18 17/37/18

f 13/26/19 12/22/19 9/20/19

f 17/37/19 12/22/19 13/26/19

f 15/38/19 12/22/19 17/37/19

v 0.0914916 -0.108961 -0.000640466
vt -3.60203 0.0252152
f 17/37/18 15/38/18 18/39/18

f 18/39/19 15/38/19 17/37/19

vt 1.38243 -5.39896
v 0.0239699 -0.00619951 -0.000612955
vt -0.338841 -0.665909
vn 0.935662 0.345355 -0.0725708
vt -1.35514 -5.39896
vn 0.830263 0.545485 0.114495
f 15/40/27 19/41/32 18/42/33

vn -0.830263 -0.545485 -0.114495
vn -0.935662 -0.345355 0.0725708
f 18/42/34 19/41/35 15/40/30

vt 1.4 -5.38929
vt 0.382982 -0.656394
v 0.0171348 -0.00619951 0.0159127
vt -0.321089 -0.656394
vn 0.65346 0.382802 0.653033
f 18/43/33 19/44/32 20/45/36

vn -0.65346 -0.382802 -0.653033
f 20/45/37 19/44/35 18/43/34

vt 0.382982 -0.244075
v 0.0171348 0.103168 0.0159127
vt -0.321089 4.06173
vn 0.707476 -1.99709e-17 0.706738
vt -0.321089 -0.244075
f 19/46/32 21/47/38 20/48/36

v 0.0239699 0.103168 -0.000612955
vt 0.382982 4.06173
vn 1 -5.23635e-18 1.44172e-15
f 21/47/38 19/46/32 22/49/39

vn -0.707476 1.99709e-17 -0.706738
f 20/48/37 21/47/40 19/46/35

vt 0.383065 4.06173
vt -0.320271 -0.244075
vt 0.383065 -0.244075
f 21/50/38 8/51/13 20/52/36

vt -0.320271 4.06173
f 8/51/13 21/50/38 7/53/12

f 20/52/37 8/51/14 21/50/40

vt -0.320271 -0.642747
vt -1.33756 -5.37406
vt 0.383065 -0.642747
f 8/54/13 13/55/22 20/56/36

f 20/56/37 13/55/23 8/54/14

vt 0.383502 -0.642739
vt -1.33584 -5.37452
vt 1.40173 -5.37452
vn 0.591037 0.548917 0.591071
f 20/57/36 13/58/22 17/59/41

vn -0.591037 -0.548917 -0.591071
f 17/59/42 13/58/23 20/57/37

vt 1.40173 -5.38881
vt -0.320639 -0.656382
vt -1.33584 -5.38881
f 18/60/33 20/61/36 17/62/41

f 17/62/42 20/61/37 18/60/34

f 7/53/15 21/50/40 8/51/14

v 0.021219 0.106838 0.0200029
vt 0.469886 3.24495
vn 0.614807 -0.494867 0.6141
vt -0.320271 2.98976
vn 0.000151442 -0.844628 0.535354
vt 0.383065 2.98976
vn 0.379276 -0.844206 0.378769
f 23/63/43 7/64/44 21/65/45

v 0.000619509 0.106838 0.0285481
vt -0.408127 3.24495
vn 8.88024e-05 -0.49527 0.868739
f 7/64/44 23/63/43 24/66/46

vn -8.88024e-05 0.49527 -0.868739
vn -0.614807 0.494867 -0.6141
vn -0.000151442 0.844628 -0.535354
f 24/66/47 23/63/48 7/64/49

v 0.021219 0.110508 0.0200029
vt 0.469886 4.35071
vn 0.707476 0 0.706738
vt -0.408127 4.20622
vt 0.469886 4.20622
f 25/67/50 24/68/46 23/69/43

v 0.000619509 0.110508 0.0285481
vt -0.408127 4.35071
vn -1.20196e-16 0 1
f 24/68/46 25/67/50 26/70/51

vn -0.707476 -0 -0.706738
f 23/69/48 24/68/47 25/67/52

vn 1.20196e-16 -0 -1
f 26/70/53 25/67/52 24/68/47

v 0.000619509 0.110508 0.0241636
vt 0.0243901 -0.951322
vn 0 1 -0
vt 0.0243901 -1.12394
vt 0.835393 -0.787516
f 27/71/54 26/72/54 25/73/54

v -0.0168787 0.110508 0.0169049
vt -0.664515 -0.665546
f 28/74/54 26/72/54 27/71/54

v -0.01998 0.110508 0.0200029
vt -0.786613 -0.787516
f 28/74/54 29/75/54 26/72/54

v -0.0241299 0.110508 -0.000626976
vt -0.949996 0.0246841
f 30/76/54 29/75/54 28/74/54

v -0.0285125 0.110508 -0.000626976
vt -1.12254 0.0246841
f 29/75/54 30/76/54 31/77/54

vn -0 -1 0
f 31/77/55 30/76/55 29/75/55

v -0.01998 0.110508 -0.0212569
vt -0.786613 0.836885
f 30/76/54 32/78/54 31/77/54

v -0.0168787 0.110508 -0.0181588
vt -0.664515 0.714915
f 32/78/54 30/76/54 33/79/54

f 31/77/55 32/78/55 30/76/55

vt -0.472703 4.35071
v -0.0285125 0.106838 -0.000626976
vt 0.406227 4.20622
vn -0.868375 -0.495909 8.81449e-05
vt 0.406227 4.35071
vn -1 0 3.60431e-16
f 32/80/1 34/81/56 31/82/57

v -0.01998 0.106838 -0.0212569
vt -0.472703 4.20622
vn -0.614224 -0.49631 -0.613518
f 34/81/56 32/80/1 35/83/58

vn 1 -0 -3.60431e-16
vn 0.868375 0.495909 -8.81449e-05
f 31/82/59 34/81/60 32/80/7

v -0.01998 0.106838 0.0200029
vt 0.427083 4.20622
vn -0.614427 -0.49559 0.613898
vt -0.451847 4.35071
vt -0.451847 4.20622
f 36/84/61 31/85/57 34/86/56

vt 0.427083 4.35071
f 31/85/57 36/84/61 29/87/9

vn 0.614427 0.49559 -0.613898
f 29/87/10 36/84/62 31/85/59

vt -0.424829 4.20622
vt 0.453184 4.35071
vt -0.424829 4.35071
f 36/88/61 26/89/51 29/90/9

vt 0.453184 4.20622
f 26/89/51 36/88/61 24/91/46

f 24/91/47 36/88/62 26/89/53

vt -0.33699 2.9713
vn -0.378201 -0.845034 0.377997
vt 0.453184 3.22685
vt -0.424829 3.22685
f 6/92/63 24/93/46 36/94/61

vt 0.366346 2.9713
f 24/93/46 6/92/63 7/95/44

vn 0.378201 0.845034 -0.377997
f 36/94/62 24/93/47 6/92/64

f 7/95/49 6/92/64 24/93/47

f 6/11/10 7/10/15 5/9/11

vt 0.358785 4.4357
vn 0.37726 0.174889 -0.909444
vt -0.366346 4.1422
vt 0.33699 4.1422
f 28/96/65 7/97/65 6/98/65

vt -0.387043 4.4357
f 7/97/65 28/96/65 27/99/65

vn -0.37726 -0.174889 0.909444
f 6/98/66 7/97/66 28/96/66

f 27/99/66 28/96/66 7/97/66

f 27/71/55 26/72/55 28/74/55

f 25/73/55 26/72/55 27/71/55

v 0.0181177 0.110508 0.0169049
vt 0.713295 -0.665546
f 27/71/54 25/73/54 37/100/54

f 37/100/55 25/73/55 27/71/55

v 0.0253689 0.110508 -0.000626976
vt 0.998777 0.0246841
f 37/100/54 25/73/54 38/101/54

f 38/101/55 25/73/55 37/100/55

v 0.0297516 0.110508 -0.000626976
vt 1.17132 0.0246841
f 38/101/54 25/73/54 39/102/54

f 39/102/55 25/73/55 38/101/55

vt -0.408439 4.35071
v 0.0297516 0.106838 -0.000626976
vt 0.470491 4.20622
vn 0.868957 -0.494888 8.85437e-05
vt 0.470491 4.35071
vn 1 0 1.35162e-15
f 25/103/50 40/104/67 39/105/68

vt -0.408439 4.20622
f 40/104/67 25/103/50 23/106/43

vn -0.868957 0.494888 -8.85437e-05
f 23/106/48 25/103/52 40/104/69

vn -1 -0 -1.35162e-15
f 39/105/70 40/104/69 25/103/52

v 0.021219 0.106838 -0.0212569
vt 0.454059 4.20622
vn 0.614604 -0.49559 -0.613721
vt -0.424871 4.35071
vt -0.424871 4.20622
f 41/107/71 39/108/68 40/109/67

v 0.021219 0.110508 -0.0212569
vt 0.454059 4.35071
vn 0.707476 0 -0.706738
f 39/108/68 41/107/71 42/110/72

vn -0.614604 0.49559 0.613721
f 40/109/69 39/108/70 41/107/73

vn -0.707476 -0 0.706738
f 42/110/74 41/107/73 39/108/70

vt -0.45097 4.20622
v 0.000619509 0.110508 -0.0298021
vt 0.427043 4.35071
vn -7.81272e-16 0 -1
vt -0.45097 4.35071
f 41/111/71 43/112/75 42/113/72

v 0.000619509 0.106838 -0.0298021
vt 0.427043 4.20622
vn 8.84018e-05 -0.496291 -0.868156
f 43/112/75 41/111/71 44/114/76

vn -8.84018e-05 0.496291 0.868156
vn 7.81272e-16 -0 1
f 44/114/77 41/111/73 43/112/78

vt -0.45097 3.27611
v 0.00063351 0.103168 -0.0239838
vt 0.338764 3.02007
vn 0.000150657 -0.845794 -0.533509
vt 0.427043 3.27611
f 41/115/71 45/116/79 44/117/76

v 0.0171348 0.103168 -0.0171386
vt -0.364572 3.02007
vn 0.378503 -0.845034 -0.377695
f 45/116/79 41/115/71 46/118/80

vn -0.000150657 0.845794 0.533509
f 44/117/77 45/116/81 41/115/73

vt 0.318497 3.00162
vn -0.37743 -0.845857 -0.376925
vt -0.472101 3.25801
vt -0.384839 3.00162
f 1/119/82 44/120/76 45/121/79

vt 0.405912 3.25801
f 44/120/76 1/119/82 35/122/58

vn 0.614224 0.49631 0.613518
vn 0.37743 0.845857 0.376925
f 35/122/83 1/119/84 44/120/77

vt 0.319317 2.98035
vn -0.534073 -0.845439 0.000150272
vt -0.472703 3.23656
vt -0.384754 2.98035
f 3/123/85 35/124/58 1/125/82

vt 0.406227 3.23656
f 35/124/58 3/123/85 34/126/56

vn 0.534073 0.845439 -0.000150272
f 34/126/60 3/123/86 35/124/83

vt -0.363916 2.96781
vt 0.427083 3.22367
vt -0.451847 3.22367
f 3/127/85 36/128/61 34/129/56

vt 0.340154 2.96781
f 36/128/61 3/127/85 6/130/63

f 34/129/60 36/128/62 3/127/86

f 34/86/60 31/85/59 36/84/62

f 6/130/64 3/127/86 36/128/62

vt 0.3859 4.43565
vn 0.909632 0.176133 -0.376226
vt -0.340154 4.14208
vt 0.363916 4.14208
f 30/131/87 6/132/87 3/133/87

vt -0.361039 4.43565
f 6/132/87 30/131/87 28/134/87

vn -0.909632 -0.176133 0.376226
f 28/134/88 30/131/88 6/132/88

f 28/74/55 29/75/55 30/76/55

f 26/72/55 29/75/55 28/74/55

f 29/90/10 26/89/53 36/88/62

usemtl FrontColor
f 28/74/54 33/79/54 30/76/54

v 0.0181177 0.110508 -0.0181588
vt 0.713295 0.714915
f 33/79/54 28/74/54 47/135/54

usemtl BackColor
f 30/76/55 33/79/55 28/74/55

usemtl Color_M00
vt -0.34028 4.43913
vn 0.909401 0.177525 0.376131
vt 0.384754 4.14548
vt 0.406659 4.43913
f 30/136/89 1/137/89 33/138/89

vt -0.319317 4.14548
f 1/137/89 30/136/89 3/139/89

vn -0.909401 -0.177525 -0.376131
f 3/139/90 30/136/90 1/137/90

f 3/133/88 6/132/88 30/131/88

f 33/138/90 1/137/90 30/136/90

vt -0.318497 4.15045
vn 0.377029 0.178254 0.908886
v 0.000619509 0.110508 -0.0254175
vt 0.405959 4.44413
vt -0.339868 4.44413
f 1/140/91 48/141/91 33/142/91

vt 0.384839 4.15045
f 48/141/91 1/140/91 45/143/91

vn -0.377029 -0.178254 -0.908886
f 45/143/92 1/140/92 48/141/92

f 45/121/81 44/120/77 1/119/84

vt -0.384839 -0.244075
vt 0.318497 4.06173
vt -0.384839 4.06173
vn -1 -1.84508e-16 -7.24375e-16
f 14/144/26 1/145/1 45/146/93

vt 0.318497 -0.244075
f 1/145/1 14/144/26 4/147/4

vn 0.653436 -0.382929 0.652983
f 4/147/94 14/144/31 1/145/7

f 4/32/94 12/31/29 14/30/31

vn 0.59098 -0.549082 0.590975
f 11/29/95 12/28/29 4/27/94

vt -1.40173 -5.37469
vt 1.33584 -5.37469
vt -0.384318 -0.642089
f 11/148/25 10/149/17 4/150/4

f 4/150/94 10/149/21 11/148/95

vt -0.384754 -0.64208
vt 1.33413 -5.37514
vt 0.319317 -0.64208
f 4/151/4 10/152/17 2/153/2

f 2/153/6 10/152/21 4/151/94

vt -1.38073 -5.36505
vt 0.340154 -0.632421
vt -0.363916 -0.632421
f 10/154/17 5/155/8 2/156/2

f 2/156/6 5/155/11 10/154/21

f 2/7/6 3/6/5 5/5/11

f 4/4/94 1/1/7 2/2/6

vn 1 1.84508e-16 7.24375e-16
f 45/146/96 1/145/7 14/144/31

vt -0.338764 -0.244075
vt 0.364572 4.06173
vn 0.706738 -1.49171e-16 0.707476
vt -0.338764 4.06173
f 14/157/26 46/158/97 45/159/93

vt 0.364572 -0.244075
f 46/158/97 14/157/26 16/160/28

vn -0.813249 -0.509 0.282037
vn -0.706738 1.49171e-16 -0.707476
f 16/160/98 14/157/31 46/158/99

f 16/36/98 14/33/31 15/34/30

vt 1.38417 -5.39848
vt 0.365689 -0.665899
vt -0.338382 -0.665899
f 15/161/27 16/162/28 19/163/32

f 19/163/35 16/162/98 15/161/30

vt 0.365689 -0.244075
vt -0.338382 4.06173
vt -0.338382 -0.244075
f 16/164/28 22/165/39 19/166/32

vt 0.365689 4.06173
f 22/165/39 16/164/28 46/167/97

vn -1 5.23635e-18 -1.44172e-15
f 19/166/35 22/165/100 16/164/98

f 22/49/100 19/46/35 21/47/40

vt 0.382982 3.01231
vn 0.535918 -0.84427 0.000151054
vt -0.408439 3.26733
vt -0.321089 3.01231
f 22/168/101 23/169/43 21/170/45

vt 0.470491 3.26733
f 23/169/43 22/168/101 40/171/67

vn -0.379276 0.844206 -0.378769
vn -0.535918 0.84427 -0.000151054
f 21/170/102 23/169/48 22/168/103

f 21/65/102 7/64/49 23/63/48

vt 0.341985 4.43881
vn -0.377355 0.173493 -0.909672
vt -0.383065 4.14538
vt 0.320271 4.14538
f 27/172/104 21/173/104 7/174/104

vt -0.403842 4.43881
f 21/173/104 27/172/104 37/175/104

vn 0.377355 -0.173493 0.909672
f 7/174/105 21/173/105 27/172/105

f 37/175/105 27/172/105 21/173/105

usemtl FrontColor
f 47/135/54 27/71/54 37/100/54

f 27/71/54 47/135/54 28/74/54

usemtl BackColor
f 28/74/55 47/135/55 27/71/55

f 47/135/55 28/74/55 33/79/55

usemtl FrontColor
vt 0.0243901 1.00069
f 33/79/54 47/135/54 48/176/54

usemtl BackColor
f 48/176/55 47/135/55 33/79/55

usemtl Color_M00
vt 0.0243901 1.17331
f 43/177/54 48/176/54 47/135/54

f 43/177/54 33/79/54 48/176/54

f 32/78/54 33/79/54 43/177/54

f 33/79/55 30/76/55 32/78/55

f 43/177/55 33/79/55 32/78/55

f 48/176/55 33/79/55 43/177/55

f 33/142/92 48/141/92 1/140/92

f 47/135/55 48/176/55 43/177/55

vt -0.338764 4.15365
vn -0.377125 0.176861 0.909119
vt 0.384926 4.44725
vt -0.360901 4.44725
f 45/178/106 47/179/106 48/180/106

vt 0.364572 4.15365
f 47/179/106 45/178/106 46/181/106

vn 0.377125 -0.176861 -0.909119
f 46/181/107 45/178/107 47/179/107

f 45/159/96 46/158/99 14/157/31

vn -0.378503 0.845034 0.377695
f 46/118/108 41/115/73 45/116/81

vt 0.454059 3.28021
vt -0.338382 3.02484
vt 0.365689 3.02484
f 41/182/71 22/183/101 46/184/80

vt -0.424871 3.28021
f 22/183/101 41/182/71 40/185/67

f 46/184/108 22/183/103 41/182/73

f 46/167/99 16/164/98 22/165/100

vt 0.358924 4.44661
vn -0.909956 0.174162 0.37636
vt -0.365689 4.15314
vt 0.338382 4.15314
f 38/186/109 46/187/109 22/188/109

vt -0.388015 4.44661
f 46/187/109 38/186/109 47/189/109

vn 0.909956 -0.174162 -0.37636
f 22/188/110 46/187/110 38/186/110

f 47/189/110 38/186/110 46/187/110

vt 0.835393 0.836885
f 42/190/54 47/135/54 38/101/54

f 43/177/54 47/135/54 42/190/54

f 42/190/55 47/135/55 43/177/55

f 38/101/55 47/135/55 42/190/55

usemtl FrontColor
f 47/135/54 37/100/54 38/101/54

usemtl BackColor
f 37/100/55 27/71/55 47/135/55

f 38/101/55 37/100/55 47/135/55

usemtl Color_M00
vt -0.404544 4.44311
vn -0.910183 0.172768 -0.376454
vt 0.321089 4.14972
vt 0.342395 4.44311
f 38/191/111 21/192/111 37/193/111

vt -0.382982 4.14972
f 21/192/111 38/191/111 22/194/111

vn 0.910183 -0.172768 0.376454
f 37/193/112 21/192/112 38/191/112

f 22/194/112 38/191/112 21/192/112

f 42/190/54 38/101/54 39/102/54

f 39/102/55 38/101/55 42/190/55

f 42/113/74 43/112/78 41/111/73

f 40/185/69 41/182/73 22/183/103

f 40/171/69 22/168/103 23/169/48

f 48/180/107 47/179/107 45/178/107

vt -0.472101 4.20622
vt 0.405912 4.35071
vt -0.472101 4.35071
f 44/195/76 32/196/1 43/197/75

vt 0.405912 4.20622
f 32/196/1 44/195/76 35/198/58

f 35/198/83 44/195/77 32/196/7

f 43/197/78 32/196/7 44/195/77

f 35/83/83 32/80/7 34/81/60

f 1/125/84 35/124/83 3/123/86

g Mesh2 Model

l 1 3

l 45 1

l 46 45

l 22 46

l 21 22

l 7 21

l 6 7

l 3 6

l 3 30

l 30 28

l 33 30

l 48 33

l 45 48

l 47 48

l 38 47

l 22 38

l 37 38

l 21 37

l 27 37

l 28 27

l 6 28

l 28 47

l 46 47

l 7 27

l 1 33

g Mesh3 Model

l 25 39

l 26 25

l 29 26

l 31 29

l 32 31

l 43 32

l 42 43

l 39 42

g Mesh4 Model

l 11 10

l 12 11

l 15 12

l 18 15

l 17 18

l 13 17

l 9 13

l 10 9

