# Alias OBJ Model File
# Exported from SketchUp, (c) 2000-2012 Trimble Navigation Limited
# File units = meters

mtllib Beaker.mtl

g Mesh1 Model

usemtl Color_M01
v 0.048 -0.06 6.76792e-17
vt -1.88976 -2.66454e-15
vn 0 -1 -0
v 1.12799e-17 -0.06 2.25597e-17
vt -4.44089e-16 -8.88178e-16
v 0.0339411 -0.06 -0.0339411
vt -1.33626 1.33626
f 1/1/1 2/2/1 3/3/1

vn -0 1 0
f 3/3/2 2/2/2 1/1/2

v -2.14317e-16 -0.06 -0.048
vt 8.43769e-15 1.88976
f 3/3/1 2/2/1 4/4/1

f 4/4/2 2/2/2 3/3/2

v -0.0339411 -0.06 -0.0339411
vt 1.33626 1.33626
f 2/2/1 5/5/1 4/4/1

v -0.048 -0.06 6.76792e-17
vt 1.88976 -2.66454e-15
f 2/2/1 6/6/1 5/5/1

f 5/5/2 6/6/2 2/2/2

vt 0.723181 -2.3622
vn -1 0 5.70806e-16
v -0.0339411 0.064 -0.0339411
vt -0.723181 2.51969
vn -0.707107 0 -0.707107
vt -0.723181 -2.3622
f 6/7/3 7/8/4 5/9/4

v -0.048 0.064 6.76792e-17
vt 0.723181 2.51969
f 7/8/4 6/7/3 8/10/3

vn 1 -0 -5.70806e-16
vn 0.707107 -0 0.707107
f 8/10/5 6/7/5 7/8/6

v -0.0339411 -0.06 0.0339411
vn -0.707107 0 0.707107
f 9/7/7 8/8/3 6/9/3

v -0.0339411 0.064 0.0339411
f 8/8/3 9/7/7 10/10/7

vn 0.707107 -0 -0.707107
f 10/10/8 9/7/8 8/8/5

v -2.14317e-16 0.064 0.048
vn -2.43344e-15 0 1
f 9/9/7 11/10/9 10/8/7

v -2.14317e-16 -0.06 0.048
f 11/10/9 9/9/7 12/7/9

vn 2.43344e-15 -0 -1
f 12/7/10 9/9/8 11/10/10

vt 8.43769e-15 -1.88976
vt 1.33626 -1.33626
f 2/2/1 12/11/1 9/12/1

f 9/12/2 12/11/2 2/2/2

v 0.0339411 -0.06 0.0339411
vt -1.33626 -1.33626
f 13/13/1 12/11/1 2/2/1

v 0.0339411 0.064 0.0339411
vn 0.707107 4.13258e-17 0.707107
f 14/10/11 12/9/9 13/7/11

f 12/9/9 14/10/11 11/8/9

vn -0.707107 -4.13258e-17 -0.707107
f 13/7/12 12/9/10 14/10/12

f 2/2/2 12/11/2 13/13/2

f 1/1/1 13/13/1 2/2/1

vn 1 2.18784e-17 5.70806e-16
f 1/7/13 14/8/11 13/9/11

v 0.0416909 0.064 0.0152315
vt 0.0741063 2.51969
vn 0.92388 7.63601e-17 0.382683
f 14/8/11 1/7/13 15/14/14

vn -1 -2.18784e-17 -5.70806e-16
f 13/9/12 14/8/12 1/7/15

vn -0.92388 -7.63601e-17 -0.382683
f 15/14/16 1/7/15 14/8/12

v 0.048 0.0402902 6.76792e-17
vt 0.723181 1.58623
f 15/14/14 1/7/13 16/15/13

f 16/15/15 1/7/15 15/14/16

vn 0.707107 -1.94474e-17 -0.707107
vt -0.723181 1.58623
f 3/7/17 16/16/13 1/9/13

v 0.0416909 0.064 -0.0152315
vt -0.0741063 2.51969
vn 0.92388 -3.59342e-17 -0.382683
f 16/16/13 3/7/17 17/17/18

vn -0.707107 1.94474e-17 0.707107
f 1/9/15 16/16/15 3/7/19

vn -0.92388 3.59342e-17 0.382683
f 17/17/20 3/7/19 16/16/15

v 0.0339411 0.064 -0.0339411
f 17/17/18 3/7/17 18/10/17

f 18/10/19 3/7/19 17/17/20

v -2.14317e-16 0.064 -0.048
vn -2.46348e-15 0 -1
f 3/9/17 19/10/21 18/8/17

f 19/10/21 3/9/17 4/7/21

vn 2.46348e-15 -0 1
f 4/7/22 3/9/19 19/10/22

f 18/8/19 19/10/22 3/9/19

vt -8.43769e-15 1.88976
vn 0 1 -0
v 0.0308797 0.064 -0.0308797
vt 1.21573 1.21573
f 19/18/23 20/19/23 18/5/23

v -2.14317e-16 0.064 -0.0436704
vt -8.43769e-15 1.71931
f 19/18/23 21/20/23 20/19/23

v -0.0308797 0.064 -0.0308797
vt -1.21573 1.21573
f 19/18/23 22/21/23 21/20/23

f 7/3/23 22/21/23 19/18/23

v -0.0436704 0.064 6.76792e-17
vt -1.71931 -2.66454e-15
f 7/3/23 23/22/23 22/21/23

f 23/22/23 7/3/23 8/1/23

vn -0 -1 0
f 8/1/24 7/3/24 23/22/24

f 22/21/24 23/22/24 7/3/24

vt -0.657951 2.51969
vn 1 0 -1.32187e-15
v -0.0308797 -0.05 -0.0308797
vt 0.657951 -1.9685
vn 0.707107 0 0.707107
vt 0.657951 2.51969
f 23/23/25 24/24/26 22/25/26

v -0.0436704 -0.05 6.76792e-17
vt -0.657951 -1.9685
f 24/24/26 23/23/25 25/26/25

vn -1 -0 1.32187e-15
vn -0.707107 -0 -0.707107
f 25/26/27 23/23/27 24/24/28

v -0.0308797 0.064 0.0308797
vn 0.707107 0 -0.707107
f 26/23/29 25/24/25 23/25/25

v -0.0308797 -0.05 0.0308797
f 25/24/25 26/23/29 27/26/29

vn -0.707107 -0 0.707107
f 27/26/30 26/23/30 25/24/27

v -2.14317e-16 -0.05 0.0436704
vn 1.38195e-15 0 -1
f 26/25/29 28/26/31 27/24/29

v -2.14317e-16 0.064 0.0436704
f 28/26/31 26/25/29 29/23/31

vn -1.38195e-15 -0 1
f 27/24/30 28/26/32 26/25/30

vt 1.21573 -1.21573
v -2.14317e-16 -0.05 -0.0436704
vt 8.43769e-15 1.71931
vt 8.43769e-15 -1.71931
f 27/27/1 30/28/1 28/29/1

f 27/27/1 24/19/1 30/28/1

vt 1.71931 -2.66454e-15
f 24/19/1 27/27/1 25/30/1

f 25/30/2 27/27/2 24/19/2

f 30/28/2 24/19/2 27/27/2

vn 1.38195e-15 0 1
f 21/25/33 24/26/26 30/24/33

f 24/26/26 21/25/33 22/23/26

vn -1.38195e-15 -0 -1
f 30/24/34 24/26/28 21/25/34

f 22/23/28 21/25/34 24/26/28

f 21/20/24 22/21/24 19/18/24

f 19/18/24 22/21/24 7/3/24

f 4/9/21 7/10/4 19/8/21

f 7/10/4 4/9/21 5/7/4

f 5/7/6 4/9/22 7/10/6

f 4/4/2 5/5/2 2/2/2

f 19/8/22 7/10/6 4/9/22

f 5/9/6 7/8/6 6/7/5

f 20/19/24 21/20/24 19/18/24

vn 0.707107 -2.36024e-16 0.707107
f 30/26/33 20/25/35 21/23/33

v 0.0308797 -0.05 -0.0308797
f 20/25/35 30/26/33 31/24/35

vn -0.707107 2.36024e-16 -0.707107
f 31/24/36 30/26/34 20/25/36

f 28/29/1 30/28/1 31/21/1

f 28/29/2 30/28/2 27/27/2

f 31/21/2 30/28/2 28/29/2

v 0.0308797 -0.05 0.0308797
vt -1.21573 -1.21573
f 28/29/1 31/21/1 32/31/1

f 32/31/2 31/21/2 28/29/2

v 0.0436704 -0.05 6.76792e-17
f 32/31/1 31/21/1 33/22/1

f 33/22/2 31/21/2 32/31/2

v 0.0436704 0.048 6.76792e-17
vt -0.657951 1.88976
vn 1.16046e-15 -3.77736e-17 -1
f 31/24/35 34/32/37 33/26/37

v 0.0398691 0.064 -0.00917712
vt -0.266878 2.51969
vn 0.92388 -1.80645e-16 -0.382683
f 34/32/37 31/24/35 35/33/38

vn -1.16046e-15 3.77736e-17 1
f 33/26/39 34/32/39 31/24/36

v 0.0398691 0.064 0.00917712
vn -0.92388 1.51734e-16 -0.382683
f 33/26/37 36/33/40 34/32/37

vn -0.707107 8.21178e-17 -0.707107
f 32/24/41 36/33/40 33/26/37

v 0.0308797 0.064 0.0308797
f 36/33/40 32/24/41 37/25/41

vn 0.707107 -8.21178e-17 0.707107
vn 0.92388 -1.51734e-16 0.382683
f 37/25/42 32/24/42 36/33/43

f 32/26/41 29/25/31 37/23/41

f 29/25/31 32/26/41 28/24/31

f 28/24/32 32/26/42 29/25/32

f 37/23/42 29/25/32 32/26/42

vt -8.43769e-15 -1.71931
f 29/34/23 14/12/23 37/27/23

vt -8.43769e-15 -1.88976
f 29/34/23 11/35/23 14/12/23

f 26/31/23 11/35/23 29/34/23

f 26/31/23 10/13/23 11/35/23

f 23/22/23 10/13/23 26/31/23

f 10/13/23 23/22/23 8/1/23

f 8/1/24 23/22/24 10/13/24

f 26/31/24 10/13/24 23/22/24

f 11/35/24 10/13/24 26/31/24

f 10/8/8 11/10/10 9/9/8

f 29/34/24 11/35/24 26/31/24

f 14/12/24 11/35/24 29/34/24

f 11/8/10 14/10/12 12/9/10

f 37/27/24 14/12/24 29/34/24

vt 1.56965 -0.361304
f 37/27/23 14/12/23 36/36/23

f 36/36/24 14/12/24 37/27/24

vt 1.64137 -0.599667
f 36/36/23 14/12/23 15/37/23

f 15/37/24 14/12/24 36/36/24

v 0.0426807 0.064 0.00761577
vt 1.68034 -0.299834
f 36/36/23 15/37/23 38/38/23

f 38/38/24 15/37/24 36/36/24

v 0.068 0.0630043 1.12799e-16
vt 0.345032 -2.55029
vn 0.0408925 0.999149 0.00531453
vt -0.0807714 -1.59962
vt -0.383127 -1.59962
f 39/39/44 38/40/44 15/41/44

v 0.0610078 0.0632904 1.12799e-16
vt 0.309554 -2.27707
f 38/40/44 39/39/44 40/42/44

vn -0.0408925 -0.999149 -0.00531453
f 15/41/45 38/40/45 39/39/45

f 40/42/45 39/39/45 38/40/45

v 0.0426807 0.064 -0.00761577
vn -0.0408925 -0.999149 0.00531453
f 41/40/46 39/39/46 40/42/46

f 39/39/46 41/40/46 17/41/46

vn 0.0408925 0.999149 -0.00531453
f 17/41/47 41/40/47 39/39/47

vt 1.64137 0.599667
vt 1.56965 0.361304
vt 1.68034 0.299834
f 17/43/23 35/44/23 41/45/23

f 18/5/23 35/44/23 17/43/23

f 18/5/23 20/19/23 35/44/23

f 18/5/24 20/19/24 19/18/24

f 35/44/24 20/19/24 18/5/24

f 35/33/38 31/24/35 20/25/35

vn -0.92388 1.80645e-16 0.382683
f 35/33/48 31/24/36 34/32/39

f 20/25/36 31/24/36 35/33/48

vt 1.19683 2.73882
vn -0.452915 0.360178 0.815561
vt 1.50308 2.06358
vt 1.32345 2.73882
f 35/46/49 34/47/49 41/48/49

vn 0.452915 -0.360178 -0.815561
f 41/48/50 34/47/50 35/46/50

vt 1.4503 2.67171
vn -0.341069 0.386728 0.856804
vt 1.5974 1.98864
vt 2.23157 2.64142
f 41/49/51 34/50/51 40/51/51

vn 0.341069 -0.386728 -0.856804
f 40/51/52 34/50/52 41/49/52

vt -1.4503 2.67171
vn -0.341069 0.386728 -0.856804
vt -2.23157 2.64142
vt -1.5974 1.98864
f 38/52/53 40/53/53 34/54/53

vn 0.341069 -0.386728 0.856804
f 34/54/54 40/53/54 38/52/54

vt -1.32345 2.73882
vn -0.452915 0.360178 -0.815561
vt -1.50308 2.06358
vt -1.19683 2.73882
f 38/55/55 34/56/55 36/57/55

vn 0.452915 -0.360178 0.815561
f 36/57/56 34/56/56 38/55/56

f 34/32/39 36/33/43 33/26/39

f 33/26/39 36/33/43 32/24/42

f 40/42/47 39/39/47 41/40/47

f 41/45/24 35/44/24 17/43/24

f 17/43/24 35/44/24 18/5/24

f 29/23/32 26/25/30 28/26/32

f 23/25/27 25/24/27 26/23/30

f 21/23/34 20/25/36 30/26/34

f 22/25/28 24/24/28 23/23/27

f 2/2/2 13/13/2 1/1/2

f 2/2/1 9/12/1 6/6/1

f 6/6/2 9/12/2 2/2/2

f 6/9/5 8/8/5 9/7/8

g Mesh2 Model

l 1 3

l 13 1

l 12 13

l 9 12

l 6 9

l 5 6

l 4 5

l 3 4

g Mesh3 Model

l 7 8

l 19 7

l 18 19

l 17 18

l 17 39

l 41 17

l 34 41

l 34 38

l 34 35

l 36 34

l 37 36

l 29 37

l 26 29

l 23 26

l 22 23

l 21 22

l 20 21

l 35 20

l 41 35

l 41 40

l 39 40

v 0.0519241 0.0486054 1.12799e-16
l 42 39

l 16 42

l 39 15

l 14 15

l 11 14

l 10 11

l 8 10

l 38 15

l 40 38

l 34 40

l 38 36

g Mesh4 Model

l 30 24

l 31 30

l 33 31

l 32 33

l 28 32

l 27 28

l 25 27

l 24 25

