# Alias OBJ Model File
# Exported from SketchUp, (c) 2000-2012 Trimble Navigation Limited
# File units = meters

mtllib Beaker.mtl

g Mesh1 Model

usemtl Color_M01
v 0.048 -0.06 6.76792e-17
vt -1.88976 -2.66454e-15
vn 0 -1 -0
v 1.12799e-17 -0.06 2.25597e-17
vt -4.44089e-16 -8.88178e-16
v 0.0339411 -0.06 -0.0339411
vt -1.33626 1.33626
f 1/1/1 2/2/1 3/3/1

vn -0 1 0
f 3/3/2 2/2/2 1/1/2

v -2.14317e-16 -0.06 -0.048
vt 8.43769e-15 1.88976
f 3/3/1 2/2/1 4/4/1

f 4/4/2 2/2/2 3/3/2

v -0.0339411 -0.06 -0.0339411
vt 1.33626 1.33626
f 2/2/1 5/5/1 4/4/1

v -0.048 -0.06 6.76792e-17
vt 1.88976 -2.66454e-15
f 2/2/1 6/6/1 5/5/1

f 5/5/2 6/6/2 2/2/2

vt 0.723181 -2.3622
vn -0.92388 0 -0.382683
v -0.0339411 0.064 -0.0339411
vt -0.723181 2.51969
vt -0.723181 -2.3622
f 6/7/3 7/8/3 5/9/3

v -0.048 0.064 6.76792e-17
vt 0.723181 2.51969
f 7/8/3 6/7/3 8/10/3

vn 0.92388 -0 0.382683
f 8/10/4 6/7/4 7/8/4

v -0.0339411 -0.06 0.0339411
vn -0.92388 0 0.382683
f 9/7/5 8/8/5 6/9/5

v -0.0339411 0.064 0.0339411
f 8/8/5 9/7/5 10/10/5

vn 0.92388 -0 -0.382683
f 10/10/6 9/7/6 8/8/6

vn -0.382683 0 0.92388
v -2.14317e-16 0.064 0.048
f 9/9/7 11/10/7 10/8/7

v -2.14317e-16 -0.06 0.048
f 11/10/7 9/9/7 12/7/7

vn 0.382683 -0 -0.92388
f 12/7/8 9/9/8 11/10/8

vt 8.43769e-15 -1.88976
vt 1.33626 -1.33626
f 2/2/1 12/11/1 9/12/1

f 9/12/2 12/11/2 2/2/2

v 0.0339411 -0.06 0.0339411
vt -1.33626 -1.33626
f 13/13/1 12/11/1 2/2/1

v 0.0339411 0.064 0.0339411
vn 0.382683 0 0.92388
f 14/10/9 12/9/9 13/7/9

f 12/9/9 14/10/9 11/8/9

vn -0.382683 -0 -0.92388
f 13/7/10 12/9/10 14/10/10

f 2/2/2 12/11/2 13/13/2

f 1/1/1 13/13/1 2/2/1

vn 0.92388 7.63601e-17 0.382683
f 1/7/11 14/8/11 13/9/11

v 0.0416909 0.064 0.0152315
vt 0.0741063 2.51969
f 14/8/11 1/7/11 15/14/11

vn -0.92388 -7.63601e-17 -0.382683
f 13/9/12 14/8/12 1/7/12

f 15/14/12 1/7/12 14/8/12

v 0.048 0.0402902 6.76792e-17
vt 0.723181 1.58623
f 15/14/11 1/7/11 16/15/11

f 16/15/12 1/7/12 15/14/12

vn 0.92388 -3.59342e-17 -0.382683
vt -0.723181 1.58623
f 3/7/13 16/16/13 1/9/13

v 0.0416909 0.064 -0.0152315
vt -0.0741063 2.51969
f 16/16/13 3/7/13 17/17/13

vn -0.92388 3.59342e-17 0.382683
f 1/9/14 16/16/14 3/7/14

f 17/17/14 3/7/14 16/16/14

v 0.0339411 0.064 -0.0339411
f 17/17/13 3/7/13 18/10/13

f 18/10/14 3/7/14 17/17/14

vn 0.382683 0 -0.92388
v -2.14317e-16 0.064 -0.048
f 3/9/15 19/10/15 18/8/15

f 19/10/15 3/9/15 4/7/15

vn -0.382683 -0 0.92388
f 4/7/16 3/9/16 19/10/16

f 18/8/16 19/10/16 3/9/16

vt -8.43769e-15 1.88976
vn 0 1 -0
v 0.0308797 0.064 -0.0308797
vt 1.21573 1.21573
f 19/18/17 20/19/17 18/5/17

v -2.14317e-16 0.064 -0.0436704
vt -8.43769e-15 1.71931
f 19/18/17 21/20/17 20/19/17

v -0.0308797 0.064 -0.0308797
vt -1.21573 1.21573
f 19/18/17 22/21/17 21/20/17

f 7/3/17 22/21/17 19/18/17

v -0.0436704 0.064 6.76792e-17
vt -1.71931 -2.66454e-15
f 7/3/17 23/22/17 22/21/17

f 23/22/17 7/3/17 8/1/17

vn -0 -1 0
f 8/1/18 7/3/18 23/22/18

f 22/21/18 23/22/18 7/3/18

vt -0.657951 2.51969
vn 1 0 -1.32187e-15
v -0.0308797 -0.05 -0.0308797
vt 0.657951 -1.9685
vn 0.707107 0 0.707107
vt 0.657951 2.51969
f 23/23/19 24/24/20 22/25/20

v -0.0436704 -0.05 6.76792e-17
vt -0.657951 -1.9685
f 24/24/20 23/23/19 25/26/19

vn -1 -0 1.32187e-15
vn -0.707107 -0 -0.707107
f 25/26/21 23/23/21 24/24/22

v -0.0308797 0.064 0.0308797
vn 0.707107 0 -0.707107
f 26/23/23 25/24/19 23/25/19

v -0.0308797 -0.05 0.0308797
f 25/24/19 26/23/23 27/26/23

vn -0.707107 -0 0.707107
f 27/26/24 26/23/24 25/24/21

v -2.14317e-16 -0.05 0.0436704
vn 1.38195e-15 0 -1
f 26/25/23 28/26/25 27/24/23

v -2.14317e-16 0.064 0.0436704
f 28/26/25 26/25/23 29/23/25

vn -1.38195e-15 -0 1
f 27/24/24 28/26/26 26/25/24

vt 1.21573 -1.21573
v -2.14317e-16 -0.05 -0.0436704
vt 8.43769e-15 1.71931
vt 8.43769e-15 -1.71931
f 27/27/1 30/28/1 28/29/1

f 27/27/1 24/19/1 30/28/1

vt 1.71931 -2.66454e-15
f 24/19/1 27/27/1 25/30/1

f 25/30/2 27/27/2 24/19/2

f 30/28/2 24/19/2 27/27/2

vn 1.38195e-15 0 1
f 21/25/27 24/26/20 30/24/27

f 24/26/20 21/25/27 22/23/20

vn -1.38195e-15 -0 -1
f 30/24/28 24/26/22 21/25/28

f 22/23/22 21/25/28 24/26/22

f 21/20/18 22/21/18 19/18/18

f 19/18/18 22/21/18 7/3/18

vn -0.382683 0 -0.92388
f 4/9/29 7/10/29 19/8/29

f 7/10/29 4/9/29 5/7/29

vn 0.382683 -0 0.92388
f 5/7/30 4/9/30 7/10/30

f 4/4/2 5/5/2 2/2/2

f 19/8/30 7/10/30 4/9/30

f 5/9/4 7/8/4 6/7/4

f 20/19/18 21/20/18 19/18/18

vn 0.707107 -2.36024e-16 0.707107
f 30/26/27 20/25/31 21/23/27

v 0.0308797 -0.05 -0.0308797
f 20/25/31 30/26/27 31/24/31

vn -0.707107 2.36024e-16 -0.707107
f 31/24/32 30/26/28 20/25/32

f 28/29/1 30/28/1 31/21/1

f 28/29/2 30/28/2 27/27/2

f 31/21/2 30/28/2 28/29/2

v 0.0308797 -0.05 0.0308797
vt -1.21573 -1.21573
f 28/29/1 31/21/1 32/31/1

f 32/31/2 31/21/2 28/29/2

v 0.0436704 -0.05 6.76792e-17
f 32/31/1 31/21/1 33/22/1

f 33/22/2 31/21/2 32/31/2

v 0.0436704 0.048 6.76792e-17
vt -0.657951 1.88976
vn 1.16046e-15 -3.77736e-17 -1
f 31/24/31 34/32/33 33/26/33

v 0.0398691 0.064 -0.00917712
vt -0.266878 2.51969
vn 0.92388 -1.80645e-16 -0.382683
f 34/32/33 31/24/31 35/33/34

vn -1.16046e-15 3.77736e-17 1
f 33/26/35 34/32/35 31/24/32

v 0.0398691 0.064 0.00917712
vn -0.92388 1.51734e-16 -0.382683
f 33/26/33 36/33/36 34/32/33

vn -0.707107 8.21178e-17 -0.707107
f 32/24/37 36/33/36 33/26/33

v 0.0308797 0.064 0.0308797
f 36/33/36 32/24/37 37/25/37

vn 0.707107 -8.21178e-17 0.707107
vn 0.92388 -1.51734e-16 0.382683
f 37/25/38 32/24/38 36/33/39

f 32/26/37 29/25/25 37/23/37

f 29/25/25 32/26/37 28/24/25

f 28/24/26 32/26/38 29/25/26

f 37/23/38 29/25/26 32/26/38

vt -8.43769e-15 -1.71931
f 29/34/17 14/12/17 37/27/17

vt -8.43769e-15 -1.88976
f 29/34/17 11/35/17 14/12/17

f 26/31/17 11/35/17 29/34/17

f 26/31/17 10/13/17 11/35/17

f 23/22/17 10/13/17 26/31/17

f 10/13/17 23/22/17 8/1/17

f 8/1/18 23/22/18 10/13/18

f 26/31/18 10/13/18 23/22/18

f 11/35/18 10/13/18 26/31/18

f 10/8/8 11/10/8 9/9/8

f 29/34/18 11/35/18 26/31/18

f 14/12/18 11/35/18 29/34/18

f 11/8/10 14/10/10 12/9/10

f 37/27/18 14/12/18 29/34/18

vt 1.56965 -0.361304
f 37/27/17 14/12/17 36/36/17

f 36/36/18 14/12/18 37/27/18

vt 1.64137 -0.599667
f 36/36/17 14/12/17 15/37/17

f 15/37/18 14/12/18 36/36/18

v 0.0426807 0.064 0.00761577
vt 1.68034 -0.299834
f 36/36/17 15/37/17 38/38/17

f 38/38/18 15/37/18 36/36/18

v 0.068 0.0630043 1.12799e-16
vt 0.345032 -2.55029
vn 0.0408925 0.999149 0.00531453
vt -0.0807714 -1.59962
vt -0.383127 -1.59962
f 39/39/40 38/40/40 15/41/40

v 0.0610078 0.0632904 1.12799e-16
vt 0.309554 -2.27707
f 38/40/40 39/39/40 40/42/40

vn -0.0408925 -0.999149 -0.00531453
f 15/41/41 38/40/41 39/39/41

f 40/42/41 39/39/41 38/40/41

v 0.0426807 0.064 -0.00761577
vn -0.0408925 -0.999149 0.00531453
f 41/40/42 39/39/42 40/42/42

f 39/39/42 41/40/42 17/41/42

vn 0.0408925 0.999149 -0.00531453
f 17/41/43 41/40/43 39/39/43

vt 1.64137 0.599667
vt 1.56965 0.361304
vt 1.68034 0.299834
f 17/43/17 35/44/17 41/45/17

f 18/5/17 35/44/17 17/43/17

f 18/5/17 20/19/17 35/44/17

f 18/5/18 20/19/18 19/18/18

f 35/44/18 20/19/18 18/5/18

f 35/33/34 31/24/31 20/25/31

vn -0.92388 1.80645e-16 0.382683
f 35/33/44 31/24/32 34/32/35

f 20/25/32 31/24/32 35/33/44

vt 1.19683 2.73882
vn -0.452915 0.360178 0.815561
vt 1.50308 2.06358
vt 1.32345 2.73882
f 35/46/45 34/47/45 41/48/45

vn 0.452915 -0.360178 -0.815561
f 41/48/46 34/47/46 35/46/46

vt 1.4503 2.67171
vn -0.341069 0.386728 0.856804
vt 1.5974 1.98864
vt 2.23157 2.64142
f 41/49/47 34/50/47 40/51/47

vn 0.341069 -0.386728 -0.856804
f 40/51/48 34/50/48 41/49/48

vt -1.4503 2.67171
vn -0.341069 0.386728 -0.856804
vt -2.23157 2.64142
vt -1.5974 1.98864
f 38/52/49 40/53/49 34/54/49

vn 0.341069 -0.386728 0.856804
f 34/54/50 40/53/50 38/52/50

vt -1.32345 2.73882
vn -0.452915 0.360178 -0.815561
vt -1.50308 2.06358
vt -1.19683 2.73882
f 38/55/51 34/56/51 36/57/51

vn 0.452915 -0.360178 0.815561
f 36/57/52 34/56/52 38/55/52

f 34/32/35 36/33/39 33/26/35

f 33/26/35 36/33/39 32/24/38

f 40/42/43 39/39/43 41/40/43

f 41/45/18 35/44/18 17/43/18

f 17/43/18 35/44/18 18/5/18

f 29/23/26 26/25/24 28/26/26

f 23/25/21 25/24/21 26/23/24

f 21/23/28 20/25/32 30/26/28

f 22/25/22 24/24/22 23/23/21

f 2/2/2 13/13/2 1/1/2

f 2/2/1 9/12/1 6/6/1

f 6/6/2 9/12/2 2/2/2

f 6/9/6 8/8/6 9/7/6

g Mesh2 Model

l 1 3

l 13 1

l 12 13

l 9 12

l 6 9

l 5 6

l 4 5

l 3 4

l 3 18

l 2 3

l 13 2

l 13 14

l 14 15

l 11 14

l 10 11

l 8 10

l 7 8

l 19 7

l 18 19

l 17 18

l 16 17

l 1 16

l 1 2

l 9 2

l 9 10

l 2 5

l 4 2

l 4 19

l 2 12

l 2 6

l 6 8

l 12 11

l 5 7

v 0.0519241 0.0486054 1.12799e-16
l 16 42

l 16 15

l 39 15

l 42 39

l 17 39

l 41 17

l 34 41

l 34 38

l 34 35

l 36 34

l 37 36

l 29 37

l 26 29

l 23 26

l 22 23

l 21 22

l 20 21

l 35 20

l 41 35

l 41 40

l 39 40

l 40 38

l 34 40

l 38 15

l 38 36

g Mesh3 Model

l 30 24

l 31 30

l 33 31

l 32 33

l 28 32

l 27 28

l 25 27

l 24 25

