# Alias OBJ Model File
# Exported from SketchUp, (c) 2000-2012 Trimble Navigation Limited
# File units = meters

mtllib FumeHood.mtl

g Mesh1 Model

usemtl FrontColor
v 1.09 -1.5 -0.47
vt -42.9134 18.5039
vn 0 -1 -0
v -1.09 -1.5 0.47
vt 42.9134 -18.5039
v -1.09 -1.5 -0.47
vt 42.9134 18.5039
f 1/1/1 2/2/1 3/3/1

v 1.09 -1.5 0.47
vt -42.9134 -18.5039
f 2/2/1 1/1/1 4/4/1

usemtl BackColor
vn -0 1 0
f 3/3/2 2/2/2 1/1/2

usemtl FrontColor
vt 18.5039 -59.0551
vn -1 0 -0
v -1.09 1.5 -0.47
vt -18.5039 59.0551
vt -18.5039 -59.0551
f 2/5/3 5/6/3 3/7/3

v -1.09 1.5 0.47
vt 18.5039 59.0551
f 5/6/3 2/5/3 6/8/3

usemtl BackColor
vn 1 -0 0
f 6/8/4 2/5/4 5/6/4

usemtl FrontColor
vt -42.9134 -59.0551
vn 0 0 1
v -0.99 -1.4 0.47
vt -38.9764 -55.1181
vt -42.9134 59.0551
f 2/9/5 7/10/5 6/11/5

v 0.99 -1.4 0.47
vt 38.9764 -55.1181
f 7/10/5 2/9/5 8/12/5

usemtl BackColor
vn -0 -0 -1
f 6/11/6 7/10/6 2/9/6

usemtl FrontColor
v -0.99 -0.62 0.47
vt -38.9764 -24.4094
f 6/11/5 7/10/5 9/13/5

usemtl BackColor
f 9/13/6 7/10/6 6/11/6

usemtl Color_I04
vt -18.5039 -55.1181
vn 1 0 -0
v -0.99 -0.965 0.4
vt -15.748 -37.9921
vt -18.5039 -24.4094
f 7/14/7 10/15/7 9/16/7

v -0.99 -1.4 -0.13
vt 5.11811 -55.1181
f 10/15/7 7/14/7 11/17/7

usemtl BackColor
vn -1 -0 0
f 9/16/8 10/15/8 7/14/8

usemtl Color_I04
v -0.99 -0.945 0.4
vt -15.748 -37.2047
f 12/18/7 9/16/7 10/15/7

v -0.99 -0.62 -0.13
vt 5.11811 -24.4094
f 9/16/7 12/18/7 13/19/7

usemtl BackColor
f 13/19/8 12/18/8 9/16/8

usemtl Color_I04
v -0.99 -0.945 -0.13
vt 5.11811 -37.2047
f 13/19/7 12/18/7 14/20/7

usemtl BackColor
f 14/20/8 12/18/8 13/19/8

usemtl Color_M07
v 0.99 -0.945 0.4
vt 38.9764 -15.748
vn 0 1 1.12799e-15
vt -38.9764 5.11811
vt -38.9764 -15.748
f 15/21/9 14/22/9 12/23/9

v 0.99 -0.945 -0.13
vt 38.9764 5.11811
f 14/22/9 15/21/9 16/24/9

usemtl BackColor
vn -0 -1 -1.12799e-15
f 12/23/10 14/22/10 15/21/10

f 16/24/10 15/21/10 14/22/10

usemtl Color_I04
vt 15.748 -37.2047
v 0.99 -0.62 -0.13
vt -5.11811 -24.4094
vt -5.11811 -37.2047
f 15/25/3 17/26/3 16/27/3

v 0.99 -0.62 0.47
vt 18.5039 -24.4094
f 15/25/3 18/28/3 17/26/3

vt 18.5039 -55.1181
f 18/28/3 15/25/3 8/29/3

usemtl BackColor
f 8/29/4 15/25/4 18/28/4

usemtl Color_I04
v 0.99 -0.965 0.4
vt 15.748 -37.9921
f 19/30/3 8/29/3 15/25/3

v 0.99 -1.4 -0.13
vt -5.11811 -55.1181
f 8/29/3 19/30/3 20/31/3

usemtl BackColor
f 20/31/4 19/30/4 8/29/4

usemtl Color_I04
v 0.99 -0.965 -0.13
vt -5.11811 -37.9921
f 20/31/3 19/30/3 21/32/3

usemtl BackColor
f 21/32/4 19/30/4 20/31/4

usemtl Color_M07
vn -1.28521e-32 -1 -1.12799e-15
f 10/21/11 21/22/11 19/23/11

v -0.99 -0.965 -0.13
f 21/22/11 10/21/11 22/24/11

usemtl BackColor
vn 1.28521e-32 1 1.12799e-15
f 22/24/12 10/21/12 21/22/12

usemtl Color_I04
vt 5.11811 -37.9921
f 10/15/7 11/17/7 22/33/7

usemtl BackColor
f 11/17/8 7/14/8 10/15/8

usemtl Color_I04
vt 38.9764 -18.5039
vn 0 1 -0
vt -38.9764 -18.5039
f 8/34/13 11/22/13 7/35/13

f 11/22/13 8/34/13 20/24/13

usemtl BackColor
vn -0 -1 0
f 7/35/14 11/22/14 8/34/14

f 20/24/14 8/34/14 11/22/14

usemtl Color_I04
vt 38.9764 -37.9921
vn 5.6969e-18 2.92984e-17 1
f 21/36/15 11/10/15 20/12/15

vt -38.9764 -37.9921
f 11/10/15 21/36/15 22/37/15

usemtl BackColor
vn -5.6969e-18 -2.92984e-17 -1
f 20/12/16 11/10/16 21/36/16

f 22/37/16 21/36/16 11/10/16

f 22/33/8 11/17/8 10/15/8

f 8/12/6 2/9/6 7/10/6

usemtl FrontColor
vt 42.9134 -59.0551
f 4/38/5 8/12/5 2/9/5

v 1.09 1.5 0.47
vt 42.9134 59.0551
f 8/12/5 4/38/5 23/39/5

usemtl BackColor
f 2/9/6 8/12/6 4/38/6

f 23/39/6 4/38/6 8/12/6

usemtl FrontColor
f 1/5/7 23/6/7 4/7/7

v 1.09 1.5 -0.47
f 23/6/7 1/5/7 24/8/7

usemtl BackColor
f 4/7/8 23/6/8 1/5/8

f 24/8/8 1/5/8 23/6/8

usemtl FrontColor
vn 0 0 -1
f 1/9/17 5/39/17 24/11/17

f 5/39/17 1/9/17 3/38/17

usemtl BackColor
vn -0 -0 1
f 3/38/18 1/9/18 5/39/18

f 24/11/18 5/39/18 1/9/18

usemtl FrontColor
f 5/1/13 23/2/13 24/3/13

f 23/2/13 5/1/13 6/4/13

usemtl BackColor
f 6/4/14 5/1/14 23/2/14

f 24/3/14 23/2/14 5/1/14

usemtl FrontColor
v -0.99 0.5 0.47
vt -38.9764 19.685
f 6/11/5 25/40/5 23/39/5

v -0.99 -0.52 0.47
vt -38.9764 -20.4724
f 6/11/5 26/41/5 25/40/5

f 6/11/5 9/13/5 26/41/5

usemtl BackColor
f 26/41/6 9/13/6 6/11/6

usemtl FrontColor
v 0.99 -0.52 0.47
vt 38.9764 -20.4724
f 26/41/5 9/13/5 27/42/5

usemtl BackColor
f 27/42/6 9/13/6 26/41/6

usemtl FrontColor
vt 38.9764 -24.4094
f 18/43/5 27/42/5 9/13/5

f 18/43/5 23/39/5 27/42/5

f 8/12/5 23/39/5 18/43/5

usemtl BackColor
f 18/43/6 23/39/6 8/12/6

f 27/42/6 23/39/6 18/43/6

usemtl FrontColor
v 0.99 0.5 0.47
vt 38.9764 19.685
f 27/42/5 23/39/5 28/44/5

usemtl BackColor
f 28/44/6 23/39/6 27/42/6

usemtl FrontColor
f 28/44/5 23/39/5 25/40/5

usemtl BackColor
f 25/40/6 23/39/6 28/44/6

f 23/39/6 25/40/6 6/11/6

f 25/40/6 26/41/6 6/11/6

usemtl FrontColor
v -0.99 -0.52 -0.45
vt 17.7165 -20.4724
vt -18.5039 19.685
vt -18.5039 -20.4724
f 29/45/7 25/46/7 26/47/7

v -0.99 0.5 0.46
vt -18.1102 19.685
f 25/46/7 29/45/7 30/48/7

usemtl BackColor
f 26/47/8 25/46/8 29/45/8

f 30/48/8 29/45/8 25/46/8

usemtl FrontColor
v -0.99 0.5 0.45
vt -17.7165 19.685
f 30/48/7 29/45/7 31/49/7

usemtl BackColor
f 31/49/8 29/45/8 30/48/8

usemtl FrontColor
v -0.99 0.5 0.44
vt -17.3228 19.685
f 31/49/7 29/45/7 32/50/7

usemtl BackColor
f 32/50/8 29/45/8 31/49/8

usemtl FrontColor
v -0.99 0.53 0.44
vt -17.3228 20.8661
f 32/50/7 29/45/7 33/51/7

usemtl BackColor
f 33/51/8 29/45/8 32/50/8

usemtl FrontColor
v -0.99 0.53 -0.45
vt 17.7165 20.8661
f 33/51/7 29/45/7 34/52/7

usemtl BackColor
f 34/52/8 29/45/8 33/51/8

usemtl FrontColor
v 0.99 0.53 -0.45
vt 38.9764 20.8661
vt -38.9764 20.8661
f 29/41/5 35/53/5 34/54/5

v 0.99 -0.52 -0.45
f 35/53/5 29/41/5 36/42/5

usemtl BackColor
f 36/42/6 29/41/6 35/53/6

usemtl FrontColor
vt -38.9764 17.7165
vt 38.9764 17.7165
f 29/55/13 27/34/13 36/56/13

f 27/34/13 29/55/13 26/35/13

usemtl BackColor
f 26/35/14 29/55/14 27/34/14

f 36/56/14 27/34/14 29/55/14

usemtl FrontColor
vt 18.5039 -20.4724
v 0.99 0.5 0.46
vt 18.1102 19.685
vt -17.7165 -20.4724
f 27/57/3 37/58/3 36/59/3

vt 18.5039 19.685
f 37/58/3 27/57/3 28/60/3

usemtl BackColor
f 28/60/4 27/57/4 37/58/4

f 36/59/4 37/58/4 27/57/4

usemtl FrontColor
v 0.99 0.5 0.448448
vt 17.6554 19.685
f 36/59/3 37/58/3 38/61/3

usemtl BackColor
f 38/61/4 37/58/4 36/59/4

usemtl FrontColor
v 0.99 0.56 0.448448
vt 17.6554 22.0472
f 38/61/3 37/58/3 39/62/3

usemtl BackColor
f 39/62/4 37/58/4 38/61/4

usemtl FrontColor
v 0.99 0.56 0.46
vt 18.1102 22.0472
f 39/62/3 37/58/3 40/63/3

usemtl BackColor
f 40/63/4 37/58/4 39/62/4

usemtl FrontColor
v -0.99 0.56 0.46
vt 38.9764 22.0472
vt -38.9764 22.0472
f 37/40/17 41/64/17 40/65/17

f 41/64/17 37/40/17 30/44/17

usemtl BackColor
f 30/44/18 37/40/18 41/64/18

usemtl FrontColor
vt -38.9764 -18.1102
vt 38.9764 -18.1102
f 37/66/1 25/34/1 30/67/1

f 25/34/1 37/66/1 28/35/1

usemtl BackColor
f 30/67/2 25/34/2 37/66/2

f 28/35/2 37/66/2 25/34/2

f 40/65/18 41/64/18 37/40/18

usemtl Color_M09
vt -38.9764 -17.6554
f 41/67/1 39/68/1 40/66/1

v -0.99 0.56 0.45
vt 38.9764 -17.7165
f 39/68/1 41/67/1 42/69/1

usemtl BackColor
f 42/69/2 41/67/2 39/68/2

usemtl FrontColor
vt -17.7165 22.0472
vt -18.1102 22.0472
f 42/70/7 41/71/7 31/49/7

usemtl BackColor
f 31/49/8 41/71/8 42/70/8

usemtl FrontColor
f 30/48/7 31/49/7 41/71/7

usemtl BackColor
f 41/71/8 31/49/8 30/48/8

usemtl FrontColor
vt -38.9903 19.685
vn 0.000783891 0 1
vt 38.9625 22.0472
vt -38.9903 22.0472
f 31/72/19 39/73/19 42/74/19

vt 38.9625 19.685
f 39/73/19 31/72/19 38/75/19

usemtl BackColor
vn -0.000783891 -0 -1
f 38/75/20 31/72/20 39/73/20

usemtl FrontColor
v 0.99 0.5 0.438448
vt -38.9764 -17.2617
f 31/69/1 43/76/1 38/68/1

vt 38.9764 -17.3228
f 43/76/1 31/69/1 32/77/1

usemtl BackColor
f 32/77/2 31/69/2 43/76/2

f 38/68/2 43/76/2 31/69/2

usemtl FrontColor
vt 17.2617 19.685
f 36/59/3 38/61/3 43/78/3

usemtl BackColor
f 43/78/4 38/61/4 36/59/4

usemtl FrontColor
vt -17.7165 20.8661
f 36/59/3 43/78/3 35/79/3

usemtl BackColor
f 35/79/4 43/78/4 36/59/4

usemtl FrontColor
v 0.99 0.53 0.438448
vt 17.2617 20.8661
f 35/79/3 43/78/3 44/80/3

usemtl BackColor
f 44/80/4 43/78/4 35/79/4

usemtl FrontColor
vt -38.9628 19.685
vn -0.000783891 0 -1
vt 38.9899 20.8661
vt -38.9628 20.8661
f 43/81/21 33/82/21 44/83/21

vt 38.9899 19.685
f 33/82/21 43/81/21 32/84/21

usemtl BackColor
vn 0.000783891 -0 1
f 32/84/22 43/81/22 33/82/22

f 44/83/22 33/82/22 43/81/22

usemtl FrontColor
v -0.74 0.53 0.07
vt 29.1339 -2.75591
f 33/77/1 45/85/1 44/76/1

v -0.74 0.53 -0.15
vt 29.1339 5.90551
f 45/85/1 33/77/1 46/86/1

usemtl BackColor
f 44/76/2 45/85/2 33/77/2

usemtl FrontColor
v 0.74 0.53 0.07
vt -29.1339 -2.75591
f 44/76/1 45/85/1 47/87/1

usemtl BackColor
f 47/87/2 45/85/2 44/76/2

usemtl Color_M09
v -0.74 0.96 0.07
vt 29.1339 37.7953
vt -29.1339 20.8661
vt 29.1339 20.8661
f 48/88/17 47/89/17 45/90/17

v 0.74 0.96 0.07
vt -29.1339 37.7953
f 47/89/17 48/88/17 49/91/17

usemtl BackColor
f 45/90/18 47/89/18 48/88/18

f 49/91/18 48/88/18 47/89/18

usemtl Color_M09
v 0.74 0.96 -0.15
vt -29.1339 5.90551
f 48/85/1 50/92/1 49/87/1

v -0.74 0.96 -0.15
f 50/92/1 48/85/1 51/86/1

usemtl BackColor
f 51/86/2 48/85/2 50/92/2

usemtl Color_M09
vt -2.75591 37.7953
vt 5.90551 20.8661
vt 5.90551 37.7953
f 48/93/7 46/94/7 51/95/7

vt -2.75591 20.8661
f 46/94/7 48/93/7 45/96/7

usemtl BackColor
f 45/96/8 48/93/8 46/94/8

f 51/95/8 46/94/8 48/93/8

usemtl Color_M09
f 46/89/5 50/88/5 51/91/5

v 0.74 0.53 -0.15
f 50/88/5 46/89/5 52/90/5

usemtl BackColor
f 52/90/6 46/89/6 50/88/6

usemtl FrontColor
f 46/86/1 35/55/1 52/92/1

f 46/86/1 34/56/1 35/55/1

f 34/56/1 46/86/1 33/77/1

usemtl BackColor
f 33/77/2 46/86/2 34/56/2

f 46/86/2 33/77/2 45/85/2

f 35/55/2 34/56/2 46/86/2

f 34/54/6 35/53/6 29/41/6

f 52/92/2 35/55/2 46/86/2

usemtl FrontColor
f 52/92/1 35/55/1 47/87/1

usemtl BackColor
f 47/87/2 35/55/2 52/92/2

usemtl FrontColor
f 44/76/1 47/87/1 35/55/1

usemtl BackColor
f 35/55/2 47/87/2 44/76/2

usemtl Color_M09
vt 2.75591 20.8661
vt -5.90551 37.7953
vt -5.90551 20.8661
f 47/97/3 50/98/3 52/99/3

vt 2.75591 37.7953
f 50/98/3 47/97/3 49/100/3

usemtl BackColor
f 49/100/4 47/97/4 50/98/4

f 52/99/4 50/98/4 47/97/4

f 49/87/2 50/92/2 48/85/2

f 51/91/6 50/88/6 46/89/6

f 42/74/20 39/73/20 31/72/20

f 40/66/2 39/68/2 41/67/2

f 9/13/6 27/42/6 18/43/6

usemtl FrontColor
f 9/34/1 17/22/1 18/35/1

f 17/22/1 9/34/1 13/24/1

usemtl BackColor
f 13/24/2 9/34/2 17/22/2

f 18/35/2 17/22/2 9/34/2

f 17/26/4 18/28/4 15/25/4

f 16/27/4 17/26/4 15/25/4

usemtl Color_I04
vt -38.9764 -37.2047
vt 38.9764 -37.2047
f 17/43/5 14/101/5 16/102/5

f 14/101/5 17/43/5 13/13/5

usemtl BackColor
f 16/102/6 14/101/6 17/43/6

f 13/13/6 17/43/6 14/101/6

f 3/7/4 5/6/4 2/5/4

f 4/4/2 1/1/2 2/2/2

f 19/23/12 21/22/12 10/21/12

usemtl Color_M07
vn 5.6969e-18 -1.12799e-15 1
f 15/102/23 10/37/23 19/36/23

f 10/37/23 15/102/23 12/101/23

usemtl BackColor
vn -5.6969e-18 1.12799e-15 -1
f 19/36/24 10/37/24 15/102/24

f 12/101/24 15/102/24 10/37/24

f 10/15/8 9/16/8 12/18/8

f 15/25/4 8/29/4 19/30/4

g Mesh2 Model

l 2 3

l 4 2

l 1 4

l 3 1

l 3 5

l 6 5

l 23 6

l 24 23

l 5 24

l 1 24

l 4 23

l 2 6

g Mesh3 Model

l 26 25

l 27 26

l 28 27

l 28 37

l 25 28

l 25 30

l 37 30

l 40 37

l 40 39

l 40 41

l 41 42

l 41 30

l 42 39

l 42 31

l 31 38

l 31 32

l 32 43

l 33 32

l 33 34

l 33 44

l 44 35

l 44 43

l 38 43

l 39 38

l 35 36

l 34 35

l 29 34

l 36 29

l 27 36

l 26 29

g Mesh4 Model

l 8 18

l 7 8

l 9 7

l 18 9

l 18 17

l 17 13

l 16 17

l 16 14

l 16 15

l 19 15

l 10 19

l 12 10

l 15 12

l 14 12

l 13 14

l 9 13

l 22 10

l 22 21

l 22 11

l 11 20

l 7 11

l 20 21

l 8 20

l 21 19

g Mesh5 Model

l 45 46

l 47 45

l 52 47

l 46 52

l 46 51

l 48 51

l 49 48

l 50 49

l 51 50

l 52 50

l 47 49

l 45 48

