# Alias OBJ Model File
# Exported from SketchUp, (c) 2000-2012 Trimble Navigation Limited
# File units = meters

mtllib Sink_Handle_Highlight.mtl

g Mesh1 Model

usemtl FrontColor
v 0.0377971 0.0518 0.0218222
vt 0.85914 2.24697
vn 0.49385 -0.156363 0.855373
v -5.49893e-17 -0.005 0.0332612
vt -0.654748 -0.0171042
v 0.0288051 -0.005 0.0166306
vt 0.654748 -0.0171042
f 1/1/1 2/2/1 3/3/1

v -4.85034e-16 0.0518 0.0436443
vt -0.85914 2.24697
f 2/2/1 1/1/1 4/4/1

usemtl BackColor
vn -0.49385 0.156363 -0.855373
f 3/3/2 2/2/2 1/1/2

usemtl FrontColor
vt 2.16493e-15 -1.3095
vn 0 -1 -0
v 4.51195e-17 -0.005 -0.0332612
vt -1.77636e-15 1.3095
vt -1.13406 -0.654748
f 2/5/3 5/6/3 3/7/3

v -0.0288051 -0.005 -0.0166306
vt 1.13406 0.654748
f 2/5/3 6/8/3 5/6/3

v -0.0288051 -0.005 0.0166306
vt 1.13406 -0.654748
f 6/8/3 2/5/3 7/9/3

usemtl BackColor
vn -0 1 0
f 7/9/4 2/5/4 6/8/4

usemtl FrontColor
vn -0.49385 -0.156363 0.855373
f 4/1/5 7/2/5 2/3/5

v -0.0377971 0.0518 0.0218222
f 7/2/5 4/1/5 8/4/5

usemtl BackColor
vn 0.49385 0.156363 -0.855373
f 2/3/6 7/2/6 4/1/6

f 8/4/6 4/1/6 7/2/6

usemtl FrontColor
v -5.49893e-17 0.066 0.0332612
vt 0.654748 1.58857
vn -0.422427 0.534997 0.731665
vt -0.85914 0.926855
vt 0.85914 0.926855
f 9/10/7 8/11/7 4/12/7

v -0.0288051 0.066 0.0166306
vt -0.654748 1.58857
f 8/11/7 9/10/7 10/13/7

usemtl BackColor
vn 0.422427 -0.534997 -0.731665
f 4/12/8 8/11/8 9/10/8

f 10/13/8 9/10/8 8/11/8

usemtl FrontColor
vt -2.16493e-15 -1.3095
vn 0 1 -0
v -0.0288051 0.066 -0.0166306
vt -1.13406 0.654748
f 9/14/9 11/15/9 10/7/9

v 4.51195e-17 0.066 -0.0332612
vt 1.77636e-15 1.3095
f 11/15/9 9/14/9 12/16/9

usemtl BackColor
vn -0 -1 0
f 10/7/10 11/15/10 9/14/10

usemtl FrontColor
v -0.0377971 0.0518 -0.0218222
vn -0.844854 0.534997 -6.65442e-15
f 13/11/11 10/10/11 11/13/11

f 10/10/11 13/11/11 8/12/11

usemtl BackColor
vn 0.844854 -0.534997 6.65442e-15
f 8/12/12 13/11/12 10/10/12

usemtl FrontColor
vn -0.9877 -0.156363 -7.78541e-15
f 13/4/13 7/3/13 8/1/13

f 7/3/13 13/4/13 6/2/13

usemtl BackColor
vn 0.9877 0.156363 7.78541e-15
f 8/1/14 7/3/14 13/4/14

f 6/2/14 13/4/14 7/3/14

usemtl FrontColor
vn -0.49385 -0.156363 -0.855373
f 13/1/15 5/2/15 6/3/15

v 4.79394e-16 0.0518 -0.0436443
f 5/2/15 13/1/15 14/4/15

usemtl BackColor
vn 0.49385 0.156363 0.855373
f 6/3/16 5/2/16 13/1/16

f 5/6/4 6/8/4 2/5/4

f 3/7/4 5/6/4 2/5/4

usemtl FrontColor
v 0.0288051 -0.005 -0.0166306
f 3/7/3 5/6/3 15/15/3

usemtl BackColor
f 15/15/4 5/6/4 3/7/4

usemtl FrontColor
vn 0.49385 -0.156363 -0.855373
f 14/1/17 15/2/17 5/3/17

v 0.0377971 0.0518 -0.0218222
f 15/2/17 14/1/17 16/4/17

usemtl BackColor
vn -0.49385 0.156363 0.855373
f 5/3/18 15/2/18 14/1/18

f 16/4/18 14/1/18 15/2/18

usemtl FrontColor
vn 0.422427 0.534997 -0.731665
f 12/10/19 16/11/19 14/12/19

v 0.0288051 0.066 -0.0166306
f 16/11/19 12/10/19 17/13/19

usemtl BackColor
vn -0.422427 -0.534997 0.731665
f 14/12/20 16/11/20 12/10/20

f 17/13/20 12/10/20 16/11/20

usemtl FrontColor
v 0.0288051 0.066 0.0166306
f 12/16/9 18/9/9 17/8/9

f 12/16/9 9/14/9 18/9/9

usemtl BackColor
f 12/16/10 9/14/10 11/15/10

f 18/9/10 9/14/10 12/16/10

usemtl FrontColor
vn 0.422427 0.534997 0.731665
f 4/11/21 18/10/21 9/13/21

f 18/10/21 4/11/21 1/12/21

usemtl BackColor
vn -0.422427 -0.534997 -0.731665
f 1/12/22 4/11/22 18/10/22

f 4/4/2 1/1/2 2/2/2

f 9/13/22 18/10/22 4/11/22

usemtl FrontColor
vn 0.844854 0.534997 6.18482e-15
f 16/12/23 18/13/23 1/11/23

f 18/13/23 16/12/23 17/10/23

usemtl BackColor
vn -0.844854 -0.534997 -6.18482e-15
f 1/11/24 18/13/24 16/12/24

f 17/10/24 16/12/24 18/13/24

f 17/8/10 18/9/10 12/16/10

usemtl FrontColor
vn 0.9877 -0.156363 7.23797e-15
f 3/2/25 16/1/25 1/4/25

f 16/1/25 3/2/25 15/3/25

usemtl BackColor
vn -0.9877 0.156363 -7.23797e-15
f 1/4/26 16/1/26 3/2/26

f 15/3/26 3/2/26 16/1/26

usemtl FrontColor
vn -0.422427 0.534997 -0.731665
f 14/11/27 11/10/27 12/13/27

f 11/10/27 14/11/27 13/12/27

usemtl BackColor
vn 0.422427 -0.534997 0.731665
f 13/12/28 14/11/28 11/10/28

f 14/4/16 13/1/16 5/2/16

f 12/13/28 11/10/28 14/11/28

f 11/13/12 10/10/12 13/11/12

g Mesh2 Model

l 7 8

l 7 2

l 6 7

l 5 6

l 15 5

l 3 15

l 2 3

l 2 4

l 4 1

l 8 4

l 10 8

l 11 10

l 12 11

l 14 12

l 16 14

l 16 17

l 1 16

l 3 1

l 1 18

l 9 18

l 4 9

l 10 9

l 18 17

l 17 12

l 15 16

l 14 5

l 14 13

l 13 8

l 6 13

l 13 11

