# Alias OBJ Model File
# Exported from SketchUp, (c) 2000-2012 Trimble Navigation Limited
# File units = meters

mtllib Beaker_Solid.mtl

g Mesh1 Model

usemtl Color_M00
v -0.0180125 -0.05 -0.0241661
vt 0.709154 0.951423
vn 0 -1 -0
v -0.00934413 -0.05 0.000838553
vt 0.367879 -0.0330139
v -0.0180125 -0.05 -0.00416614
vt 0.709154 0.164021
f 1/1/1 2/2/1 3/3/1

v -0.000691994 -0.05 -0.0341661
vt 0.0272439 1.34512
f 2/2/1 1/1/1 4/4/1

vn -0 1 0
f 3/3/2 2/2/2 1/1/2

usemtl FrontColor
v -0.000691994 -0.0363063 -0.0141661
vt 0.302455 -0.518284
vn 0.310095 -0.784451 -0.5371
vt 0.302086 -1.38757
vt 0.696156 -1.38757
f 5/5/3 2/6/3 3/7/3

v -0.000691994 -0.05 0.00583386
vt -0.091246 -1.38757
f 2/6/3 5/5/3 6/8/3

usemtl Color_M00
vn -0.310095 0.784451 0.5371
f 3/7/4 2/6/4 5/5/4

f 6/8/4 5/5/4 2/6/4

usemtl FrontColor
vt -0.255267 -0.496913
vn -0.310095 -0.784451 -0.5371
v 0.012561 -0.05 -0.00181774
vt -0.464055 -1.3662
vt 0.138434 -1.3662
f 5/9/5 7/10/5 6/11/5

v 0.0166285 -0.05 -0.00416614
vt -0.648968 -1.3662
f 7/10/5 5/9/5 8/12/5

usemtl Color_M00
vn 0.310095 0.784451 0.5371
f 6/11/6 7/10/6 5/9/6

v 0.00996291 -0.05 0.0327653
vt -0.392241 -1.28997
vt 0.0272439 -0.22968
vt -0.494527 0.0715646
f 9/13/1 6/14/1 7/15/1

f 9/13/1 2/2/1 6/14/1

v -0.00988665 -0.05 0.0303169
vt 0.389238 -1.19358
f 10/16/1 2/2/1 9/13/1

v -0.017691 -0.05 0.0119025
vt 0.696498 -0.468602
f 2/2/1 10/16/1 11/17/1

f 11/17/2 10/16/2 2/2/2

usemtl FrontColor
vt -0.159665 -2.1069
vn 0.781937 -0.527967 -0.3314
v 0.00215852 -0.0221389 0.0143509
vt -0.553366 -0.815322
vt -0.947067 -2.1069
f 11/18/7 12/19/7 10/20/7

usemtl Color_M00
vn -0.781937 0.527967 0.3314
f 10/20/8 12/19/8 11/18/8

usemtl FrontColor
vt -0.153509 -1.03079
vn 0.103968 -0.527967 -0.842877
vt -0.54721 -2.32237
vt 0.240192 -2.32237
f 12/21/9 9/22/9 10/23/9

vt 0.399856 -0.955701
vn -0.677969 -0.527967 -0.511477
v 0.0220081 -0.05 0.0167993
vt 0.00615568 -2.24728
vt 0.793557 -2.24728
f 12/24/10 13/25/10 9/26/10

usemtl Color_M00
vn 0.677969 0.527967 0.511477
f 9/26/11 13/25/11 12/24/11

vt -0.86646 -0.661391
f 9/13/1 7/15/1 13/27/1

f 7/15/2 6/14/2 9/13/2

v -0.00564587 -0.05 -0.00406353
vt 0.222278 0.159982
f 6/14/1 14/28/1 7/15/1

f 14/28/1 6/14/1 2/2/1

f 2/2/2 6/14/2 14/28/2

f 6/14/2 2/2/2 9/13/2

f 9/13/2 2/2/2 10/16/2

vn -0.103968 0.527967 0.842877
f 10/23/12 9/22/12 12/21/12

f 7/15/2 14/28/2 6/14/2

f 14/28/1 4/4/1 7/15/1

f 2/2/1 4/4/1 14/28/1

f 4/4/2 1/1/2 2/2/2

usemtl FrontColor
vt 0.648968 -2.14535
vn 0.310095 -0.784451 0.5371
vt 0.255267 -1.27607
vt -0.138434 -2.14535
f 4/29/13 5/30/13 1/31/13

usemtl Color_M00
vn -0.310095 0.784451 -0.5371
f 1/31/14 5/30/14 4/29/14

usemtl FrontColor
vt 0.557722 -0.907861
vn 0.62019 -0.784451 3.86293e-16
vt 0.164021 -1.77714
vt 0.951423 -1.77714
f 5/32/15 3/33/15 1/34/15

usemtl Color_M00
vn -0.62019 0.784451 -3.86293e-16
f 1/34/16 3/33/16 5/32/16

usemtl FrontColor
v 0.0166285 -0.05 -0.0241661
vt 0.091246 -2.12398
vn -0.310095 -0.784451 0.5371
vt -0.302455 -1.2547
vt -0.696156 -2.12398
f 15/35/17 5/36/17 4/37/17

usemtl Color_M00
vn 0.310095 0.784451 -0.5371
f 4/37/18 5/36/18 15/35/18

usemtl FrontColor
vt -0.951423 -1.7344
vn -0.62019 -0.784451 -9.22955e-17
vt -0.164021 -1.7344
vt -0.557722 -0.865118
f 15/38/19 8/39/19 5/40/19

usemtl Color_M00
vt -0.654666 0.951423
vt -0.654666 0.164021
f 7/15/1 15/41/1 8/42/1

f 7/15/1 4/4/1 15/41/1

f 7/15/2 4/4/2 14/28/2

f 15/41/2 4/4/2 7/15/2

f 8/42/2 15/41/2 7/15/2

vn 0.62019 0.784451 9.22955e-17
f 5/40/20 8/39/20 15/38/20

f 8/12/6 5/9/6 7/10/6

f 14/28/2 4/4/2 2/2/2

usemtl FrontColor
vt -0.00615568 -1.81634
vn 0.677969 -0.527967 0.511477
vt -0.793557 -1.81634
vt -0.247913 -1.81634
f 14/43/21 11/44/21 2/45/21

vt -0.399856 -0.524759
f 11/44/21 14/43/21 12/46/21

usemtl Color_M00
vn -0.677969 0.527967 -0.511477
f 12/46/22 14/43/22 11/44/22

usemtl FrontColor
vt 0.482046 -1.74124
vn -0.103968 -0.527967 0.842877
vt 0.153509 -0.449667
vt -0.240192 -1.74124
f 7/47/23 12/48/23 14/49/23

v 0.0142037 -0.05 -0.00161511
vt 0.54721 -1.74124
f 12/48/23 7/47/23 16/50/23

usemtl Color_M00
vn 0.103968 0.527967 -0.842877
f 16/50/24 7/47/24 12/48/24

vt -0.559201 0.0635871
f 13/27/1 7/15/1 16/51/1

f 13/27/2 7/15/2 9/13/2

f 16/51/2 7/15/2 13/27/2

usemtl FrontColor
vt 0.159665 -1.95672
vn -0.781937 -0.527967 0.3314
vt 0.947067 -1.95672
vt 0.553366 -0.665138
f 16/52/25 13/53/25 12/54/25

usemtl Color_M00
vn 0.781937 0.527967 -0.3314
f 12/54/26 13/53/26 16/52/26

f 14/49/24 12/48/24 7/47/24

f 2/45/22 11/44/22 14/43/22

g Mesh2 Model

l 6 7

l 6 5

l 2 6

l 3 2

l 1 3

l 4 1

l 15 4

l 8 15

l 8 5

l 7 8

l 16 7

l 13 16

l 9 13

l 10 9

l 11 10

l 2 11

l 14 2

l 7 14

l 14 12

l 9 12

l 12 16

l 12 13

l 11 12

l 12 10

l 5 3

l 1 5

l 4 5

l 15 5

