# Alias OBJ Model File
# Exported from SketchUp, (c) 2000-2012 Trimble Navigation Limited
# File units = meters

mtllib DistilledWaterContainer_Liquid.mtl

g Mesh1 Component_1_1 Model

usemtl Color_M00
v -0.319283 0.281358 -0.184338
vt -10.8861 22.1542
vn -0.5 0 -0.866025
v 1.44382e-15 -0.281358 -0.368676
vt -25.4009 0
v -0.319283 -0.281358 -0.184338
vt -10.8861 0
f 1/1/1 2/2/1 3/3/1

v 1.44382e-15 0.281358 -0.368676
vt -25.4009 22.1542
f 2/2/1 1/1/1 4/4/1

vn 0.5 -0 0.866025
f 3/3/2 2/2/2 1/1/2

vt -12.5702 29.0296
vn 0 -1 -0
v -0.319283 -0.281358 0.184338
vt 0 7.2574
vt 0 21.7722
f 2/5/3 5/6/3 3/7/3

v 1.44382e-15 -0.281358 0.368676
vt -12.5702 0
f 5/6/3 2/5/3 6/8/3

vn -0 1 0
f 3/7/4 5/6/4 2/5/4

vt -7.2574 0
vn -1 0 -0
vt -21.7722 22.1542
vt -21.7722 0
f 5/9/5 1/10/5 3/11/5

v -0.319283 0.281358 0.184338
vt -7.2574 22.1542
f 1/10/5 5/9/5 7/12/5

vn 1 -0 0
f 7/12/6 5/9/6 1/10/6

vt -3.6287 0
vn -0.5 0 0.866025
v 1.44382e-15 0.281358 0.368676
vt 10.8861 22.1542
vt -3.6287 22.1542
f 5/13/7 8/14/7 7/15/7

vt 10.8861 0
f 8/14/7 5/13/7 6/16/7

vn 0.5 -0 -0.866025
f 6/16/8 5/13/8 8/14/8

f 6/8/4 2/5/4 5/6/4

v 0.319283 -0.281358 -0.184338
vt -25.1404 21.7722
f 6/8/3 2/5/3 9/17/3

f 9/17/4 2/5/4 6/8/4

vt 3.6287 22.1542
vn 0.5 0 -0.866025
vt 3.6287 0
f 4/18/9 9/3/9 2/19/9

v 0.319283 0.281358 -0.184338
f 9/3/9 4/18/9 10/1/9

vn -0.5 -0 0.866025
f 2/19/10 9/3/10 4/18/10

f 10/1/10 4/18/10 9/3/10

vt 12.5702 29.0296
vn 0 1 -0
v 0.319283 0.281358 0.184338
vt 25.1404 7.2574
vt 25.1404 21.7722
f 4/20/11 11/21/11 10/22/11

vt 12.5702 0
f 4/20/11 8/23/11 11/21/11

f 1/7/11 8/23/11 4/20/11

f 8/23/11 1/7/11 7/6/11

vn -0 -1 0
f 7/6/12 1/7/12 8/23/12

f 4/20/12 8/23/12 1/7/12

f 11/21/12 8/23/12 4/20/12

vn 0.5 0 0.866025
vt 25.4009 22.1542
f 6/16/13 11/24/13 8/14/13

v 0.319283 -0.281358 0.184338
vt 25.4009 0
f 11/24/13 6/16/13 12/25/13

vn -0.5 -0 -0.866025
f 12/25/14 6/16/14 11/24/14

vt -25.1404 7.2574
f 6/8/3 9/17/3 12/26/3

f 12/26/4 9/17/4 6/8/4

vt 21.7722 0
vn 1 0 -0
vt 7.2574 22.1542
vt 7.2574 0
f 9/27/15 11/28/15 12/29/15

vt 21.7722 22.1542
f 11/28/15 9/27/15 10/30/15

vn -1 -0 0
f 12/29/16 11/28/16 9/27/16

f 10/30/16 9/27/16 11/28/16

f 10/22/12 11/21/12 4/20/12

f 8/14/14 11/24/14 6/16/14

f 4/4/2 1/1/2 2/2/2

f 7/15/8 8/14/8 5/13/8

f 3/11/6 1/10/6 5/9/6

g Mesh2 Component_1_1 Model

l 2 3

l 2 4

l 9 2

l 12 9

l 6 12

l 5 6

l 5 7

l 3 5

l 3 1

l 4 1

l 10 4

l 9 10

l 11 10

l 12 11

l 8 11

l 6 8

l 7 8

l 1 7

