# Alias OBJ Model File
# Exported from SketchUp, (c) 2000-2012 Trimble Navigation Limited
# File units = meters

mtllib GasSac_Valve_Openned_Highlight.mtl

g Mesh1 Model

usemtl Color_M00
v -0.026055 0.151628 0.00258552
vt -0.824482 5.95669
vn 0.676154 -0.0190888 0.736513
v -0.0265219 0.147189 0.00289909
vt -0.846371 5.7819
v -0.0247663 0.149659 0.00135142
vt -0.75425 5.87916
f 1/1/1 2/2/1 3/3/1

vn -0.676154 0.0190888 -0.736513
f 3/3/2 2/2/2 1/1/2

v -0.0281561 0.144185 0.00494511
vt 0.987801 4.04742
vn 0.247601 -0.634093 -0.732543
vt 0.952642 4.20032
vt 0.906676 4.32615
f 4/4/3 2/5/3 3/6/3

v -0.0286746 0.144173 0.00477922
vt 1.00923 4.04683
f 2/5/3 4/4/3 5/7/3

vn -0.247601 0.634093 0.732543
f 5/7/4 4/4/4 2/5/4

v -0.0292986 0.144185 0.00851681
vt -0.670818 -0.872913
vn 0.0206935 -0.999764 0.00661981
vt -0.52318 -0.894353
vt -0.52318 -0.872913
f 6/8/5 5/9/5 4/10/5

v -0.0335779 0.144061 0.00321068
vt -0.52318 -1.09708
f 6/8/5 7/11/5 5/9/5

v -0.0342288 0.144046 0.00300244
vt -0.52318 -1.12399
f 6/8/5 8/12/5 7/11/5

v -0.0353714 0.144046 0.00657414
vt -0.670818 -1.12399
f 8/12/5 6/8/5 9/13/5

usemtl Color_M01
vn -0.0206935 0.999764 -0.00661981
f 9/13/6 6/8/6 8/12/6

usemtl Color_M00
v -0.0290193 0.130688 0.00860617
vt 0.984933 5.14519
vn 0.304687 2.24357e-15 -0.952452
vt 1.2475 5.67111
vt 0.99648 5.67656
f 10/14/7 9/15/7 6/16/7

v -0.0350921 0.130549 0.00666351
vt 1.23595 5.13974
f 9/15/7 10/14/7 11/17/7

usemtl Color_M01
vn -0.304687 -2.24357e-15 0.952452
f 11/17/8 10/14/8 9/15/8

usemtl Color_M00
v -0.0322953 0.130676 0.01706
vt -1.02712 -0.894353
f 12/18/5 11/13/5 10/8/5

v -0.0371985 0.130564 0.0154914
vt -1.02712 -1.09708
f 13/19/5 11/13/5 12/18/5

v -0.0378495 0.130549 0.0152832
vt -1.02712 -1.12399
f 11/13/5 13/19/5 14/20/5

usemtl Color_M01
f 14/20/6 13/19/6 11/13/6

usemtl Color_M00
vt -1.20905 5.14032
vn -0.304687 -2.03153e-15 0.952452
v -0.0352067 0.149637 0.0161286
vt -1.12672 5.89122
vt -1.23595 5.13974
f 13/21/9 15/22/9 14/23/9

vt -1.00637 5.14472
f 15/22/9 13/21/9 12/24/9

usemtl Color_M01
vn 0.304687 2.03153e-15 -0.952452
f 14/23/10 15/22/10 13/21/10

usemtl Color_M00
v -0.0386368 0.168586 0.0150313
vt -1.2685 6.63726
vn -0.304687 -3.3675e-15 0.952452
f 16/25/11 14/23/11 15/22/11

vt 1.02712 6.66325
vn -0.952228 -0.0217266 -0.304615
vt 0.670818 5.16538
vt 1.02712 5.16538
f 16/26/12 11/27/12 14/28/12

v -0.0362855 0.144046 0.0094315
vt 0.788928 5.69687
f 11/27/12 16/26/12 17/29/12

usemtl Color_M01
vn 0.952228 0.0217266 0.304615
f 14/28/13 11/27/13 16/26/13

f 17/29/13 16/26/13 11/27/13

usemtl Color_M00
v -0.0365141 0.15509 0.00935837
vt 0.788928 6.13175
f 16/26/12 18/30/12 17/29/12

v -0.0358794 0.168586 0.00641165
vt 0.670818 6.66325
f 18/30/12 16/26/12 19/31/12

usemtl Color_M01
f 17/29/13 18/30/13 16/26/13

usemtl Color_M00
vt -1.25695 6.10589
vn -0.304687 -2.12606e-15 0.952452
v -0.0394362 0.149499 0.0084236
vt -1.37774 5.88577
vt -1.2475 5.67111
f 18/32/14 20/33/14 17/34/14

v -0.0356 0.15509 0.00650102
vt 0.670818 4.74826
vn -0.835 0.481066 -0.267115
vt 0.788928 4.49718
vt 0.788928 4.74826
f 21/35/15 20/36/15 18/37/15

v -0.0373795 0.149499 0.00199455
vt 0.52318 4.49718
f 20/36/15 21/35/15 22/38/15

usemtl Color_M01
vn 0.835 -0.481066 0.267115
f 18/37/16 20/36/16 21/35/16

vn 0.304687 2.12606e-15 -0.952452
f 17/34/17 20/33/17 18/32/17

usemtl Color_M00
vt 0.788928 5.74671
vn -0.814307 -0.518698 -0.260495
vt 0.670818 5.49563
vt 0.788928 5.49563
f 20/39/18 9/40/18 17/41/18

vt 0.52318 5.74671
f 9/40/18 20/39/18 22/42/18

usemtl Color_M01
vn 0.814307 0.518698 0.260495
f 17/41/19 9/40/19 20/39/19

usemtl Color_M00
vt 0.670818 5.69687
f 11/27/12 17/29/12 9/43/12

usemtl Color_M01
f 9/43/13 17/29/13 11/27/13

usemtl Color_M00
v -0.0302127 0.144185 0.0113742
vt -0.788928 -0.872913
vt -0.788928 -1.12399
f 9/13/5 23/44/5 17/45/5

f 23/44/5 9/13/5 6/8/5

usemtl Color_M01
f 17/45/6 23/44/6 9/13/6

usemtl Color_M00
vt -0.99648 5.67656
vn -0.304687 -2.27228e-15 0.952452
f 23/46/20 18/32/20 17/34/20

v -0.0305295 0.155226 0.0112728
vt -1.00957 6.11126
f 18/32/20 23/46/20 24/47/20

vn 0.304687 2.27228e-15 -0.952452
f 17/34/21 18/32/21 23/46/21

f 24/47/21 23/46/21 18/32/21

v -0.0304413 0.155228 0.011301
vt -1.00593 6.11134
f 24/47/20 23/46/20 25/48/20

f 25/48/21 23/46/21 24/47/21

vn -0.304687 -8.08948e-16 0.952452
v -0.0272906 0.149776 0.0123089
vt -0.875694 5.89668
f 25/48/22 23/46/22 26/49/22

usemtl Color_M01
vn 0.304687 8.08948e-16 -0.952452
f 26/49/23 23/46/23 25/48/23

usemtl Color_M00
vt -0.788928 4.49718
v -0.025234 0.149776 0.00587988
vt -0.52318 4.74826
vt -0.788928 4.74826
f 23/50/16 27/51/16 26/52/16

vt -0.670818 4.49718
f 27/51/16 23/50/16 6/53/16

usemtl Color_M01
f 26/52/15 27/51/15 23/50/15

usemtl Color_M00
vt -0.52318 5.49563
vt -0.788928 5.74671
vt -0.788928 5.49563
f 27/54/19 25/55/19 26/56/19

v -0.0283846 0.155228 0.00487199
vt -0.52318 5.74671
f 25/55/19 27/54/19 28/57/19

usemtl Color_M01
f 26/56/18 25/55/18 27/54/18

f 28/57/18 27/54/18 25/55/18

usemtl Color_M00
vt 0.875694 5.89668
vn 0.304687 -1.26255e-15 -0.952452
v -0.0284728 0.155226 0.00484378
vt 1.00957 6.11126
vt 1.00593 6.11134
f 27/58/24 29/59/24 28/60/24

f 4/16/24 29/59/24 27/58/24

vt 1.01792 5.6761
f 29/59/24 4/16/24 5/61/24

vn -0.304687 1.26255e-15 0.952452
f 5/61/25 4/16/25 29/59/25

usemtl Color_M01
f 4/10/6 5/9/6 6/8/6

f 5/9/6 7/11/6 6/8/6

usemtl Color_M00
v -0.0333761 0.155114 0.00327524
vt 1.21225 6.10686
vn 0.304687 1.39494e-15 -0.952452
vt 1.22059 5.67169
f 30/62/26 5/61/26 7/63/26

f 5/61/26 30/62/26 29/59/26

vn -0.304687 -1.39494e-15 0.952452
f 7/63/27 5/61/27 30/62/27

f 29/59/27 30/62/27 5/61/27

vt 0.52318 -1.07928
v -0.0296154 0.155226 0.00841548
vt 0.670818 -0.876558
vt 0.52318 -0.876558
f 30/64/6 31/65/6 29/66/6

v -0.0344574 0.15509 0.00292932
vt 0.52318 -1.12399
f 32/67/6 31/65/6 30/64/6

vt 0.670818 -1.12399
f 31/65/6 32/67/6 21/68/6

usemtl Color_M01
f 21/68/5 32/67/5 31/65/5

usemtl Color_M00
vt 0.52318 4.74826
f 22/38/15 21/35/15 32/69/15

usemtl Color_M01
f 22/38/16 21/35/16 20/36/16

f 32/69/16 21/35/16 22/38/16

usemtl Color_M00
v -0.0345806 0.149009 -0.00178815
vt 0.812422 4.73018
vn -0.687138 0.453965 -0.567237
vt 0.997422 4.75182
vt 0.952565 4.99887
f 33/70/28 22/71/28 32/72/28

vn 0.687138 -0.453965 0.567237
f 32/72/29 22/71/29 33/70/29

vn 0.304687 1.0011e-16 -0.952452
vt 1.37774 5.88577
vt 1.25695 6.10589
f 30/62/30 22/73/30 32/74/30

f 7/63/30 22/73/30 30/62/30

f 22/73/30 7/63/30 8/15/30

vn -0.304687 -1.0011e-16 0.952452
f 8/15/31 7/63/31 22/73/31

vt 1.31118 4.13249
vn 0.241246 -0.665119 -0.706694
vt 1.21024 3.87164
vt 1.23714 3.87085
f 33/75/32 7/76/32 8/77/32

vn -0.241246 0.665119 0.706694
f 8/77/33 7/76/33 33/75/33

usemtl Color_M01
f 7/11/6 8/12/6 6/8/6

usemtl Color_M00
vt 0.358013 5.84384
vn 0.97704 -0.0165992 -0.212408
vt 0.153143 6.08425
vt 0.157314 5.64902
f 33/78/34 30/79/34 7/80/34

vt 1.22047 5.21542
vn 0.232996 0.593135 -0.770652
vt 1.32356 4.91685
vt 1.26516 5.21421
f 30/81/35 33/82/35 32/83/35

vn -0.232996 -0.593135 0.770652
f 32/83/36 33/82/36 30/81/36

vn -0.97704 0.0165992 0.212408
f 7/80/37 30/79/37 33/78/37

f 30/62/31 22/73/31 7/63/31

f 32/74/31 22/73/31 30/62/31

usemtl Color_M01
f 30/64/5 31/65/5 32/67/5

f 29/66/5 31/65/5 30/64/5

usemtl Color_M00
vt 0.52318 -0.872913
f 31/65/6 28/84/6 29/66/6

vt 0.788928 -0.872913
f 31/65/6 25/85/6 28/84/6

vt 0.788928 -0.876558
f 25/85/6 31/65/6 24/86/6

usemtl Color_M01
f 24/86/5 31/65/5 25/85/5

usemtl Color_M00
vt -0.670818 6.13175
v -0.0308088 0.168723 0.0111835
vt -0.788928 6.66325
vt -0.788928 6.13175
f 31/87/13 34/88/13 24/89/13

v -0.0298948 0.168723 0.00832611
vt -0.670818 6.66325
f 34/88/13 31/87/13 35/90/13

usemtl Color_M01
f 24/89/12 34/88/12 31/87/12

usemtl Color_M00
vt 1.02112 6.64263
vn 0.304687 1.51191e-17 -0.952452
f 34/91/38 25/60/38 24/59/38

v -0.0307207 0.168725 0.0112117
vt 1.01748 6.64271
f 25/60/38 34/91/38 36/92/38

usemtl Color_M01
vn -0.304687 -1.51191e-17 0.952452
f 24/59/39 25/60/39 34/91/39

f 36/92/39 34/91/39 25/60/39

usemtl Color_M00
v -0.032564 0.168725 0.016974
vt 1.02712 -0.872913
f 36/85/6 34/86/6 37/93/6

usemtl Color_M01
f 37/93/5 34/86/5 36/85/5

usemtl Color_M00
v -0.0326522 0.168723 0.0169458
vt 1.02712 -0.876558
f 34/86/6 38/94/6 37/93/6

f 35/65/6 38/94/6 34/86/6

f 19/68/6 38/94/6 35/65/6

v -0.0375554 0.168611 0.0153773
vt 1.02712 -1.07928
f 19/68/6 39/95/6 38/94/6

vt 1.02712 -1.12399
f 39/95/6 19/68/6 16/96/6

usemtl Color_M01
f 16/96/5 19/68/5 39/95/5

f 19/31/13 16/26/13 18/30/13

usemtl Color_M00
vt 0.670818 6.13175
f 18/30/12 19/31/12 21/97/12

usemtl Color_M01
f 21/97/13 19/31/13 18/30/13

usemtl Color_M00
vt 1.2685 6.63726
vn 0.304687 3.01863e-16 -0.952452
f 19/98/40 31/59/40 21/74/40

f 31/59/40 19/98/40 35/91/40

usemtl Color_M01
vn -0.304687 -3.01863e-16 0.952452
f 21/74/41 31/59/41 19/98/41

usemtl Color_M00
f 21/68/6 24/86/6 31/65/6

vt 0.788928 -1.12399
f 24/86/6 21/68/6 18/99/6

usemtl Color_M01
f 18/99/5 21/68/5 24/86/5

f 31/65/5 24/86/5 21/68/5

f 35/91/41 19/98/41 31/59/41

f 35/65/5 38/94/5 19/68/5

f 34/86/5 38/94/5 35/65/5

f 37/93/5 38/94/5 34/86/5

usemtl Color_M00
vt -1.02112 6.64263
vn -0.304687 -1.05374e-15 0.952452
vt -1.01748 6.64271
f 38/100/42 15/22/42 37/101/42

vt -1.2238 6.63823
f 39/102/42 15/22/42 38/100/42

f 15/22/42 39/102/42 16/25/42

usemtl Color_M01
vn 0.304687 1.05374e-15 -0.952452
f 16/25/43 39/102/43 15/22/43

f 38/100/43 15/22/43 39/102/43

f 37/101/43 15/22/43 38/100/43

usemtl Color_M00
vn -0.304687 -1.34967e-15 0.952452
v -0.0317767 0.130688 0.0172259
vt -0.984933 5.14519
f 37/101/44 15/22/44 40/103/44

usemtl Color_M01
vn 0.304687 1.34967e-15 -0.952452
f 40/103/45 15/22/45 37/101/45

usemtl Color_M00
f 15/22/9 12/24/9 40/103/9

usemtl Color_M01
f 12/24/10 13/21/10 15/22/10

f 12/18/6 11/13/6 13/19/6

f 10/8/6 11/13/6 12/18/6

usemtl Color_M00
vt -1.02712 -0.872913
f 12/18/5 10/8/5 40/104/5

usemtl Color_M01
f 40/104/6 10/8/6 12/18/6

usemtl Color_M00
vt -0.670818 5.16538
vt -1.02712 6.66325
vt -1.02712 5.16538
f 10/105/13 37/106/13 40/107/13

vt -0.788928 5.69687
f 37/106/13 10/105/13 23/108/13

usemtl Color_M01
f 40/107/12 37/106/12 10/105/12

f 23/108/12 10/105/12 37/106/12

usemtl Color_M00
vt -0.670818 5.69687
f 23/108/13 10/105/13 6/109/13

usemtl Color_M01
f 6/109/12 10/105/12 23/108/12

f 6/16/8 9/15/8 10/14/8

f 6/8/6 9/13/6 23/44/6

f 6/53/15 23/50/15 27/51/15

usemtl Color_M00
vt -0.52318 4.49718
f 27/51/16 6/53/16 4/110/16

usemtl Color_M01
f 4/110/15 6/53/15 27/51/15

usemtl Color_M00
f 27/58/25 29/59/25 4/16/25

f 28/60/25 29/59/25 27/58/25

vt 1.01481 5.09939
vn 0.225638 0.622105 -0.749715
vt 0.952928 4.91834
vt 1.01846 5.09929
f 28/111/46 1/112/46 29/113/46

vn -0.225638 -0.622105 0.749715
f 29/113/47 1/112/47 28/111/47

vt 0.851703 5.78371
vn -0.669807 0.0167684 -0.742346
vt 0.96002 6.10019
vt 0.829786 5.9585
f 2/114/48 29/115/48 1/116/48

vt 0.964217 5.66496
f 29/115/48 2/114/48 5/117/48

vn 0.669807 -0.0167684 0.742346
f 5/117/49 2/114/49 29/115/49

f 1/116/49 29/115/49 2/114/49

vt -0.187707 5.65432
vn 0.857712 0.509009 0.0723953
vt -0.28512 5.819
vt -0.314228 5.56961
f 1/118/50 28/119/50 27/120/50

vn -0.857712 -0.509009 -0.0723953
f 27/120/51 28/119/51 1/118/51

vt -0.13828 5.55431
vn 0.855267 0.512718 0.0750896
vt -0.191118 5.6446
vt -0.317493 5.55967
f 3/121/52 1/122/52 27/123/52

vn -0.855267 -0.512718 -0.0750896
f 27/123/53 1/122/53 3/121/53

vt -0.166418 4.73134
vn 0.874442 -0.474167 0.102554
vt -0.345635 4.73657
vt -0.322484 4.48656
f 3/124/54 27/125/54 4/126/54

vn -0.874442 0.474167 -0.102554
f 4/126/55 27/125/55 3/124/55

f 3/6/4 2/5/4 4/4/4

usemtl Color_M01
f 29/66/5 28/84/5 31/65/5

f 28/84/5 25/85/5 31/65/5

usemtl Color_M00
f 23/108/13 36/88/13 37/106/13

f 36/88/13 23/108/13 25/89/13

usemtl Color_M01
f 37/106/12 36/88/12 23/108/12

f 25/89/12 23/108/12 36/88/12

f 40/103/10 12/24/10 15/22/10

f 38/94/5 39/95/5 19/68/5

vn 0.304687 3.3675e-15 -0.952452
f 15/22/56 14/23/56 16/25/56

f 35/90/12 31/87/12 34/88/12

usemtl Color_M00
vt 0.682554 5.65912
vn -0.723769 -0.505129 -0.47011
vt 0.83318 5.43275
vt 0.86747 5.68147
f 33/127/57 8/128/57 22/129/57

vn 0.723769 0.505129 0.47011
f 22/129/58 8/128/58 33/127/58

vt 0.52318 5.49563
f 9/40/18 22/42/18 8/130/18

usemtl Color_M01
f 22/42/19 20/39/19 9/40/19

f 8/130/19 22/42/19 9/40/19

g Mesh2 Model

l 27 3

l 27 26

l 28 27

l 1 28

l 1 2

l 29 1

l 30 29

l 30 33

l 32 30

l 32 33

l 22 32

l 33 22

l 33 8

l 7 33

l 5 7

l 5 2

l 27 4

l 1 27

l 1 3

l 2 3

l 4 3

l 4 6

l 6 9

l 6 10

l 6 23

l 26 23

l 25 26

l 28 25

l 5 29

l 23 25

l 23 17

l 17 20

l 18 17

l 20 18

l 22 20

l 8 22

l 7 30

l 8 9

l 9 11

l 9 17

l 11 14

l 10 11

l 10 40

l 40 37

l 15 40

l 14 15

l 16 14

l 19 16

l 21 19

l 32 21

l 21 31

l 21 18

l 18 24

l 24 34

l 24 31

l 31 35

l 19 35

l 34 35

l 36 37

l 25 36

l 39 38

l 16 39

l 16 15

l 15 37

l 12 13

