# Alias OBJ Model File
# Exported from SketchUp, (c) 2000-2012 Trimble Navigation Limited
# File units = meters

mtllib Beaker_Liquid.mtl

g Mesh1 Model

usemtl Color_M00
v -2.17137e-16 0.09 -0.0436704
vt 0.657951 3.54331
vn 0.382683 4.47552e-17 0.92388
v -0.0308797 0.01 -0.0308797
vt -0.657951 0.393701
v -2.14317e-16 0.01 -0.0436704
vt 0.657951 0.393701
f 1/1/1 2/2/1 3/3/1

v -0.0308797 0.09 -0.0308797
vt -0.657951 3.54331
f 2/2/1 1/1/1 4/4/1

vn -0.382683 -4.47552e-17 -0.92388
f 3/3/2 2/2/2 1/1/2

v -0.0308797 0.01 0.0308797
vt 1.21573 -1.21573
vn 0 -1 -0
vt 1.21573 1.21573
vt 8.43769e-15 1.71931
f 5/5/3 2/6/3 3/7/3

v -0.0436704 0.01 5.07594e-17
vt 1.71931 -1.9984e-15
f 2/6/3 5/5/3 6/8/3

usemtl Color_M01
vn -0 1 0
f 6/8/4 5/5/4 2/6/4

vn 0.92388 0 -0.382683
v -0.0308797 0.09 0.0308797
f 6/3/5 7/4/5 5/2/5

v -0.0436704 0.09 5.07594e-17
f 7/4/5 6/3/5 8/1/5

usemtl Color_M00
vn -0.92388 -0 0.382683
f 5/2/6 7/4/6 6/3/6

usemtl Color_M01
vn 0.382683 0 -0.92388
v -2.14317e-16 0.01 0.0436704
f 7/1/7 9/2/7 5/3/7

v -2.14317e-16 0.09 0.0436704
f 9/2/7 7/1/7 10/4/7

usemtl Color_M00
vn -0.382683 -0 0.92388
f 5/3/8 9/2/8 7/1/8

vt 8.43769e-15 -1.71931
f 5/5/3 3/7/3 9/9/3

usemtl Color_M01
f 3/7/4 2/6/4 5/5/4

f 9/9/4 3/7/4 5/5/4

usemtl Color_M00
v 0.0308797 0.01 -0.0308797
vt -1.21573 1.21573
f 9/9/3 3/7/3 11/10/3

usemtl Color_M01
f 11/10/4 3/7/4 9/9/4

usemtl Color_M00
v 0.0308797 0.09 -0.0308797
vn -0.382683 5.00773e-17 0.92388
f 12/1/9 3/2/9 11/3/9

f 3/2/9 12/1/9 1/4/9

vn 0.382683 -5.00773e-17 -0.92388
f 11/3/10 3/2/10 12/1/10

f 1/4/10 12/1/10 3/2/10

usemtl Color_M01
vt 8.54872e-15 1.71931
f 10/9/3 1/11/3 12/10/3

f 7/5/3 1/11/3 10/9/3

f 7/5/3 4/6/3 1/11/3

f 4/6/3 7/5/3 8/8/3

usemtl Color_M00
f 8/8/4 7/5/4 4/6/4

f 8/1/6 6/3/6 7/4/6

vn 0.92388 0 0.382683
f 2/3/11 8/4/11 6/2/11

f 8/4/11 2/3/11 4/1/11

vn -0.92388 -0 -0.382683
f 6/2/12 8/4/12 2/3/12

f 4/1/12 2/3/12 8/4/12

f 4/4/2 1/1/2 2/2/2

f 1/11/4 4/6/4 7/5/4

f 10/9/4 1/11/4 7/5/4

f 12/10/4 1/11/4 10/9/4

usemtl Color_M01
v 0.0308797 0.09 0.0308797
vt -1.21573 -1.21573
f 10/9/3 12/10/3 13/12/3

usemtl Color_M00
f 13/12/4 12/10/4 10/9/4

usemtl Color_M01
v 0.0436704 0.09 5.07594e-17
vt -1.71931 -1.9984e-15
f 13/12/3 12/10/3 14/13/3

usemtl Color_M00
f 14/13/4 12/10/4 13/12/4

vn 0.92388 1.81708e-17 -0.382683
f 14/4/13 11/3/13 12/1/13

v 0.0436704 0.01 5.07594e-17
f 11/3/13 14/4/13 15/2/13

vn -0.92388 -1.81708e-17 0.382683
f 15/2/14 14/4/14 11/3/14

usemtl Color_M01
v 0.0308797 0.01 0.0308797
vn -0.92388 0 -0.382683
f 16/3/15 14/4/15 15/2/15

f 14/4/15 16/3/15 13/1/15

usemtl Color_M00
vn 0.92388 -0 0.382683
f 13/1/16 16/3/16 14/4/16

usemtl Color_M01
vn -0.382683 0 -0.92388
f 16/2/17 10/1/17 13/4/17

f 10/1/17 16/2/17 9/3/17

usemtl Color_M00
vn 0.382683 -0 0.92388
f 9/3/18 16/2/18 10/1/18

f 9/9/3 11/10/3 16/12/3

usemtl Color_M01
f 16/12/4 11/10/4 9/9/4

usemtl Color_M00
f 16/12/3 11/10/3 15/13/3

usemtl Color_M01
f 15/13/4 11/10/4 16/12/4

usemtl Color_M00
f 15/2/16 14/4/16 16/3/16

f 13/4/18 10/1/18 16/2/18

f 10/4/8 7/1/8 9/2/8

f 12/1/14 11/3/14 14/4/14

g Mesh2 Model

l 3 2

l 11 3

l 15 11

l 16 15

l 9 16

l 5 9

l 6 5

l 2 6

l 2 4

l 1 4

l 3 1

l 12 1

l 11 12

l 14 12

l 15 14

l 14 13

l 16 13

l 10 13

l 9 10

l 7 10

l 5 7

l 8 7

l 6 8

l 4 8

