# Alias OBJ Model File
# Exported from SketchUp, (c) 2000-2012 Trimble Navigation Limited
# File units = meters

mtllib WashBottle.mtl

g Mesh1 Model

usemtl Color_M01
v 0.0191761 0.08 -0.0332139
vt 1.11022e-15 0.170502
vn -0.237898 -0.879556 0.412051
v 0.0132493 0.0935794 -0.00764948
vt 0.301161 1.29414
v -7.04992e-18 0.0935794 -0.015299
vt -0.301161 1.29414
f 1/1/1 2/2/1 3/3/1

vn 0.237898 0.879556 -0.412051
f 3/3/2 2/2/2 1/1/2

v 0.02 0.08 -0.034641
vt -5.55112e-16 0.0214209
vn 0.226323 0.89169 -0.392003
vt 0.301161 1.20252
vt -0.301161 1.20252
f 4/4/3 3/5/3 2/6/3

vn -0.226323 -0.89169 0.392003
f 2/6/4 3/5/4 4/4/4

v 0.0132493 0.103579 -0.00764948
vt 0.301161 4.07793
vn -0.5 0 0.866025
vt -0.301161 3.68423
vt 0.301161 3.68423
f 5/7/5 3/8/5 2/9/5

v -7.04992e-18 0.103579 -0.015299
vt -0.301161 4.07793
f 3/8/5 5/7/5 6/10/5

vn 0.5 -0 -0.866025
f 2/9/6 3/8/6 5/7/6

f 6/10/6 5/7/6 3/8/6

v -6.34492e-18 0.103579 -0.0142609
vt 2.498e-16 0.561454
vn 0 -1 -0
vt 2.77556e-16 0.602322
vt -0.521626 0.301161
f 7/11/7 6/12/7 5/13/7

v -0.0123503 0.103579 -0.00713046
vt 0.486233 0.280727
f 8/14/7 6/12/7 7/11/7

v -0.0132493 0.103579 -0.00764948
vt 0.521626 0.301161
f 8/14/7 9/15/7 6/12/7

v -0.0132493 0.103579 0.00764948
vt 0.521626 -0.301161
f 9/15/7 8/14/7 10/16/7

vn -0 1 0
f 10/16/8 8/14/8 9/15/8

v -0.0123503 0.103579 0.00713046
vt 0.486233 -0.280727
f 11/17/7 10/16/7 8/14/7

v 2.81997e-18 0.103579 0.015299
vt -1.11022e-16 -0.602322
f 10/16/7 11/17/7 12/18/7

f 12/18/8 11/17/8 10/16/8

v 2.81997e-18 0.103579 0.0142609
vt -1.11022e-16 -0.561454
f 12/18/7 11/17/7 13/19/7

f 13/19/8 11/17/8 12/18/8

v -0.0123503 0.0935794 0.00713046
vt -0.280727 3.68423
vt 0.280727 4.07793
vt -0.280727 4.07793
f 14/20/5 13/21/5 11/22/5

v 2.81997e-18 0.0935794 0.0142609
vt 0.280727 3.68423
f 13/21/5 14/20/5 15/23/5

f 15/23/6 14/20/6 13/21/6

f 11/22/6 13/21/6 14/20/6

vn -1 0 1.97741e-16
f 8/22/9 14/23/9 11/21/9

v -0.0123503 0.0935794 -0.00713046
f 14/23/9 8/22/9 16/20/9

vn 1 -0 -1.97741e-16
f 11/21/10 14/23/10 8/22/10

f 16/20/10 8/22/10 14/23/10

vn -0.5 0 -0.866025
v -6.34492e-18 0.0935794 -0.0142609
f 8/21/11 17/20/11 16/23/11

f 17/20/11 8/21/11 7/22/11

vn 0.5 -0 0.866025
f 16/23/12 17/20/12 8/21/12

f 7/22/12 8/21/12 17/20/12

f 7/11/8 6/12/8 8/14/8

f 5/13/8 6/12/8 7/11/8

v 0.0123503 0.103579 -0.00713046
vt -0.486233 0.280727
f 7/11/7 5/13/7 18/24/7

f 18/24/8 5/13/8 7/11/8

v 0.0123503 0.103579 -0
vt -0.486233 0
f 18/24/7 5/13/7 19/25/7

f 19/25/8 5/13/8 18/24/8

v 0.0123503 0.103579 0.00713046
vt -0.486233 -0.280727
f 19/25/7 5/13/7 20/26/7

f 20/26/8 5/13/8 19/25/8

v 0.0132493 0.103579 0.00764948
vt -0.521626 -0.301161
f 21/27/7 20/26/7 5/13/7

f 12/18/7 20/26/7 21/27/7

f 12/18/7 13/19/7 20/26/7

f 20/26/8 13/19/8 12/18/8

vn 0.5 0 0.866025
f 15/20/13 20/21/13 13/22/13

v 0.0123503 0.0935794 0.00713046
f 20/21/13 15/20/13 22/23/13

vn -0.5 -0 -0.866025
f 22/23/14 15/20/14 20/21/14

f 13/22/14 20/21/14 15/20/14

v 0.0123503 0.0935794 -0
vt 0 3.68423
vn 1 0 -3.95482e-16
vn 1 0 -0
f 23/28/15 20/22/16 22/20/16

vt 0 4.07793
f 20/22/16 23/28/15 19/29/15

vn -1 -0 0
vn -1 -0 3.95482e-16
f 22/20/17 20/22/17 23/28/18

f 19/29/18 23/28/18 20/22/17

v 0.0123503 0.0935794 -0.00713046
vn 1 0 -7.90963e-16
vt -3.84593e-16 4.07793
vt -3.84593e-16 3.68423
f 24/23/19 19/30/15 23/31/15

f 19/30/15 24/23/19 18/21/19

vn -1 -0 7.90963e-16
f 23/31/18 19/30/18 24/23/20

f 18/21/20 24/23/20 19/30/18

vn 0.5 0 -0.866025
f 24/20/21 7/21/21 18/22/21

f 7/21/21 24/20/21 17/23/21

vn -0.5 -0 0.866025
f 17/23/22 24/20/22 7/21/22

f 18/22/22 7/21/22 24/20/22

f 21/27/8 20/26/8 12/18/8

f 5/13/8 20/26/8 21/27/8

v 0.0132493 0.103579 -0
vt -0.521626 0
f 21/27/7 5/13/7 25/32/7

f 25/32/8 5/13/8 21/27/8

v 0.0132493 0.0935794 -0
vt 1.92296e-16 3.68423
vn -1 -7.81751e-47 3.68648e-16
vt 1.92296e-16 4.07793
f 26/33/23 25/34/23 5/10/23

v 0.0132493 0.0935794 0.00764948
f 27/9/23 25/34/23 26/33/23

f 25/34/23 27/9/23 21/7/23

vn 1 7.81751e-47 -3.68648e-16
f 21/7/24 27/9/24 25/34/24

f 27/8/11 12/7/11 21/10/11

v 2.81997e-18 0.0935794 0.015299
f 12/7/11 27/8/11 28/9/11

f 28/9/12 27/8/12 12/7/12

v 0.0191761 0.08 0.0332139
vt 8.88178e-16 0.170502
vn -0.237898 -0.879556 -0.412051
f 29/35/25 28/2/25 27/3/25

vn 0.237898 0.879556 0.412051
f 27/3/26 28/2/26 29/35/26

v 0.02 0.08 0.034641
vt -9.99201e-16 0.0214209
vn 0.226323 0.89169 0.392003
f 30/36/27 27/5/27 28/6/27

vn -0.226323 -0.89169 -0.392003
f 28/6/28 27/5/28 30/36/28

v 0.04 0.08 -0
vt 0.787402 0.693552
vn 0.497615 0.818437 0.287298
vt 3.33067e-16 1.62398
vt -0.787402 0.693552
f 31/37/29 27/38/29 30/39/29

vt -6.16889e-16 0.0214209
vn 0.452646 0.89169 -1.77313e-16
vt -2.04334e-16 1.20252
f 31/40/30 26/41/30 27/6/30

f 31/40/30 2/5/30 26/41/30

vn -0.452646 -0.89169 1.77313e-16
f 26/41/31 2/5/31 31/40/31

v 0.0383522 0.08 -3.52496e-19
vt 5.18151e-16 0.170502
vn -0.475795 -0.879556 1.67648e-16
vt 1.83797e-16 1.29414
f 32/42/32 26/43/32 2/3/32

f 26/43/32 32/42/32 27/2/32

vn 0.475795 0.879556 -1.67648e-16
f 2/3/33 26/43/33 32/42/33

f 26/33/23 5/10/23 2/8/23

f 5/10/24 25/34/24 26/33/24

f 26/33/24 25/34/24 27/9/24

f 27/2/33 32/42/33 26/43/33

vt -0.754964 0.860477
vn -0.523138 -0.796933 -0.302034
vt 0.754964 0.860477
vt -2.77556e-16 1.74551
f 32/44/34 29/45/34 27/46/34

vn 0.523138 0.796933 0.302034
f 27/46/35 29/45/35 32/44/35

vt -0.754964 3.14961
vn -1 0 -1.92296e-16
v 0.0191761 0.002 0.0332139
vt 0.754964 0.0787402
vt 0.754964 3.14961
f 32/47/36 33/48/11 29/49/11

v 0.0383522 0.002 -3.52496e-19
vt -0.754964 0.0787402
f 33/48/11 32/47/36 34/50/36

vn 1 -0 1.92296e-16
f 29/49/12 33/48/12 32/47/37

v -0.0191761 0.08 0.0332139
f 33/50/11 35/49/21 29/47/11

v -0.0191761 0.002 0.0332139
f 35/49/21 33/50/11 36/48/21

f 36/48/22 33/50/12 35/49/22

v -0.0191761 0.002 -0.0332139
vt -0.754964 1.30764
vn 0 1 -0
vt -0.754964 -1.30764
vt 0.754964 -1.30764
f 37/51/38 36/52/38 33/53/38

v -0.0383522 0.002 -4.75869e-18
vt -1.50993 1.8735e-16
f 36/52/38 37/51/38 38/54/38

vn -0 -1 0
f 38/54/39 37/51/39 36/52/39

v -0.0383522 0.08 -4.75869e-18
vn 1 0 3.20494e-16
f 37/48/13 39/47/40 38/50/40

v -0.0191761 0.08 -0.0332139
f 39/47/40 37/48/13 40/49/13

vn -1 -0 -3.20494e-16
f 38/50/41 39/47/41 37/48/14

f 35/47/21 38/48/40 39/49/40

f 38/48/40 35/47/21 36/50/21

f 36/50/22 35/47/22 38/48/41

f 39/49/41 38/48/41 35/47/22

v -0.0132493 0.0935794 0.00764948
vt -3.33067e-16 1.74551
vn 0.523138 -0.796933 -0.302034
f 41/55/42 35/44/42 39/45/42

vn 0.237898 -0.879556 -0.412051
vt 1.22125e-15 0.170502
f 28/3/43 35/56/43 41/2/43

vn -0.237898 0.879556 0.412051
f 41/2/44 35/56/44 28/3/44

vn -0.523138 0.796933 0.302034
f 39/45/45 35/44/45 41/55/45

vn 0.475795 -0.879556 -7.49785e-17
vt 4.25293e-16 0.170502
v -0.0132493 0.0935794 -0.00764948
f 41/3/46 39/57/46 42/2/46

vn -0.475795 0.879556 7.49785e-17
f 42/2/47 39/57/47 41/3/47

vt -3.88578e-16 1.74551
vn 0.523138 -0.796933 0.302034
f 42/58/48 39/44/48 40/45/48

vn -0.523138 0.796933 -0.302034
f 40/45/49 39/44/49 42/58/49

f 40/49/14 37/48/14 39/47/41

f 37/50/13 1/49/5 40/47/13

v 0.0191761 0.002 -0.0332139
f 1/49/5 37/50/13 43/48/5

f 43/48/6 37/50/14 1/49/6

vt 0.754964 1.30764
f 37/51/38 33/53/38 43/59/38

f 33/53/39 36/52/39 37/51/39

f 43/59/39 33/53/39 37/51/39

vt 1.50993 1.38778e-17
f 43/59/38 33/53/38 34/60/38

f 34/60/39 33/53/39 43/59/39

f 34/50/37 32/47/37 33/48/12

f 1/47/5 34/48/36 32/49/36

f 34/48/36 1/47/5 43/50/5

f 32/49/37 34/48/37 1/47/6

f 43/50/6 1/47/6 34/48/37

vn -0.523138 -0.796933 0.302034
vt -5.55112e-16 1.74551
f 32/45/50 2/61/50 1/44/50

vn 0.523138 0.796933 -0.302034
f 1/44/51 2/61/51 32/45/51

f 40/47/14 1/49/6 37/50/14

vn -9.17035e-17 -0.796933 0.604068
vt -3.68994e-16 1.74551
f 1/45/52 3/62/52 40/44/52

vn 9.17035e-17 0.796933 -0.604068
f 40/44/53 3/62/53 1/45/53

vn 0.237898 -0.879556 0.412051
vt 9.99201e-16 0.170502
f 3/2/54 42/3/54 40/63/54

vn -0.237898 0.879556 -0.412051
f 40/63/55 42/3/55 3/2/55

vn -0.226323 0.89169 -0.392003
v -0.02 0.08 -0.034641
vt -1.44329e-15 0.0214209
f 3/6/56 44/64/56 42/5/56

vn 0.226323 -0.89169 0.392003
f 42/5/57 44/64/57 3/6/57

vt 5.55112e-17 1.62398
vn -0.497615 0.818437 -0.287298
v -0.04 0.08 -4.89859e-18
f 42/65/58 44/39/58 45/37/58

vn 0.497615 -0.818437 0.287298
f 45/37/59 44/39/59 42/65/59

vt -0.787402 3.14961
vn -0.866025 0 -0.5
v -0.04 0 -4.89859e-18
vt 0.787402 0
vt 0.787402 3.14961
f 44/66/60 46/67/60 45/68/60

v -0.02 0 -0.034641
vt -0.787402 0
f 46/67/60 44/66/60 47/69/60

vn 0.866025 -0 0.5
f 45/68/61 46/67/61 44/66/61

v -0.02 0 0.034641
vn -0.866025 0 0.5
f 48/67/62 45/66/62 46/69/62

v -0.02 0.08 0.034641
f 45/66/62 48/67/62 49/68/62

vn 0.866025 -0 -0.5
f 49/68/63 48/67/63 45/66/63

vn -5.63993e-16 0 1
f 48/69/64 30/68/64 49/66/64

v 0.02 0 0.034641
f 30/68/64 48/69/64 50/67/64

vn 5.63993e-16 -0 -1
f 50/67/65 48/69/65 30/68/65

usemtl FrontColor
vt 0.787402 -1.36382
vt 0.787402 1.36382
vt -0.787402 -1.36382
f 48/70/7 47/71/7 50/72/7

vt 1.5748 1.92858e-16
f 47/71/7 48/70/7 46/73/7

usemtl BackColor
f 46/73/8 48/70/8 47/71/8

usemtl Color_M01
f 46/69/63 45/66/63 48/67/63

usemtl BackColor
f 50/72/8 47/71/8 48/70/8

usemtl FrontColor
v 0.02 0 -0.034641
vt -0.787402 1.36382
f 50/72/7 47/71/7 51/74/7

usemtl BackColor
f 51/74/8 47/71/8 50/72/8

usemtl Color_M01
vn 1.40998e-16 0 -1
f 44/68/66 51/69/66 47/67/66

f 51/69/66 44/68/66 4/66/66

vn -1.40998e-16 -0 1
f 47/67/67 51/69/67 44/68/67

f 4/66/67 44/68/67 51/69/67

vn 8.96519e-17 0.818437 -0.574596
vt 3.71533e-16 1.62398
f 4/39/68 44/37/68 3/75/68

vn -8.96519e-17 -0.818437 0.574596
f 3/75/69 44/37/69 4/39/69

vn 0.866025 0 -0.5
f 31/66/70 51/67/70 4/68/70

v 0.04 0 -0
f 51/67/70 31/66/70 52/69/70

vn -0.866025 -0 0.5
f 52/69/71 31/66/71 51/67/71

vn 0.866025 0 0.5
f 30/66/72 52/67/72 31/68/72

f 52/67/72 30/66/72 50/69/72

vn -0.866025 -0 -0.5
f 50/69/73 30/66/73 52/67/73

f 31/68/73 52/67/73 30/66/73

vn -0.497615 -0.818437 -0.287298
f 30/39/74 27/38/74 31/37/74

f 27/6/31 26/41/31 31/40/31

usemtl FrontColor
vt -1.5748 0
f 50/72/7 51/74/7 52/76/7

usemtl BackColor
f 52/76/8 51/74/8 50/72/8

usemtl Color_M01
f 4/68/71 51/67/71 31/66/71

vn 0.497615 0.818437 -0.287298
vt 5.55112e-16 1.62398
f 31/39/75 4/37/75 2/77/75

vn -0.497615 -0.818437 0.287298
f 2/77/76 4/37/76 31/39/76

f 47/69/61 44/66/61 46/67/61

f 49/66/65 30/68/65 48/69/65

vn -3.22725e-16 0.818437 0.574596
vt 4.4932e-16 1.62398
f 30/37/77 28/78/77 49/39/77

vn 3.22725e-16 -0.818437 -0.574596
f 49/39/78 28/78/78 30/37/78

vn -0.226323 0.89169 0.392003
vt -3.33067e-16 0.0214209
f 28/5/79 41/6/79 49/79/79

vn 0.226323 -0.89169 -0.392003
f 49/79/80 41/6/80 28/5/80

vt 4.44089e-16 1.62398
vn -0.497615 0.818437 0.287298
f 41/80/81 45/39/81 49/37/81

vn -0.452646 0.89169 7.65445e-17
vt -4.59164e-16 0.0214209
f 41/5/82 42/6/82 45/81/82

vn 0.452646 -0.89169 -7.65445e-17
f 45/81/83 42/6/83 41/5/83

vn 1 0 -1.84324e-16
f 42/9/84 10/10/84 41/8/84

f 10/10/84 42/9/84 9/7/84

vn -1 -0 1.84324e-16
f 41/8/85 10/10/85 42/9/85

f 10/7/21 28/8/21 41/9/21

f 28/8/21 10/7/21 12/10/21

f 41/9/22 28/8/22 10/7/22

f 12/10/22 10/7/22 28/8/22

f 9/7/85 42/9/85 10/10/85

f 42/8/13 6/7/13 9/10/13

f 6/7/13 42/8/13 3/9/13

f 3/9/14 42/8/14 6/7/14

f 9/10/14 6/7/14 42/8/14

f 6/12/8 9/15/8 8/14/8

vn 0.497615 -0.818437 -0.287298
f 49/37/86 45/39/86 41/80/86

vn 4.53467e-16 -0.796933 -0.604068
vt -5.63179e-16 1.74551
f 29/44/87 35/45/87 28/82/87

vn -4.53467e-16 0.796933 0.604068
f 28/82/88 35/45/88 29/44/88

f 29/47/12 35/49/22 33/50/12

f 2/8/24 5/10/24 26/33/24

f 21/10/12 12/7/12 27/8/12

f 8/14/8 10/16/8 11/17/8

g Mesh2 Model

l 27 28

l 26 27

l 2 26

l 3 2

l 42 3

l 41 42

l 28 41

l 29 28

l 29 27

l 35 29

l 28 35

l 28 49

l 30 28

l 27 30

l 31 27

l 2 31

l 1 2

l 3 1

l 40 3

l 42 40

l 42 44

l 45 42

l 41 45

l 49 41

l 48 49

l 46 48

l 47 46

l 51 47

l 52 51

l 52 31

l 50 52

l 48 50

l 50 30

l 49 30

l 45 49

l 44 45

l 44 3

l 47 44

l 4 44

l 4 2

l 3 4

l 3 6

l 9 6

l 10 9

l 12 10

l 21 12

l 25 21

l 5 25

l 6 5

l 2 5

l 2 32

l 32 27

l 32 1

l 29 32

l 1 40

l 40 39

l 41 39

l 35 41

l 39 35

l 39 42

l 42 9

l 41 10

l 27 21

l 28 12

l 31 4

l 30 31

l 51 4

l 46 45

g Mesh3 Model

l 34 43

l 33 34

l 36 33

l 38 36

l 37 38

l 43 37

g Mesh4 Model

l 7 8

l 18 7

l 19 18

l 20 19

l 13 20

l 11 13

l 8 11

l 8 16

l 17 16

l 24 17

l 23 24

l 22 23

l 15 22

l 14 15

l 16 14

l 11 14

l 13 15

l 20 22

l 18 24

l 7 17

