# Alias OBJ Model File
# Exported from SketchUp, (c) 2000-2012 Trimble Navigation Limited
# File units = meters

mtllib TeleportMarker.mtl

g Mesh1 Model

usemtl Color_E05
v -0.03 0 -0.0519615
vt 1.1811 2.04573
vn 0 -1 -0
v -0.03 0 0.0519615
vt 1.1811 -2.04573
v -0.06 0 -0
vt 2.3622 0
f 1/1/1 2/2/1 3/3/1

v 0.03 0 0.0519615
vt -1.1811 -2.04573
f 2/2/1 1/1/1 4/4/1

vn -0 1 0
f 3/3/2 2/2/2 1/1/2

vt 1.1811 0
vn -0.866025 0 0.5
v -0.06 0.02 -0
vt -1.1811 0.787402
vt -1.1811 0
f 2/5/3 5/6/3 3/7/3

v -0.03 0.02 0.0519615
vt 1.1811 0.787402
f 5/6/3 2/5/3 6/8/3

vn 0.866025 -0 -0.5
f 6/8/4 2/5/4 5/6/4

vn -1.87998e-16 0 1
v 0.03 0.02 0.0519615
f 2/7/5 7/8/5 6/6/5

f 7/8/5 2/7/5 4/5/5

vn 1.87998e-16 -0 -1
f 4/5/6 2/7/6 7/8/6

f 4/4/2 1/1/2 2/2/2

v 0.03 0 -0.0519615
vt -1.1811 2.04573
f 4/4/1 1/1/1 8/9/1

f 8/9/2 1/1/2 4/4/2

v -0.03 0.02 -0.0519615
vn 5.63993e-16 0 -1
f 9/8/7 8/7/7 1/5/7

v 0.03 0.02 -0.0519615
f 8/7/7 9/8/7 10/6/7

vn -5.63993e-16 -0 1
f 1/5/8 8/7/8 9/8/8

f 10/6/8 9/8/8 8/7/8

vn 0 1 -0
f 9/9/9 7/2/9 10/1/9

f 9/9/9 6/4/9 7/2/9

vt -2.3622 0
f 6/4/9 9/9/9 5/10/9

vn -0 -1 0
f 5/10/10 9/9/10 6/4/10

vn -0.866025 0 -0.5
f 9/6/11 3/5/11 5/8/11

f 3/5/11 9/6/11 1/7/11

vn 0.866025 -0 0.5
f 5/8/12 3/5/12 9/6/12

f 3/7/4 5/6/4 2/5/4

f 1/7/12 9/6/12 3/5/12

f 7/2/10 6/4/10 9/9/10

f 6/6/6 7/8/6 2/7/6

f 10/1/10 7/2/10 9/9/10

v 0.06 0.02 7.34788e-18
vt 2.3622 -2.89287e-16
f 10/1/9 7/2/9 11/11/9

f 11/11/10 7/2/10 10/1/10

vn 0.866025 0 0.5
v 0.06 0 7.34788e-18
f 7/6/13 12/5/13 11/8/13

f 12/5/13 7/6/13 4/7/13

vn -0.866025 -0 -0.5
f 4/7/14 7/6/14 12/5/14

f 11/8/14 12/5/14 7/6/14

vn 0.866025 0 -0.5
f 8/5/15 11/6/15 12/7/15

f 11/6/15 8/5/15 10/8/15

vn -0.866025 -0 0.5
f 12/7/16 11/6/16 8/5/16

f 10/8/16 8/5/16 11/6/16

vt -2.3622 -2.89287e-16
f 4/4/1 8/9/1 12/12/1

f 12/12/2 8/9/2 4/4/2

g Mesh2 Model

l 3 2

l 1 3

l 8 1

l 12 8

l 4 12

l 2 4

l 2 6

l 6 7

l 5 6

l 9 5

l 10 9

l 11 10

l 7 11

l 4 7

l 12 11

l 8 10

l 1 9

l 3 5

