# Alias OBJ Model File
# Exported from SketchUp, (c) 2000-2012 Trimble Navigation Limited
# File units = meters

mtllib Untitled0.mtl

g Mesh1 Model

usemtl FrontColor
v 3.44935 0 -3.62728
vt -135.801 142.806
vn 0 -1 -0
v -4.87065 0 2.82272
vt 191.758 -111.131
v -4.87065 0 -3.62728
vt 191.758 142.806
f 1/1/1 2/2/1 3/3/1

v 3.44935 0 2.82272
vt -135.801 -111.131
f 2/2/1 1/1/1 4/4/1

usemtl BackColor
vn -0 1 0
f 3/3/2 2/2/2 1/1/2

f 4/4/2 1/1/2 2/2/2

g Mesh2 Model

l 2 3

l 4 2

l 1 4

l 3 1

