# Alias OBJ Model File
# Exported from SketchUp, (c) 2000-2012 Trimble Navigation Limited
# File units = meters

mtllib TestTube.mtl

g Mesh1 Component_2_1 Model

usemtl Color_M01
v 0.011025 0.126639 0.0190959
vt 1.30217 9.97157
vn -5.11559e-16 0 1
v -0.011025 0.124639 0.0190959
vt 0.434055 9.89283
v 0.011025 0.124639 0.0190959
vt 1.30217 9.89283
f 1/1/1 2/2/1 3/3/1

v -0.011025 0.126639 0.0190959
vt 0.434055 9.97157
f 2/2/1 1/1/1 4/4/1

vn 5.11559e-16 -0 -1
f 3/3/2 2/2/2 1/1/2

v -0.01005 0.122136 0.0173638
vt 0.472441 8.01505
vn -3.35346e-16 -0.569054 0.8223
vt 1.30217 8.13488
vt 0.434055 8.13488
f 5/5/3 3/6/3 2/7/3

v 0.00995 0.122136 0.0173638
vt 1.25984 8.01505
f 3/6/3 5/5/3 6/8/3

vn 3.35346e-16 0.569054 -0.8223
f 6/8/4 5/5/4 3/6/4

v -0.01005 -0.115361 0.0173638
vt 0.472441 0.444013
vn -4.22995e-16 1.18737e-17 1
vt 1.25984 9.79429
vt 0.472441 9.79429
f 7/9/5 6/10/5 5/11/5

v 0.00995 -0.115361 0.0173638
vt 1.25984 0.444013
f 6/10/5 7/9/5 8/12/5

vn 4.22995e-16 -1.18737e-17 -1
f 8/12/6 7/9/6 6/10/6

v -0.00635453 -0.126639 0.0096666
vt 0.617932 -0.209271
vn -4.52336e-16 -0.563722 0.825965
vt 1.25984 0.328298
vt 0.472441 0.328298
f 9/13/7 8/14/7 7/15/7

v 0.0047575 -0.126639 0.0096666
vt 1.05541 -0.209271
f 8/14/7 9/13/7 10/16/7

vn 4.52336e-16 0.563722 -0.825965
f 10/16/8 9/13/8 8/14/8

vt -0.617932 0.371231
vn 0 -1 -0
v -0.00635453 -0.126639 -0.00958
vt -0.617932 1.12897
vt -1.05541 0.371231
f 9/17/9 11/18/9 10/19/9

v -0.0119105 -0.126639 4.33013e-05
vt -0.399191 0.750101
f 11/18/9 9/17/9 12/20/9

vn -0 1 0
f 12/20/10 9/17/10 11/18/10

vt -0.0125292 -0.382012
vn -0.73438 -0.530013 0.423995
v -0.02005 -0.115361 4.33013e-05
vt -0.610236 0.141595
vt -0.450011 -0.382012
f 9/21/11 13/22/11 12/23/11

vt 0.177165 0.141595
f 13/22/11 9/21/11 7/24/11

vn 0.73438 0.530013 -0.423995
f 7/24/12 9/21/12 13/22/12

f 7/15/8 8/14/8 9/13/8

f 12/23/12 13/22/12 9/21/12

v -0.01005 -0.115361 -0.0172772
vt -1.47638 0.539158
vn -0.73438 -0.530013 -0.423995
vt -0.849202 0.015551
vt -0.688976 0.539158
f 14/25/13 12/26/13 13/27/13

vt -1.28668 0.015551
f 12/26/13 14/25/13 11/28/13

vn 0.73438 0.530013 0.423995
f 13/27/14 12/26/14 14/25/14

f 11/28/14 14/25/14 12/26/14

vt -0.472441 1.17399
vn 2.91107e-17 -0.563722 -0.825965
v 0.0047575 -0.126639 -0.00958
vt -1.05541 0.636426
vt -0.617932 0.636426
f 14/29/15 15/30/15 11/31/15

v 0.00995 -0.115361 -0.0172772
vt -1.25984 1.17399
f 15/30/15 14/29/15 16/32/15

vn -2.91107e-17 0.563722 0.825965
f 11/31/16 15/30/16 14/29/16

vt -1.05541 1.12897
f 10/19/9 11/18/9 15/33/9

f 10/19/10 11/18/10 9/17/10

f 15/33/10 11/18/10 10/19/10

v 0.0103135 -0.126639 4.33013e-05
vt -1.27415 0.750101
f 10/19/9 15/33/9 17/34/9

f 17/34/10 15/33/10 10/19/10

vt 0.610236 1.43182
vn 0.696154 -0.594832 -0.401925
vt 0.0125292 0.87946
vt 0.450011 0.87946
f 16/35/17 17/36/17 15/37/17

v 0.01995 -0.115361 4.33013e-05
vt -0.177165 1.43182
f 17/36/17 16/35/17 18/38/17

vn -0.696154 0.594832 0.401925
f 18/38/18 16/35/18 17/36/18

vt 0.609911 0.444012
vn 0.865935 4.33684e-07 -0.500156
v 0.01995 0.122136 4.33013e-05
vt -0.177491 9.79429
vt -0.177491 0.444012
f 16/39/19 19/40/19 18/41/19

v 0.00995 0.122136 -0.0172772
vt 0.609911 9.79429
f 19/40/19 16/39/19 20/42/19

vn -0.865935 -4.33684e-07 0.500156
f 18/41/20 19/40/20 16/39/20

vt 0.688785 9.79429
vn 0.866116 -4.33052e-07 0.499843
vt 1.47619 0.444014
vt 1.47619 9.79429
f 6/43/21 18/44/21 19/45/21

vt 0.688785 0.444014
f 18/44/21 6/43/21 8/46/21

vn -0.866116 4.33052e-07 -0.499843
f 8/46/22 6/43/22 18/44/22

f 19/45/22 18/44/22 6/43/22

v 0.0100035 0.124639 0.0173266
vt -0.691299 9.90394
vn -0.865972 0.0110702 -0.499969
vt -1.47638 9.80539
vt -0.688976 9.80539
f 21/47/23 19/48/23 6/49/23

v 0.020007 0.124639 5.63993e-18
vt -1.47898 9.90394
f 19/48/23 21/47/23 22/50/23

vn 0.865972 -0.0110702 0.499969
f 6/49/24 19/48/24 21/47/24

v 0.02205 0.124639 1.12799e-17
vt 1.51919 8.69378
vn 0.703483 -0.583222 0.406156
vt 0.688976 8.57247
vt 1.47638 8.57247
f 23/51/25 6/52/25 19/53/25

vt 0.651083 8.69378
f 6/52/25 23/51/25 3/54/25

vn -0.703483 0.583222 -0.406156
f 3/54/26 23/51/26 6/52/26

vt 1.51919 9.89283
vn 0.866025 0 0.5
vt 0.651083 9.97157
vt 0.651083 9.89283
f 23/55/27 1/56/27 3/57/27

v 0.02205 0.126639 1.12799e-17
vt 1.51919 9.97157
f 1/56/27 23/55/27 24/58/27

vn -0.866025 -0 -0.5
f 3/57/28 1/56/28 23/55/28

f 24/58/28 23/55/28 1/56/28

v 0.011025 0.124639 -0.0190959
vn 0.866025 0 -0.5
vt -0.217028 9.97157
vt -0.217028 9.89283
f 25/57/29 24/59/29 23/60/29

v 0.011025 0.126639 -0.0190959
f 24/59/29 25/57/29 26/56/29

vn -0.866025 -0 0.5
f 23/60/30 24/59/30 25/57/30

f 26/56/30 25/57/30 24/59/30

vt -1.30217 9.89283
vn 0 0 -1
v -0.011025 0.126639 -0.0190959
vt -0.434055 9.97157
vt -1.30217 9.97157
f 25/61/31 27/62/31 26/63/31

v -0.011025 0.124639 -0.0190959
vt -0.434055 9.89283
f 27/62/31 25/61/31 28/64/31

vn -0 -0 1
f 28/64/32 25/61/32 27/62/32

vt -1.25984 8.76521
vn -3.3138e-18 -0.58783 -0.808984
vt -0.434055 8.88701
vt -1.30217 8.88701
f 20/65/33 28/66/33 25/67/33

v -0.01005 0.122136 -0.0172772
vt -0.472441 8.76521
f 28/66/33 20/65/33 29/68/33

vn 3.3138e-18 0.58783 0.808984
f 29/68/34 20/65/34 28/66/34

vt -1.25984 0.444013
vt -0.472441 9.79429
vt -1.25984 9.79429
f 16/69/31 29/70/31 20/71/31

vt -0.472441 0.444013
f 29/70/31 16/69/31 14/72/31

f 14/72/32 16/69/32 29/70/32

f 16/32/16 14/29/16 15/30/16

f 15/37/18 17/36/18 16/35/18

f 20/71/32 29/70/32 16/69/32

v 0.0100035 0.124639 -0.0173266
vt 1.26195 9.91918
vn 1.39526e-19 0.0197173 0.999806
vt 0.472441 9.82063
vt 1.25984 9.82063
f 30/73/35 29/74/35 20/75/35

v -0.0100035 0.124639 -0.0173266
vt 0.474272 9.91918
f 29/74/35 30/73/35 31/76/35

vn -1.39526e-19 -0.0197173 -0.999806
f 20/75/36 29/74/36 30/73/36

f 31/76/36 30/73/36 29/74/36

v 0.0100035 0.126639 -0.0173266
vt 1.26195 9.97157
vn 0 0 1
vt 0.474272 9.89283
vt 1.26195 9.89283
f 32/77/37 31/78/37 30/79/37

v -0.0100035 0.126639 -0.0173266
vt 0.474272 9.97157
f 31/78/37 32/77/37 33/80/37

vn -0 -0 -1
f 30/79/38 31/78/38 32/77/38

f 33/80/38 32/77/38 31/78/38

vt 1.30217 1.50361
vn 0 1 -0
vt 0.474272 1.43395
vt 1.26195 1.43395
f 26/81/39 33/82/39 32/83/39

vt 0.434055 1.50361
f 27/84/39 33/82/39 26/81/39

v -0.020007 0.126639 5.63993e-18
vt 0.0804333 0.751806
f 27/84/39 34/85/39 33/82/39

v -0.02205 0.126639 2.81997e-18
vt 0 0.751806
f 34/85/39 27/84/39 35/86/39

vn -0 -1 0
f 35/86/40 27/84/40 34/85/40

vt -1.51919 9.97157
vn -0.866025 0 -0.5
v -0.02205 0.124639 2.81997e-18
vt -0.651083 9.89283
vt -0.651083 9.97157
f 27/87/41 36/88/41 35/89/41

vt -1.51919 9.89283
f 36/88/41 27/87/41 28/90/41

vn 0.866025 -0 0.5
f 35/89/42 36/88/42 27/87/42

vt 0.217028 9.89283
vn -0.866025 0 0.5
f 2/91/43 35/89/43 36/88/43

vt 0.217028 9.97157
f 35/89/43 2/91/43 4/92/43

vn 0.866025 -0 -0.5
f 4/92/44 2/91/44 35/89/44

f 4/4/2 1/1/2 2/2/2

v -0.0100035 0.126639 0.0173266
vt 0.474272 0.0696572
vt 0.434055 2.22045e-16
vt 1.30217 0
f 37/93/39 4/94/39 1/95/39

f 34/85/39 4/94/39 37/93/39

f 4/94/39 34/85/39 35/86/39

f 35/86/40 34/85/40 4/94/40

f 37/93/40 4/94/40 34/85/40

f 1/95/40 4/94/40 37/93/40

v 0.0100035 0.126639 0.0173266
vt 1.26195 0.0696572
f 37/93/39 1/95/39 38/96/39

f 38/96/40 1/95/40 37/93/40

v 0.020007 0.126639 5.63993e-18
vt 1.65579 0.751806
f 38/96/39 1/95/39 39/97/39

f 39/97/40 1/95/40 38/96/40

vt 1.73622 0.751806
f 39/97/39 1/95/39 24/98/39

f 24/98/40 1/95/40 39/97/40

f 26/81/39 39/97/39 24/98/39

f 26/81/39 32/83/39 39/97/39

f 32/83/40 33/82/40 26/81/40

f 26/81/40 33/82/40 27/84/40

f 33/82/40 34/85/40 27/84/40

vt 0.691299 9.97157
v -0.01005 0.124639 -0.017246
vt 1.47531 9.89283
vt 1.47898 9.97157
f 34/99/27 40/100/27 33/101/27

v -0.020007 0.124639 5.63993e-18
vt 0.691299 9.89283
f 40/100/27 34/99/27 41/102/27

f 41/102/28 34/99/28 40/100/28

vt -0.176811 9.97157
vt 0.610866 9.89283
vt 0.610866 9.97157
f 37/103/29 41/104/29 34/105/29

v -0.0100035 0.124639 0.0173266
vt -0.176811 9.89283
f 41/104/29 37/103/29 42/106/29

f 42/106/30 37/103/30 41/104/30

vt -0.474272 9.97157
vn 5.63796e-16 0 -1
vt -1.26195 9.89283
vt -0.474272 9.89283
f 37/107/45 21/108/45 42/109/45

vt -1.26195 9.97157
f 21/108/45 37/107/45 38/110/45

vn -5.63796e-16 -0 1
f 42/109/46 21/108/46 37/107/46

vt -1.25984 9.79422
vn 4.22959e-16 -0.0148785 -0.999889
vt -0.474272 9.89277
vt -1.26195 9.89277
f 6/111/47 42/112/47 21/113/47

vt -0.472441 9.79422
f 42/112/47 6/111/47 5/114/47

vn -4.22959e-16 0.0148785 0.999889
f 5/114/48 6/111/48 42/112/48

f 5/11/6 6/10/6 7/9/6

v -0.02005 0.122136 4.33013e-05
vt -0.610236 9.79429
vn -0.866025 1.26987e-18 0.5
vt 0.177165 0.444013
vt 0.177165 9.79429
f 43/115/49 7/116/49 5/117/49

vt -0.610236 0.444013
f 7/116/49 43/115/49 13/118/49

vn 0.866025 -1.26987e-18 -0.5
f 5/117/50 7/116/50 43/115/50

f 13/118/50 43/115/50 7/116/50

vt -0.688976 9.79429
vn -0.866025 -1.26987e-18 -0.5
vt -1.47638 0.444013
vt -0.688976 0.444013
f 43/119/51 14/120/51 13/121/51

vt -1.47638 9.79429
f 14/120/51 43/119/51 29/122/51

vn 0.866025 1.26987e-18 0.5
f 13/121/52 14/120/52 43/119/52

f 29/122/52 43/119/52 14/120/52

vt 1.47638 9.79219
vn 0.866009 -0.0062297 0.49999
vt 0.691299 9.89073
vt 0.688976 9.79219
f 29/123/53 41/124/53 43/125/53

vt 1.47531 9.89073
f 41/124/53 29/123/53 40/126/53

vn -0.866009 0.0062297 -0.49999
f 43/125/54 41/124/54 29/123/54

vt -0.176811 9.90058
vn 0.865786 -0.023524 -0.499862
vt 0.610236 9.80201
vt 0.610866 9.90058
f 42/127/55 43/128/55 41/129/55

vt -0.177165 9.80201
f 43/128/55 42/127/55 5/130/55

vn -0.865786 0.023524 0.499862
f 5/130/56 42/127/56 43/128/56

f 41/129/56 43/128/56 42/127/56

vt 0.177165 7.83636
vn -0.715015 -0.564214 0.412814
vt -0.651083 7.95571
vt -0.610236 7.83636
f 5/131/57 36/132/57 43/133/57

vt 0.217028 7.95571
f 36/132/57 5/131/57 2/134/57

vn 0.715015 0.564214 -0.412814
f 2/134/58 5/131/58 36/132/58

f 2/7/4 3/6/4 5/5/4

f 43/133/58 36/132/58 5/131/58

vt -0.651083 8.31765
vn -0.70925 -0.573834 -0.409486
vt -1.47638 8.19733
vt -0.688976 8.19733
f 36/135/59 29/136/59 43/137/59

vt -1.51919 8.31765
f 29/136/59 36/135/59 28/138/59

vn 0.70925 0.573834 0.409486
f 43/137/60 29/136/60 36/135/60

f 28/138/60 36/135/60 29/136/60

f 28/90/42 27/87/42 36/88/42

f 36/88/44 35/89/44 2/91/44

f 40/126/54 29/123/54 41/124/54

vt 1.47898 9.89073
f 40/126/53 29/123/53 31/139/53

f 31/139/54 29/123/54 40/126/54

vt 1.47898 9.89283
f 33/101/27 40/100/27 31/140/27

f 33/101/28 40/100/28 34/99/28

f 31/140/28 40/100/28 33/101/28

f 21/113/48 42/112/48 6/111/48

f 38/110/46 37/107/46 21/108/46

vt -1.47898 9.97157
vt -0.691299 9.89283
vt -0.691299 9.97157
f 39/141/41 21/142/41 38/143/41

vt -1.47898 9.89283
f 21/142/41 39/141/41 22/144/41

f 38/143/42 21/142/42 39/141/42

f 22/144/42 39/141/42 21/142/42

vt -0.610866 9.97157
vt 0.176811 9.89283
vt 0.176811 9.97157
f 32/145/43 22/146/43 39/147/43

vt -0.610866 9.89283
f 22/146/43 32/145/43 30/148/43

f 39/147/44 22/146/44 32/145/44

f 30/148/44 32/145/44 22/146/44

vt -0.610236 9.8416
vn -0.865677 0.0283601 0.499799
vt 0.176811 9.94018
vt -0.610866 9.94018
f 20/149/61 22/150/61 30/151/61

vt 0.177165 9.8416
f 22/150/61 20/149/61 19/152/61

vn 0.865677 -0.0283601 -0.499799
f 19/152/62 20/149/62 22/150/62

f 20/42/20 16/39/20 19/40/20

vt 0.610236 8.96131
vn 0.69772 -0.592382 -0.402829
vt -0.217028 9.08362
vt -0.177165 8.96131
f 20/153/63 23/154/63 19/155/63

vt 0.651083 9.08362
f 23/154/63 20/153/63 25/156/63

vn -0.69772 0.592382 0.402829
f 19/155/64 23/154/64 20/153/64

f 19/53/26 6/52/26 23/51/26

f 25/156/64 20/153/64 23/154/64

f 25/67/34 28/66/34 20/65/34

f 30/151/62 22/150/62 20/149/62

f 22/50/24 21/47/24 19/48/24

f 39/97/40 32/83/40 26/81/40

f 24/98/40 39/97/40 26/81/40

f 34/105/30 41/104/30 37/103/30

f 26/63/32 27/62/32 25/61/32

vt 0.849202 0.433276
vn 0.696154 -0.594832 0.401925
vt 1.47638 0.985634
vt 0.688976 0.985634
f 10/157/65 18/158/65 8/159/65

vt 1.28668 0.433276
f 18/158/65 10/157/65 17/160/65

vn -0.696154 0.594832 -0.401925
f 8/159/66 18/158/66 10/157/66

f 17/160/66 10/157/66 18/158/66

g Mesh2 Component_2_1 Model

l 34 41

l 34 37

l 33 34

l 33 31

l 32 33

l 39 32

l 39 22

l 38 39

l 37 38

l 37 42

l 41 42

l 40 41

l 31 29

l 30 31

l 30 20

l 22 30

l 22 19

l 21 22

l 38 21

l 42 21

l 42 5

l 5 6

l 7 5

l 7 8

l 9 7

l 9 10

l 12 9

l 11 12

l 11 14

l 15 11

l 17 15

l 10 17

l 10 8

l 8 6

l 8 18

l 18 19

l 18 16

l 17 18

l 16 20

l 16 14

l 15 16

l 14 13

l 14 29

l 29 43

l 29 28

l 20 29

l 19 20

l 6 19

l 21 6

l 6 3

l 2 3

l 2 4

l 36 2

l 36 35

l 43 36

l 41 43

l 43 5

l 13 43

l 12 13

l 13 7

l 5 2

l 28 36

l 25 28

l 25 26

l 23 25

l 23 24

l 3 23

l 3 1

l 4 1

l 35 4

l 27 35

l 28 27

l 26 27

l 24 26

l 1 24

l 19 23

l 20 25

l 32 30

