# Alias OBJ Model File
# Exported from SketchUp, (c) 2000-2012 Trimble Navigation Limited
# File units = meters

mtllib WashBottle_Top_Highlight.mtl

g Mesh1 Model

usemtl Color_M00
v 2.11989e-05 0.0931634 -0.0165229
vt -0.000834601 0.650507
vn 0 -1 -0
v -0.0143092 0.0931634 0.00829816
vt 0.563356 -0.326699
v -0.0143092 0.0931634 -0.0082492
vt 0.563356 0.324772
f 1/1/1 2/2/1 3/3/1

v 2.11989e-05 0.0931634 0.0165718
vt -0.000834601 -0.652435
f 2/2/1 1/1/1 4/4/1

usemtl BackColor
vn -0 1 0
f 3/3/2 2/2/2 1/1/2

usemtl Color_M00
vt 0.326699 3.66785
vn -1 0 1.84324e-16
v -0.0143092 0.103979 -0.0082492
vt -0.324772 4.09368
vt -0.324772 3.66785
f 2/5/3 5/6/3 3/7/3

v -0.0143092 0.103979 0.00829816
vt 0.326699 4.09368
f 5/6/3 2/5/3 6/8/3

usemtl Color_M01
vn 1 -0 -1.84324e-16
f 6/8/4 2/5/4 5/6/4

usemtl Color_M00
vt -0.324531 3.66785
vn -0.5 0 0.866025
v 2.11989e-05 0.103979 0.0165718
vt 0.32694 4.09368
vt -0.324531 4.09368
f 2/9/5 7/10/5 6/11/5

vt 0.32694 3.66785
f 7/10/5 2/9/5 4/12/5

usemtl Color_M01
vn 0.5 -0 -0.866025
f 4/12/6 2/9/6 7/10/6

usemtl BackColor
f 4/4/2 1/1/2 2/2/2

usemtl Color_M00
v 0.0143516 0.0931634 -0.0082492
vt -0.565025 0.324772
f 4/4/1 1/1/1 8/13/1

usemtl BackColor
f 8/13/2 1/1/2 4/4/2

usemtl Color_M00
v 2.11989e-05 0.103979 -0.0165229
vt 0.324531 4.09368
vn 0.5 0 -0.866025
vt -0.32694 3.66785
vt 0.324531 3.66785
f 9/14/7 8/15/7 1/16/7

v 0.0143516 0.103979 -0.0082492
vt -0.32694 4.09368
f 8/15/7 9/14/7 10/17/7

usemtl Color_M01
vn -0.5 -0 0.866025
f 1/16/8 8/15/8 9/14/8

f 10/17/8 9/14/8 8/15/8

usemtl Color_M00
vt 0.000834601 0.650507
vn 0 1 -0
vt 0.000834601 -0.652435
vt 0.565025 0.324772
f 9/18/9 7/19/9 10/20/9

vt -0.563356 -0.326699
f 9/18/9 6/21/9 7/19/9

vt -0.563356 0.324772
f 6/21/9 9/18/9 5/22/9

usemtl Color_M01
vn -0 -1 0
f 5/22/10 9/18/10 6/21/10

usemtl Color_M00
vt -0.325976 3.66785
vn -0.5 0 -0.866025
vt 0.325495 4.09368
vt -0.325976 4.09368
f 1/23/11 5/24/11 9/25/11

vt 0.325495 3.66785
f 5/24/11 1/23/11 3/26/11

usemtl Color_M01
vn 0.5 -0 0.866025
f 3/26/12 1/23/12 5/24/12

f 9/25/12 5/24/12 1/23/12

f 3/7/4 5/6/4 2/5/4

f 7/19/10 6/21/10 9/18/10

f 6/11/6 7/10/6 2/9/6

f 10/20/10 7/19/10 9/18/10

usemtl Color_M00
v 0.0143516 0.103979 0.00829816
vt 0.565025 -0.326699
f 10/20/9 7/19/9 11/27/9

usemtl Color_M01
f 11/27/10 7/19/10 10/20/10

usemtl Color_M00
vt -0.325495 3.66785
vn 0.5 0 0.866025
vt 0.325976 4.09368
vt -0.325495 4.09368
f 4/28/13 11/29/13 7/30/13

v 0.0143516 0.0931634 0.00829816
vt 0.325976 3.66785
f 11/29/13 4/28/13 12/31/13

usemtl Color_M01
vn -0.5 -0 -0.866025
f 12/31/14 4/28/14 11/29/14

usemtl Color_M00
vt -0.565025 -0.326699
f 4/4/1 8/13/1 12/32/1

usemtl BackColor
f 12/32/2 8/13/2 4/4/2

usemtl Color_M00
v 0.0143516 0.0931634 2.44783e-05
vt -0.565025 -0.000963714
f 12/32/1 8/13/1 13/33/1

usemtl BackColor
f 13/33/2 8/13/2 12/32/2

usemtl Color_M00
v 0.0143516 0.103979 2.44783e-05
vt -0.000963714 4.09368
vn 1 -7.81751e-47 -3.68648e-16
vt -0.000963714 3.66785
vt 0.324772 3.66785
f 14/34/15 13/35/15 8/36/15

vt -0.326699 4.09368
f 11/37/15 13/35/15 14/34/15

vt -0.326699 3.66785
f 13/35/15 11/37/15 12/38/15

usemtl Color_M01
vn -1 7.81751e-47 3.68648e-16
f 12/38/16 11/37/16 13/35/16

f 14/34/16 13/35/16 11/37/16

f 8/36/16 13/35/16 14/34/16

usemtl Color_M00
vt 0.324772 4.09368
f 14/34/15 8/36/15 10/39/15

usemtl Color_M01
f 10/39/16 8/36/16 14/34/16

usemtl Color_M00
vt 0.565025 -0.000963714
f 10/20/9 11/27/9 14/40/9

usemtl Color_M01
f 14/40/10 11/27/10 10/20/10

f 7/30/14 11/29/14 4/28/14

g Mesh2 Model

l 12 4

l 13 12

l 8 13

l 1 8

l 3 1

l 2 3

l 4 2

l 4 7

l 11 7

l 14 11

l 10 14

l 9 10

l 5 9

l 6 5

l 7 6

l 2 6

l 3 5

l 1 9

l 8 10

l 12 11

