# Alias OBJ Model File
# Exported from SketchUp, (c) 2000-2012 Trimble Navigation Limited
# File units = meters

mtllib Floor.mtl

g Mesh1 Component_1_1 Model

usemtl FrontColor
v 5 0.04 6
vt 393.701 0
vn 0 1 -0
v -5 0.04 3.66
vt 0 92.126
v -5 0.04 6
vt 0 0
f 1/1/1 2/2/1 3/3/1

v -5 0.04 -6
vt 0 472.441
f 2/2/1 1/1/1 4/4/1

usemtl BackColor
vn -0 -1 0
f 3/3/2 2/2/2 1/1/2

usemtl FrontColor
vt -92.126 3.14961
vn -1 0 -0
v -5 -0.04 6
vt 0 3.14961
f 2/5/3 5/3/3 3/6/3

v -5 -0.04 3.66
vt -92.126 0
f 5/3/3 2/5/3 6/7/3

usemtl BackColor
vn 1 -0 0
f 3/6/4 5/3/4 2/5/4

usemtl FrontColor
vn 0 0 1
vt 393.701 3.14961
f 5/3/5 1/8/5 3/6/5

v 5 -0.04 6
f 1/8/5 5/3/5 7/1/5

usemtl BackColor
vn -0 -0 -1
f 7/1/6 5/3/6 1/8/6

usemtl FrontColor
vn 0 -1 -0
v 5 -0.04 -6
vt -393.701 472.441
vt -393.701 0
f 5/3/7 8/9/7 7/10/7

f 6/2/7 8/9/7 5/3/7

v -5 -0.04 -6
f 8/9/7 6/2/7 9/4/7

usemtl BackColor
vn -0 1 0
f 9/4/8 6/2/8 8/9/8

usemtl FrontColor
vt -472.441 3.14961
vt -472.441 0
f 6/7/3 4/11/3 9/12/3

f 4/11/3 6/7/3 2/5/3

usemtl BackColor
f 2/5/4 6/7/4 4/11/4

f 6/7/4 2/5/4 5/3/4

f 5/3/8 8/9/8 6/2/8

f 7/10/8 8/9/8 5/3/8

usemtl FrontColor
v 5 -0.04 -3.44
vt -393.701 371.654
f 7/10/7 8/9/7 10/13/7

usemtl BackColor
f 10/13/8 8/9/8 7/10/8

usemtl FrontColor
vt 472.441 0
vn 1 0 -0
v 5 0.04 -3.44
vt 371.654 3.14961
vt 371.654 0
f 8/14/9 11/15/9 10/16/9

v 5 0.04 -6
vt 472.441 3.14961
f 11/15/9 8/14/9 12/17/9

usemtl BackColor
vn -1 -0 0
f 10/16/10 11/15/10 8/14/10

usemtl FrontColor
f 1/6/9 10/16/9 11/15/9

f 10/16/9 1/6/9 7/3/9

usemtl BackColor
f 7/3/10 1/6/10 10/16/10

f 11/15/10 10/16/10 1/6/10

usemtl FrontColor
vt 393.701 472.441
vt 393.701 371.654
f 12/18/1 1/1/1 11/19/1

f 4/4/1 1/1/1 12/18/1

usemtl BackColor
f 4/4/2 1/1/2 2/2/2

f 12/18/2 1/1/2 4/4/2

f 11/19/2 1/1/2 12/18/2

f 12/17/10 8/14/10 11/15/10

usemtl FrontColor
vn 0 0 -1
vt -393.701 3.14961
f 8/10/11 4/6/11 12/20/11

f 4/6/11 8/10/11 9/3/11

usemtl BackColor
vn -0 -0 1
f 9/3/12 8/10/12 4/6/12

f 12/20/12 4/6/12 8/10/12

f 9/12/4 4/11/4 6/7/4

f 3/6/6 1/8/6 5/3/6

g Mesh2 Component_1_1 Model

l 2 4

l 3 2

l 1 3

l 1 11

l 1 7

l 7 10

l 7 5

l 5 6

l 3 5

l 6 9

l 2 6

l 8 9

l 10 8

l 11 10

l 11 12

l 12 4

l 12 8

l 4 9

