# Alias OBJ Model File
# Exported from SketchUp, (c) 2000-2012 Trimble Navigation Limited
# File units = meters

mtllib Floor_Final.mtl

g Mesh1 Model

usemtl FrontColor
v -3.28272 0 -6
vt 129.241 236.22
vn 0 -1 -0
v -4.23672 0 -5.98
vt 166.8 235.433
v -4.23672 0 -6
vt 166.8 236.22
f 1/1/1 2/2/1 3/3/1

v -4.06 0 3.66
vt 159.843 -144.094
f 2/2/1 1/1/1 4/4/1

usemtl Color_M04
vn -0 1 0
f 3/3/2 2/2/2 1/1/2

usemtl FrontColor
v -4.31672 0 -5.98
vt 169.949 235.433
f 5/5/1 3/3/1 2/2/1

v -4.31672 0 -6
vt 169.949 236.22
f 3/3/1 5/5/1 6/6/1

usemtl BackColor
f 6/6/2 5/5/2 3/3/2

usemtl FrontColor
v -5 0 3.66
vt 196.85 -144.094
f 7/7/1 6/6/1 5/5/1

v -5 0 -6
vt 196.85 236.22
f 6/6/1 7/7/1 8/8/1

usemtl Color_M04
f 8/8/2 7/7/2 6/6/2

f 5/5/2 6/6/2 7/7/2

usemtl FrontColor
f 7/7/1 5/5/1 4/4/1

usemtl Color_M04
f 4/4/2 5/5/2 7/7/2

usemtl FrontColor
f 4/4/1 5/5/1 2/2/1

usemtl Color_M04
f 2/2/2 5/5/2 4/4/2

usemtl BackColor
f 2/2/2 3/3/2 5/5/2

usemtl Color_M04
f 4/4/2 1/1/2 2/2/2

usemtl FrontColor
v -4.06 0 5.06
vt 159.843 -199.213
f 4/4/1 1/1/1 9/9/1

usemtl Color_M04
f 9/9/2 1/1/2 4/4/2

usemtl FrontColor
v -3.28272 0 -5.98
vt 129.241 235.433
f 9/9/1 1/1/1 10/10/1

usemtl Color_M04
f 10/10/2 1/1/2 9/9/2

usemtl FrontColor
v 1.88 0 5.06
vt -74.0157 -199.213
f 9/9/1 10/10/1 11/11/1

usemtl Color_M04
f 11/11/2 10/10/2 9/9/2

usemtl FrontColor
v -3.20272 0 -5.98
vt 126.091 235.433
f 11/11/1 10/10/1 12/12/1

usemtl Color_M04
f 12/12/2 10/10/2 11/11/2

usemtl FrontColor
v 4.06 0 -3.44
vt -159.843 135.433
f 12/12/1 13/13/1 11/11/1

v 5 0 -6
vt -196.85 236.22
f 12/12/1 14/14/1 13/13/1

v -3.20272 0 -6
vt 126.091 236.22
f 14/14/1 12/12/1 15/15/1

usemtl Color_M04
f 15/15/2 12/12/2 14/14/2

f 13/13/2 14/14/2 12/12/2

usemtl FrontColor
v 5 0 -3.44
vt -196.85 135.433
f 13/13/1 14/14/1 16/16/1

usemtl Color_M04
f 16/16/2 14/14/2 13/13/2

f 11/11/2 13/13/2 12/12/2

usemtl FrontColor
v 1.88 0 6
vt -74.0157 -236.22
f 11/11/1 13/13/1 17/17/1

usemtl Color_M04
f 17/17/2 13/13/2 11/11/2

usemtl FrontColor
v 4.06 0 6
vt -159.843 -236.22
f 18/18/1 17/17/1 13/13/1

usemtl Color_M04
f 13/13/2 17/17/2 18/18/2

g Mesh2 Model

l 14 15

l 16 14

l 16 13

l 13 18

l 17 18

l 17 11

l 11 9

l 4 9

l 4 7

l 7 8

l 8 6

l 6 5

l 6 3

l 3 2

l 1 3

l 1 10

l 12 10

l 15 12

l 5 2

