# Alias OBJ Model File
# Exported from SketchUp, (c) 2000-2012 Trimble Navigation Limited
# File units = meters

mtllib Erlenmeyer_Solid.mtl

g Mesh1 Model

usemtl Color_M00
v 0.00768378 0.005 0.0127856
vt -0.528534 0.19685
vn 0.995948 0 -0.0899266
v 0.00813341 0.0255943 0.0177653
vt -0.725385 1.00765
v 0.00813341 0.005 0.0177653
vt -0.725385 0.19685
f 1/1/1 2/2/1 3/3/1

v 0.00768378 0.0255943 0.0127856
vt -0.528534 1.00765
f 2/2/1 1/1/1 4/4/1

vn -0.995948 -0 0.0899266
f 3/3/2 2/2/2 1/1/2

vt -0.584411 1.00765
vn 0.420096 0 -0.90748
v 0.0126708 0.005 0.0198658
vt -0.781262 0.19685
vt -0.584411 0.19685
f 2/5/3 5/6/3 3/7/3

v 0.0126708 0.0255943 0.0198658
vt -0.781262 1.00765
f 5/6/3 2/5/3 6/8/3

vn -0.420096 -0 0.90748
f 3/7/4 5/6/4 2/5/4

usemtl FrontColor
vt -0.320213 -0.699423
vn 0 -1 -0
v 0.0167586 0.005 0.0169865
vt -0.659787 -0.668762
vt -0.498851 -0.782119
f 3/9/5 7/10/5 5/11/5

vt -0.302511 -0.50337
f 7/10/5 3/9/5 1/12/5

usemtl BackColor
vn -0 1 0
f 1/12/6 3/9/6 7/10/6

f 5/11/6 7/10/6 3/9/6

usemtl Color_M00
vt 0.042548 1.00765
vn -0.575853 0 -0.817553
vt -0.154302 0.19685
vt 0.042548 0.19685
f 6/13/7 7/14/7 5/15/7

v 0.0167586 0.0255943 0.0169865
vt -0.154302 1.00765
f 7/14/7 6/13/7 8/16/7

vn 0.575853 -0 0.817553
f 5/15/8 7/14/8 6/13/8

f 8/16/8 6/13/8 7/14/8

v 0.0163089 0.0255943 0.0120068
vt -0.642085 -0.472709
f 6/11/5 9/17/5 8/10/5

v 0.0117715 0.0255943 0.00990633
vt -0.463447 -0.390013
f 6/11/5 10/18/5 9/17/5

f 2/9/5 10/18/5 6/11/5

f 10/18/5 2/9/5 4/12/5

f 4/12/6 2/9/6 10/18/6

f 4/4/2 1/1/2 2/2/2

vt -0.042548 0.19685
vn 0.575853 0 0.817553
vt 0.154302 1.00765
vt -0.042548 1.00765
f 1/19/9 10/20/9 4/21/9

v 0.0117715 0.005 0.00990633
vt 0.154302 0.19685
f 10/20/9 1/19/9 11/22/9

vn -0.575853 -0 -0.817553
f 11/22/10 1/19/10 10/20/10

usemtl FrontColor
f 11/18/5 7/10/5 1/12/5

v 0.0163089 0.005 0.0120068
f 7/10/5 11/18/5 12/17/5

usemtl BackColor
f 1/12/6 7/10/6 11/18/6

f 12/17/6 11/18/6 7/10/6

usemtl Color_M00
vt 0.781262 1.00765
vn -0.420096 0 0.90748
vt 0.584411 0.19685
vt 0.781262 0.19685
f 9/23/11 11/24/11 12/25/11

vt 0.584411 1.00765
f 11/24/11 9/23/11 10/26/11

vn 0.420096 -0 -0.90748
f 12/25/12 11/24/12 9/23/12

f 10/26/12 9/23/12 11/24/12

f 9/17/6 10/18/6 6/11/6

f 6/11/6 10/18/6 2/9/6

f 6/8/4 2/5/4 5/6/4

f 8/10/6 9/17/6 6/11/6

vt 0.528534 1.00765
vn -0.995948 0 0.0899266
vt 0.725385 0.19685
vt 0.725385 1.00765
f 9/27/13 7/28/13 8/29/13

vt 0.528534 0.19685
f 7/28/13 9/27/13 12/30/13

vn 0.995948 -0 -0.0899266
f 8/29/14 7/28/14 9/27/14

f 12/30/14 9/27/14 7/28/14

f 4/21/10 10/20/10 1/19/10

g Mesh2 Model

v -0.00599064 0.005 -0.0180331
vt 0.235852 0.709964
vn -9.3315e-17 -1 4.31734e-17
v -0.00528996 0.005 -0.00239009
vt 0.208266 0.0940981
v -0.00776459 0.005 -0.00205602
vt 0.305692 0.0809458
f 13/31/15 14/32/15 15/33/15

v 0.0109826 0.005 -0.0254712
vt -0.432386 1.0028
f 14/32/15 13/31/15 16/34/15

vn 9.3315e-17 1 -4.31734e-17
f 15/33/16 14/32/16 13/31/16

v 0.00328969 0.005 0.00871537
vt -0.129515 -0.343125
vn 1.00089e-15 -1 -1.02717e-15
f 17/35/17 15/33/17 14/32/17

vn -1.00089e-15 1 1.02717e-15
f 14/32/18 15/33/18 17/35/18

usemtl FrontColor
vt -0.193805 0.0853321
vn 0.107221 -0.59806 0.794247
v -0.0201551 0.005 -0.000383335
vt -0.784356 0.0853321
vt -0.292115 0.0853321
f 14/36/19 18/37/19 15/38/19

v -0.0109846 0.0224082 0.0114869
vt -0.489081 0.940485
f 18/37/19 14/36/19 19/39/19

usemtl Color_M00
vn -0.107221 0.59806 -0.794247
f 15/38/20 18/37/20 14/36/20

v -0.0166793 0.005 0.0253639
vt 0.656666 -0.998578
vn -5.22552e-17 -1 1.14887e-16
vt 0.793509 0.0150919
f 20/40/21 18/41/21 15/33/21

v -0.0258498 0.005 0.0134936
vt 1.01771 -0.531246
f 18/41/21 20/40/21 21/42/21

vn 5.22552e-17 1 -1.14887e-16
f 21/42/22 20/40/22 18/41/22

usemtl FrontColor
vt -0.0934844 0.337023
vn 0.634227 -0.59806 -0.48998
vt -0.38876 -0.51813
vt 0.201791 -0.51813
f 19/43/23 20/44/23 21/45/23

usemtl Color_M00
vn -0.634227 0.59806 0.48998
f 21/45/24 20/44/24 19/43/24

usemtl FrontColor
vt 0.489081 0.473618
vn -0.107221 -0.59806 -0.794247
v -0.00181416 0.005 0.0233571
vt 0.193805 -0.381534
vt 0.784356 -0.381534
f 19/46/25 22/47/25 20/48/25

v 0.00388052 0.005 0.00948013
vt 0.28729 -0.0115056
vn -0.741449 -0.59806 -0.304267
vt 0.877841 -0.0115056
vt 0.582565 0.843647
f 23/49/26 22/50/26 19/51/26

usemtl Color_M00
vn 0.741449 0.59806 0.304267
f 19/51/27 22/50/27 23/49/27

vn 0.107221 0.59806 0.794247
f 20/48/28 22/47/28 19/46/28

v -0.00803564 0.005 0.000385231
vt 0.316364 -0.0151666
vt 0.0714236 -0.919572
f 24/52/21 22/53/21 20/40/21

f 22/53/21 24/52/21 17/35/21

f 20/40/22 22/53/22 24/52/22

f 17/35/22 24/52/22 22/53/22

vn 1.01568e-15 -1 -1.04236e-15
f 17/35/29 24/52/29 15/33/29

vn -1.01568e-15 1 1.04236e-15
f 15/33/30 24/52/30 17/35/30

f 20/40/21 15/33/21 24/52/21

f 15/33/22 18/41/22 20/40/22

f 24/52/22 15/33/22 20/40/22

usemtl FrontColor
vt 0.0467174 -0.0044074
vn 0.834777 -0.542731 0.0926862
v 0.0089376 0.0298364 -0.0070529
vt 0.314808 1.15978
vt -0.0499856 -0.0044074
f 15/54/31 25/55/31 24/56/31

vt 0.679601 -0.0044074
f 25/55/31 15/54/31 13/57/31

usemtl Color_M00
vn -0.834777 0.542731 -0.0926862
f 24/56/32 25/55/32 15/54/32

usemtl FrontColor
vt -0.11893 1.22116
vn 0.497657 -0.542731 -0.676595
vt -0.307639 0.0569701
vt 0.245864 0.0569701
f 25/58/33 17/59/33 24/60/33

v 0.00689259 0.005 0.0113654
vt -0.483723 0.0569701
f 25/58/33 26/61/33 17/59/33

vt -0.433738 1.04798
vn -0.33712 -0.542731 -0.769281
v 0.0238658 0.005 0.00392729
vt -0.798531 -0.116206
vt -0.0689442 -0.116206
f 25/62/34 27/63/34 26/64/34

usemtl Color_M00
vn 0.33712 0.542731 0.769281
f 26/64/35 27/63/35 25/62/35

vt -0.271362 -0.447457
vt -0.939599 -0.154618
f 26/65/15 16/34/15 27/66/15

f 17/35/15 16/34/15 26/65/15

f 14/32/15 16/34/15 17/35/15

f 16/34/16 13/31/16 14/32/16

usemtl FrontColor
vt 0.433738 0.925227
vn 0.33712 -0.542731 0.769281
vt 0.0689442 -0.238961
vt 0.798531 -0.238961
f 25/67/36 13/68/36 16/69/36

usemtl Color_M00
vn -0.33712 0.542731 -0.769281
f 16/69/37 13/68/37 25/67/37

f 13/57/32 15/54/32 25/55/32

usemtl FrontColor
vt 0.11893 0.752051
vn -0.497657 -0.542731 0.676595
vt -0.245864 -0.412137
v 0.0259108 0.005 -0.014491
vt 0.483723 -0.412137
f 25/70/38 16/71/38 28/72/38

usemtl Color_M00
vn 0.497657 0.542731 -0.676595
f 28/72/39 16/71/39 25/70/39

vt -1.02011 0.570513
f 27/66/15 16/34/15 28/73/15

f 27/66/16 16/34/16 26/65/16

f 28/73/16 16/34/16 27/66/16

usemtl FrontColor
vt -0.679601 -0.350759
vn -0.834777 -0.542731 -0.0926862
vt 0.0499856 -0.350759
vt -0.314808 0.813429
f 28/74/40 27/75/40 25/76/40

usemtl Color_M00
vn 0.834777 0.542731 0.0926862
f 25/76/41 27/75/41 28/74/41

f 26/65/16 16/34/16 17/35/16

f 17/35/16 16/34/16 14/32/16

usemtl FrontColor
vt 0.38876 0.221928
vn -0.634227 -0.59806 0.48998
vt -0.201791 0.221928
vt 0.350713 0.221928
f 23/77/42 14/78/42 17/79/42

vt 0.0934844 1.07708
f 14/78/42 23/77/42 19/80/42

usemtl Color_M00
vn 0.634227 0.59806 -0.48998
f 19/80/43 23/77/43 14/78/43

f 17/79/43 14/78/43 23/77/43

vt -0.152776 -0.373234
f 22/53/21 17/35/21 23/81/21

f 23/81/22 17/35/22 22/53/22

f 19/39/20 14/36/20 18/37/20

usemtl FrontColor
vt -0.28729 -0.284697
vn 0.741449 -0.59806 0.304267
vt -0.582565 0.570456
vt -0.877841 -0.284697
f 18/82/44 19/83/44 21/84/44

usemtl Color_M00
vn -0.741449 0.59806 -0.304267
f 21/84/45 19/83/45 18/82/45

vn -0.497657 0.542731 0.676595
f 17/59/46 26/61/46 25/58/46

f 24/60/46 17/59/46 25/58/46

g Mesh3 Model

l 3 5

l 1 3

l 11 1

l 12 11

l 7 12

l 5 7

l 5 6

l 2 6

l 4 2

l 10 4

l 9 10

l 8 9

l 6 8

l 7 8

l 1 7

l 1 4

l 12 9

l 11 10

l 3 2

g Mesh4 Model

l 22 23

l 20 22

l 21 20

l 18 21

l 19 18

l 21 19

l 14 19

l 17 14

l 23 19

l 22 19

l 20 19

l 17 15

l 24 17

l 24 25

l 24 15

l 14 15

l 15 18

l 15 13

l 16 13

l 28 16

l 27 28

l 26 27

l 25 26

l 16 25

l 13 25

l 27 25

l 28 25

l 17 26

