# Alias OBJ Model File
# Exported from SketchUp, (c) 2000-2012 Trimble Navigation Limited
# File units = meters

mtllib Erlenmeyer_Solid.mtl

g Mesh1 Model

usemtl Color_M00
v 0.00768378 -0.075 0.0127856
vt -0.528534 -2.95276
vn 0.995948 0 -0.0899266
v 0.00813341 -0.0544057 0.0177653
vt -0.725385 -2.14196
v 0.00813341 -0.075 0.0177653
vt -0.725385 -2.95276
f 1/1/1 2/2/1 3/3/1

v 0.00768378 -0.0544057 0.0127856
vt -0.528534 -2.14196
f 2/2/1 1/1/1 4/4/1

vn -0.995948 -0 0.0899266
f 3/3/2 2/2/2 1/1/2

vt -0.584411 -2.14196
vn 0.420096 0 -0.90748
v 0.0126708 -0.075 0.0198658
vt -0.781262 -2.95276
vt -0.584411 -2.95276
f 2/5/3 5/6/3 3/7/3

v 0.0126708 -0.0544057 0.0198658
vt -0.781262 -2.14196
f 5/6/3 2/5/3 6/8/3

vn -0.420096 -0 0.90748
f 3/7/4 5/6/4 2/5/4

usemtl FrontColor
vt -0.320213 -0.699423
vn 0 -1 -0
v 0.0167586 -0.075 0.0169865
vt -0.659787 -0.668762
vt -0.498851 -0.782119
f 3/9/5 7/10/5 5/11/5

vt -0.302511 -0.50337
f 7/10/5 3/9/5 1/12/5

usemtl BackColor
vn -0 1 0
f 1/12/6 3/9/6 7/10/6

f 5/11/6 7/10/6 3/9/6

usemtl Color_M00
vt 0.042548 -2.14196
vn -0.575853 0 -0.817553
vt -0.154302 -2.95276
vt 0.042548 -2.95276
f 6/13/7 7/14/7 5/15/7

v 0.0167586 -0.0544057 0.0169865
vt -0.154302 -2.14196
f 7/14/7 6/13/7 8/16/7

vn 0.575853 -0 0.817553
f 5/15/8 7/14/8 6/13/8

f 8/16/8 6/13/8 7/14/8

v 0.0163089 -0.0544057 0.0120068
vt -0.642085 -0.472709
f 6/11/5 9/17/5 8/10/5

v 0.0117715 -0.0544057 0.00990633
vt -0.463447 -0.390013
f 6/11/5 10/18/5 9/17/5

f 2/9/5 10/18/5 6/11/5

f 10/18/5 2/9/5 4/12/5

f 4/12/6 2/9/6 10/18/6

f 4/4/2 1/1/2 2/2/2

vt -0.042548 -2.95276
vn 0.575853 0 0.817553
vt 0.154302 -2.14196
vt -0.042548 -2.14196
f 1/19/9 10/20/9 4/21/9

v 0.0117715 -0.075 0.00990633
vt 0.154302 -2.95276
f 10/20/9 1/19/9 11/22/9

vn -0.575853 -0 -0.817553
f 11/22/10 1/19/10 10/20/10

usemtl FrontColor
f 11/18/5 7/10/5 1/12/5

v 0.0163089 -0.075 0.0120068
f 7/10/5 11/18/5 12/17/5

usemtl BackColor
f 1/12/6 7/10/6 11/18/6

f 12/17/6 11/18/6 7/10/6

usemtl Color_M00
vt 0.781262 -2.14196
vn -0.420096 0 0.90748
vt 0.584411 -2.95276
vt 0.781262 -2.95276
f 9/23/11 11/24/11 12/25/11

vt 0.584411 -2.14196
f 11/24/11 9/23/11 10/26/11

vn 0.420096 -0 -0.90748
f 12/25/12 11/24/12 9/23/12

f 10/26/12 9/23/12 11/24/12

f 9/17/6 10/18/6 6/11/6

f 6/11/6 10/18/6 2/9/6

f 6/8/4 2/5/4 5/6/4

f 8/10/6 9/17/6 6/11/6

vt 0.528534 -2.14196
vn -0.995948 0 0.0899266
vt 0.725385 -2.95276
vt 0.725385 -2.14196
f 9/27/13 7/28/13 8/29/13

vt 0.528534 -2.95276
f 7/28/13 9/27/13 12/30/13

vn 0.995948 -0 -0.0899266
f 8/29/14 7/28/14 9/27/14

f 12/30/14 9/27/14 7/28/14

f 4/21/10 10/20/10 1/19/10

g Mesh2 Model

v -0.00599064 -0.075 -0.0180331
vt 0.235852 0.709964
vn -9.3315e-17 -1 4.31734e-17
v -0.00528996 -0.075 -0.00239009
vt 0.208266 0.0940981
v -0.00776459 -0.075 -0.00205602
vt 0.305692 0.0809458
f 13/31/15 14/32/15 15/33/15

v 0.0109826 -0.075 -0.0254712
vt -0.432386 1.0028
f 14/32/15 13/31/15 16/34/15

vn 9.3315e-17 1 -4.31734e-17
f 15/33/16 14/32/16 13/31/16

v 0.00328969 -0.075 0.00871537
vt -0.129515 -0.343125
vn 1.00089e-15 -1 -1.02717e-15
f 17/35/17 15/33/17 14/32/17

vn -1.00089e-15 1 1.02717e-15
f 14/32/18 15/33/18 17/35/18

usemtl FrontColor
v -0.0109846 -0.0575918 0.0114869
vt -0.489081 -1.58377
vn 0.107221 -0.59806 0.794247
vt -0.292115 -2.43892
vt -0.193805 -2.43892
f 18/36/19 15/37/19 14/38/19

v -0.0201551 -0.075 -0.000383335
vt -0.784356 -2.43892
f 15/37/19 18/36/19 19/39/19

usemtl Color_M00
vn -0.107221 0.59806 -0.794247
f 14/38/20 15/37/20 18/36/20

f 19/39/20 18/36/20 15/37/20

usemtl FrontColor
vt -0.28729 -2.80895
vn 0.741449 -0.59806 0.304267
vt -0.582565 -1.9538
v -0.0258498 -0.075 0.0134936
vt -0.877841 -2.80895
f 19/40/21 18/41/21 20/42/21

usemtl Color_M00
vn -0.741449 0.59806 -0.304267
f 20/42/22 18/41/22 19/40/22

usemtl FrontColor
vt -0.0934844 -2.18723
vn 0.634227 -0.59806 -0.48998
v -0.0166793 -0.075 0.0253639
vt -0.38876 -3.04239
vt 0.201791 -3.04239
f 18/43/23 21/44/23 20/45/23

usemtl Color_M00
vn -0.634227 0.59806 0.48998
f 20/45/24 21/44/24 18/43/24

vt 0.793509 0.0150919
vn -5.22552e-17 -1 1.14887e-16
vt 0.656666 -0.998578
vt 1.01771 -0.531246
f 19/46/25 21/47/25 20/48/25

f 21/47/25 19/46/25 15/33/25

vn 5.22552e-17 1 -1.14887e-16
f 20/48/26 21/47/26 19/46/26

f 15/33/26 19/46/26 21/47/26

v -0.00803564 -0.075 0.000385231
vt 0.316364 -0.0151666
f 21/47/25 15/33/25 22/49/25

f 22/49/26 15/33/26 21/47/26

usemtl FrontColor
vt 0.0467174 -2.64978
vn 0.834777 -0.542731 0.0926862
v 0.0089376 -0.0501636 -0.0070529
vt 0.314808 -1.48559
vt -0.0499856 -2.64978
f 15/50/27 23/51/27 22/52/27

vt 0.679601 -2.64978
f 23/51/27 15/50/27 13/53/27

usemtl Color_M00
vn -0.834777 0.542731 -0.0926862
f 22/52/28 23/51/28 15/50/28

usemtl FrontColor
vt -0.11893 -1.42422
vn 0.497657 -0.542731 -0.676595
vt -0.307639 -2.58841
vt 0.245864 -2.58841
f 23/54/29 17/55/29 22/56/29

v 0.00689259 -0.075 0.0113654
vt -0.483723 -2.58841
f 17/55/29 23/54/29 24/57/29

usemtl Color_M00
vn -0.497657 0.542731 0.676595
f 22/56/30 17/55/30 23/54/30

v -0.00181416 -0.075 0.0233571
vt 0.0714236 -0.919572
f 25/58/25 22/49/25 17/35/25

f 22/49/25 25/58/25 21/47/25

f 21/47/26 25/58/26 22/49/26

usemtl FrontColor
vt 0.489081 -2.05064
vn -0.107221 -0.59806 -0.794247
vt 0.193805 -2.90579
vt 0.784356 -2.90579
f 18/59/31 25/60/31 21/61/31

v 0.00388052 -0.075 0.00948013
vt 0.28729 -2.53576
vn -0.741449 -0.59806 -0.304267
vt 0.877841 -2.53576
vt 0.582565 -1.68061
f 26/62/32 25/63/32 18/64/32

usemtl Color_M00
vn 0.741449 0.59806 0.304267
f 18/64/33 25/63/33 26/62/33

vn 0.107221 0.59806 0.794247
f 21/61/34 25/60/34 18/59/34

vt -0.152776 -0.373234
f 25/58/25 17/35/25 26/65/25

f 17/35/26 22/49/26 25/58/26

vn 1.01568e-15 -1 -1.04236e-15
f 17/35/35 22/49/35 15/33/35

vn -1.01568e-15 1 1.04236e-15
f 15/33/36 22/49/36 17/35/36

f 26/65/26 17/35/26 25/58/26

usemtl FrontColor
vt 0.38876 -2.30233
vn -0.634227 -0.59806 0.48998
vt -0.201791 -2.30233
vt 0.350713 -2.30233
f 26/66/37 14/67/37 17/68/37

vt 0.0934844 -1.44718
f 14/67/37 26/66/37 18/69/37

usemtl Color_M00
vn 0.634227 0.59806 -0.48998
f 18/69/38 26/66/38 14/67/38

f 17/68/38 14/67/38 26/66/38

f 14/32/15 16/34/15 17/35/15

f 16/34/16 13/31/16 14/32/16

usemtl FrontColor
vt 0.433738 -1.72015
vn 0.33712 -0.542731 0.769281
vt 0.0689442 -2.88434
vt 0.798531 -2.88434
f 23/70/39 13/71/39 16/72/39

usemtl Color_M00
vn -0.33712 0.542731 -0.769281
f 16/72/40 13/71/40 23/70/40

f 13/53/28 15/50/28 23/51/28

usemtl FrontColor
vt 0.11893 -1.89332
vn -0.497657 -0.542731 0.676595
vt -0.245864 -3.05751
v 0.0259108 -0.075 -0.014491
vt 0.483723 -3.05751
f 23/73/41 16/74/41 27/75/41

usemtl Color_M00
vn 0.497657 0.542731 -0.676595
f 27/75/42 16/74/42 23/73/42

v 0.0238658 -0.075 0.00392729
vt -0.939599 -0.154618
vt -1.02011 0.570513
f 28/76/15 16/34/15 27/77/15

vt -0.271362 -0.447457
f 24/78/15 16/34/15 28/76/15

f 17/35/15 16/34/15 24/78/15

f 17/35/16 16/34/16 14/32/16

f 24/78/16 16/34/16 17/35/16

f 28/76/16 16/34/16 24/78/16

f 27/77/16 16/34/16 28/76/16

usemtl FrontColor
vt -0.679601 -2.99613
vn -0.834777 -0.542731 -0.0926862
vt 0.0499856 -2.99613
vt -0.314808 -1.83195
f 27/79/43 28/80/43 23/81/43

usemtl Color_M00
vn 0.834777 0.542731 0.0926862
f 23/81/44 28/80/44 27/79/44

usemtl FrontColor
vt -0.433738 -1.59739
vn -0.33712 -0.542731 -0.769281
vt -0.798531 -2.76158
vt -0.0689442 -2.76158
f 23/82/45 28/83/45 24/84/45

usemtl Color_M00
vn 0.33712 0.542731 0.769281
f 24/84/46 28/83/46 23/82/46

f 24/57/30 23/54/30 17/55/30

g Mesh3 Model

l 3 5

l 1 3

l 11 1

l 12 11

l 7 12

l 5 7

l 5 6

l 2 6

l 4 2

l 10 4

l 9 10

l 8 9

l 6 8

l 7 8

l 1 7

l 1 4

l 12 9

l 11 10

l 3 2

g Mesh4 Model

l 25 26

l 21 25

l 20 21

l 19 20

l 18 19

l 20 18

l 14 18

l 17 14

l 26 18

l 25 18

l 21 18

l 17 15

l 22 17

l 22 23

l 22 15

l 14 15

l 15 19

l 15 13

l 16 13

l 27 16

l 28 27

l 24 28

l 23 24

l 16 23

l 13 23

l 28 23

l 27 23

l 17 24

